<?xml version="1.0" encoding="UTF-8"?><svg xmlns="http://www.w3.org/2000/svg" xmlns:xlink="http://www.w3.org/1999/xlink" viewBox="0 0 1125 2436"><defs><style>.cls-1{fill:none;}.cls-2{clip-path:url(#clippath-1);}.cls-3{clip-path:url(#clippath-2);}.cls-4{fill:url(#Degradado_sin_nombre_3);}.cls-5{opacity:.2;}.cls-6{opacity:.1;}.cls-7{fill:#bcc3cf;}.cls-8{fill:url(#Degradado_sin_nombre_18);}.cls-9{fill:url(#Degradado_sin_nombre_13);}.cls-10{fill:#ebf0f2;}.cls-11{fill:#2b2d42;}.cls-12{clip-path:url(#clippath);}</style><clipPath id="clippath"><rect class="cls-1" x="-1625" y="195.51" width="1125" height="2240.49"/></clipPath><linearGradient id="Degradado_sin_nombre_13" x1="-1062.5" y1="2688.39" x2="-1062.5" y2="17.16" gradientUnits="userSpaceOnUse"><stop offset="0" stop-color="#ebf0f2"/><stop offset="1" stop-color="#8b97ac"/></linearGradient><clipPath id="clippath-1"><path class="cls-1" d="M934.88,1958.43H5.71L0,195.32h1019.46l5.42,1672.82c.16,49.82-40.18,90.29-90,90.29Z"/></clipPath><linearGradient id="Degradado_sin_nombre_18" x1="562.59" y1="2688.62" x2="562.59" y2="16.94" gradientUnits="userSpaceOnUse"><stop offset="0" stop-color="#8b97ac"/><stop offset="0" stop-color="#8894a9"/><stop offset=".12" stop-color="#6b7489"/><stop offset=".24" stop-color="#545a6f"/><stop offset=".37" stop-color="#41465b"/><stop offset=".52" stop-color="#34374c"/><stop offset=".7" stop-color="#2d2f44"/><stop offset="1" stop-color="#2b2d42"/></linearGradient><clipPath id="clippath-2"><rect class="cls-1" x="1625" y="195.51" width="1125" height="2240.49"/></clipPath><linearGradient id="Degradado_sin_nombre_3" x1="2187.5" y1="2688.39" x2="2187.5" y2="17.16" gradientUnits="userSpaceOnUse"><stop offset="0" stop-color="#8b97ac"/><stop offset="1" stop-color="#ebf0f2"/></linearGradient></defs><g id="Fondos"><rect class="cls-10" x="0" y="195.51" width="1125" height="2240.49"/><rect class="cls-7" y="0" width="1126.56" height="195.51"/><path class="cls-11" d="M0,195.51h1024.73v1672.86c0,49.71-40.36,90.06-90.06,90.06H0V195.51H0Z"/></g><g id="Textura"><g class="cls-6"><g class="cls-12"><path class="cls-9" d="M-2282.11,1372.74c-22.09,0-40-17.91-40-40,0-170.03,33.31-334.99,99-490.31,31.57-74.65,70.65-146.64,116.14-213.98,45.05-66.69,96.8-129.4,153.79-186.39s119.7-108.73,186.39-153.79c67.34-45.49,139.33-84.57,213.98-116.14,155.32-65.69,320.28-99,490.31-99,22.09,0,40,17.91,40,40s-17.91,40-40,40c-159.26,0-313.74,31.18-459.14,92.68-69.89,29.56-137.3,66.15-200.36,108.75-62.47,42.2-121.22,90.67-174.61,144.06-53.39,53.39-101.86,112.14-144.06,174.61-42.6,63.06-79.19,130.47-108.75,200.36-61.5,145.4-92.68,299.88-92.68,459.14,0,22.09-17.91,40-40,40ZM-1022.5,2552.35c0-22.09-17.91-40-40-40-161.38,0-317.75-31.99-464.76-95.08-70.64-30.31-138.68-67.81-202.23-111.46-62.97-43.25-122.05-92.88-175.59-147.52-15.46-15.78-40.79-16.04-56.57-.57-15.78,15.46-16.04,40.79-.57,56.57,57.15,58.32,120.22,111.3,187.44,157.47,67.86,46.61,140.52,86.66,215.97,119.03,157.04,67.39,324.03,101.56,496.31,101.56,22.09,0,40-17.91,40-40ZM-162.78,2214.29c55.67-56.81,106.18-119.15,150.13-185.29,44.39-66.81,82.51-138.12,113.28-211.96,64.02-153.58,96.48-316.52,96.48-484.29,0-22.09-17.91-40-40-40s-40,17.91-40,40c0,157.15-30.39,309.73-90.32,453.51-28.82,69.13-64.5,135.9-106.07,198.46-41.17,61.96-88.49,120.36-140.64,173.58-15.46,15.78-15.2,41.1.57,56.57,7.79,7.63,17.89,11.43,27.99,11.43s20.74-4.01,28.57-12ZM197.11,1332.74c0-173.7-34.71-341.94-103.17-500.06-32.88-75.94-73.54-149.02-120.85-217.2-46.87-67.55-100.64-130.83-159.8-188.07-15.88-15.36-41.2-14.94-56.56.93s-14.94,41.2.93,56.56c55.42,53.63,105.79,112.9,149.7,176.18,44.3,63.85,82.38,132.28,113.16,203.38,64.09,148.02,96.59,305.57,96.59,468.27,0,22.09,17.91,40,40,40s40-17.91,40-40ZM-616.68,2386.02c67.86-28.76,133.3-64.35,194.49-105.78,60.6-41.03,117.58-88.15,169.33-140.05,15.6-15.64,15.57-40.97-.08-56.57-15.64-15.6-40.97-15.57-56.57.08-48.15,48.28-101.16,92.12-157.54,130.3-56.91,38.53-117.76,71.63-180.85,98.37-131.28,55.63-270.77,83.84-414.61,83.84-22.09,0-40,17.91-40,40s17.91,40,40,40c154.62,0,304.62-30.34,445.82-90.18ZM80.95,1332.74c0-154.35-30.24-304.1-89.87-445.1-28.66-67.76-64.13-133.12-105.43-194.25-40.9-60.54-87.87-117.47-139.6-169.2-51.73-51.73-108.66-98.7-169.2-139.6-61.13-41.3-126.48-76.77-194.25-105.43-141-59.64-290.75-89.87-445.1-89.87-22.09,0-40,17.91-40,40s17.91,40,40,40c143.58,0,282.85,28.11,413.93,83.55,126.63,53.56,240.36,130.25,338.04,227.92,97.68,97.68,174.36,211.41,227.92,338.04C-27.16,1049.9.95,1189.16.95,1332.74c0,22.09,17.91,40,40,40s40-17.91,40-40ZM-1814.47,580.77c97.68-97.68,211.41-174.36,338.04-227.92,131.08-55.44,270.35-83.56,413.93-83.56,22.09,0,40-17.91,40-40s-17.91-40-40-40c-154.35,0-304.1,30.24-445.1,89.87-67.76,28.66-133.12,64.13-194.25,105.43-60.54,40.9-117.47,87.87-169.2,139.6-15.62,15.62-15.62,40.95,0,56.57,7.81,7.81,18.05,11.72,28.28,11.72s20.47-3.91,28.28-11.72ZM-1842.76,552.49-1814.47,2141.29c15.62-15.62,15.62-40.95,0-56.57-97.68-97.68-174.36-211.41-227.92-338.04-55.44-131.08-83.56-270.35-83.56-413.93,0-22.09-17.91-40-40-40s-40,17.91-40,40c0,154.35,30.24,304.1,89.87,445.1,28.66,67.76,64.13,133.12,105.43,194.25,40.9,60.54,87.87,117.47,139.6,169.2,7.81,7.81,18.05,11.72,28.28,11.72s20.47-3.91,28.28-11.72ZM-1022.5,2320.05c0-22.09-17.91-40-40-40-127.9,0-251.96-25.04-368.72-74.43-112.8-47.71-214.11-116.02-301.12-203.03-15.62-15.62-40.95-15.62-56.57,0-15.62,15.62-15.62,40.95,0,56.57,94.33,94.33,204.19,168.4,326.53,220.14,126.68,53.58,261.22,80.75,399.88,80.75,22.09,0,40-17.91,40-40ZM-335.22,2058.29c94.07-94.3,167.93-204.06,219.52-326.23,53.42-126.51,80.5-260.86,80.5-399.31s-27.17-273.21-80.75-399.88c-51.74-122.33-125.81-232.19-220.14-326.53-15.62-15.62-40.95-15.62-56.57,0s-15.62,40.95,0,56.57c87.01,87.01,155.32,188.32,203.03,301.12,49.39,116.76,74.43,240.82,74.43,368.72s-24.97,251.58-74.2,368.19c-47.57,112.65-115.68,213.87-202.46,300.85-15.6,15.64-15.57,40.97.07,56.57,7.81,7.79,18.03,11.68,28.25,11.68s20.51-3.92,28.32-11.75ZM-1732.34,662.9c87.01-87.01,188.32-155.32,301.12-203.03,116.76-49.39,240.82-74.43,368.72-74.43,22.09,0,40-17.91,40-40s-17.91-40-40-40c-138.67,0-273.21,27.17-399.88,80.75-122.33,51.74-232.19,125.81-326.53,220.14-15.62,15.62-15.62,40.95,0,56.57,7.81,7.81,18.05,11.72,28.28,11.72s20.47-3.91,28.28-11.72ZM-1732.34,2059.16c15.62-15.62,15.62-40.95,0-56.57-87.01-87.01-155.32-188.32-203.03-301.12-49.39-116.76-74.43-240.82-74.43-368.72s25.04-251.96,74.43-368.72c47.71-112.8,116.02-214.11,203.03-301.12,15.62-15.62,15.62-40.95,0-56.57s-40.95-15.62-56.57,0c-94.33,94.33-168.4,204.19-220.14,326.53-53.58,126.68-80.75,261.22-80.75,399.88s27.17,273.21,80.75,399.88c51.74,122.33,125.81,232.19,220.14,326.53,7.81,7.81,18.05,11.72,28.28,11.72s20.47-3.91,28.28-11.72ZM-707.25,2172.03c108.66-46.05,206.2-111.95,289.9-195.88,15.6-15.64,15.57-40.97-.08-56.57-15.64-15.6-40.97-15.57-56.57.08-76.38,76.58-165.36,136.71-264.47,178.71-102.59,43.48-211.61,65.52-324.03,65.52s-221.07-21.97-323.51-65.3c-98.97-41.86-187.86-101.79-264.2-178.14-15.62-15.62-40.95-15.62-56.57,0-15.62,15.62-15.62,40.95,0,56.57,83.67,83.67,181.1,149.36,289.61,195.25,112.36,47.52,231.69,71.62,354.67,71.62s242.72-24.18,355.25-71.86ZM-151.35,1332.74c0-122.99-24.1-242.32-71.62-354.67-45.89-108.5-111.58-205.94-195.25-289.61-83.67-83.67-181.1-149.36-289.61-195.25-112.36-47.52-231.69-71.62-354.67-71.62-22.09,0-40,17.91-40,40s17.91,40,40,40c112.22,0,221.07,21.97,323.51,65.3,98.97,41.86,187.86,101.79,264.2,178.14,76.34,76.34,136.28,165.23,178.14,264.2,43.33,102.44,65.3,211.29,65.3,323.51,0,22.09,17.91,40,40,40s40-17.91,40-40ZM-1650.21,745.04c76.34-76.34,165.23-136.28,264.2-178.14,102.44-43.33,211.29-65.3,323.51-65.3,22.09,0,40-17.91,40-40s-17.91-40-40-40c-122.99,0-242.32,24.1-354.67,71.62-108.5,45.89-205.94,111.58-289.61,195.25-15.62,15.62-15.62,40.95,0,56.57,7.81,7.81,18.05,11.71,28.28,11.71s20.47-3.91,28.28-11.71ZM-501.14,826.29c15.6-15.64,15.56-40.97-.09-56.57-72.96-72.74-157.88-129.84-252.39-169.73-97.87-41.3-201.79-62.25-308.88-62.25-22.09,0-40,17.91-40,40s17.91,40,40,40c96.35,0,189.8,18.82,277.78,55.95,84.99,35.87,161.37,87.24,227.01,152.68,7.81,7.78,18.02,11.67,28.24,11.67s20.51-3.92,28.33-11.76ZM-1568.08,1894.89c15.62-15.62,15.62-40.95,0-56.57-65.68-65.68-117.24-142.15-153.25-227.28-37.27-88.12-56.17-181.76-56.17-278.3s18.9-190.17,56.17-278.29c36.01-85.14,87.57-161.61,153.25-227.28,15.62-15.62,15.62-40.95,0-56.57-15.62-15.62-40.95-15.62-56.57,0-73,73-130.31,158.01-170.36,252.69-41.47,98.04-62.49,202.15-62.49,309.46s21.03,211.42,62.49,309.46c40.04,94.67,97.36,179.69,170.36,252.69,7.81,7.81,18.05,11.72,28.28,11.72s20.47-3.91,28.28-11.72ZM-753.04,2065.25c94.67-40.04,179.69-97.36,252.69-170.36s130.31-158.01,170.36-252.69c41.47-98.04,62.49-202.16,62.49-309.46,0-22.09-17.91-40-40-40s-40,17.91-40,40c0,96.54-18.9,190.17-56.17,278.3-36.01,85.14-87.57,161.61-153.25,227.28-65.68,65.68-142.15,117.24-227.28,153.25-88.12,37.27-181.75,56.17-278.3,56.17-22.09,0-40,17.91-40,40s17.91,40,40,40c107.31,0,211.42-21.03,309.46-62.49ZM-797.67,1957.98c81-34.35,153.7-83.51,216.06-146.1,15.59-15.65,15.55-40.98-.1-56.57-15.65-15.59-40.98-15.55-56.57.1-55.04,55.24-119.18,98.62-190.62,128.92-73.95,31.36-152.54,47.26-233.6,47.26-22.09,0-40,17.91-40,40s17.91,40,40,40c91.84,0,180.95-18.04,264.83-53.61ZM-383.66,1332.74c0-91.62-17.95-180.53-53.36-264.25-34.19-80.84-83.13-153.43-145.46-215.76-15.62-15.62-40.95-15.62-56.57,0s-15.62,40.95,0,56.57c55.01,55.01,98.19,119.06,128.35,190.36,31.22,73.8,47.04,152.22,47.04,233.08,0,22.09,17.91,40,40,40s40-17.91,40-40ZM-582.49,909.3c15.62-15.62,15.62-40.95,0-56.57-62.33-62.33-134.92-111.27-215.77-145.46-83.72-35.41-172.62-53.36-264.25-53.36s-180.53,17.95-264.25,53.36c-80.84,34.19-153.43,83.13-215.77,145.46-15.62,15.62-15.62,40.95,0,56.57,15.62,15.62,40.95,15.62,56.57,0,55.01-55.01,119.06-98.19,190.36-128.35,73.8-31.22,152.22-47.04,233.08-47.04s159.28,15.83,233.08,47.04c71.3,30.16,135.35,73.34,190.36,128.35,7.81,7.81,18.05,11.72,28.28,11.72s20.47-3.91,28.28-11.72ZM-1022.5,1971.59c0-22.09-17.91-40-40-40-80.86,0-159.28-15.83-233.08-47.04-71.3-30.16-135.35-73.34-190.36-128.35-55.01-55.01-98.19-119.06-128.35-190.36-31.22-73.8-47.04-152.22-47.04-233.08,0-22.09-17.91-40-40-40s-40,17.91-40,40c0,91.62,17.95,180.53,53.36,264.25,34.19,80.84,83.13,153.43,145.46,215.77,62.33,62.33,134.92,111.27,215.77,145.46,83.72,35.41,172.62,53.36,264.25,53.36,22.09,0,40-17.91,40-40ZM-1545.19,1332.74c0-65.18,12.76-128.39,37.92-187.87,24.31-57.47,59.12-109.1,103.46-153.44,15.62-15.62,15.62-40.95,0-56.57-15.62-15.62-40.95-15.62-56.57,0-51.66,51.66-92.23,111.83-120.57,178.84-29.35,69.4-44.24,143.09-44.24,219.04,0,22.09,17.91,40,40,40s40-17.91,40-40ZM-842.87,1850.95c67.17-28.5,127.45-69.29,179.15-121.22,15.59-15.66,15.53-40.98-.13-56.57-15.65-15.58-40.98-15.53-56.57.13-44.37,44.57-96.09,79.57-153.7,104.01-59.63,25.3-123.01,38.13-188.38,38.13s-128.39-12.76-187.87-37.92c-57.47-24.31-109.1-59.12-153.44-103.46-15.62-15.62-40.95-15.62-56.57,0-15.62,15.62-15.62,40.95,0,56.57,51.66,51.66,111.84,92.23,178.84,120.57,69.4,29.35,143.09,44.24,219.04,44.24s150.06-14.97,219.63-44.49ZM-663.73,1729.73c51.4-51.63,91.75-111.7,119.93-178.54,29.19-69.23,43.99-142.72,43.99-218.45,0-22.09-17.91-40-40-40s-40,17.91-40,40c0,64.99-12.68,128.03-37.7,187.37-24.17,57.33-58.8,108.87-102.91,153.18-15.59,15.66-15.53,40.98.13,56.57,7.81,7.77,18.01,11.65,28.22,11.65s20.53-3.93,28.35-11.78ZM-499.81,1332.74c0-75.94-14.88-149.64-44.24-219.04-28.34-67.01-68.91-127.18-120.57-178.84s-111.84-92.23-178.84-120.57c-69.4-29.35-143.09-44.24-219.04-44.24-22.09,0-40,17.91-40,40s17.91,40,40,40c65.18,0,128.39,12.76,187.87,37.92,57.47,24.31,109.1,59.12,153.44,103.46s79.15,95.97,103.46,153.44c25.16,59.48,37.92,122.69,37.92,187.87,0,22.09,17.91,40,40,40s40-17.91,40-40ZM-1429.04,1332.74c0-97.91,38.13-189.95,107.36-259.18,69.23-69.23,161.27-107.36,259.18-107.36,22.09,0,40-17.91,40-40s-17.91-40-40-40c-60.26,0-118.75,11.81-173.82,35.11-53.18,22.49-100.93,54.68-141.92,95.68s-73.19,88.75-95.68,141.92c-23.3,55.08-35.11,113.56-35.11,173.82,0,22.09,17.91,40,40,40s40-17.91,40-40ZM-1321.68,1648.49c15.62-15.62,15.62-40.95,0-56.57-69.23-69.23-107.36-161.28-107.36-259.18,0-22.09-17.91-40-40-40s-40,17.91-40,40c0,60.26,11.81,118.75,35.11,173.82,22.49,53.18,54.68,100.93,95.68,141.92,7.81,7.81,18.05,11.72,28.28,11.72s20.47-3.91,28.28-11.72ZM-1349.96,1620.21-888.68,1744.17c53.18-22.49,100.93-54.68,141.92-95.68,41-41,73.19-88.75,95.68-141.92,23.3-55.08,35.11-113.56,35.11-173.82,0-22.09-17.91-40-40-40s-40,17.91-40,40c0,97.91-38.13,189.95-107.36,259.18s-161.27,107.36-259.18,107.36c-22.09,0-40,17.91-40,40s17.91,40,40,40c60.26,0,118.75-11.81,173.82-35.11ZM-933.89,1637.15c39.35-16.64,74.67-40.46,105-70.79,30.33-30.33,54.15-65.66,70.79-105,17.24-40.76,25.98-84.03,25.98-128.61,0-22.09-17.91-40-40-40s-40,17.91-40,40c0,66.88-26.04,129.76-73.34,177.05-47.29,47.29-110.17,73.33-177.05,73.33s-129.76-26.04-177.05-73.33c-15.62-15.62-40.95-15.62-56.57,0-15.62,15.62-15.62,40.95,0,56.57,30.33,30.33,65.66,54.15,105,70.79,40.76,17.24,84.03,25.98,128.61,25.98s87.85-8.74,128.61-25.98ZM-732.12,1332.74c0-44.58-8.74-87.85-25.98-128.61-16.64-39.35-40.46-74.67-70.79-105s-65.66-54.14-105-70.79c-40.76-17.24-84.03-25.98-128.61-25.98-22.09,0-40,17.91-40,40s17.91,40,40,40c66.88,0,129.76,26.04,177.05,73.33,47.29,47.29,73.33,110.17,73.33,177.05,0,22.09,17.91,40,40,40s40-17.91,40-40ZM-1239.55,1566.36c15.62-15.62,15.62-40.95,0-56.57-47.29-47.29-73.34-110.17-73.34-177.05s26.04-129.76,73.34-177.05c15.62-15.62,15.62-40.95,0-56.57s-40.95-15.62-56.57,0c-30.33,30.33-54.15,65.66-70.79,105-17.24,40.76-25.98,84.03-25.98,128.61s8.74,87.86,25.98,128.61c16.64,39.35,40.46,74.67,70.79,105,7.81,7.81,18.05,11.72,28.28,11.72s20.47-3.91,28.28-11.72ZM-910,1483.21c39.81-40.34,61.73-93.78,61.73-150.46s-22.65-111.92-63.77-152.5c-15.73-15.52-41.05-15.35-56.57.38-15.52,15.73-15.35,41.05.38,56.57,25.77,25.42,39.96,59.36,39.96,95.55s-13.74,69-38.68,94.27c-15.52,15.72-15.35,41.05.38,56.57,7.79,7.69,17.94,11.53,28.09,11.53s20.65-3.97,28.47-11.91ZM-1196.73,1332.74c0-74.01,60.22-134.23,134.23-134.23,35.52,0,69,13.74,94.27,38.68,15.72,15.52,41.05,15.35,56.57-.38,15.52-15.73,15.35-41.05-.38-56.57-40.34-39.81-93.78-61.73-150.46-61.73s-111.02,22.28-151.48,62.75c-40.46,40.46-62.75,94.26-62.75,151.48,0,22.09,17.91,40,40,40s40-17.91,40-40ZM-1157.41,1484.23c15.62-15.62,15.62-40.95,0-56.57-25.35-25.35-39.31-59.06-39.31-94.92,0-22.09-17.91-40-40-40s-40,17.91-40,40c0,57.22,22.28,111.02,62.75,151.48,7.81,7.81,18.05,11.72,28.28,11.72s20.47-3.91,28.28-11.72ZM-1062.5,1274.67-964.42,1332.74c0-22.09-17.91-40-40-40s-40,17.91-40,40c0,9.97-8.11,18.08-18.08,18.08s-18.08-8.11-18.08-18.08c0-22.09-17.91-40-40-40s-40,17.91-40,40c0,54.08,44,98.08,98.08,98.08s98.08-44,98.08-98.08Z"/></g></g><g class="cls-5"><g class="cls-2"><path class="cls-8" d="M-657.22,1372.75c-22.1,0-40.01-17.91-40.01-40.01,0-170.06,33.31-335.05,99.02-490.39,31.58-74.66,70.66-146.66,116.16-214.01,45.06-66.7,96.81-129.42,153.81-186.42,57-57,119.72-108.75,186.42-153.81C-74.46,242.61-2.45,203.53,72.2,171.95c155.34-65.7,320.33-99.02,490.39-99.02,22.1,0,40.01,17.91,40.01,40.01s-17.91,40.01-40.01,40.01c-159.29,0-313.79,31.19-459.22,92.7-69.9,29.57-137.32,66.16-200.39,108.77-62.48,42.21-121.24,90.69-174.64,144.09-53.4,53.4-101.88,112.15-144.09,174.64-42.61,63.07-79.2,130.49-108.77,200.39-61.51,145.43-92.7,299.93-92.7,459.22,0,22.09-17.91,40.01-40.01,40.01ZM602.6,2552.56c0-22.1-17.91-40.01-40.01-40.01-161.4,0-317.8-31.99-464.84-95.09-70.65-30.32-138.7-67.82-202.26-111.48-62.98-43.26-122.07-92.9-175.62-147.55-15.46-15.78-40.79-16.04-56.58-.57-15.78,15.46-16.04,40.79-.57,56.57,57.16,58.33,120.24,111.32,187.47,157.5,67.87,46.62,140.55,86.67,216.01,119.05,157.07,67.4,324.08,101.58,496.4,101.58,22.1,0,40.01-17.91,40.01-40.01ZM1462.46,2214.44c55.68-56.82,106.2-119.17,150.15-185.33,44.4-66.82,82.52-138.14,113.3-211.99,64.03-153.6,96.49-316.57,96.49-484.37,0-22.1-17.91-40.01-40.01-40.01s-40.01,17.91-40.01,40.01c0,157.18-30.39,309.79-90.33,453.59-28.82,69.14-64.52,135.93-106.09,198.5-41.18,61.97-88.5,120.38-140.66,173.61-15.46,15.78-15.21,41.11.57,56.57,7.79,7.63,17.89,11.43,28,11.43s20.74-4.01,28.58-12.01ZM1822.41,1332.75c0-173.73-34.72-342-103.19-500.14-32.89-75.96-73.55-149.05-120.87-217.24-46.88-67.56-100.65-130.85-159.82-188.1-15.88-15.36-41.21-14.95-56.57.93-15.36,15.88-14.95,41.21.93,56.57,55.43,53.64,105.81,112.92,149.72,176.21,44.31,63.86,82.39,132.3,113.18,203.42,64.1,148.05,96.6,305.62,96.6,468.35,0,22.1,17.91,40.01,40.01,40.01s40.01-17.91,40.01-40.01ZM1008.49,2386.19c67.87-28.76,133.32-64.36,194.52-105.8,60.61-41.04,117.59-88.17,169.36-140.07,15.6-15.65,15.57-40.98-.08-56.58-15.65-15.6-40.98-15.57-56.58.08-48.16,48.29-101.17,92.14-157.56,130.32-56.92,38.54-117.78,71.64-180.88,98.38-131.3,55.64-270.82,83.86-414.68,83.86-22.1,0-40.01,17.91-40.01,40.01s17.91,40.01,40.01,40.01c154.65,0,304.67-30.35,445.9-90.2ZM1706.24,1332.75c0-154.37-30.24-304.15-89.89-445.17-28.67-67.77-64.15-133.14-105.45-194.28-40.91-60.55-87.88-117.49-139.63-169.23-51.74-51.74-108.68-98.72-169.23-139.63-61.14-41.31-126.51-76.78-194.28-105.45-141.02-59.65-290.8-89.89-445.17-89.89-22.1,0-40.01,17.91-40.01,40.01s17.91,40.01,40.01,40.01c143.61,0,282.9,28.12,414,83.57,126.65,53.57,240.4,130.27,338.1,227.96,97.69,97.7,174.39,211.45,227.96,338.1,55.45,131.1,83.57,270.39,83.57,414,0,22.09,17.91,40.01,40.01,40.01s40.01-17.91,40.01-40.01ZM-189.51,580.65c97.7-97.69,211.45-174.39,338.1-227.96,131.1-55.45,270.39-83.57,414-83.57,22.1,0,40.01-17.91,40.01-40.01s-17.91-40.01-40.01-40.01c-154.37,0-304.15,30.24-445.17,89.89-67.77,28.67-133.14,64.15-194.28,105.45-60.55,40.91-117.49,87.88-169.23,139.63-15.62,15.62-15.62,40.95,0,56.58,7.81,7.81,18.05,11.72,28.29,11.72s20.48-3.91,28.29-11.72ZM-217.8,552.36-189.51,2141.43c15.62-15.62,15.62-40.95,0-56.58-97.69-97.7-174.39-211.45-227.96-338.1-55.45-131.1-83.57-270.39-83.57-414,0-22.1-17.91-40.01-40.01-40.01s-40.01,17.91-40.01,40.01c0,154.37,30.24,304.15,89.89,445.17,28.67,67.77,64.14,133.14,105.45,194.28,40.91,60.55,87.88,117.49,139.63,169.23,7.81,7.81,18.05,11.72,28.29,11.72s20.48-3.91,28.29-11.72ZM602.6,2320.21c0-22.1-17.91-40.01-40.01-40.01-127.92,0-252-25.05-368.78-74.44-112.82-47.72-214.15-116.04-301.17-203.06-15.62-15.62-40.95-15.62-56.58,0-15.62,15.62-15.62,40.95,0,56.58,94.35,94.35,204.23,168.43,326.58,220.18,126.7,53.59,261.26,80.76,399.95,80.76,22.1,0,40.01-17.91,40.01-40.01ZM1289.99,2058.41c94.09-94.31,167.96-204.09,219.56-326.29,53.43-126.53,80.52-260.9,80.52-399.38s-27.17-273.25-80.76-399.95c-51.75-122.36-125.83-232.23-220.18-326.58-15.62-15.62-40.95-15.62-56.58,0s-15.62,40.95,0,56.58c87.03,87.03,155.35,188.35,203.06,301.17,49.39,116.78,74.44,240.86,74.44,368.78s-24.97,251.62-74.22,368.25c-47.57,112.67-115.7,213.91-202.49,300.9-15.6,15.64-15.57,40.97.07,56.58,7.81,7.79,18.03,11.68,28.25,11.68s20.51-3.92,28.32-11.75ZM-107.36,662.79c87.03-87.03,188.36-155.35,301.17-203.06,116.78-49.39,240.86-74.44,368.78-74.44,22.1,0,40.01-17.91,40.01-40.01s-17.91-40.01-40.01-40.01c-138.69,0-273.25,27.17-399.95,80.76-122.36,51.75-232.23,125.83-326.58,220.18-15.62,15.62-15.62,40.95,0,56.58,7.81,7.81,18.05,11.72,28.29,11.72s20.48-3.91,28.29-11.72ZM-107.36,2059.28c15.62-15.62,15.62-40.95,0-56.58-87.03-87.03-155.35-188.36-203.06-301.17-49.39-116.78-74.44-240.86-74.44-368.78s25.04-252,74.44-368.78c47.72-112.82,116.04-214.15,203.06-301.17,15.62-15.62,15.62-40.95,0-56.58-15.62-15.62-40.95-15.62-56.58,0-94.35,94.35-168.43,204.23-220.18,326.58-53.59,126.7-80.76,261.26-80.76,399.95s27.17,273.25,80.76,399.95c51.75,122.36,125.83,232.23,220.18,326.58,7.81,7.81,18.05,11.72,28.29,11.72s20.48-3.91,28.29-11.72ZM917.9,2172.17c108.68-46.06,206.23-111.97,289.95-195.91,15.6-15.64,15.57-40.97-.08-56.58-15.64-15.6-40.98-15.57-56.58.08-76.39,76.59-165.38,136.73-264.51,178.74-102.61,43.48-211.65,65.53-324.09,65.53s-221.1-21.97-323.56-65.31c-98.98-41.87-187.89-101.81-264.25-178.17-15.62-15.62-40.95-15.62-56.58,0-15.62,15.62-15.62,40.95,0,56.58,83.68,83.68,181.13,149.38,289.66,195.28,112.38,47.53,231.72,71.63,354.73,71.63s242.76-24.18,355.3-71.87ZM1473.89,1332.75c0-123.01-24.1-242.36-71.63-354.73-45.9-108.52-111.6-205.98-195.28-289.65-83.68-83.68-181.13-149.38-289.65-195.28-112.38-47.53-231.72-71.63-354.73-71.63-22.1,0-40.01,17.91-40.01,40.01s17.91,40.01,40.01,40.01c112.24,0,221.1,21.97,323.56,65.31,98.98,41.87,187.89,101.81,264.25,178.17,76.36,76.36,136.3,165.26,178.17,264.25,43.34,102.46,65.31,211.32,65.31,323.56,0,22.1,17.91,40.01,40.01,40.01s40.01-17.91,40.01-40.01ZM-25.21,744.94c76.36-76.36,165.26-136.3,264.25-178.17,102.46-43.34,211.32-65.31,323.56-65.31,22.1,0,40.01-17.91,40.01-40.01s-17.91-40.01-40.01-40.01c-123.01,0-242.36,24.1-354.73,71.63-108.52,45.9-205.98,111.6-289.65,195.28-15.62,15.62-15.62,40.95,0,56.58,7.81,7.81,18.05,11.72,28.29,11.72s20.48-3.91,28.29-11.72ZM1124.05,826.21c15.6-15.65,15.56-40.98-.09-56.58-72.98-72.75-157.91-129.86-252.43-169.76-97.89-41.31-201.83-62.26-308.93-62.26-22.1,0-40.01,17.91-40.01,40.01s17.91,40.01,40.01,40.01c96.36,0,189.84,18.83,277.82,55.96,85.01,35.87,161.4,87.25,227.05,152.71,7.81,7.78,18.03,11.67,28.24,11.67s20.52-3.92,28.33-11.76ZM56.93,1894.99c15.62-15.62,15.62-40.95,0-56.58-65.69-65.69-117.26-142.17-153.27-227.32-37.28-88.14-56.18-181.79-56.18-278.34s18.9-190.2,56.18-278.34c36.02-85.15,87.58-161.63,153.27-227.32,15.62-15.62,15.62-40.95,0-56.58-15.62-15.62-40.95-15.62-56.58,0-73.01,73.01-130.34,158.04-170.39,252.73-41.47,98.05-62.5,202.19-62.5,309.51s21.03,211.46,62.5,309.51c40.05,94.69,97.38,179.72,170.39,252.73,7.81,7.81,18.05,11.72,28.29,11.72s20.48-3.91,28.29-11.72ZM872.11,2065.37c94.69-40.05,179.72-97.38,252.73-170.39,73.01-73.01,130.34-158.04,170.39-252.73,41.47-98.05,62.5-202.19,62.5-309.51,0-22.1-17.91-40.01-40.01-40.01s-40.01,17.91-40.01,40.01c0,96.56-18.9,190.21-56.18,278.34-36.02,85.15-87.58,161.63-153.27,227.32-65.69,65.69-142.17,117.26-227.32,153.27-88.14,37.28-181.78,56.18-278.34,56.18-22.1,0-40.01,17.91-40.01,40.01s17.91,40.01,40.01,40.01c107.32,0,211.46-21.03,309.51-62.5ZM827.47,1958.08c81.02-34.36,153.72-83.52,216.1-146.13,15.59-15.65,15.55-40.98-.1-56.58-15.65-15.6-40.98-15.55-56.58.1-55.05,55.25-119.2,98.63-190.66,128.94-73.96,31.37-152.57,47.27-233.64,47.27-22.1,0-40.01,17.91-40.01,40.01s17.91,40.01,40.01,40.01c91.86,0,180.98-18.04,264.88-53.62ZM1241.55,1332.75c0-91.64-17.96-180.56-53.37-264.29-34.2-80.85-83.15-153.46-145.49-215.8-15.62-15.62-40.95-15.62-56.58,0-15.62,15.62-15.62,40.95,0,56.58,55.02,55.02,98.21,119.08,128.37,190.39,31.22,73.81,47.05,152.25,47.05,233.12,0,22.1,17.91,40.01,40.01,40.01s40.01-17.91,40.01-40.01ZM1042.69,909.23c15.62-15.62,15.62-40.95,0-56.58-62.34-62.34-134.95-111.29-215.8-145.49-83.73-35.42-172.65-53.37-264.29-53.37s-180.56,17.96-264.29,53.37c-80.85,34.2-153.46,83.15-215.8,145.49-15.62,15.62-15.62,40.95,0,56.58,15.62,15.62,40.95,15.62,56.58,0,55.02-55.02,119.08-98.21,190.39-128.37,73.81-31.22,152.25-47.05,233.12-47.05s159.31,15.83,233.12,47.05c71.32,30.16,135.37,73.36,190.39,128.37,7.81,7.81,18.05,11.72,28.29,11.72s20.48-3.91,28.29-11.72ZM602.6,1971.7c0-22.1-17.91-40.01-40.01-40.01-80.87,0-159.31-15.83-233.12-47.05-71.32-30.16-135.37-73.36-190.39-128.37-55.02-55.02-98.21-119.08-128.37-190.39-31.22-73.82-47.05-152.25-47.05-233.12,0-22.1-17.91-40.01-40.01-40.01s-40.01,17.91-40.01,40.01c0,91.64,17.96,180.56,53.37,264.29,34.2,80.85,83.15,153.46,145.49,215.8,62.34,62.34,134.95,111.29,215.8,145.49,83.73,35.42,172.65,53.37,264.29,53.37,22.1,0,40.01-17.91,40.01-40.01ZM79.83,1332.75c0-65.19,12.76-128.41,37.92-187.9,24.31-57.48,59.13-109.12,103.48-153.47,15.62-15.62,15.62-40.95,0-56.58-15.62-15.62-40.95-15.62-56.58,0-51.67,51.67-92.25,111.85-120.59,178.87C14.7,1183.08-.19,1256.79-.19,1332.75c0,22.1,17.91,40.01,40.01,40.01s40.01-17.91,40.01-40.01ZM782.26,1851.04c67.18-28.51,127.47-69.3,179.18-121.24,15.59-15.66,15.53-40.99-.13-56.58-15.66-15.59-40.99-15.53-56.58.13-44.38,44.58-96.1,79.58-153.73,104.03-59.64,25.31-123.03,38.14-188.41,38.14s-128.41-12.76-187.9-37.92c-57.48-24.31-109.12-59.13-153.47-103.48-15.62-15.62-40.95-15.62-56.58,0-15.62,15.62-15.62,40.95,0,56.58,51.67,51.67,111.85,92.24,178.87,120.59,69.41,29.36,143.12,44.24,219.07,44.24s150.08-14.97,219.66-44.49ZM961.43,1729.8c51.41-51.63,91.76-111.71,119.95-178.57,29.19-69.24,43.99-142.75,43.99-218.48,0-22.1-17.91-40.01-40.01-40.01s-40.01,17.91-40.01,40.01c0,65-12.69,128.05-37.71,187.4-24.18,57.34-58.81,108.89-102.93,153.21-15.59,15.66-15.53,40.99.13,56.58,7.81,7.77,18.02,11.65,28.23,11.65s20.54-3.93,28.35-11.78ZM1125.38,1332.75c0-75.96-14.89-149.66-44.24-219.07-28.35-67.02-68.92-127.2-120.59-178.87-51.67-51.67-111.85-92.24-178.87-120.59-69.41-29.36-143.11-44.24-219.07-44.24-22.1,0-40.01,17.91-40.01,40.01s17.91,40.01,40.01,40.01c65.19,0,128.41,12.76,187.9,37.92,57.48,24.31,109.12,59.13,153.47,103.48,44.35,44.35,79.16,95.98,103.48,153.47,25.16,59.49,37.92,122.71,37.92,187.9,0,22.1,17.91,40.01,40.01,40.01s40.01-17.91,40.01-40.01ZM196,1332.75c0-97.92,38.13-189.98,107.37-259.22,69.24-69.24,161.3-107.37,259.22-107.37,22.1,0,40.01-17.91,40.01-40.01s-17.91-40.01-40.01-40.01c-60.27,0-118.77,11.81-173.85,35.11-53.19,22.5-100.94,54.69-141.95,95.7s-73.2,88.76-95.7,141.95c-23.3,55.09-35.11,113.58-35.11,173.85,0,22.1,17.91,40.01,40.01,40.01s40.01-17.91,40.01-40.01ZM303.37,1648.55c15.62-15.62,15.62-40.95,0-56.58-69.24-69.24-107.37-161.3-107.37-259.22,0-22.1-17.91-40.01-40.01-40.01s-40.01,17.91-40.01,40.01c0,60.27,11.81,118.77,35.11,173.85,22.5,53.19,54.69,100.94,95.7,141.95,7.81,7.81,18.05,11.72,28.29,11.72s20.48-3.91,28.29-11.72ZM275.08,1620.26,736.45,1744.25c53.19-22.5,100.95-54.69,141.95-95.7,41-41,73.2-88.76,95.7-141.95,23.3-55.09,35.11-113.58,35.11-173.85,0-22.1-17.91-40.01-40.01-40.01s-40.01,17.91-40.01,40.01c0,97.92-38.13,189.98-107.37,259.22-69.24,69.24-161.3,107.37-259.22,107.37-22.1,0-40.01,17.91-40.01,40.01s17.91,40.01,40.01,40.01c60.27,0,118.77-11.81,173.85-35.11ZM691.23,1637.2c39.35-16.65,74.69-40.47,105.02-70.8,30.33-30.33,54.15-65.67,70.8-105.02,17.24-40.76,25.98-84.04,25.98-128.63,0-22.1-17.91-40.01-40.01-40.01s-40.01,17.91-40.01,40.01c0,66.89-26.05,129.78-73.35,177.08-47.3,47.3-110.19,73.35-177.08,73.35s-129.78-26.05-177.08-73.35c-15.62-15.62-40.95-15.62-56.58,0-15.62,15.62-15.62,40.95,0,56.58,30.33,30.33,65.67,54.15,105.02,70.8,40.76,17.24,84.04,25.98,128.63,25.98s87.87-8.74,128.63-25.98ZM893.03,1332.75c0-44.59-8.74-87.87-25.98-128.63-16.64-39.35-40.47-74.69-70.8-105.02-30.33-30.33-65.67-54.15-105.02-70.8-40.76-17.24-84.04-25.98-128.63-25.98-22.1,0-40.01,17.91-40.01,40.01s17.91,40.01,40.01,40.01c66.89,0,129.78,26.05,177.08,73.35,47.3,47.3,73.35,110.19,73.35,177.08,0,22.1,17.91,40.01,40.01,40.01s40.01-17.91,40.01-40.01ZM385.52,1566.4c15.62-15.62,15.62-40.95,0-56.58-47.3-47.3-73.35-110.19-73.35-177.08s26.05-129.78,73.35-177.08c15.62-15.62,15.62-40.95,0-56.58s-40.95-15.62-56.58,0c-30.33,30.33-54.15,65.67-70.8,105.02-17.24,40.76-25.98,84.04-25.98,128.63s8.74,87.87,25.98,128.63c16.64,39.35,40.47,74.69,70.8,105.02,7.81,7.81,18.05,11.72,28.29,11.72s20.48-3.91,28.29-11.72ZM715.12,1483.23c39.81-40.35,61.74-93.79,61.74-150.49s-22.65-111.94-63.78-152.52c-15.73-15.52-41.06-15.35-56.58.38-15.52,15.73-15.35,41.06.38,56.58,25.77,25.43,39.96,59.37,39.96,95.57s-13.74,69.01-38.68,94.29c-15.52,15.73-15.35,41.06.38,56.58,7.8,7.69,17.95,11.53,28.1,11.53s20.65-3.98,28.48-11.91ZM428.34,1332.75c0-74.03,60.23-134.25,134.25-134.25,35.52,0,69.01,13.74,94.29,38.68,15.73,15.52,41.06,15.35,56.58-.38,15.52-15.73,15.35-41.06-.38-56.58-40.35-39.81-93.79-61.74-150.49-61.74s-111.04,22.29-151.51,62.76c-40.47,40.47-62.76,94.28-62.76,151.51,0,22.1,17.91,40.01,40.01,40.01s40.01-17.91,40.01-40.01ZM467.66,1484.26c15.62-15.62,15.62-40.95,0-56.58-25.36-25.36-39.32-59.07-39.32-94.93,0-22.1-17.91-40.01-40.01-40.01s-40.01,17.91-40.01,40.01c0,57.23,22.29,111.04,62.76,151.51,7.81,7.81,18.05,11.72,28.29,11.72s20.48-3.91,28.29-11.72ZM562.59,1274.66,660.69,1332.75c0-22.1-17.91-40.01-40.01-40.01s-40.01,17.91-40.01,40.01c0,9.97-8.11,18.08-18.08,18.08s-18.08-8.11-18.08-18.08c0-22.1-17.91-40.01-40.01-40.01s-40.01,17.91-40.01,40.01c0,54.09,44,98.09,98.09,98.09s98.09-44,98.09-98.09Z"/></g></g><g class="cls-6"><g class="cls-3"><path class="cls-4" d="M967.89,1372.74c-22.09,0-40-17.91-40-40,0-170.03,33.31-334.99,99-490.31,31.57-74.65,70.65-146.64,116.14-213.98,45.05-66.69,96.8-129.4,153.79-186.39s119.7-108.73,186.39-153.79c67.34-45.49,139.33-84.57,213.98-116.14,155.32-65.69,320.28-99,490.31-99,22.09,0,40,17.91,40,40s-17.91,40-40,40c-159.26,0-313.74,31.18-459.14,92.68-69.89,29.56-137.3,66.15-200.36,108.75-62.47,42.2-121.22,90.67-174.61,144.06-53.39,53.39-101.86,112.14-144.06,174.61-42.6,63.06-79.19,130.47-108.75,200.36-61.5,145.4-92.68,299.88-92.68,459.14,0,22.09-17.91,40-40,40ZM2227.5,2552.35c0-22.09-17.91-40-40-40-161.38,0-317.75-31.99-464.76-95.08-70.64-30.31-138.68-67.81-202.23-111.46-62.97-43.25-122.05-92.88-175.59-147.52-15.46-15.78-40.79-16.04-56.57-.57-15.78,15.46-16.04,40.79-.57,56.57,57.15,58.32,120.22,111.3,187.44,157.47,67.86,46.61,140.52,86.66,215.97,119.03,157.04,67.39,324.03,101.56,496.31,101.56,22.09,0,40-17.91,40-40ZM3087.22,2214.29c55.67-56.81,106.18-119.15,150.13-185.29,44.39-66.81,82.51-138.12,113.28-211.96,64.02-153.58,96.48-316.52,96.48-484.29,0-22.09-17.91-40-40-40s-40,17.91-40,40c0,157.15-30.39,309.73-90.32,453.51-28.82,69.13-64.5,135.9-106.07,198.46-41.17,61.96-88.49,120.36-140.64,173.58-15.46,15.78-15.2,41.1.57,56.57,7.79,7.63,17.89,11.43,27.99,11.43s20.74-4.01,28.57-12ZM3447.11,1332.74c0-173.7-34.71-341.94-103.17-500.06-32.88-75.94-73.54-149.02-120.85-217.2-46.87-67.55-100.64-130.83-159.8-188.07-15.88-15.36-41.2-14.94-56.56.93s-14.94,41.2.93,56.56c55.42,53.63,105.79,112.9,149.7,176.18,44.3,63.85,82.38,132.28,113.16,203.38,64.09,148.02,96.59,305.57,96.59,468.27,0,22.09,17.91,40,40,40s40-17.91,40-40ZM2633.32,2386.02c67.86-28.76,133.3-64.35,194.49-105.78,60.6-41.03,117.58-88.15,169.33-140.05,15.6-15.64,15.57-40.97-.08-56.57-15.64-15.6-40.97-15.57-56.57.08-48.15,48.28-101.16,92.12-157.54,130.3-56.91,38.53-117.76,71.63-180.85,98.37-131.28,55.63-270.77,83.84-414.61,83.84-22.09,0-40,17.91-40,40s17.91,40,40,40c154.62,0,304.62-30.34,445.82-90.18ZM3330.95,1332.74c0-154.35-30.24-304.1-89.87-445.1-28.66-67.76-64.13-133.12-105.43-194.25-40.9-60.54-87.87-117.47-139.6-169.2-51.73-51.73-108.66-98.7-169.2-139.6-61.13-41.3-126.48-76.77-194.25-105.43-141-59.64-290.75-89.87-445.1-89.87-22.09,0-40,17.91-40,40s17.91,40,40,40c143.58,0,282.85,28.11,413.93,83.55,126.63,53.56,240.36,130.25,338.04,227.92,97.68,97.68,174.36,211.41,227.92,338.04,55.44,131.08,83.55,270.35,83.55,413.93,0,22.09,17.91,40,40,40s40-17.91,40-40ZM1435.53,580.77c97.68-97.68,211.41-174.36,338.04-227.92,131.08-55.44,270.35-83.56,413.93-83.56,22.09,0,40-17.91,40-40s-17.91-40-40-40c-154.35,0-304.1,30.24-445.1,89.87-67.76,28.66-133.12,64.13-194.25,105.43-60.54,40.9-117.47,87.87-169.2,139.6-15.62,15.62-15.62,40.95,0,56.57,7.81,7.81,18.05,11.72,28.28,11.72s20.47-3.91,28.28-11.72ZM1407.24,552.49,1435.53,2141.29c15.62-15.62,15.62-40.95,0-56.57-97.68-97.68-174.36-211.41-227.92-338.04-55.44-131.08-83.56-270.35-83.56-413.93,0-22.09-17.91-40-40-40s-40,17.91-40,40c0,154.35,30.24,304.1,89.87,445.1,28.66,67.76,64.13,133.12,105.43,194.25,40.9,60.54,87.87,117.47,139.6,169.2,7.81,7.81,18.05,11.72,28.28,11.72s20.47-3.91,28.28-11.72ZM2227.5,2320.05c0-22.09-17.91-40-40-40-127.9,0-251.96-25.04-368.72-74.43-112.8-47.71-214.11-116.02-301.12-203.03-15.62-15.62-40.95-15.62-56.57,0-15.62,15.62-15.62,40.95,0,56.57,94.33,94.33,204.19,168.4,326.53,220.14,126.68,53.58,261.22,80.75,399.88,80.75,22.09,0,40-17.91,40-40ZM2914.78,2058.29c94.07-94.3,167.93-204.06,219.52-326.23,53.42-126.51,80.5-260.86,80.5-399.31s-27.17-273.21-80.75-399.88c-51.74-122.33-125.81-232.19-220.14-326.53-15.62-15.62-40.95-15.62-56.57,0s-15.62,40.95,0,56.57c87.01,87.01,155.32,188.32,203.03,301.12,49.39,116.76,74.43,240.82,74.43,368.72s-24.97,251.58-74.2,368.19c-47.57,112.65-115.68,213.87-202.46,300.85-15.6,15.64-15.57,40.97.07,56.57,7.81,7.79,18.03,11.68,28.25,11.68s20.51-3.92,28.32-11.75ZM1517.66,662.9c87.01-87.01,188.32-155.32,301.12-203.03,116.76-49.39,240.82-74.43,368.72-74.43,22.09,0,40-17.91,40-40s-17.91-40-40-40c-138.67,0-273.21,27.17-399.88,80.75-122.33,51.74-232.19,125.81-326.53,220.14-15.62,15.62-15.62,40.95,0,56.57,7.81,7.81,18.05,11.72,28.28,11.72s20.47-3.91,28.28-11.72ZM1517.66,2059.16c15.62-15.62,15.62-40.95,0-56.57-87.01-87.01-155.32-188.32-203.03-301.12-49.39-116.76-74.43-240.82-74.43-368.72s25.04-251.96,74.43-368.72c47.71-112.8,116.02-214.11,203.03-301.12,15.62-15.62,15.62-40.95,0-56.57s-40.95-15.62-56.57,0c-94.33,94.33-168.4,204.19-220.14,326.53-53.58,126.68-80.75,261.22-80.75,399.88s27.17,273.21,80.75,399.88c51.74,122.33,125.81,232.19,220.14,326.53,7.81,7.81,18.05,11.72,28.28,11.72s20.47-3.91,28.28-11.72ZM2542.75,2172.03c108.66-46.05,206.2-111.95,289.9-195.88,15.6-15.64,15.57-40.97-.08-56.57-15.64-15.6-40.97-15.57-56.57.08-76.38,76.58-165.36,136.71-264.47,178.71-102.59,43.48-211.61,65.52-324.03,65.52s-221.07-21.97-323.51-65.3c-98.97-41.86-187.86-101.79-264.2-178.14-15.62-15.62-40.95-15.62-56.57,0-15.62,15.62-15.62,40.95,0,56.57,83.67,83.67,181.1,149.36,289.61,195.25,112.36,47.52,231.69,71.62,354.67,71.62s242.72-24.18,355.25-71.86ZM3098.65,1332.74c0-122.99-24.1-242.32-71.62-354.67-45.89-108.5-111.58-205.94-195.25-289.61-83.67-83.67-181.1-149.36-289.61-195.25-112.36-47.52-231.69-71.62-354.67-71.62-22.09,0-40,17.91-40,40s17.91,40,40,40c112.22,0,221.07,21.97,323.51,65.3,98.97,41.86,187.86,101.79,264.2,178.14,76.34,76.34,136.28,165.23,178.14,264.2,43.33,102.44,65.3,211.29,65.3,323.51,0,22.09,17.91,40,40,40s40-17.91,40-40ZM1599.79,745.04c76.34-76.34,165.23-136.28,264.2-178.14,102.44-43.33,211.29-65.3,323.51-65.3,22.09,0,40-17.91,40-40s-17.91-40-40-40c-122.99,0-242.32,24.1-354.67,71.62-108.5,45.89-205.94,111.58-289.61,195.25-15.62,15.62-15.62,40.95,0,56.57,7.81,7.81,18.05,11.71,28.28,11.71s20.47-3.91,28.28-11.71ZM2748.86,826.29c15.6-15.64,15.56-40.97-.09-56.57-72.96-72.74-157.88-129.84-252.39-169.73-97.87-41.3-201.79-62.25-308.88-62.25-22.09,0-40,17.91-40,40s17.91,40,40,40c96.35,0,189.8,18.82,277.78,55.95,84.99,35.87,161.37,87.24,227.01,152.68,7.81,7.78,18.02,11.67,28.24,11.67s20.51-3.92,28.33-11.76ZM1681.92,1894.89c15.62-15.62,15.62-40.95,0-56.57-65.68-65.68-117.24-142.15-153.25-227.28-37.27-88.12-56.17-181.76-56.17-278.3s18.9-190.17,56.17-278.29c36.01-85.14,87.57-161.61,153.25-227.28,15.62-15.62,15.62-40.95,0-56.57-15.62-15.62-40.95-15.62-56.57,0-73,73-130.31,158.01-170.36,252.69-41.47,98.04-62.49,202.15-62.49,309.46s21.03,211.42,62.49,309.46c40.04,94.67,97.36,179.69,170.36,252.69,7.81,7.81,18.05,11.72,28.28,11.72s20.47-3.91,28.28-11.72ZM2496.96,2065.25c94.67-40.04,179.69-97.36,252.69-170.36s130.31-158.01,170.36-252.69c41.47-98.04,62.49-202.16,62.49-309.46,0-22.09-17.91-40-40-40s-40,17.91-40,40c0,96.54-18.9,190.17-56.17,278.3-36.01,85.14-87.57,161.61-153.25,227.28-65.68,65.68-142.15,117.24-227.28,153.25-88.12,37.27-181.75,56.17-278.3,56.17-22.09,0-40,17.91-40,40s17.91,40,40,40c107.31,0,211.42-21.03,309.46-62.49ZM2452.33,1957.98c81-34.35,153.7-83.51,216.06-146.1,15.59-15.65,15.55-40.98-.1-56.57-15.65-15.59-40.98-15.55-56.57.1-55.04,55.24-119.18,98.62-190.62,128.92-73.95,31.36-152.54,47.26-233.6,47.26-22.09,0-40,17.91-40,40s17.91,40,40,40c91.84,0,180.95-18.04,264.83-53.61ZM2866.34,1332.74c0-91.62-17.95-180.53-53.36-264.25-34.19-80.84-83.13-153.43-145.46-215.76-15.62-15.62-40.95-15.62-56.57,0s-15.62,40.95,0,56.57c55.01,55.01,98.19,119.06,128.35,190.36,31.22,73.8,47.04,152.22,47.04,233.08,0,22.09,17.91,40,40,40s40-17.91,40-40ZM2667.51,909.3c15.62-15.62,15.62-40.95,0-56.57-62.33-62.33-134.92-111.27-215.77-145.46-83.72-35.41-172.62-53.36-264.25-53.36s-180.53,17.95-264.25,53.36c-80.84,34.19-153.43,83.13-215.77,145.46-15.62,15.62-15.62,40.95,0,56.57,15.62,15.62,40.95,15.62,56.57,0,55.01-55.01,119.06-98.19,190.36-128.35,73.8-31.22,152.22-47.04,233.08-47.04s159.28,15.83,233.08,47.04c71.3,30.16,135.35,73.34,190.36,128.35,7.81,7.81,18.05,11.72,28.28,11.72s20.47-3.91,28.28-11.72ZM2227.5,1971.59c0-22.09-17.91-40-40-40-80.86,0-159.28-15.83-233.08-47.04-71.3-30.16-135.35-73.34-190.36-128.35-55.01-55.01-98.19-119.06-128.35-190.36-31.22-73.8-47.04-152.22-47.04-233.08,0-22.09-17.91-40-40-40s-40,17.91-40,40c0,91.62,17.95,180.53,53.36,264.25,34.19,80.84,83.13,153.43,145.46,215.77,62.33,62.33,134.92,111.27,215.77,145.46,83.72,35.41,172.62,53.36,264.25,53.36,22.09,0,40-17.91,40-40ZM1704.81,1332.74c0-65.18,12.76-128.39,37.92-187.87,24.31-57.47,59.12-109.1,103.46-153.44,15.62-15.62,15.62-40.95,0-56.57-15.62-15.62-40.95-15.62-56.57,0-51.66,51.66-92.23,111.83-120.57,178.84-29.35,69.4-44.24,143.09-44.24,219.04,0,22.09,17.91,40,40,40s40-17.91,40-40ZM2407.13,1850.95c67.17-28.5,127.45-69.29,179.15-121.22,15.59-15.66,15.53-40.98-.13-56.57-15.65-15.58-40.98-15.53-56.57.13-44.37,44.57-96.09,79.57-153.7,104.01-59.63,25.3-123.01,38.13-188.38,38.13s-128.39-12.76-187.87-37.92c-57.47-24.31-109.1-59.12-153.44-103.46-15.62-15.62-40.95-15.62-56.57,0-15.62,15.62-15.62,40.95,0,56.57,51.66,51.66,111.84,92.23,178.84,120.57,69.4,29.35,143.09,44.24,219.04,44.24s150.06-14.97,219.63-44.49ZM2586.27,1729.73c51.4-51.63,91.75-111.7,119.93-178.54,29.19-69.23,43.99-142.72,43.99-218.45,0-22.09-17.91-40-40-40s-40,17.91-40,40c0,64.99-12.68,128.03-37.7,187.37-24.17,57.33-58.8,108.87-102.91,153.18-15.59,15.66-15.53,40.98.13,56.57,7.81,7.77,18.01,11.65,28.22,11.65s20.53-3.93,28.35-11.78ZM2750.19,1332.74c0-75.94-14.88-149.64-44.24-219.04-28.34-67.01-68.91-127.18-120.57-178.84s-111.84-92.23-178.84-120.57c-69.4-29.35-143.09-44.24-219.04-44.24-22.09,0-40,17.91-40,40s17.91,40,40,40c65.18,0,128.39,12.76,187.87,37.92,57.47,24.31,109.1,59.12,153.44,103.46s79.15,95.97,103.46,153.44c25.16,59.48,37.92,122.69,37.92,187.87,0,22.09,17.91,40,40,40s40-17.91,40-40ZM1820.96,1332.74c0-97.91,38.13-189.95,107.36-259.18,69.23-69.23,161.27-107.36,259.18-107.36,22.09,0,40-17.91,40-40s-17.91-40-40-40c-60.26,0-118.75,11.81-173.82,35.11-53.18,22.49-100.93,54.68-141.92,95.68s-73.19,88.75-95.68,141.92c-23.3,55.08-35.11,113.56-35.11,173.82,0,22.09,17.91,40,40,40s40-17.91,40-40ZM1928.32,1648.49c15.62-15.62,15.62-40.95,0-56.57-69.23-69.23-107.36-161.28-107.36-259.18,0-22.09-17.91-40-40-40s-40,17.91-40,40c0,60.26,11.81,118.75,35.11,173.82,22.49,53.18,54.68,100.93,95.68,141.92,7.81,7.81,18.05,11.72,28.28,11.72s20.47-3.91,28.28-11.72ZM1900.04,1620.21,2361.32,1744.17c53.18-22.49,100.93-54.68,141.92-95.68,41-41,73.19-88.75,95.68-141.92,23.3-55.08,35.11-113.56,35.11-173.82,0-22.09-17.91-40-40-40s-40,17.91-40,40c0,97.91-38.13,189.95-107.36,259.18s-161.27,107.36-259.18,107.36c-22.09,0-40,17.91-40,40s17.91,40,40,40c60.26,0,118.75-11.81,173.82-35.11ZM2316.11,1637.15c39.35-16.64,74.67-40.46,105-70.79,30.33-30.33,54.15-65.66,70.79-105,17.24-40.76,25.98-84.03,25.98-128.61,0-22.09-17.91-40-40-40s-40,17.91-40,40c0,66.88-26.04,129.76-73.34,177.05-47.29,47.29-110.17,73.33-177.05,73.33s-129.76-26.04-177.05-73.33c-15.62-15.62-40.95-15.62-56.57,0-15.62,15.62-15.62,40.95,0,56.57,30.33,30.33,65.66,54.15,105,70.79,40.76,17.24,84.03,25.98,128.61,25.98s87.85-8.74,128.61-25.98ZM2517.88,1332.74c0-44.58-8.74-87.85-25.98-128.61-16.64-39.35-40.46-74.67-70.79-105s-65.66-54.14-105-70.79c-40.76-17.24-84.03-25.98-128.61-25.98-22.09,0-40,17.91-40,40s17.91,40,40,40c66.88,0,129.76,26.04,177.05,73.33,47.29,47.29,73.33,110.17,73.33,177.05,0,22.09,17.91,40,40,40s40-17.91,40-40ZM2010.45,1566.36c15.62-15.62,15.62-40.95,0-56.57-47.29-47.29-73.34-110.17-73.34-177.05s26.04-129.76,73.34-177.05c15.62-15.62,15.62-40.95,0-56.57s-40.95-15.62-56.57,0c-30.33,30.33-54.15,65.66-70.79,105-17.24,40.76-25.98,84.03-25.98,128.61s8.74,87.86,25.98,128.61c16.64,39.35,40.46,74.67,70.79,105,7.81,7.81,18.05,11.72,28.28,11.72s20.47-3.91,28.28-11.72ZM2340,1483.21c39.81-40.34,61.73-93.78,61.73-150.46s-22.65-111.92-63.77-152.5c-15.73-15.52-41.05-15.35-56.57.38-15.52,15.73-15.35,41.05.38,56.57,25.77,25.42,39.96,59.36,39.96,95.55s-13.74,69-38.68,94.27c-15.52,15.72-15.35,41.05.38,56.57,7.79,7.69,17.94,11.53,28.09,11.53s20.65-3.97,28.47-11.91ZM2053.27,1332.74c0-74.01,60.22-134.23,134.23-134.23,35.52,0,69,13.74,94.27,38.68,15.72,15.52,41.05,15.35,56.57-.38,15.52-15.73,15.35-41.05-.38-56.57-40.34-39.81-93.78-61.73-150.46-61.73s-111.02,22.28-151.48,62.75c-40.46,40.46-62.75,94.26-62.75,151.48,0,22.09,17.91,40,40,40s40-17.91,40-40ZM2092.59,1484.23c15.62-15.62,15.62-40.95,0-56.57-25.35-25.35-39.31-59.06-39.31-94.92,0-22.09-17.91-40-40-40s-40,17.91-40,40c0,57.22,22.28,111.02,62.75,151.48,7.81,7.81,18.05,11.72,28.28,11.72s20.47-3.91,28.28-11.72ZM2187.5,1274.67,2285.58,1332.74c0-22.09-17.91-40-40-40s-40,17.91-40,40c0,9.97-8.11,18.08-18.08,18.08s-18.08-8.11-18.08-18.08c0-22.09-17.91-40-40-40s-40,17.91-40,40c0,54.08,44,98.08,98.08,98.08s98.08-44,98.08-98.08Z"/></g></g></g></svg>