<?xml version="1.0" encoding="UTF-8" standalone="no"?>
<svg
   id="Capa_1"
   viewBox="0 0 636.71 242.95"
   version="1.1"
   sodipodi:docname="Azul.svg"
   inkscape:export-filename="Azul.svg"
   inkscape:export-xdpi="96"
   inkscape:export-ydpi="96"
   inkscape:version="1.4.3 (0d15f75042, 2025-12-25)"
   xmlns:inkscape="http://www.inkscape.org/namespaces/inkscape"
   xmlns:sodipodi="http://sodipodi.sourceforge.net/DTD/sodipodi-0.dtd"
   xmlns="http://www.w3.org/2000/svg"
   xmlns:svg="http://www.w3.org/2000/svg">
  <sodipodi:namedview
     id="namedview11"
     pagecolor="#ffffff"
     bordercolor="#000000"
     borderopacity="0.25"
     inkscape:showpageshadow="2"
     inkscape:pageopacity="0.0"
     inkscape:pagecheckerboard="0"
     inkscape:deskcolor="#d1d1d1"
     inkscape:zoom="1.1449908"
     inkscape:cx="388.21274"
     inkscape:cy="75.546461"
     inkscape:window-width="1920"
     inkscape:window-height="1052"
     inkscape:window-x="0"
     inkscape:window-y="0"
     inkscape:window-maximized="1"
     inkscape:current-layer="Capa_1" />
  <defs
     id="defs1">
    <style
       id="style1">.cls-1{fill:#2b2d40;}</style>
  </defs>
  <path
     class="cls-1"
     d="M 206.24026,186.82405 V 54.73421 c 0,-1.479507 1.19113,-2.670635 2.67063,-2.670635 h 20.98894 c 1.4795,0 2.67063,1.191128 2.67063,2.670635 v 132.08984 c 0,1.47951 -1.19113,2.67063 -2.67063,2.67063 h -20.98894 c -1.4795,0 -2.67063,-1.19112 -2.67063,-2.67063 z"
     id="path1"
     style="stroke-width:1.25382"
     inkscape:export-filename="path1.png"
     inkscape:export-xdpi="96"
     inkscape:export-ydpi="96" />
  <path
     class="cls-1"
     d="m 302.29534,191.66379 c -9.99294,0 -19.05805,-2.3321 -27.19534,-7.02139 -8.13728,-4.67674 -14.56937,-10.88315 -19.30881,-18.64429 -4.73944,-7.7486 -7.10915,-16.48772 -7.10915,-26.22989 0,-9.74218 2.26941,-18.34337 6.82077,-26.2299 4.55137,-7.87398 10.73269,-14.117998 18.54399,-18.732052 7.81129,-4.614055 16.46264,-6.921082 25.94151,-6.921082 9.47888,0 18.1553,2.344642 25.65314,7.021387 7.49784,4.676745 13.39079,11.046147 17.67885,19.120737 4.3006,8.0746 6.43209,15.63513 6.43209,26.16721 v 5.75503 c 0,1.4795 -1.19113,2.67063 -2.67063,2.67063 h -71.5053 c 1.15351,3.97461 3.07185,7.56053 5.76756,10.75777 2.69571,3.20978 5.95564,5.66726 9.80487,7.39753 3.83669,1.73027 7.99936,2.59541 12.48804,2.59541 4.48867,0 8.45074,-0.67707 12.29996,-2.01865 3.03424,-1.06575 5.70488,-2.4951 8.02444,-4.32568 1.05321,-0.82752 2.52018,-0.86513 3.5107,0.0502 l 13.19017,12.02412 c 1.22875,1.1159 1.16606,3.13455 -0.17553,4.12506 -5.34127,3.99969 -10.80792,6.98378 -16.38742,8.97735 -6.4697,2.30703 -13.74185,3.46054 -21.81645,3.46054 z m -27.09503,-61.87597 h 48.81118 c -1.02813,-3.96207 -2.72079,-7.46022 -5.09051,-10.46939 -2.36972,-3.00917 -5.22842,-5.35381 -8.55104,-7.00885 -3.33516,-1.66758 -6.92109,-2.4951 -10.75777,-2.4951 -4.09999,0 -7.8113,0.80245 -11.14645,2.3948 -3.33516,1.60488 -6.11864,3.91191 -8.36298,6.92108 -2.24433,3.00916 -3.8743,6.57001 -4.90243,10.67 z"
     id="path2"
     style="stroke-width:1.25382" />
  <path
     class="cls-1"
     d="m 390.08775,97.878124 c 0,0 0.28838,-0.288378 0.62691,-0.601833 1.34159,-1.241281 2.78348,-2.369718 4.31314,-3.360235 4.88989,-3.159624 10.65746,-4.802127 16.43757,-5.178273 2.9214,-0.188073 5.85533,-0.02508 8.76419,0.363608 2.04373,0.27584 4.18776,0.852597 5.66727,1.303972 1.1159,0.338531 1.86819,1.366662 1.86819,2.545252 v 14.970595 c 0.0125,1.73028 -1.62997,3.03425 -3.29755,2.58287 -5.65472,-1.5422 -11.25929,-2.00611 -17.1397,-0.17553 -7.14677,2.2318 -13.17764,7.34738 -16.86387,13.80455 -0.23823,0.42629 -0.36361,0.90275 -0.36361,1.39173 v 61.53744 c 0,1.47951 -1.19113,2.67064 -2.67063,2.67064 h -21.17701 c -1.4795,0 -2.67063,-1.19113 -2.67063,-2.67064 V 92.286091 c 0,-1.479506 1.19113,-2.670634 2.67063,-2.670634 h 21.17701 c 1.4795,0 2.67063,1.191128 2.67063,2.670634 v 5.592033 z"
     id="path3"
     style="stroke-width:1.25382" />
  <path
     class="cls-1"
     d="m 491.57187,191.27511 c -11.02107,0 -19.37151,-2.53272 -25.07638,-7.58561 -5.69234,-5.06543 -8.55105,-12.46296 -8.55105,-22.1926 v -49.77661 h -17.892 c -1.4795,0 -2.67063,-1.19113 -2.67063,-2.67064 V 92.286091 c 0,-1.479506 1.19113,-2.670634 2.67063,-2.670634 h 17.892 V 54.73421 c 0,-1.479507 1.19113,-2.670635 2.67064,-2.670635 h 20.80086 c 1.4795,0 2.67063,1.191128 2.67063,2.670635 v 34.881247 h 26.15467 c 1.4795,0 2.67063,1.191128 2.67063,2.670634 v 16.763559 c 0,1.47951 -1.19113,2.67064 -2.67063,2.67064 h -26.15467 v 44.39773 c 0,4.61405 1.05321,7.9116 3.17216,9.89263 1.69266,1.57981 3.98715,2.30703 6.23148,2.6581 3.17217,0.51406 6.51986,0.43883 9.70456,0.0878 2.2318,-0.25077 4.40091,-0.7523 6.60763,-1.1159 1.62996,-0.26331 3.10947,0.97798 3.10947,2.63302 v 16.11157 c 0,1.24128 -0.8526,2.30703 -2.05626,2.60795 -2.50764,0.62691 -5.64219,1.12843 -8.70151,1.52965 -3.9746,0.51407 -7.49784,0.77737 -10.56969,0.77737 z"
     id="path4"
     style="stroke-width:1.25382" />
  <path
     class="cls-1"
     d="m 558.61358,191.26257 c -7.04647,0 -13.3281,-1.6425 -18.83237,-4.27552 -5.50426,-2.62049 -9.80486,-5.70488 -12.87672,-10.31894 -3.07186,-4.61405 -4.61405,-9.93024 -4.61405,-15.94857 0,-9.6168 3.58592,-17.07702 10.75777,-22.39321 7.17184,-5.3162 17.16478,-7.97429 29.97881,-7.97429 8.71404,0 16.91402,1.34158 24.59993,4.03729 v -7.29722 c 0,-5.76757 -1.79296,-10.11832 -5.37888,-13.0648 -3.58593,-2.94647 -8.83943,-4.42598 -15.74797,-4.42598 -4.09999,0 -8.65135,0.67706 -13.64155,2.01865 -4.35076,1.17859 -9.20304,2.90886 -14.53177,5.20335 -1.31651,0.56422 -2.87124,0.0251 -3.48561,-1.26636 l -7.08408,-14.74491 c -0.66453,-1.3792 0,-3.071856 1.40428,-3.661151 6.98377,-2.90886 13.66662,-5.165734 20.04856,-6.758085 7.17185,-1.792961 14.34369,-2.695711 21.52808,-2.695711 13.70424,0 24.27393,3.234854 31.70908,9.70456 7.42261,6.469707 11.14645,15.597507 11.14645,27.383407 v 62.27719 c 0,1.47951 -1.19112,2.67064 -2.67063,2.67064 h -20.60025 c -1.47951,0 -2.72079,-1.19113 -2.72079,-2.67064 v -3.81161 c -7.39753,3.53577 -8.33789,3.97461 -13.20271,5.56696 -4.70182,1.52966 -9.99294,2.44495 -15.76051,2.44495 z m -15.40944,-31.11979 c 0,3.83668 1.83058,6.88347 5.50427,9.1278 3.66115,2.24434 8.52597,3.36024 14.59445,3.36024 4.91497,0 9.7171,-1.05321 14.10546,-3.25993 2.06881,-1.04067 4.18776,-2.20672 5.99326,-3.66115 1.47951,-1.17859 2.84617,-2.4951 4.21283,-3.78654 v -10.44431 c -3.52323,-1.40428 -7.19692,-2.40733 -10.99599,-2.97155 -3.81161,-0.57676 -7.89906,-0.86514 -12.26235,-0.86514 -6.63271,0 -11.81098,1.09082 -15.54736,3.25993 -3.73638,2.18165 -5.60457,5.2535 -5.60457,9.22811 z"
     id="path10"
     style="stroke-width:1.25382" />
  <path
     class="cls-1"
     d="M 184.97549,156.88285 130.79797,63.034492 c -4.07492,-6.682856 -11.42229,-11.15899 -19.81034,-11.15899 -8.38805,0 -15.68528,4.425981 -19.77273,11.071223 -0.21315,0.351069 -0.413761,0.702138 -0.601833,1.053208 L 36.974686,156.88285 c -3.899377,6.90854 -4.150141,15.64766 0.100305,22.99504 4.288062,7.42261 12.06174,11.57275 20.073644,11.58529 h 0.02508 c 0.325993,-0.0251 2.946475,-0.21315 6.557474,-0.96544 6.281634,-1.30397 14.092927,-5.95564 21.340001,-10.89569 8.52597,-5.80518 15.61005,-11.58529 25.91644,-11.58529 10.30639,0 17.47823,5.78011 25.9039,11.58529 7.22199,4.97766 15.0709,9.59172 21.34,10.89569 3.69876,0.76483 6.34432,0.9529 6.57001,0.96544 h 0.0125 c 8.0119,0 15.78558,-4.15014 20.07364,-11.58529 4.25045,-7.35992 3.99968,-16.0865 0.10031,-22.99504 z m -73.98786,-0.45138 c -9.6168,0 -17.390474,-7.77367 -17.390474,-17.37793 0,-9.60425 7.773674,-17.39047 17.390474,-17.39047 9.61679,0 17.37793,7.78622 17.37793,17.39047 0,9.60426 -7.77368,17.37793 -17.37793,17.37793 z"
     id="path11"
     style="stroke-width:1.25382" />
</svg>
