<?xml version="1.0" encoding="UTF-8" standalone="no"?>
<svg
   id="Capa_1"
   viewBox="0 0 636.71 242.95"
   version="1.1"
   sodipodi:docname="CosibNegro.svg"
   inkscape:version="1.4.3 (0d15f75042, 2025-12-25)"
   inkscape:export-filename="Negro.svg"
   inkscape:export-xdpi="96"
   inkscape:export-ydpi="96"
   xmlns:inkscape="http://www.inkscape.org/namespaces/inkscape"
   xmlns:sodipodi="http://sodipodi.sourceforge.net/DTD/sodipodi-0.dtd"
   xmlns="http://www.w3.org/2000/svg"
   xmlns:svg="http://www.w3.org/2000/svg">
  <defs
     id="defs11" />
  <sodipodi:namedview
     id="namedview11"
     pagecolor="#ffffff"
     bordercolor="#000000"
     borderopacity="0.25"
     inkscape:showpageshadow="2"
     inkscape:pageopacity="0.0"
     inkscape:pagecheckerboard="0"
     inkscape:deskcolor="#d1d1d1"
     inkscape:zoom="0.62691298"
     inkscape:cx="324.60645"
     inkscape:cy="32.699913"
     inkscape:window-width="1920"
     inkscape:window-height="1052"
     inkscape:window-x="0"
     inkscape:window-y="0"
     inkscape:window-maximized="1"
     inkscape:current-layer="Capa_1" />
  <path
     d="M 212.2766,176.65196 V 50.581956 c 0,-1.412079 1.13685,-2.548923 2.54893,-2.548923 h 20.03238 c 1.41208,0 2.54893,1.136844 2.54893,2.548923 V 176.65196 c 0,1.41208 -1.13685,2.54892 -2.54893,2.54892 h -20.03238 c -1.41208,0 -2.54893,-1.13684 -2.54893,-2.54892 z"
     id="path1"
     style="stroke-width:1.19668" />
  <path
     d="m 303.95409,181.27113 c -9.53753,0 -18.18951,-2.22582 -25.95594,-6.70139 -7.76644,-4.46361 -13.9054,-10.38717 -18.42884,-17.7946 -4.52344,-7.39547 -6.78516,-15.73631 -6.78516,-25.0345 0,-9.29819 2.16598,-17.50739 6.50992,-25.0345 4.34394,-7.515133 10.24356,-13.474588 17.69887,-17.878363 7.4553,-4.403774 15.71238,-6.605661 24.75926,-6.605661 9.04688,0 17.32789,2.237788 24.48403,6.701396 7.15613,4.463608 12.78051,10.542731 16.87315,18.249338 4.10461,7.7066 6.13896,14.92257 6.13896,24.97466 v 5.49275 c 0,1.41208 -1.13684,2.54893 -2.54892,2.54893 h -68.24654 c 1.10095,3.79346 2.93186,7.21596 5.50472,10.26749 2.57286,3.0635 5.68422,5.40898 9.35802,7.0604 3.66183,1.65141 7.6348,2.47712 11.91891,2.47712 4.28411,0 8.06561,-0.6462 11.73941,-1.92665 2.89596,-1.01717 5.44488,-2.38139 7.65874,-4.12854 1.00521,-0.7898 2.40532,-0.8257 3.3507,0.0479 l 12.58905,11.47614 c 1.17274,1.06504 1.11291,2.99169 -0.16754,3.93707 -5.09785,3.8174 -10.31536,6.66549 -15.64058,8.56821 -6.17486,2.20189 -13.11559,3.30283 -20.82219,3.30283 z m -25.86021,-59.05604 h 46.58666 c -0.98127,-3.78151 -2.59679,-7.12024 -4.85851,-9.99226 -2.26172,-2.87203 -4.99014,-5.10982 -8.16134,-6.68943 -3.18316,-1.59158 -6.60566,-2.38139 -10.26749,-2.38139 -3.91314,0 -7.45531,0.76587 -10.63847,2.28565 -3.18316,1.53175 -5.83979,3.73364 -7.98184,6.60566 -2.14205,2.87203 -3.69773,6.2706 -4.67901,10.18373 z"
     id="path2"
     style="stroke-width:1.19668" />
  <path
     d="m 387.74546,91.759638 c 0,0 0.27524,-0.275236 0.59834,-0.574405 1.28045,-1.184711 2.65663,-2.261721 4.11657,-3.207097 4.66705,-3.015628 10.17176,-4.583276 15.68845,-4.942279 2.78826,-0.179502 5.58848,-0.02393 8.36478,0.347037 1.95058,0.263269 3.9969,0.813741 5.40898,1.244545 1.06504,0.323103 1.78305,1.304378 1.78305,2.429255 v 14.288336 c 0.012,1.65141 -1.55568,2.89596 -3.14726,2.46515 -5.39702,-1.47191 -10.74617,-1.91468 -16.35859,-0.16753 -6.82106,2.13008 -12.57708,7.01253 -16.09531,13.17542 -0.22737,0.40687 -0.34704,0.86161 -0.34704,1.32831 v 58.73295 c 0,1.41208 -1.13684,2.54892 -2.54892,2.54892 h -20.21189 c -1.41208,0 -2.54893,-1.13684 -2.54893,-2.54892 V 86.422455 c 0,-1.41208 1.13685,-2.548923 2.54893,-2.548923 h 20.21189 c 1.41208,0 2.54892,1.136843 2.54892,2.548923 v 5.337183 z"
     id="path3"
     style="stroke-width:1.19668" />
  <path
     d="m 484.60456,180.90016 c -10.5188,0 -18.48867,-2.41729 -23.93355,-7.2399 -5.43292,-4.83458 -8.16135,-11.89497 -8.16135,-21.18119 v -47.50811 h -17.07659 c -1.41208,0 -2.54892,-1.13684 -2.54892,-2.54892 V 86.422455 c 0,-1.41208 1.13684,-2.548923 2.54892,-2.548923 h 17.07659 V 50.581956 c 0,-1.412079 1.13685,-2.548923 2.54893,-2.548923 h 19.85288 c 1.41208,0 2.54892,1.136844 2.54892,2.548923 v 33.291576 h 24.9627 c 1.41208,0 2.54893,1.136843 2.54893,2.548923 v 15.999585 c 0,1.41208 -1.13685,2.54892 -2.54893,2.54892 h -24.9627 v 42.37436 c 0,4.40377 1.00521,7.55104 3.0276,9.44179 1.61551,1.50781 3.80543,2.20188 5.94749,2.53695 3.02759,0.49064 6.22272,0.41884 9.26228,0.0838 2.13009,-0.23934 4.20034,-0.71801 6.30649,-1.06504 1.55569,-0.25131 2.96777,0.93341 2.96777,2.51302 v 15.37731 c 0,1.18471 -0.81375,2.20189 -1.96256,2.48909 -2.39335,0.59834 -5.38505,1.07701 -8.30494,1.45995 -3.79347,0.49063 -7.15613,0.74194 -10.08799,0.74194 z"
     id="path4"
     style="stroke-width:1.19668" />
  <path
     d="m 548.59092,180.8882 c -6.72533,0 -12.72068,-1.56765 -17.9741,-4.08067 -5.25342,-2.50106 -9.35802,-5.44489 -12.28988,-9.84866 -2.93186,-4.40378 -4.40377,-9.47769 -4.40377,-15.22174 0,-9.17852 3.42249,-16.29876 10.26749,-21.37267 6.845,-5.07391 16.38252,-7.61087 28.61257,-7.61087 8.31691,0 16.14318,1.28045 23.47881,3.8533 v -6.96466 c 0,-5.50472 -1.71125,-9.65719 -5.13374,-12.46938 -3.4225,-2.8122 -8.43658,-4.22428 -15.03028,-4.22428 -3.91313,0 -8.25707,0.64621 -13.01985,1.92666 -4.15247,1.12487 -8.78362,2.77629 -13.8695,4.96621 -1.25651,0.5385 -2.74039,0.0239 -3.32676,-1.20865 l -6.76123,-14.072926 c -0.63424,-1.316346 0,-2.931861 1.34028,-3.494299 6.66549,-2.776293 13.04379,-4.930313 19.13488,-6.450093 6.84499,-1.711249 13.68999,-2.572857 20.54695,-2.572857 13.07969,0 23.16769,3.087428 30.26398,9.262285 7.08434,6.174858 10.63847,14.88667 10.63847,26.13544 v 59.43899 c 0,1.41208 -1.13684,2.54892 -2.54892,2.54892 H 578.8549 c -1.41208,0 -2.59679,-1.13684 -2.59679,-2.54892 v -3.6379 c -7.0604,3.37463 -7.95791,3.79346 -12.60102,5.31324 -4.48754,1.45995 -9.53752,2.33353 -15.04224,2.33353 z m -14.70717,-29.70155 c 0,3.66184 1.74715,6.56977 5.25342,8.71182 3.49429,2.14205 8.1374,3.20709 13.92932,3.20709 4.69098,0 9.27426,-1.0052 13.46263,-3.11136 1.97452,-0.99324 3.9969,-2.10615 5.72012,-3.4943 1.41208,-1.12487 2.71646,-2.38139 4.02084,-3.61396 v -9.96833 c -3.36267,-1.34028 -6.86893,-2.29762 -10.49487,-2.83613 -3.6379,-0.55047 -7.53907,-0.8257 -11.70351,-0.8257 -6.33042,0 -11.2727,1.04111 -14.8388,3.11136 -3.5661,2.08222 -5.34915,5.01408 -5.34915,8.80755 z"
     id="path10"
     style="stroke-width:1.19668" />
  <path
     d="M 191.98095,148.07529 140.2725,58.503963 c -3.8892,-6.378292 -10.90173,-10.650432 -18.90751,-10.650432 -8.00577,0 -14.97043,4.224272 -18.8716,10.566665 -0.20344,0.335069 -0.39491,0.670139 -0.57441,1.005209 L 50.725107,148.07529 c -3.721668,6.5937 -3.961004,14.93454 0.09573,21.94707 4.092638,7.08433 11.51204,11.04534 19.158811,11.0573 h 0.02393 c 0.311137,-0.0239 2.812193,-0.20343 6.258625,-0.92144 5.995356,-1.24454 13.450658,-5.68422 20.367456,-10.39913 8.137401,-5.54061 14.898631,-11.0573 24.735321,-11.0573 9.83669,0 16.68169,5.51669 24.72337,11.0573 6.89286,4.75081 14.38406,9.15459 20.36745,10.39913 3.5302,0.72998 6.05519,0.90948 6.27059,0.92144 h 0.012 c 7.64677,0 15.06617,-3.961 19.15881,-11.0573 4.05674,-7.0245 3.8174,-15.35337 0.0957,-21.94707 z m -70.61596,-0.4308 c -9.17851,0 -16.59792,-7.4194 -16.59792,-16.58596 0,-9.16655 7.41941,-16.59792 16.59792,-16.59792 9.17852,0 16.58596,7.43137 16.58596,16.59792 0,9.16656 -7.4194,16.58596 -16.58596,16.58596 z"
     id="path11"
     style="stroke-width:1.19668" />
</svg>
