<?xml version="1.0" encoding="UTF-8" standalone="no"?>
<svg
   id="Capa_1"
   viewBox="0 0 636.71 242.95"
   version="1.1"
   sodipodi:docname="CosibNegro.svg"
   inkscape:version="1.4 (e7c3feb100, 2024-10-09)"
   xmlns:inkscape="http://www.inkscape.org/namespaces/inkscape"
   xmlns:sodipodi="http://sodipodi.sourceforge.net/DTD/sodipodi-0.dtd"
   xmlns="http://www.w3.org/2000/svg"
   xmlns:svg="http://www.w3.org/2000/svg">
  <defs
     id="defs11" />
  <sodipodi:namedview
     id="namedview11"
     pagecolor="#ffffff"
     bordercolor="#000000"
     borderopacity="0.25"
     inkscape:showpageshadow="2"
     inkscape:pageopacity="0.0"
     inkscape:pagecheckerboard="0"
     inkscape:deskcolor="#d1d1d1"
     inkscape:zoom="0.62691298"
     inkscape:cx="323.8089"
     inkscape:cy="32.699913"
     inkscape:window-width="1486"
     inkscape:window-height="1428"
     inkscape:window-x="0"
     inkscape:window-y="0"
     inkscape:window-maximized="1"
     inkscape:current-layer="Capa_1" />
  <path
     d="M137.4,107.63V2.28c0-1.18.95-2.13,2.13-2.13h16.74c1.18,0,2.13.95,2.13,2.13v105.35c0,1.18-.95,2.13-2.13,2.13h-16.74c-1.18,0-2.13-.95-2.13-2.13Z"
     id="path1" />
  <path
     d="M214.01,111.49c-7.97,0-15.2-1.86-21.69-5.6-6.49-3.73-11.62-8.68-15.4-14.87-3.78-6.18-5.67-13.15-5.67-20.92s1.81-14.63,5.44-20.92c3.63-6.28,8.56-11.26,14.79-14.94s13.13-5.52,20.69-5.52,14.48,1.87,20.46,5.6c5.98,3.73,10.68,8.81,14.1,15.25,3.43,6.44,5.13,12.47,5.13,20.87v4.59c0,1.18-.95,2.13-2.13,2.13h-57.03c.92,3.17,2.45,6.03,4.6,8.58,2.15,2.56,4.75,4.52,7.82,5.9,3.06,1.38,6.38,2.07,9.96,2.07s6.74-.54,9.81-1.61c2.42-.85,4.55-1.99,6.4-3.45.84-.66,2.01-.69,2.8.04l10.52,9.59c.98.89.93,2.5-.14,3.29-4.26,3.19-8.62,5.57-13.07,7.16-5.16,1.84-10.96,2.76-17.4,2.76ZM192.4,62.14h38.93c-.82-3.16-2.17-5.95-4.06-8.35-1.89-2.4-4.17-4.27-6.82-5.59-2.66-1.33-5.52-1.99-8.58-1.99-3.27,0-6.23.64-8.89,1.91-2.66,1.28-4.88,3.12-6.67,5.52-1.79,2.4-3.09,5.24-3.91,8.51Z"
     id="path2" />
  <path
     d="M284.03,36.69s.23-.23.5-.48c1.07-.99,2.22-1.89,3.44-2.68,3.9-2.52,8.5-3.83,13.11-4.13,2.33-.15,4.67-.02,6.99.29,1.63.22,3.34.68,4.52,1.04.89.27,1.49,1.09,1.49,2.03v11.94c.01,1.38-1.3,2.42-2.63,2.06-4.51-1.23-8.98-1.6-13.67-.14-5.7,1.78-10.51,5.86-13.45,11.01-.19.34-.29.72-.29,1.11v49.08c0,1.18-.95,2.13-2.13,2.13h-16.89c-1.18,0-2.13-.95-2.13-2.13V32.23c0-1.18.95-2.13,2.13-2.13h16.89c1.18,0,2.13.95,2.13,2.13v4.46Z"
     id="path3" />
  <path
     d="M364.97,111.18c-8.79,0-15.45-2.02-20-6.05-4.54-4.04-6.82-9.94-6.82-17.7v-39.7h-14.27c-1.18,0-2.13-.95-2.13-2.13v-13.37c0-1.18.95-2.13,2.13-2.13h14.27V2.28c0-1.18.95-2.13,2.13-2.13h16.59c1.18,0,2.13.95,2.13,2.13v27.82h20.86c1.18,0,2.13.95,2.13,2.13v13.37c0,1.18-.95,2.13-2.13,2.13h-20.86v35.41c0,3.68.84,6.31,2.53,7.89,1.35,1.26,3.18,1.84,4.97,2.12,2.53.41,5.2.35,7.74.07,1.78-.2,3.51-.6,5.27-.89,1.3-.21,2.48.78,2.48,2.1v12.85c0,.99-.68,1.84-1.64,2.08-2,.5-4.5.9-6.94,1.22-3.17.41-5.98.62-8.43.62Z"
     id="path4" />
  <path
     d="M418.44,111.17c-5.62,0-10.63-1.31-15.02-3.41-4.39-2.09-7.82-4.55-10.27-8.23-2.45-3.68-3.68-7.92-3.68-12.72,0-7.67,2.86-13.62,8.58-17.86,5.72-4.24,13.69-6.36,23.91-6.36,6.95,0,13.49,1.07,19.62,3.22v-5.82c0-4.6-1.43-8.07-4.29-10.42-2.86-2.35-7.05-3.53-12.56-3.53-3.27,0-6.9.54-10.88,1.61-3.47.94-7.34,2.32-11.59,4.15-1.05.45-2.29.02-2.78-1.01l-5.65-11.76c-.53-1.1,0-2.45,1.12-2.92,5.57-2.32,10.9-4.12,15.99-5.39,5.72-1.43,11.44-2.15,17.17-2.15,10.93,0,19.36,2.58,25.29,7.74,5.92,5.16,8.89,12.44,8.89,21.84v49.67c0,1.18-.95,2.13-2.13,2.13h-16.43c-1.18,0-2.17-.95-2.17-2.13v-3.04c-5.9,2.82-6.65,3.17-10.53,4.44-3.75,1.22-7.97,1.95-12.57,1.95ZM406.15,86.35c0,3.06,1.46,5.49,4.39,7.28,2.92,1.79,6.8,2.68,11.64,2.68,3.92,0,7.75-.84,11.25-2.6,1.65-.83,3.34-1.76,4.78-2.92,1.18-.94,2.27-1.99,3.36-3.02v-8.33c-2.81-1.12-5.74-1.92-8.77-2.37-3.04-.46-6.3-.69-9.78-.69-5.29,0-9.42.87-12.4,2.6-2.98,1.74-4.47,4.19-4.47,7.36Z"
     id="path10" />
  <path
     d="M120.44,83.75L77.23,8.9c-3.25-5.33-9.11-8.9-15.8-8.9s-12.51,3.53-15.77,8.83c-.17.28-.33.56-.48.84L2.4,83.75c-3.11,5.51-3.31,12.48.08,18.34,3.42,5.92,9.62,9.23,16.01,9.24h.02c.26-.02,2.35-.17,5.23-.77,5.01-1.04,11.24-4.75,17.02-8.69,6.8-4.63,12.45-9.24,20.67-9.24s13.94,4.61,20.66,9.24c5.76,3.97,12.02,7.65,17.02,8.69,2.95.61,5.06.76,5.24.77h.01c6.39,0,12.59-3.31,16.01-9.24,3.39-5.87,3.19-12.83.08-18.34ZM61.43,83.39c-7.67,0-13.87-6.2-13.87-13.86s6.2-13.87,13.87-13.87,13.86,6.21,13.86,13.87-6.2,13.86-13.86,13.86Z"
     id="path11" />
  <text
     xml:space="preserve"
     style="font-size:147.617px;text-align:start;writing-mode:lr-tb;direction:ltr;text-anchor:start;fill:#808080;fill-opacity:0.521875;stroke-width:1.10713"
     x="259.62885"
     y="225.73676"
     id="text11"
     transform="scale(0.98943062,1.0106823)"><tspan
       sodipodi:role="line"
       id="tspan11"
       x="259.62885"
       y="225.73676"
       style="font-style:normal;font-variant:normal;font-weight:bold;font-stretch:normal;font-size:147.617px;font-family:Cantarell;-inkscape-font-specification:'Cantarell Bold';fill:#000000;fill-opacity:1;stroke-width:1.10713">UAMI</tspan></text>
</svg>
