<?xml version="1.0" encoding="UTF-8" standalone="no"?>
<svg
   id="Capa_1"
   viewBox="0 0 636.71 242.95"
   version="1.1"
   sodipodi:docname="Gris_oscuro.svg"
   inkscape:export-filename="Gris_oscuro.svg"
   inkscape:export-xdpi="96"
   inkscape:export-ydpi="96"
   inkscape:version="1.4.3 (0d15f75042, 2025-12-25)"
   xmlns:inkscape="http://www.inkscape.org/namespaces/inkscape"
   xmlns:sodipodi="http://sodipodi.sourceforge.net/DTD/sodipodi-0.dtd"
   xmlns="http://www.w3.org/2000/svg"
   xmlns:svg="http://www.w3.org/2000/svg">
  <sodipodi:namedview
     id="namedview11"
     pagecolor="#ffffff"
     bordercolor="#000000"
     borderopacity="0.25"
     inkscape:showpageshadow="2"
     inkscape:pageopacity="0.0"
     inkscape:pagecheckerboard="0"
     inkscape:deskcolor="#d1d1d1"
     inkscape:zoom="1.6192615"
     inkscape:cx="352.32111"
     inkscape:cy="115.79353"
     inkscape:window-width="1920"
     inkscape:window-height="1052"
     inkscape:window-x="0"
     inkscape:window-y="0"
     inkscape:window-maximized="1"
     inkscape:current-layer="Capa_1" />
  <defs
     id="defs1">
    <style
       id="style1">.cls-1{fill:#8e98ab;}</style>
  </defs>
  <path
     class="cls-1"
     d="M 198.08455,184.98491 V 46.836968 c 0,-1.547362 1.24576,-2.793119 2.79311,-2.793119 h 21.95157 c 1.54735,0 2.79311,1.245757 2.79311,2.793119 V 184.98491 c 0,1.54736 -1.24576,2.79311 -2.79311,2.79311 h -21.95157 c -1.54735,0 -2.79311,-1.24575 -2.79311,-2.79311 z"
     id="path1"
     style="stroke-width:1.31133" />
  <path
     class="cls-1"
     d="m 298.54506,190.04662 c -10.45126,0 -19.93212,-2.43906 -28.44262,-7.34341 -8.51049,-4.89124 -15.23758,-11.38229 -20.19439,-19.49938 -4.95679,-8.10398 -7.4352,-17.24391 -7.4352,-27.4329 0,-10.18898 2.3735,-19.18466 7.13361,-27.43289 4.7601,-8.23511 11.22492,-14.765499 19.39447,-19.591169 8.16954,-4.825672 17.21767,-7.238507 27.13128,-7.238507 9.91361,0 18.98797,2.452175 26.82968,7.343412 7.84172,4.891237 14.00494,11.552764 18.48967,19.997684 4.49784,8.44492 6.72708,16.35221 6.72708,27.36732 v 6.01899 c 0,1.54735 -1.24575,2.79311 -2.79311,2.79311 h -74.78479 c 1.20642,4.1569 3.21275,7.90728 6.0321,11.25115 2.81933,3.35699 6.22879,5.92719 10.25454,7.73682 4.01265,1.80963 8.36625,2.71443 13.06078,2.71443 4.69455,0 8.83833,-0.70811 12.86409,-2.11123 3.17341,-1.11463 5.96652,-2.60953 8.39247,-4.52407 1.10151,-0.86547 2.63577,-0.90481 3.67171,0.0525 l 13.79513,12.57559 c 1.28509,1.16708 1.21952,3.27831 -0.1836,4.31426 -5.58623,4.18311 -11.3036,7.30407 -17.139,9.38907 -6.76643,2.41284 -14.37209,3.61926 -22.81703,3.61926 z M 270.20735,125.3328 h 51.04982 c -1.07528,-4.14378 -2.84556,-7.80238 -5.32397,-10.94955 -2.4784,-3.14718 -5.46822,-5.59936 -8.94322,-7.3303 -3.48812,-1.74406 -7.23851,-2.60954 -11.25116,-2.60954 -4.28803,0 -8.16955,0.83925 -11.65767,2.50463 -3.48812,1.67849 -6.39926,4.09133 -8.74653,7.23851 -2.34727,3.14717 -4.05198,6.87133 -5.12727,11.15936 z"
     id="path2"
     style="stroke-width:1.31133" />
  <path
     class="cls-1"
     d="m 390.36393,91.959612 c 0,0 0.30161,-0.301603 0.65566,-0.629435 1.40312,-1.298209 2.91113,-2.478401 4.51095,-3.514346 5.11416,-3.304536 11.14626,-5.02237 17.19145,-5.415767 3.05539,-0.196699 6.12388,-0.02622 9.16616,0.380283 2.13746,0.288491 4.37981,0.891701 5.92718,1.363778 1.16708,0.354056 1.95387,1.429342 1.95387,2.661986 v 15.657199 c 0.0131,1.80963 -1.70472,3.17341 -3.44878,2.70133 -5.91407,-1.61293 -11.77568,-2.09812 -17.92579,-0.18358 -7.47454,2.33415 -13.78201,7.68435 -17.6373,14.43767 -0.24915,0.44585 -0.38029,0.94415 -0.38029,1.45557 v 64.35976 c 0,1.54736 -1.24575,2.79312 -2.79311,2.79312 h -22.14827 c -1.54735,0 -2.79311,-1.24576 -2.79311,-2.79312 V 86.11111 c 0,-1.547362 1.24576,-2.793119 2.79311,-2.793119 h 22.14827 c 1.54736,0 2.79311,1.245757 2.79311,2.793119 v 5.848502 z"
     id="path3"
     style="stroke-width:1.31133" />
  <path
     class="cls-1"
     d="m 496.50247,189.6401 c -11.52655,0 -20.25995,-2.64887 -26.22648,-7.9335 -5.95341,-5.29775 -8.94323,-13.03456 -8.94323,-23.21042 v -52.05956 h -18.71259 c -1.54736,0 -2.79312,-1.24575 -2.79312,-2.79311 v -17.5324 c 0,-1.547362 1.24576,-2.793119 2.79312,-2.793119 h 18.71259 V 46.836968 c 0,-1.547362 1.24576,-2.793119 2.79312,-2.793119 h 21.75486 c 1.54735,0 2.79312,1.245757 2.79312,2.793119 v 36.481023 h 27.3542 c 1.54737,0 2.79313,1.245757 2.79313,2.793119 v 17.5324 c 0,1.54736 -1.24576,2.79311 -2.79313,2.79311 h -27.3542 v 46.43397 c 0,4.82568 1.10151,8.27445 3.31764,10.34635 1.77029,1.65227 4.17002,2.41283 6.51729,2.78 3.31764,0.53765 6.81888,0.45897 10.14964,0.0918 2.33415,-0.26225 4.60274,-0.78679 6.91068,-1.16707 1.70472,-0.27538 3.25208,1.02283 3.25208,2.75377 v 16.85051 c 0,1.29822 -0.8917,2.41285 -2.15057,2.72756 -2.62265,0.65566 -5.90096,1.18019 -9.10059,1.59981 -4.1569,0.53765 -7.84171,0.81302 -11.05446,0.81302 z"
     id="path4"
     style="stroke-width:1.31133" />
  <path
     class="cls-1"
     d="m 566.61893,189.62699 c -7.36964,0 -13.93936,-1.71783 -19.69608,-4.47161 -5.75671,-2.74067 -10.25455,-5.96653 -13.46729,-10.79219 -3.21274,-4.82567 -4.82567,-10.38569 -4.82567,-16.68003 0,-10.05786 3.75039,-17.86023 11.25115,-23.42025 7.50077,-5.56001 17.95203,-8.34002 31.35375,-8.34002 9.1137,0 17.68975,1.40312 25.72817,4.22247 v -7.63191 c 0,-6.03209 -1.87519,-10.58238 -5.62558,-13.66399 -3.75039,-3.08161 -9.24482,-4.62897 -16.47022,-4.62897 -4.28803,0 -9.04814,0.70811 -14.2672,2.11123 -4.5503,1.23264 -9.62511,3.04227 -15.19824,5.44199 -1.37689,0.5901 -3.00293,0.0262 -3.64549,-1.32443 l -7.40897,-15.42117 c -0.69501,-1.442456 0,-3.212743 1.46869,-3.829065 7.30406,-3.04227 14.29342,-5.402653 20.96806,-7.068034 7.50077,-1.875192 15.00154,-2.819346 22.51542,-2.819346 14.33277,0 25.38722,3.383215 33.16337,10.149645 7.76305,6.76643 11.65767,16.31287 11.65767,28.63931 v 65.13344 c 0,1.54736 -1.24575,2.79312 -2.79311,2.79312 H 599.7823 c -1.54735,0 -2.84557,-1.24576 -2.84557,-2.79312 v -3.98642 c -7.7368,3.69794 -8.72031,4.15689 -13.80823,5.82227 -4.91748,1.59982 -10.45126,2.55708 -16.48333,2.55708 z m -16.11616,-32.54705 c 0,4.01265 1.91453,7.19917 5.75671,9.54643 3.82907,2.34728 8.917,3.51436 15.26381,3.51436 5.14038,0 10.16275,-1.10151 14.75239,-3.40945 2.16367,-1.08839 4.37981,-2.30793 6.26812,-3.82906 1.54737,-1.23265 2.97671,-2.60953 4.40605,-3.96019 V 148.0187 c -3.68483,-1.46869 -7.52699,-2.51775 -11.50032,-3.10783 -3.98641,-0.60322 -8.26132,-0.90482 -12.82473,-0.90482 -6.9369,0 -12.35267,1.14086 -16.26042,3.40943 -3.90774,2.28171 -5.86161,5.49446 -5.86161,9.65135 z"
     id="path10"
     style="stroke-width:1.31133" />
  <path
     class="cls-1"
     d="M 175.8445,153.67051 119.18221,55.51793 c -4.26179,-6.989355 -11.94616,-11.67078 -20.718916,-11.67078 -8.772754,0 -16.404658,4.628972 -20.679573,11.578987 -0.222925,0.367171 -0.432737,0.734342 -0.629436,1.101512 L 21.055862,153.67051 c -4.078217,7.22538 -4.340481,16.36531 0.104903,24.04967 4.484727,7.76303 12.614932,12.10351 20.994291,12.11663 h 0.02623 c 0.340943,-0.0262 3.08161,-0.22292 6.858222,-1.00972 6.569732,-1.36378 14.739277,-6.22878 22.318727,-11.39541 8.917001,-6.07142 16.325979,-12.11663 27.105059,-12.11663 10.779086,0 18.279856,6.04521 27.091946,12.11663 7.55322,5.20595 15.76211,10.03163 22.31873,11.39541 3.86841,0.7999 6.6353,0.9966 6.87134,1.00972 h 0.0131 c 8.37937,0 16.50957,-4.34049 20.99429,-12.11663 4.44539,-7.69747 4.18313,-16.82429 0.10493,-24.04967 z m -77.381206,-0.47208 c -10.057852,0 -18.188058,-8.13022 -18.188058,-18.17495 0,-10.04474 8.130206,-18.18806 18.188058,-18.18806 10.057846,0 18.174946,8.14332 18.174946,18.18806 0,10.04473 -8.13021,18.17495 -18.174946,18.17495 z"
     id="path11"
     style="stroke-width:1.31133" />
</svg>
