<?xml version="1.0" encoding="UTF-8" standalone="no"?>
<!-- Created with Inkscape (http://www.inkscape.org/) -->

<svg
   version="1.1"
   id="svg2788"
   width="528.65405"
   height="528.45251"
   viewBox="0 0 528.65405 528.45251"
   sodipodi:docname="logo.svg"
   inkscape:version="1.2.2 (b0a8486541, 2022-12-01)"
   xmlns:inkscape="http://www.inkscape.org/namespaces/inkscape"
   xmlns:sodipodi="http://sodipodi.sourceforge.net/DTD/sodipodi-0.dtd"
   xmlns="http://www.w3.org/2000/svg"
   xmlns:svg="http://www.w3.org/2000/svg">
  <defs
     id="defs2792" />
  <sodipodi:namedview
     id="namedview2790"
     pagecolor="#ffffff"
     bordercolor="#000000"
     borderopacity="0.25"
     inkscape:showpageshadow="2"
     inkscape:pageopacity="0.0"
     inkscape:pagecheckerboard="0"
     inkscape:deskcolor="#d1d1d1"
     showgrid="false"
     inkscape:zoom="1.2570787"
     inkscape:cx="311.43634"
     inkscape:cy="255.75168"
     inkscape:window-width="2560"
     inkscape:window-height="1043"
     inkscape:window-x="5120"
     inkscape:window-y="0"
     inkscape:window-maximized="1"
     inkscape:current-layer="g2794" />
  <g
     inkscape:groupmode="layer"
     inkscape:label="Image"
     id="g2794"
     transform="translate(-150.32285,-12.529343)">
    <path
       style="fill:#be202e;fill-opacity:1"
       d="m 388.64987,540.33717 c -33.47831,-3.7005 -62.94302,-12.33969 -92.5,-27.12144 C 218.6868,474.47564 166.04921,401.52617 152.66045,314.35637 c -2.2747,-14.80978 -3.06134,-44.82162 -1.58788,-60.58033 3.23934,-34.64499 11.75617,-64.50295 27.21794,-95.41967 C 217.0306,80.8933 289.98007,28.25571 377.14987,14.866944 c 14.80978,-2.274694 44.82162,-3.06134 60.58033,-1.587881 34.64499,3.239349 64.50295,11.756172 95.41967,27.217945 77.46307,38.740087 130.10066,111.689562 143.48942,198.859362 2.2747,14.80978 3.06134,44.82162 1.58788,60.58033 -3.23934,34.64499 -11.75617,64.50295 -27.21794,95.41967 -38.74703,77.47696 -111.32902,129.85867 -198.85936,143.51486 -12.26505,1.91355 -51.29815,2.81465 -63.5,1.46594 z m 60,-21.38385 c 28.06362,-4.20453 51.41917,-11.51262 75.64544,-23.66994 66.50923,-33.37589 115.01495,-96.58434 129.76509,-169.09861 3.58459,-17.62252 4.55658,-28.14502 4.55658,-49.3284 0,-27.18351 -2.54843,-45.65826 -9.58694,-69.5 -25.3327,-85.81015 -97.54059,-152.109871 -185.05177,-169.910528 -17.62252,-3.584599 -28.14502,-4.556589 -49.3284,-4.556589 -27.18351,0 -45.65826,2.548439 -69.5,9.586949 -78.69732,23.232863 -142.07423,86.680228 -164.91909,165.102408 -7.1054,24.39153 -9.54802,42.11454 -9.54802,69.27776 0,27.18351 2.54843,45.65826 9.58694,69.5 27.28781,92.43273 109.40423,162.07589 203.88017,172.91132 5.225,0.59925 10.85,1.27812 12.5,1.5086 6.28093,0.87733 42.4367,-0.39018 52,-1.82297 z m -50.2355,-8.65134 c -45.78332,-2.98766 -90.94969,-20.34804 -128.2645,-49.3004 -8.5895,-6.66455 -27.60683,-25.25459 -35.44152,-34.64521 -60.66812,-72.7165 -71.20913,-176.12504 -26.48567,-259.82771 10.3555,-19.38094 22.13077,-35.3409 38.37624,-52.01439 16.53509,-16.970717 29.99077,-27.73616 48.55095,-38.84399 76.24286,-45.629557 174.7508,-43.29814 248.34152,5.877574 13.79055,9.215294 21.0208,15.098149 33.50058,27.257566 16.97071,16.53509 27.73616,29.99077 38.84399,48.55095 45.62958,76.24291 43.29878,174.74013 -5.87665,248.34152 -16.81679,25.16986 -40.55081,49.12128 -64.80944,65.40309 -43.12586,28.94503 -94.3191,42.62152 -146.7355,39.201 z m 44.43428,-12.4778 c 100.87152,-13.0965 179.51438,-91.76987 192.76326,-192.83802 1.96779,-15.01118 1.97047,-41.19606 0.006,-56.32857 C 622.52118,147.78607 543.84781,69.143206 442.77966,55.894328 427.76848,53.926534 401.5836,53.923854 386.45109,55.888561 285.57957,68.985062 206.93671,147.65843 193.68783,248.72658 c -1.96779,15.01118 -1.97047,41.19606 -0.006,56.32857 13.04232,100.45419 91.34063,179.06606 191.96781,192.7366 13.92576,1.89186 42.75122,1.9082 57.19878,0.0324 z m -70.49707,-55.48997 c -9.63611,-2.5245 -18.68114,-7.45115 -22.56122,-12.28863 -10.51342,-13.1076 -12.77695,-14.38926 -31.14049,-17.63243 -13.71992,-2.42306 -20.88811,-5.45765 -25.622,-10.84687 l -3.2588,-3.70991 -11.0596,-0.0423 c -6.08278,-0.0233 -13.5346,-0.6478 -16.5596,-1.3878 -13.07167,-3.1977 -23.44759,-11.02752 -28.8063,-21.73764 -5.18779,-10.36851 -5.6937,-14.32318 -5.6937,-44.50724 0,-31.68233 -0.14681,-31.1014 9.06855,-35.88464 7.06829,-3.6688 7.08549,-6.27047 0.13518,-20.44872 -7.24544,-14.78028 -8.92595,-20.22867 -8.92595,-28.93877 0,-10.85976 2.09593,-14.63046 16.07928,-28.92757 6.52254,-6.6689 12.64399,-13.65433 13.60322,-15.52318 1.04113,-2.02841 2.09458,-7.43341 2.61376,-13.41048 1.93543,-22.28182 10.33697,-35.34706 25.82564,-40.16152 14.28749,-4.44108 27.30507,-13.55577 45.38223,-31.77585 7.48446,-7.54362 14.29235,-13.51406 16.42635,-14.4057 4.90562,-2.049702 10.15549,-1.169322 23.79174,3.98976 9.34515,3.53561 11.97786,4.12767 17.5,3.93549 3.575,-0.12441 9.875,-0.34424 14,-0.48852 6.61969,-0.23152 8.27299,0.10261 14.08569,2.84678 3.96634,1.8725 9.13686,5.53685 13,9.21309 l 6.41431,6.104 -5,-0.72457 c -9.84393,-1.42653 -40.4454,-0.73595 -49.84601,1.12486 -30.49274,6.03592 -55.37734,19.20956 -76.6698,40.58817 -22.91877,23.0115 -36.32792,47.26485 -42.13239,76.20557 -1.48756,7.41686 -1.65398,39.37807 -0.2358,45.28333 1.46353,6.09406 3.17171,5.60586 2.28088,-0.65187 -1.28957,-9.0588 -0.96416,-28.55911 0.6616,-39.64629 2.86084,-19.51004 11.63999,-41.5202 24.04914,-60.2935 6.22744,-9.42124 25.65305,-28.85679 35.67039,-35.68864 16.39193,-11.17933 36.12991,-19.53089 55.18274,-23.34898 15.05562,-3.01706 39.38421,-2.95833 53.70933,0.12968 9.05418,1.95177 10.75339,2.62366 11.22018,4.4366 0.30255,1.17508 1.91613,3.0365 3.58573,4.1365 3.42271,2.25501 4.06805,3.69771 4.41669,9.8737 0.14526,2.57319 1.38122,6.27115 3.04469,9.10965 l 2.80017,4.77813 -4.06464,-2.28446 c -2.23555,-1.25645 -7.46144,-5.11981 -11.61307,-8.58524 -13.39796,-11.18348 -21.28276,-14.6545 -38.49506,-16.94614 -15.7353,-2.095 -20.61127,-1.93118 -22.49324,0.75569 -1.42071,2.02835 -1.37458,2.37941 0.58693,4.46734 1.17084,1.24631 4.27958,2.98038 6.90831,3.85351 3.11389,1.03426 5.67634,2.76331 7.35299,4.96151 1.64617,2.15823 4.45544,4.07605 7.79624,5.32228 4.47159,1.66805 5.34674,2.43336 6.08487,5.32114 1.34067,5.24509 4.14552,7.57211 10.02398,8.3163 4.852,0.61425 5.382,0.96947 8.48774,5.68884 2.50765,3.81053 3.72262,4.86446 5,4.33727 4.28014,-1.7665 4.95528,-1.58118 7.14452,1.96109 3.27933,5.30606 5.23948,6.01991 9.94225,3.62073 4.50303,-2.29727 10.61867,-9.28282 11.62015,-13.27305 0.6435,-2.56391 0.92212,-2.6795 5.08395,-2.10905 4.09038,0.56064 4.64041,0.35194 7.74336,-2.93815 3.71877,-3.94304 5.90853,-10.38159 6.05575,-17.80569 0.0536,-2.70219 0.2423,-4.91585 0.41936,-4.91924 0.65147,-0.0125 9.85168,5.48824 15.67807,9.37375 3.3,2.2007 11.10915,8.97802 17.35367,15.06069 23.65428,23.04119 32.16696,38.99109 32.13155,60.20374 -0.008,4.87062 -0.6953,11.78066 -1.52705,15.35566 -3.2258,13.86506 -18.59783,38.90959 -25.69159,41.85745 -7.41665,3.08204 -18.39072,-0.91172 -28.67936,-10.43719 -10.37395,-9.60444 -21.08221,-24.45199 -37.93253,-52.59538 -7.9622,-13.29846 -8.31867,-13.71861 -12.94229,-15.25433 -9.37829,-3.11497 -18.89241,-4.53609 -30.48272,-4.55319 l -11.77033,-0.0174 2.02033,-3.96016 c 2.18207,-4.27722 2.51891,-6.03984 1.15421,-6.03984 -1.12225,0 -7.189,13.56003 -7.82256,17.48452 -0.26775,1.65852 0.41737,6.61548 1.52249,11.01548 4.89115,19.47394 5.56796,38.80611 1.54714,44.19157 -3.18313,4.26345 -4.48715,3.98834 -2.69698,-0.56897 0.8658,-2.20411 1.27174,-4.79561 0.90209,-5.75889 -0.57339,-1.49425 -0.94209,-1.30741 -2.51101,1.27247 -1.70893,2.8101 -8.63904,7.13317 -9.71309,6.05912 -0.26159,-0.26158 0.93993,-2.48385 2.67004,-4.93837 1.90054,-2.69632 3.01153,-5.37357 2.80682,-6.76385 l -0.33883,-2.30109 -3.14436,2.65401 c -5.61507,4.73942 -7.30037,2.93852 -2.43537,-2.60242 1.60615,-1.8293 4.04931,-5.87894 5.42923,-8.99919 3.04723,-6.89033 2.63525,-9.10497 -4.07663,-21.91439 l -4.5429,-8.66999 4.13501,-10.66966 c 4.31358,-11.1304 4.67392,-12.49035 3.30945,-12.49035 -0.45406,0 -2.36656,3.86192 -4.25,8.58205 l -3.42443,8.58205 -11.84683,6.04671 c -10.02804,5.11837 -13.29334,7.42957 -21.26871,15.05407 -9.93657,9.49942 -17.28804,19.44766 -21.40538,28.96645 -1.36349,3.15223 -2.92908,5.57995 -3.47908,5.39493 -0.58149,-0.19562 -0.88119,-3.43124 -0.7161,-7.73133 0.15614,-4.06721 0.0351,-8.40743 -0.26905,-9.64493 -1.17735,-4.79072 -2.02458,-1.82147 -2.25138,7.89031 -0.2352,10.0714 -0.2176,10.15442 3.1257,14.74406 4.40164,6.04253 13.02503,21.41518 15.21069,27.11563 0.94896,2.475 1.82444,4.63474 1.94552,4.79943 0.12107,0.16468 1.91069,-0.84782 3.97693,-2.25 3.56468,-2.41907 4.4425,-2.54943 17.1669,-2.54943 18.53895,0 20.26647,1.06398 26.79014,16.5 2.09201,4.95 4.66909,11.01775 5.72687,13.48389 l 1.92322,4.48389 2.97323,-6.19483 c 13.90082,-28.96284 54.6427,-38.45297 80.65497,-18.78722 5.94338,4.49331 7.24236,4.75168 7.24236,1.44057 0,-1.07562 1.53935,-3.63656 3.42078,-5.69099 l 3.42077,-3.73531 16.92649,-0.31396 c 16.91904,-0.31383 16.92782,-0.31284 19.97662,2.25256 1.67757,1.41158 4.49321,4.81536 6.25698,7.56396 1.76377,2.74859 3.37111,4.99744 3.57188,4.99744 0.20076,0 1.90055,-2.40041 3.7773,-5.33424 6.09362,-9.52587 6.45843,-9.66576 25.20731,-9.66576 16.24203,0 16.29757,0.008 19.50112,2.70331 5.88816,4.95456 5.9409,5.38981 5.9392,49.01457 -0.002,44.36087 -0.009,44.41101 -6.89633,49.01219 -3.14601,2.10167 -4.4803,2.26965 -18,2.26619 -12.71838,-0.003 -15.01512,-0.25556 -17.80357,-1.95578 -3.3974,-2.07151 -6.29855,-6.64044 -6.29855,-9.91939 0,-1.73119 -0.68684,-1.97823 -5.5,-1.97823 -4.26614,0 -5.5,0.34266 -5.5,1.52744 0,3.15157 -3.33134,8.37136 -6.65284,10.42416 -2.87125,1.77453 -4.6016,2.06035 -10.46691,1.72893 l -7.02698,-0.39706 -6.71532,6.53684 c -4.0394,3.93204 -8.03562,9.05977 -10.02867,12.86825 -4.16941,7.96723 -8.28258,12.67781 -13.5146,15.47749 -3.74078,2.00172 -5.21825,2.15846 -17.09468,1.81354 -29.99708,-0.8712 -29.82044,-0.88163 -33.58029,1.98326 -9.47137,7.2169 -19.35008,9.88175 -36.41971,9.82445 -8.49441,-0.0285 -14.13207,-0.59885 -19.29829,-1.95232 z m 64.29829,-27.4907 c 27.41591,-4.11531 51.00027,-15.39942 59.94455,-28.68091 3.66759,-5.44605 4.39723,-7.80623 2.41326,-7.80623 -3.27693,0 -15.72311,4.55031 -18.24083,6.66883 l -2.90019,2.44036 2.89161,-0.69346 c 1.59038,-0.3814 5.4678,-1.48026 8.61648,-2.44191 5.43061,-1.65859 5.67706,-1.6591 4.79452,-0.0101 -0.51169,0.95612 -3.57407,4.18601 -6.80528,7.17754 -13.38087,12.38832 -36.61096,19.46225 -70.21412,21.3813 -23.17503,1.3235 -48.96103,-3.04334 -68,-11.51577 -9.50678,-4.23055 -16.48304,-6.25455 -14.5,-4.20683 1.88112,1.94248 18.99091,9.96067 26.80834,12.56324 6.71864,2.23676 16.55496,4.52189 25.69166,5.96857 6.97286,1.10407 40.30715,0.53526 49.5,-0.84465 z M 289.67988,385.80654 c 12.0376,-3.1354 19.88582,-10.58139 23.50562,-22.30096 1.74615,-5.65337 1.96437,-9.34759 1.96437,-33.25455 v -26.89466 h -14 -14 v 24.35078 c 0,26.5479 -0.51603,29.83047 -5.05876,32.1796 -6.3968,3.30792 -13.00469,0.50274 -14.90122,-6.32587 -0.56858,-2.04721 -1.03136,-14.10595 -1.03444,-26.95451 l -0.006,-23.25 H 252.0808 238.01214 l 0.33787,28.75 c 0.31033,26.40632 0.50823,29.16835 2.42773,33.88196 5.73387,14.08038 17.47887,21.14571 35.41161,21.30223 4.14695,0.0362 10.2175,-0.63161 13.49011,-1.48402 z m -26.03001,-3.78756 c -9.3677,-3.10649 -14.88444,-7.87497 -18.69878,-16.16261 -2.18986,-4.75803 -2.3162,-6.29453 -2.61087,-31.75 l -0.30964,-26.75 h 10.51076 10.51077 l 0.29888,24.92917 c 0.28164,23.49144 0.41973,25.09186 2.39439,27.75 4.24156,5.70969 14.5506,6.5931 20.31696,1.74102 4.2931,-3.6124 5.08753,-8.74402 5.08753,-32.86301 v -21.55718 h 10.07155 10.07155 l -0.32155,27.25 -0.32155,27.25 -2.66071,5 c -6.04237,11.35483 -14.0301,15.68267 -29.83929,16.16724 -6.86687,0.21048 -11.88405,-0.13714 -14.5,-1.00463 z m 198.79297,2.0608 c 3.12288,-1.4297 7.30779,-3.84259 9.29982,-5.36198 3.5899,-2.73815 10.40721,-10.9001 10.40721,-12.45992 0,-0.7497 -19.17334,-14.90151 -20.18905,-14.90151 -0.24923,0 -2.51813,1.9786 -5.04199,4.39689 -7.57279,7.256 -16.91206,7.21526 -22.49025,-0.0981 -3.5405,-4.64184 -4.31023,-14.01749 -1.58277,-19.27883 5.15068,-9.93576 17.59104,-10.56099 25.25026,-1.26903 l 2.87683,3.4901 10.55851,-8.24225 c 8.90431,-6.95093 10.40892,-8.52176 9.60369,-10.02634 -2.2126,-4.13429 -10.93269,-11.52356 -16.98237,-14.3906 -6.14018,-2.90996 -7.17212,-3.08184 -18.50286,-3.08184 -11.41424,0 -12.32819,0.15547 -18.72333,3.18498 -12.09585,5.73006 -19.92587,15.11175 -23.24376,27.84998 -5.09193,19.54924 3.84485,40.03517 21.33023,48.89569 7.42947,3.76479 11.4742,4.5288 22.19437,4.19226 7.74997,-0.2433 10.63134,-0.79166 15.23546,-2.8995 z m -30.79297,-2.47077 c -2.75,-0.98547 -7.1601,-3.28263 -9.80022,-5.1048 -16.57939,-11.44281 -20.71493,-37.18442 -8.76441,-54.55391 13.01563,-18.91757 43.85088,-21.63264 59.89212,-5.27354 l 4.3275,4.41324 -7.8275,6.08487 -7.82749,6.08488 -3,-2.90101 c -7.65821,-7.40552 -17.70622,-7.88568 -24.8761,-1.18875 -11.44577,10.69077 -7.18221,31.26624 7.28616,35.16216 6.39434,1.72182 12.26456,-0.0151 17.82007,-5.27268 l 3.23012,-3.05691 7.0928,4.89038 c 3.90103,2.68971 7.33815,5.28738 7.63803,5.7726 0.95832,1.55059 -8.99603,10.68475 -14.67854,13.46911 -7.24826,3.55155 -22.64056,4.2953 -30.51254,1.47436 z m -86.50043,-2.25264 2.64092,-6.5 12.07962,-0.27998 12.07963,-0.27997 2.75812,7.02997 2.75811,7.02998 h 14.84202 c 8.1631,0 14.84996,-0.3375 14.85968,-0.75 0.01,-0.4125 -7.72155,-19.0875 -17.18061,-41.5 l -17.19829,-40.75 h -12.66781 -12.6678 l -17.15158,40.75524 c -9.43337,22.41539 -17.15158,41.10242 -17.15158,41.52674 0,0.42432 6.6057,0.64696 14.67933,0.49475 l 14.67933,-0.27673 z m -26.66752,2.25 c 0.24754,-0.4125 6.61567,-15.375 14.15139,-33.25 7.53573,-17.875 14.61516,-34.6375 15.73208,-37.25 l 2.03077,-4.75 h 9.76987 c 6.88112,0 9.9185,0.3696 10.27255,1.25 0.27647,0.6875 6.88825,16.325 14.69284,34.75 7.80459,18.425 14.80966,34.97708 15.56682,36.7824 l 1.37665,3.2824 -11.1425,-0.2824 -11.14249,-0.2824 -2.64069,-6.5 -2.64068,-6.5 -14.5819,-0.27618 -14.58191,-0.27617 -2.68485,7.02617 -2.68485,7.02618 h -10.97159 c -6.03438,0 -10.76906,-0.3375 -10.52151,-0.75 z m 49.50128,-30.04742 c -0.18333,-0.43858 -1.89591,-4.93858 -3.80573,-10 -1.90982,-5.06142 -3.74637,-9.20258 -4.08122,-9.20258 -0.59525,0 -7.94638,17.82602 -7.94638,19.26947 0,0.40179 3.6375,0.73053 8.08333,0.73053 4.44584,0 7.93334,-0.35884 7.75,-0.79742 z m -10.83333,-2.55336 c 0,-0.19292 0.51808,-1.83693 1.15128,-3.65335 1.0732,-3.07857 1.24277,-3.17747 2.5,-1.45809 2.2115,3.0244 1.69767,5.46222 -1.15128,5.46222 -1.375,0 -2.5,-0.15785 -2.5,-0.35078 z m 166,20.41675 0.5,-16.43404 6.38213,9.68404 c 4.76551,7.23102 6.9186,9.6788 8.5,9.66339 1.57022,-0.0153 3.86174,-2.66579 8.86178,-10.25 l 6.7439,-10.22936 0.006,17.25 0.006,17.25 h 14 14 v -41.5 -41.5 h -13.76285 -13.76286 l -7.48714,12.12785 c -4.11793,6.67031 -7.8894,12.18281 -8.38103,12.25 -0.49163,0.0672 -4.30653,-5.39035 -8.47755,-12.12785 l -7.58348,-12.25 h -13.77245 -13.77245 v 30.53518 c 0,30.22531 0.0203,30.52433 2,29.46482 1.92547,-1.03048 2,-2.09382 2,-28.53518 v -27.46482 h 10.8439 10.8439 l 6.83403,11.25 c 3.75873,6.1875 7.80715,12.71127 8.9965,14.49726 l 2.16247,3.24726 8.87232,-14.49726 8.87233,-14.49726 h 10.78728 10.78727 v 37.5 37.5 h -10 -10 l -0.02,-21.75 -0.02,-21.75 -9.48095,14.41758 c -5.21452,7.92967 -9.66665,14.60329 -9.89362,14.83027 -0.22698,0.22697 -4.61407,-6.02477 -9.74909,-13.89276 l -9.33634,-14.30545 -0.26989,21.22518 c -0.22826,17.95185 -0.49815,21.22518 -1.75,21.22518 -0.81406,0 -1.48011,0.1882 -1.48011,0.41821 0,0.23002 -0.28494,1.16076 -0.6332,2.06831 -0.53262,1.38798 -0.0164,1.59953 3.25,1.33179 l 3.8832,-0.31831 z m -39.19658,-29.97132 -0.30342,-4.9724 -6,4.48789 c -3.3,2.46834 -6.11087,4.80334 -6.24637,5.18888 -0.1355,0.38554 2.5645,2.63001 6,4.98772 l 6.24637,4.28674 0.30342,-4.50322 c 0.16688,-2.47677 0.16688,-6.74079 0,-9.47561 z m -33.48642,8.09636 2.69118,-2.80899 -2.89617,-2.7747 c -5.24619,-5.02618 -10.86013,-1.17463 -8.22463,5.64268 1.40867,3.64384 4.90553,3.61937 8.42962,-0.059 z m -119.317,-32.87827 c 0,-0.23693 -0.50838,-0.11658 -1.12973,0.26744 -0.70133,0.43344 -0.91557,0.17142 -0.56498,-0.69098 2.29092,-5.63525 2.86167,-8.88833 2.0085,-11.44783 l -0.93182,-2.79547 -2.19099,3.54508 c -1.86167,3.01225 -2.18232,4.95524 -2.13337,12.92705 l 0.0576,9.38197 2.4424,-5.37824 c 1.34331,-2.95804 2.44239,-5.5721 2.44239,-5.80902 z m -5.56988,-21.06274 c -0.81811,-10.61754 -2.08122,-12.96157 -11.46974,-21.28513 l -6.96038,-6.17084 v -10.89701 c 0,-5.99336 -0.40904,-10.89702 -0.90898,-10.89702 -0.87891,0 -2.05689,20.47632 -1.29439,22.5 0.20723,0.55 3.13737,3.39928 6.51143,6.33172 l 6.13465,5.33173 -0.29511,7.16827 -0.2951,7.16828 4.32375,4.67258 c 2.37806,2.56992 4.45972,4.70742 4.62592,4.75 0.16619,0.0426 -0.001,-3.86008 -0.37205,-8.67258 z m 178.56988,-51.25 c 1.31818,-1.31818 2,-3.33333 2,-5.91111 0,-3.13971 -0.60682,-4.42171 -3.07673,-6.5 -3.57406,-3.00738 -4.67089,-3.15439 -7.70076,-1.03219 -1.70757,1.19603 -2.21514,2.52826 -2.19071,5.75 0.0335,4.42346 1.17928,6.59929 4.4682,8.48548 2.86373,1.64235 4.23226,1.47556 6.5,-0.79218 z m -7.78067,-1.55893 c -2.91972,-2.04505 -3.0972,-7.90088 -0.28507,-9.40589 4.62631,-2.47592 9.06574,-0.0697 9.06574,4.9138 0,4.58774 -4.99545,7.14336 -8.78067,4.49209 z m -45.48578,-43.04325 c 2.46726,-4.30568 2.951,-9.60964 1.01645,-11.14499 -0.6875,-0.54562 -3.02515,-1.31256 -5.19477,-1.70429 -5.33778,-0.96376 -12.62186,-4.77757 -20.16072,-10.55579 -7.18684,-5.50841 -15.11541,-8.7852 -23.33574,-9.6444 -6.88965,-0.72011 -10.05877,0.61676 -10.05877,4.2432 0,2.32055 5.2198,8.40845 7.20944,8.40845 0.42005,0 1.42299,1.57786 2.22877,3.50636 0.92298,2.20901 2.50045,3.88164 4.26342,4.52064 5.54276,2.00898 7.58741,3.50369 8.54316,6.24535 1.44577,4.14735 6.03548,6.08234 14.09872,5.9439 5.96567,-0.10242 7.12046,0.18134 9.00255,2.21215 4.28618,4.62486 9.01824,3.84917 12.38749,-2.03058 z m -12.03931,0.0706 c -1.69301,-1.48944 -4.07259,-2.48442 -6,-2.50879 -2.73509,-0.0346 -5.25002,-2.04697 -17.49609,-14 -14.25952,-13.91832 -14.29144,-13.95963 -10.78751,-13.95963 5.76738,0 14.01876,3.74074 21.15601,9.59102 8.20635,6.72661 11.08101,8.26188 16.98482,9.07109 2.52227,0.34571 5.52493,1.38892 6.67258,2.31823 1.85746,1.50408 1.95838,2.0576 0.9188,5.03973 -2.51261,7.20768 -6.53544,8.77074 -11.44861,4.44833 z m -84.09054,80.82854 c -0.73596,-3.17702 -4.10075,-8.29696 -5.45271,-8.29696 -0.38711,0 -0.53721,1.74733 -0.33354,3.88297 0.20379,2.13698 -0.12156,4.18695 -0.72358,4.55901 -0.67396,0.41654 -1.09387,-0.23113 -1.09387,-1.68718 0,-3.07372 -5.21077,-11.26085 -8.18288,-12.85691 -1.27442,-0.68438 -4.63576,-1.95387 -7.46966,-2.8211 l -5.15254,-1.57679 1.52133,-3.77968 c 1.80525,-4.48505 1.70893,-4.49693 14.93713,1.84317 5.49329,2.63287 11.29129,6.35773 14.5,9.31539 5.7709,5.31938 6.31753,7.65743 0.84662,3.62112 -1.84623,-1.3621 -3.50346,-2.32988 -3.68273,-2.15061 -0.17927,0.17927 0.40437,1.7899 1.29698,3.57918 1.2289,2.46339 1.39331,4.02023 0.67718,6.41233 l -0.94574,3.1591 z m 66.69247,-52.76179 c 0.0605,-2.13614 -0.58014,-4.24771 -1.59754,-5.26511 -1.59817,-1.59818 -1.69863,-1.57098 -1.69863,0.45989 0,2.3001 -4.42886,8.16986 -5.41926,7.18238 -0.32418,-0.32322 0.0889,-1.94746 0.91804,-3.60943 2.57668,-5.16507 1.07379,-8.69497 -6.38424,-14.99497 -3.638,-3.07311 -6.76454,-5.97458 -6.94787,-6.4477 -0.18334,-0.47313 2.55249,-0.86023 6.07961,-0.86023 h 6.41295 l 8.01156,7.79912 c 8.4051,8.18223 10.2515,11.70442 8.11042,15.4714 -1.24922,2.19785 -1.27209,2.18692 -1.61269,-0.77052 -0.19002,-1.65 -0.86817,-3.63745 -1.50701,-4.41655 -0.92665,-1.13011 -1.26261,-0.43809 -1.66151,3.42246 -0.59173,5.72679 -2.85683,7.42677 -2.70383,2.02926 z m 23.00035,-48.33865 c -1.86809,-2.03309 -4.05933,-4.49433 -4.86944,-5.46944 -1.1346,-1.3657 -1.91193,-1.53796 -3.38426,-0.75 -2.71313,1.45202 -2.73953,1.43835 -5.61722,-2.91014 -2.66964,-4.03409 -6.52029,-6.06694 -11.49212,-6.06694 -2.38967,0 -3.00759,-0.64933 -4.52024,-4.75 -2.31746,-6.28244 -4.12776,-8.25 -7.59057,-8.25 -1.95759,0 -4.25074,-1.27516 -7.22744,-4.01898 -2.70355,-2.49205 -6.32808,-4.60342 -9.53996,-5.55725 -3.90981,-1.16109 -5.09566,-1.9533 -4.83643,-3.23101 0.29745,-1.46602 1.61177,-1.66357 9.81231,-1.47484 18.12879,0.41721 32.2509,5.67774 44.96885,16.75104 4.125,3.59157 10.5375,8.12987 14.25,10.08511 6.12922,3.22804 6.75,3.84164 6.75,6.67187 0,2.37347 -1.03915,4.11258 -4.35674,7.29138 -6.19814,5.93886 -8.18455,6.20902 -12.34674,1.6792 z m 78.73893,-7.87858 c -1.16034,-1.47513 -1.87657,-3.2896 -1.59162,-4.03215 0.28494,-0.74255 1.23652,-4.14813 2.11461,-7.56794 0.8781,-3.41982 2.01167,-6.64535 2.51905,-7.16785 0.50738,-0.5225 0.92251,-2.10987 0.92251,-3.52749 0,-1.41763 0.67491,-3.54106 1.49979,-4.71875 0.82489,-1.17769 1.27902,-2.74032 1.00918,-3.47251 -0.26984,-0.73219 0.32632,-4.03125 1.3248,-7.33125 l 1.81541,-6 1.29421,3.87498 c 0.88041,2.63603 1.15991,7.64155 0.87419,15.6555 -0.39931,11.19958 -0.60512,12.15504 -4.17343,19.37502 -2.06437,4.17698 -4.14616,7.5945 -4.6262,7.5945 -0.48003,0 -1.82216,-1.20693 -2.9825,-2.68206 z m -59.3896,-8.32403 c -4.21456,-3.70043 -6.64585,-8.62487 -6.64585,-13.46078 0,-4.61853 -1.37078,-7.21877 -5.8757,-11.14559 -3.31328,-2.88811 -3.48249,-3.30597 -2.34748,-5.79705 2.56236,-5.62377 0.59906,-12.35747 -5.33237,-18.2889 -1.74705,-1.74705 -2.23797,-3.92368 -2.70525,-11.99441 -0.33546,-5.794067 -0.66056,-6.515698 -5.04887,-11.207162 -3.99913,-4.275388 -4.69033,-5.614746 -4.69033,-9.088564 0,-5.838241 1.96649,-6.052025 8.59928,-0.934861 11.29332,8.71273 23.29457,23.909427 31.13375,39.423407 9.4779,18.75705 11.25684,28.68428 6.84005,38.17048 -3.73708,8.02634 -8.14971,9.39616 -13.92723,4.32343 z m 48.42524,-4.21803 c -4.16851,-4.46733 -5.1552,-6.09177 -4.25,-6.99697 0.6484,-0.6484 1.17891,-2.57526 1.17891,-4.28191 0,-1.9016 1.20889,-4.74683 3.12236,-7.34875 2.79216,-3.79674 3.05611,-4.74522 2.49586,-8.96858 -0.43947,-3.31292 -0.20429,-5.32563 0.7878,-6.74203 1.67637,-2.39335 1.48489,-14.90444 -0.27853,-18.19943 -0.62012,-1.1587 -1.12749,-2.76082 -1.12749,-3.56026 0,-0.79944 -1.60405,-3.785401 -3.56455,-6.635469 -4.06266,-5.90607 -1.90988,-5.624735 3.42127,0.447107 8.81737,10.042432 12.51019,26.490122 10.21794,45.510412 -1.28519,10.66406 -3.76077,20.55426 -5.45165,21.77993 -0.70746,0.51281 -3.13187,-1.33883 -6.55192,-5.00405 z m -14.90332,-11.5602 c -5.32098,-3.7635 -6.22081,-4.81707 -5.63453,-6.59722 0.83848,-2.54587 0.81308,-5.00662 -0.0974,-9.43266 -0.46829,-2.27655 -0.11794,-4.56448 1.11898,-7.30748 l 1.80072,-3.99328 -2.80012,-2.59642 c -2.66163,-2.46799 -2.76844,-2.90571 -2.15946,-8.84963 l 0.64066,-6.25321 -3.51711,-2.173693 c -2.87564,-1.777243 -3.40828,-2.60728 -2.92043,-4.551029 0.39829,-1.586909 -0.13712,-3.407855 -1.61032,-5.476775 -4.38893,-6.163686 0.99211,-4.808369 8.54287,2.151685 5.99443,5.525467 14.04027,17.683532 15.94339,24.092032 2.00308,6.74511 2.00251,22.80082 -10e-4,29.54754 -0.83929,2.8262 -1.85179,5.31412 -2.25,5.52872 -0.39821,0.2146 -3.57352,-1.62526 -7.05625,-4.08858 z"
       id="path3311" />
  </g>
</svg>
