<?xml version="1.0" encoding="UTF-8" standalone="no"?>
<!-- Created with Inkscape (http://www.inkscape.org/) -->

<svg
   version="1.1"
   id="svg334"
   width="718.75739"
   height="407.0441"
   viewBox="0 0 718.75739 407.0441"
   sodipodi:docname="UACM.svg"
   inkscape:version="1.2.2 (b0a8486541, 2022-12-01)"
   xmlns:inkscape="http://www.inkscape.org/namespaces/inkscape"
   xmlns:sodipodi="http://sodipodi.sourceforge.net/DTD/sodipodi-0.dtd"
   xmlns="http://www.w3.org/2000/svg"
   xmlns:svg="http://www.w3.org/2000/svg">
  <defs
     id="defs338" />
  <sodipodi:namedview
     id="namedview336"
     pagecolor="#ffffff"
     bordercolor="#000000"
     borderopacity="0.25"
     inkscape:showpageshadow="2"
     inkscape:pageopacity="0.0"
     inkscape:pagecheckerboard="0"
     inkscape:deskcolor="#d1d1d1"
     showgrid="false"
     inkscape:zoom="0.77124183"
     inkscape:cx="798.06356"
     inkscape:cy="442.79237"
     inkscape:window-width="2560"
     inkscape:window-height="1043"
     inkscape:window-x="5120"
     inkscape:window-y="0"
     inkscape:window-maximized="1"
     inkscape:current-layer="g340" />
  <g
     inkscape:groupmode="layer"
     inkscape:label="Image"
     id="g340"
     transform="translate(426.58683,-73.692266)">
    <path
       style="fill:#a31f37;fill-opacity:1"
       d="m -368.24769,250.18409 c -27.93424,-6.08948 -45.34928,-24.1843 -51.38122,-53.38681 -1.33019,-6.43985 -1.57922,-16.5616 -1.57922,-64.18761 V 76.067505 h 15 15 l 0.0174,54.250005 c 0.0188,58.78884 0.29942,62.5214 5.46671,72.71856 3.65795,7.21862 10.39859,13.60661 18.31522,17.35703 6.41531,3.03919 7.23312,3.1744 19.20071,3.1744 14.50325,0 18.48174,-0.97056 26.82976,-6.54516 10.06619,-6.72194 15.43886,-16.83834 17.2346,-32.4517 0.50625,-4.40173 0.92388,-30.62767 0.92805,-58.27986 l 0.008,-50.276741 14.75,0.276733 14.75,0.276733 0.28705,50.000005 c 0.37143,64.69767 -0.38479,72.00217 -9.34537,90.26794 -8.18621,16.68726 -22.08666,27.66805 -41.44168,32.73723 -10.08416,2.6411 -33.25325,2.96276 -44.03956,0.61141 z M -2.4053942,250.02998 C -43.932255,239.81874 -71.008935,202.77623 -68.895525,159.0675 c 0.67518,-13.96376 3.19183,-24.12219 9.00638,-36.35417 8.42679,-17.7273 22.34853,-31.640061 40.12595,-40.100062 11.1035904,-5.284026 18.5423008,-7.332865 30.704231,-8.45684 27.765069,-2.565976 54.013049,5.583872 72.593009,22.539714 l 4.24218,3.871368 -9.67581,11.14681 -9.67582,11.14682 -5.86799,-4.74802 c -8.31487,-6.72786 -19.1826,-12.68678 -26.76474,-14.67545 -9.6081,-2.52004 -24.688339,-2.25221 -32.9999992,0.58609 -34.7680608,11.87273 -50.2866508,53.56517 -33.1435008,89.04374 7.93907,16.43028 24.9758504,28.77415 42.643501,30.89701 18.898169,2.27071 33.454999,-2.35081 50.115779,-15.9108 l 7.11578,-5.79145 9.63422,9.67051 c 5.29882,5.31878 9.63422,9.96642 9.63422,10.32808 0,1.47564 -16.00757,14.29929 -22.956,18.39004 -7.98486,4.70093 -18.87768,8.66592 -28.47766,10.36588 -9.70564,1.71867 -30.9000892,1.1927 -39.7635992,-0.98679 z M -255.95822,248.21984 c 0.27343,-1.04559 17.31656,-40.42974 37.87362,-87.52033 l 37.37647,-85.619246 14.0061,-0.0064 14.0061,-0.0064 37.30507,85.375896 c 20.51779,46.95675 37.558085,86.34346 37.867325,87.52602 0.56,2.14145 0.49858,2.14901 -15.22504,1.8741 l -15.787305,-0.27602 -8.62526,-20.5 -8.62525,-20.5 h -41.29373 -41.29373 l -8.68825,20.5 -8.68824,20.5 -15.35251,0.27671 c -14.66357,0.2643 -15.3302,0.1914 -14.85537,-1.62437 z m 117.41383,-70.40234 c -9.88283,-23.56342 -28.09389,-64.74999 -28.62985,-64.74999 -0.64723,0 -27.76057,62.37316 -28.79859,66.24999 -0.43853,1.63783 1.43056,1.75 29.16149,1.75 h 29.63005 z m 255.7967,71 c -0.26224,-0.6875 -0.36061,-39.725 -0.21862,-86.75 l 0.25818,-85.499995 h 15.90177 15.90176 l 26.32066,40.861935 26.32066,40.86192 8.97912,-13.86192 c 4.93851,-7.62406 16.80062,-26.01193 26.36025,-40.86193 l 17.38113,-27.000005 16.16733,-0.274771 16.16732,-0.274772 v 87.051498 87.05151 l -14.75,-0.27674 -14.75,-0.27673 -0.5,-61.88842 -0.5,-61.88841 -27,40.61202 c -14.85,22.33662 -27.26413,40.62391 -27.58696,40.63842 -0.32282,0.0145 -12.69782,-18.08611 -27.5,-40.22361 l -26.91304,-40.24999 -0.25763,61.74999 -0.25763,61.75 h -14.52375 c -10.69805,0 -14.64935,-0.32926 -15.00055,-1.25 z"
       id="path718"
       sodipodi:nodetypes="csscccssssssccccsssccsssssscccsssssscssssssscccssscccccccssssssscssscccccsscccccccccssscccss" />
    <text
       xml:space="preserve"
       style="font-weight:bold;font-size:69.3333px;font-family:Arial;-inkscape-font-specification:'Arial Bold';fill:#a31f37;fill-opacity:1;stroke:none;stroke-opacity:0.3"
       x="-418.68188"
       y="344.89169"
       id="text774"><tspan
         sodipodi:role="line"
         id="tspan772"
         x="-418.68188"
         y="344.89169"
         style="font-style:normal;font-variant:normal;font-weight:normal;font-stretch:normal;font-size:69.3333px;font-family:Arial;-inkscape-font-specification:Arial">Universidad Autónoma</tspan></text>
    <text
       xml:space="preserve"
       style="font-weight:bold;font-size:69.3333px;font-family:Arial;-inkscape-font-specification:'Arial Bold';fill:#a31f37;fill-opacity:1;stroke:none;stroke-opacity:0.3"
       x="-429.49829"
       y="413.11646"
       id="text774-3"><tspan
         sodipodi:role="line"
         id="tspan772-6"
         x="-429.49829"
         y="413.11646"
         style="font-style:normal;font-variant:normal;font-weight:normal;font-stretch:normal;font-size:69.3333px;font-family:Arial;-inkscape-font-specification:Arial">de la Ciudad de México</tspan></text>
    <text
       xml:space="preserve"
       style="font-weight:bold;font-size:40px;font-family:Arial;-inkscape-font-specification:'Arial Bold';fill:#a31f37;fill-opacity:1;stroke:none;stroke-opacity:0.3"
       x="-361.79797"
       y="480.34573"
       id="text774-3-7"><tspan
         sodipodi:role="line"
         id="tspan772-6-5"
         x="-361.79797"
         y="480.34573"
         style="font-style:normal;font-variant:normal;font-weight:bold;font-stretch:normal;font-size:40px;font-family:Arial;-inkscape-font-specification:'Arial Bold'">NADA HUMANO ME ES AJENO</tspan></text>
  </g>
</svg>
