<?xml version="1.0" encoding="UTF-8" standalone="no"?>
<svg
   id="Capa_1"
   viewBox="0 0 636.71 242.95"
   version="1.1"
   sodipodi:docname="Principal.svg"
   inkscape:export-filename="Principal.png"
   inkscape:export-xdpi="96"
   inkscape:export-ydpi="96"
   inkscape:version="1.4.3 (0d15f75042, 2025-12-25)"
   xmlns:inkscape="http://www.inkscape.org/namespaces/inkscape"
   xmlns:sodipodi="http://sodipodi.sourceforge.net/DTD/sodipodi-0.dtd"
   xmlns="http://www.w3.org/2000/svg"
   xmlns:svg="http://www.w3.org/2000/svg">
  <sodipodi:namedview
     id="namedview11"
     pagecolor="#ffffff"
     bordercolor="#000000"
     borderopacity="0.25"
     inkscape:showpageshadow="2"
     inkscape:pageopacity="0.0"
     inkscape:pagecheckerboard="0"
     inkscape:deskcolor="#d1d1d1"
     inkscape:zoom="0.28624769"
     inkscape:cx="-386.02932"
     inkscape:cy="-951.97275"
     inkscape:window-width="1920"
     inkscape:window-height="1052"
     inkscape:window-x="0"
     inkscape:window-y="0"
     inkscape:window-maximized="1"
     inkscape:current-layer="Capa_1" />
  <defs
     id="defs1">
    <style
       id="style1">.cls-1{fill:#2b2d40;}.cls-2{fill:#eb3323;}</style>
  </defs>
  <path
     class="cls-1"
     d="M 211.13065,194.67313 V 62.254939 c 0,-1.483184 1.19409,-2.677273 2.67727,-2.677273 h 21.0411 c 1.48319,0 2.67728,1.194089 2.67728,2.677273 V 194.67313 c 0,1.48318 -1.19409,2.67727 -2.67728,2.67727 h -21.0411 c -1.48318,0 -2.67727,-1.19409 -2.67727,-2.67727 z"
     id="path1"
     style="stroke-width:1.25694" />
  <path
     class="cls-1"
     d="m 307.4245,199.5249 c -10.01778,0 -19.10543,-2.3379 -27.26294,-7.03884 -8.15751,-4.68837 -14.60559,-10.9102 -19.35681,-18.69064 -4.75122,-7.76786 -7.12683,-16.52871 -7.12683,-26.2951 0,-9.76639 2.27506,-18.38897 6.83773,-26.29509 4.56268,-7.89356 10.75937,-14.1531 18.59008,-18.77862 7.83071,-4.625527 16.50357,-6.938289 26.006,-6.938289 9.50244,0 18.20043,2.35047 25.71691,7.038839 7.51648,4.68837 13.42407,11.07361 17.7228,19.16827 4.31128,8.09467 6.44808,15.67399 6.44808,26.23225 v 5.76934 c 0,1.48318 -1.19409,2.67727 -2.67728,2.67727 H 280.6392 c 1.15638,3.98449 3.07949,7.57933 5.7819,10.78451 2.70241,3.21776 5.97044,5.68135 9.82924,7.41592 3.84622,1.73458 8.01925,2.60186 12.51908,2.60186 4.49983,0 8.47174,-0.67874 12.33054,-2.02367 3.04178,-1.06839 5.71906,-2.5013 8.04439,-4.33642 1.05582,-0.82958 2.52644,-0.86729 3.51942,0.0503 l 13.22296,12.05402 c 1.2318,1.11867 1.16895,3.14234 -0.17597,4.13532 -5.35455,4.00962 -10.83479,7.00113 -16.42815,8.99966 -6.48579,2.31276 -13.77602,3.46914 -21.87068,3.46914 z m -27.16239,-62.02979 h 48.93251 c -1.03068,-3.97191 -2.72755,-7.47876 -5.10316,-10.49541 -2.3756,-3.01664 -5.24142,-5.36711 -8.5723,-7.02627 -3.34345,-1.67172 -6.93828,-2.5013 -10.78451,-2.5013 -4.11018,0 -7.83071,0.80444 -11.17416,2.40075 -3.34344,1.60887 -6.13384,3.92163 -8.38376,6.93828 -2.24991,3.01665 -3.88393,6.58634 -4.91462,10.69652 z"
     id="path2"
     style="stroke-width:1.25694" />
  <path
     class="cls-1"
     d="m 395.43514,105.5061 c 0,0 0.28909,-0.2891 0.62847,-0.60333 1.34492,-1.24437 2.79039,-2.37561 4.32386,-3.36859 4.90205,-3.167476 10.68395,-4.814061 16.47842,-5.191142 2.92866,-0.188541 5.86989,-0.02514 8.78599,0.364511 2.0488,0.276526 4.19816,0.854717 5.68135,1.307213 1.11867,0.339373 1.87283,1.37006 1.87283,2.551578 v 15.00781 c 0.0126,1.73458 -1.63402,3.04179 -3.30574,2.58929 -5.66878,-1.54603 -11.28728,-2.01109 -17.18231,-0.17597 -7.16454,2.23735 -13.2104,7.36565 -16.90579,13.83886 -0.23882,0.42736 -0.36451,0.905 -0.36451,1.3952 v 61.69042 c 0,1.48318 -1.19409,2.67727 -2.67727,2.67727 h -21.22965 c -1.48318,0 -2.67727,-1.19409 -2.67727,-2.67727 V 99.900166 c 0,-1.483184 1.19409,-2.677273 2.67727,-2.677273 h 21.22965 c 1.48318,0 2.67727,1.194089 2.67727,2.677273 v 5.605934 z"
     id="path3"
     style="stroke-width:1.25694" />
  <path
     class="cls-1"
     d="m 497.17152,199.13525 c -11.04846,0 -19.41966,-2.53901 -25.13871,-7.60446 -5.70649,-5.07802 -8.57231,-12.49394 -8.57231,-22.24777 v -49.90035 h -17.93647 c -1.48318,0 -2.67727,-1.19409 -2.67727,-2.67727 V 99.900166 c 0,-1.483184 1.19409,-2.677273 2.67727,-2.677273 H 463.4605 V 62.254939 c 0,-1.483184 1.19409,-2.677273 2.67728,-2.677273 h 20.85256 c 1.48319,0 2.67727,1.194089 2.67727,2.677273 v 34.967954 h 26.21968 c 1.48319,0 2.67728,1.194089 2.67728,2.677273 V 116.7054 c 0,1.48318 -1.19409,2.67727 -2.67728,2.67727 h -26.21968 v 44.5081 c 0,4.62552 1.05583,7.93127 3.18005,9.91722 1.69687,1.58374 3.99706,2.31277 6.24697,2.66471 3.18005,0.51534 6.53607,0.43993 9.72869,0.088 2.23734,-0.25138 4.41184,-0.75416 6.62405,-1.11867 1.63401,-0.26396 3.1172,0.98041 3.1172,2.63957 v 16.15162 c 0,1.24437 -0.85472,2.31276 -2.06138,2.61443 -2.51387,0.62846 -5.65621,1.13124 -8.72313,1.53346 -3.98449,0.51534 -7.51648,0.7793 -10.59597,0.7793 z"
     id="path4"
     style="stroke-width:1.25694" />
  <path
     class="cls-1"
     d="m 564.37988,199.12268 c -7.06398,0 -13.36123,-1.64659 -18.87918,-4.28615 -5.51795,-2.627 -9.82924,-5.71906 -12.90873,-10.34458 -3.07949,-4.62553 -4.62552,-9.95493 -4.62552,-15.98823 0,-9.6407 3.59483,-17.11947 10.78451,-22.44887 7.18967,-5.32941 17.20745,-7.99411 30.05333,-7.99411 8.7357,0 16.95606,1.34492 24.66108,4.04733 v -7.31537 c 0,-5.7819 -1.79742,-10.14347 -5.39225,-13.09727 -3.59484,-2.9538 -8.8614,-4.43698 -15.78712,-4.43698 -4.11018,0 -8.67285,0.67874 -13.67546,2.02367 -4.36157,1.18151 -9.22591,2.91609 -14.56788,5.21628 -1.31979,0.56562 -2.87839,0.0251 -3.49429,-1.26951 l -7.10168,-14.78156 c -0.66618,-1.38263 0,-3.07949 1.40777,-3.67025 7.00113,-2.91609 13.7006,-5.178579 20.0984,-6.774887 7.18967,-1.797418 14.37934,-2.702412 21.58159,-2.702412 13.7383,0 24.33427,3.242894 31.7879,9.728679 7.44106,6.48579 11.17416,15.63628 11.17416,27.45148 v 62.43201 c 0,1.48318 -1.19409,2.67727 -2.67727,2.67727 h -20.65146 c -1.48318,0 -2.72755,-1.19409 -2.72755,-2.67727 v -3.82109 c -7.41592,3.54456 -8.35862,3.98449 -13.23553,5.5808 -4.71351,1.53346 -10.01778,2.45102 -15.79968,2.45102 z m -15.44774,-31.19715 c 0,3.84623 1.83512,6.90058 5.51794,9.1505 3.67026,2.24991 8.54717,3.36858 14.63074,3.36858 4.92719,0 9.74125,-1.05582 14.14052,-3.26803 2.07395,-1.04326 4.19817,-2.21221 6.00816,-3.67025 1.48318,-1.18152 2.85324,-2.5013 4.2233,-3.79595 V 159.2401 c -3.53199,-1.40776 -7.21481,-2.41331 -11.02333,-2.97893 -3.82108,-0.57819 -7.91869,-0.86729 -12.29283,-0.86729 -6.64919,0 -11.84033,1.09353 -15.586,3.26803 -3.74567,2.18708 -5.6185,5.26657 -5.6185,9.25105 z"
     id="path10"
     style="stroke-width:1.25694" />
  <path
     class="cls-2"
     d="m 189.81302,164.6575 -54.3122,-94.081646 c -4.08504,-6.699468 -11.45069,-11.186728 -19.85959,-11.186728 -8.4089,0 -15.724263,4.436983 -19.821873,11.098743 -0.21368,0.351942 -0.414789,0.703884 -0.60333,1.055826 L 41.444315,164.6575 c -3.909071,6.92572 -4.160458,15.68656 0.100554,23.0522 4.298721,7.44106 12.091723,11.60152 20.123543,11.61409 h 0.02514 c 0.326804,-0.0251 2.953799,-0.21368 6.573774,-0.96784 6.297249,-1.30721 14.127958,-5.97045 21.393047,-10.92277 8.547164,-5.81962 15.648847,-11.61409 25.980867,-11.61409 10.33201,0 17.52168,5.79447 25.96829,11.61409 7.23995,4.99003 15.10837,9.61556 21.39305,10.92277 3.70796,0.76673 6.36009,0.95527 6.58634,0.96784 h 0.0126 c 8.03182,0 15.82482,-4.16046 20.12354,-11.61409 4.26101,-7.37821 4.00963,-16.12648 0.10056,-23.0522 z m -74.17179,-0.4525 c -9.64069,0 -17.433695,-7.793 -17.433695,-17.42113 0,-9.62813 7.793005,-17.4337 17.433695,-17.4337 9.6407,0 17.42113,7.80557 17.42113,17.4337 0,9.62813 -7.793,17.42113 -17.42113,17.42113 z"
     id="path11"
     style="stroke-width:1.25694" />
</svg>
