<?xml version="1.0" encoding="UTF-8" standalone="no"?>
<svg
   id="Capa_1"
   viewBox="0 0 405399.61 59024.704"
   version="1.1"
   sodipodi:docname="Rojo.svg"
   inkscape:version="1.4.3 (0d15f75042, 2025-12-25)"
   inkscape:export-filename="Rojo.png"
   inkscape:export-xdpi="96"
   inkscape:export-ydpi="96"
   width="405399.62"
   height="59024.703"
   xmlns:inkscape="http://www.inkscape.org/namespaces/inkscape"
   xmlns:sodipodi="http://sodipodi.sourceforge.net/DTD/sodipodi-0.dtd"
   xmlns="http://www.w3.org/2000/svg"
   xmlns:svg="http://www.w3.org/2000/svg">
  <sodipodi:namedview
     id="namedview11"
     pagecolor="#ffffff"
     bordercolor="#000000"
     borderopacity="0.25"
     inkscape:showpageshadow="2"
     inkscape:pageopacity="0.0"
     inkscape:pagecheckerboard="0"
     inkscape:deskcolor="#d1d1d1"
     inkscape:zoom="1.6192615"
     inkscape:cx="239.92419"
     inkscape:cy="121.35162"
     inkscape:window-width="1920"
     inkscape:window-height="1052"
     inkscape:window-x="0"
     inkscape:window-y="0"
     inkscape:window-maximized="1"
     inkscape:current-layer="Capa_1">
    <inkscape:page
       x="0"
       y="0"
       width="405399.62"
       height="59024.703"
       id="page2"
       margin="0"
       bleed="0" />
  </sodipodi:namedview>
  <defs
     id="defs1">
    <style
       id="style1">.cls-1{fill:#eb3323;}</style>
  </defs>
  <path
     class="cls-1"
     d="M 205.97258,200.28317 V 66.504502 c 0,-1.498422 1.20636,-2.70478 2.70478,-2.70478 h 21.25728 c 1.49843,0 2.70478,1.206358 2.70478,2.70478 V 200.28317 c 0,1.49842 -1.20635,2.70478 -2.70478,2.70478 h -21.25728 c -1.49842,0 -2.70478,-1.20636 -2.70478,-2.70478 z"
     id="path1"
     style="stroke-width:1.26985" />
  <path
     class="cls-1"
     d="m 303.25577,205.18479 c -10.1207,0 -19.30172,-2.36192 -27.54304,-7.11116 -8.24133,-4.73654 -14.75566,-11.0223 -19.55569,-18.88267 -4.80003,-7.84767 -7.20005,-16.69852 -7.20005,-26.56525 0,-9.86673 2.29843,-18.5779 6.90799,-26.56526 4.60955,-7.97465 10.86991,-14.2985 18.78108,-18.97155 7.91116,-4.67305 16.67312,-7.00957 26.27319,-7.00957 9.60006,0 18.38742,2.37462 25.98112,7.11116 7.5937,4.73654 13.562,11.18738 17.90488,19.3652 4.35559,8.17784 6.51433,15.83503 6.51433,26.50177 v 5.82861 c 0,1.49842 -1.20635,2.70478 -2.70478,2.70478 h -72.41953 c 1.16826,4.02542 3.11113,7.65719 5.84131,10.89531 2.73018,3.25081 6.03179,5.73972 9.93023,7.49211 3.88574,1.75239 8.10164,2.62859 12.6477,2.62859 4.54606,0 8.55879,-0.68572 12.45723,-2.04446 3.07303,-1.07937 5.77781,-2.527 8.12703,-4.38098 1.06668,-0.8381 2.5524,-0.8762 3.55558,0.0508 l 13.35882,12.17786 c 1.24446,1.13017 1.18096,3.17463 -0.17778,4.17781 -5.40956,4.05082 -10.9461,7.07306 -16.59693,9.09212 -6.55243,2.33653 -13.91756,3.50479 -22.09539,3.50479 z M 275.81432,142.5177 h 49.43525 c -1.04128,-4.01272 -2.75558,-7.5556 -5.15559,-10.60324 -2.40002,-3.04764 -5.29528,-5.42226 -8.66038,-7.09846 -3.3778,-1.6889 -7.00957,-2.527 -10.89531,-2.527 -4.15241,0 -7.91116,0.8127 -11.28896,2.42541 -3.3778,1.62541 -6.19687,3.96193 -8.4699,7.00957 -2.27303,3.04764 -3.92384,6.65402 -4.96511,10.80642 z"
     id="path2"
     style="stroke-width:1.26985" />
  <path
     class="cls-1"
     d="m 392.17065,110.20003 c 0,0 0.29207,-0.29206 0.63493,-0.60952 1.35873,-1.25716 2.81906,-2.40002 4.36828,-3.4032 4.95241,-3.20002 10.79372,-4.86353 16.64773,-5.24448 2.95875,-0.19048 5.9302,-0.0254 8.87625,0.36825 2.06985,0.27937 4.2413,0.8635 5.73972,1.32065 1.13017,0.34286 1.89208,1.38413 1.89208,2.57779 v 15.16201 c 0.0127,1.75239 -1.65081,3.07303 -3.33971,2.61589 -5.72702,-1.56191 -11.40325,-2.03176 -17.35885,-0.17778 -7.23814,2.26033 -13.34612,7.44132 -17.07947,13.98104 -0.24128,0.43175 -0.36826,0.9143 -0.36826,1.40954 v 62.32422 c 0,1.49842 -1.20636,2.70478 -2.70478,2.70478 h -21.44776 c -1.49843,0 -2.70478,-1.20636 -2.70478,-2.70478 V 104.5365 c 0,-1.49842 1.20635,-2.70478 2.70478,-2.70478 h 21.44776 c 1.49842,0 2.70478,1.20636 2.70478,2.70478 v 5.66353 z"
     id="path3"
     style="stroke-width:1.26985" />
  <path
     class="cls-1"
     d="m 494.95229,204.79114 c -11.16198,0 -19.61918,-2.5651 -25.39699,-7.68259 -5.76512,-5.1302 -8.66038,-12.62231 -8.66038,-22.47635 v -50.41303 h -18.12076 c -1.49842,0 -2.70478,-1.20636 -2.70478,-2.70478 V 104.5365 c 0,-1.49842 1.20636,-2.70478 2.70478,-2.70478 h 18.12076 V 66.504502 c 0,-1.498422 1.20636,-2.70478 2.70478,-2.70478 h 21.06681 c 1.49842,0 2.70478,1.206358 2.70478,2.70478 v 35.327218 h 26.48906 c 1.49843,0 2.70478,1.20636 2.70478,2.70478 v 16.97789 c 0,1.49842 -1.20635,2.70478 -2.70478,2.70478 h -26.48906 v 44.96538 c 0,4.67305 1.06667,8.01275 3.21272,10.01911 1.71429,1.60001 4.03812,2.33653 6.31115,2.69208 3.21272,0.52064 6.60322,0.44445 9.82864,0.0889 2.26033,-0.25397 4.45717,-0.76191 6.69211,-1.13016 1.6508,-0.26667 3.14922,0.99048 3.14922,2.66668 v 16.31757 c 0,1.25715 -0.86349,2.33653 -2.08255,2.64129 -2.5397,0.63492 -5.71432,1.14286 -8.81276,1.54922 -4.02542,0.52063 -7.5937,0.7873 -10.70483,0.7873 z"
     id="path4"
     style="stroke-width:1.26985" />
  <path
     class="cls-1"
     d="m 562.85116,204.77844 c -7.13656,0 -13.49851,-1.66351 -19.07315,-4.33019 -5.57464,-2.65399 -9.93022,-5.77782 -13.04135,-10.45086 -3.11114,-4.67305 -4.67305,-10.05721 -4.67305,-16.15249 0,-9.73975 3.63177,-17.29536 10.89531,-22.67952 7.26354,-5.38416 17.38424,-8.07624 30.36211,-8.07624 8.82545,0 17.13027,1.35874 24.91445,4.08891 v -7.39052 c 0,-5.84131 -1.81588,-10.24769 -5.44765,-13.23184 -3.63178,-2.98414 -8.95245,-4.48256 -15.94932,-4.48256 -4.15241,0 -8.76196,0.68572 -13.81596,2.04445 -4.40638,1.19366 -9.3207,2.94605 -14.71756,5.26988 -1.33334,0.57143 -2.90796,0.0254 -3.53018,-1.28255 l -7.17466,-14.93343 c -0.67302,-1.39683 0,-3.11113 1.42224,-3.70796 7.07306,-2.94605 13.84136,-5.23178 20.30489,-6.84449 7.26354,-1.81588 14.52709,-2.730177 21.80332,-2.730177 13.87946,0 24.5843,3.276217 32.1145,9.828637 7.51752,6.55243 11.28897,15.79693 11.28897,27.73352 v 63.07343 c 0,1.49842 -1.20636,2.70478 -2.70478,2.70478 h -20.86363 c -1.49842,0 -2.75558,-1.20636 -2.75558,-2.70478 v -3.86034 c -7.49211,3.58097 -8.4445,4.02542 -13.37151,5.63813 -4.76194,1.54922 -10.12071,2.47621 -15.96202,2.47621 z M 547.2447,173.26077 c 0,3.88574 1.85398,6.97147 5.57464,9.2445 3.70797,2.27303 8.63498,3.4032 14.78106,3.4032 4.97781,0 9.84133,-1.06667 14.28581,-3.30161 2.09525,-1.05397 4.24129,-2.23493 6.06988,-3.70796 1.49842,-1.19366 2.88256,-2.527 4.26669,-3.83495 V 164.4861 c -3.56828,-1.42223 -7.28894,-2.43811 -11.13658,-3.00954 -3.86034,-0.58413 -8.00005,-0.8762 -12.41913,-0.8762 -6.71751,0 -11.96199,1.10477 -15.74614,3.30161 -3.78415,2.20954 -5.67623,5.32067 -5.67623,9.3461 z"
     id="path10"
     style="stroke-width:1.26985" />
  <path
     class="cls-1"
     d="M 184.43593,169.95916 129.56572,74.910908 c -4.12701,-6.768299 -11.56834,-11.301663 -20.06363,-11.301663 -8.49529,0 -15.885818,4.48257 -20.025528,11.212773 -0.215875,0.355558 -0.419051,0.711116 -0.609528,1.066674 L 34.542861,169.95916 c -3.949233,6.99687 -4.203203,15.84772 0.101588,23.28904 4.342886,7.51751 12.215955,11.72072 20.330295,11.73341 h 0.0254 c 0.33016,-0.0254 2.984146,-0.21587 6.641314,-0.97778 6.361947,-1.32064 14.273111,-6.03179 21.612843,-11.035 8.634978,-5.8794 15.809629,-11.73341 26.247789,-11.73341 10.43816,0 17.70171,5.85401 26.2351,11.73341 7.31433,5.04131 15.26359,9.71436 21.61284,11.035 3.74606,0.77461 6.42544,0.96509 6.65402,0.97778 h 0.0127 c 8.11434,0 15.98741,-4.2032 20.3303,-11.73341 4.30479,-7.45402 4.05082,-16.29217 0.10159,-23.28904 z m -74.93384,-0.45715 c -9.739745,0 -17.612814,-7.87307 -17.612814,-17.60012 0,-9.72705 7.873069,-17.61281 17.612814,-17.61281 9.73975,0 17.60012,7.88576 17.60012,17.61281 0,9.72705 -7.87307,17.60012 -17.60012,17.60012 z"
     id="path11"
     style="stroke-width:1.26985" />
</svg>
