<?xml version="1.0" encoding="UTF-8"?><svg id="Capa_1" xmlns="http://www.w3.org/2000/svg" viewBox="0 0 636.71 242.95"><defs><style>.cls-1{fill:#eb3323;}</style></defs><path class="cls-1" d="M137.4,107.63V2.28c0-1.18.95-2.13,2.13-2.13h16.74c1.18,0,2.13.95,2.13,2.13v105.35c0,1.18-.95,2.13-2.13,2.13h-16.74c-1.18,0-2.13-.95-2.13-2.13Z"/><path class="cls-1" d="M214.01,111.49c-7.97,0-15.2-1.86-21.69-5.6-6.49-3.73-11.62-8.68-15.4-14.87-3.78-6.18-5.67-13.15-5.67-20.92s1.81-14.63,5.44-20.92c3.63-6.28,8.56-11.26,14.79-14.94s13.13-5.52,20.69-5.52,14.48,1.87,20.46,5.6c5.98,3.73,10.68,8.81,14.1,15.25,3.43,6.44,5.13,12.47,5.13,20.87v4.59c0,1.18-.95,2.13-2.13,2.13h-57.03c.92,3.17,2.45,6.03,4.6,8.58,2.15,2.56,4.75,4.52,7.82,5.9,3.06,1.38,6.38,2.07,9.96,2.07s6.74-.54,9.81-1.61c2.42-.85,4.55-1.99,6.4-3.45.84-.66,2.01-.69,2.8.04l10.52,9.59c.98.89.93,2.5-.14,3.29-4.26,3.19-8.62,5.57-13.07,7.16-5.16,1.84-10.96,2.76-17.4,2.76ZM192.4,62.14h38.93c-.82-3.16-2.17-5.95-4.06-8.35-1.89-2.4-4.17-4.27-6.82-5.59-2.66-1.33-5.52-1.99-8.58-1.99-3.27,0-6.23.64-8.89,1.91-2.66,1.28-4.88,3.12-6.67,5.52-1.79,2.4-3.09,5.24-3.91,8.51Z"/><path class="cls-1" d="M284.03,36.69s.23-.23.5-.48c1.07-.99,2.22-1.89,3.44-2.68,3.9-2.52,8.5-3.83,13.11-4.13,2.33-.15,4.67-.02,6.99.29,1.63.22,3.34.68,4.52,1.04.89.27,1.49,1.09,1.49,2.03v11.94c.01,1.38-1.3,2.42-2.63,2.06-4.51-1.23-8.98-1.6-13.67-.14-5.7,1.78-10.51,5.86-13.45,11.01-.19.34-.29.72-.29,1.11v49.08c0,1.18-.95,2.13-2.13,2.13h-16.89c-1.18,0-2.13-.95-2.13-2.13V32.23c0-1.18.95-2.13,2.13-2.13h16.89c1.18,0,2.13.95,2.13,2.13v4.46Z"/><path class="cls-1" d="M364.97,111.18c-8.79,0-15.45-2.02-20-6.05-4.54-4.04-6.82-9.94-6.82-17.7v-39.7h-14.27c-1.18,0-2.13-.95-2.13-2.13v-13.37c0-1.18.95-2.13,2.13-2.13h14.27V2.28c0-1.18.95-2.13,2.13-2.13h16.59c1.18,0,2.13.95,2.13,2.13v27.82h20.86c1.18,0,2.13.95,2.13,2.13v13.37c0,1.18-.95,2.13-2.13,2.13h-20.86v35.41c0,3.68.84,6.31,2.53,7.89,1.35,1.26,3.18,1.84,4.97,2.12,2.53.41,5.2.35,7.74.07,1.78-.2,3.51-.6,5.27-.89,1.3-.21,2.48.78,2.48,2.1v12.85c0,.99-.68,1.84-1.64,2.08-2,.5-4.5.9-6.94,1.22-3.17.41-5.98.62-8.43.62Z"/><path class="cls-1" d="M228.27,242.8c-7.97,0-15.43-1.41-22.38-4.22s-13-6.72-18.16-11.72c-5.16-5.01-9.2-10.86-12.11-17.55-2.91-6.69-4.37-13.92-4.37-21.69s1.46-15,4.37-21.69c2.91-6.69,6.97-12.57,12.18-17.62,5.21-5.06,11.27-8.99,18.16-11.8,6.9-2.81,14.33-4.21,22.3-4.21,5.92,0,11.65.82,17.16,2.45,5.52,1.63,10.65,3.93,15.4,6.89,4.16,2.6,7.8,5.66,10.9,9.2.74.84.66,2.14-.14,2.93l-11.97,11.72c-.88.86-2.27.76-3.09-.17-3.45-3.93-7.41-6.95-11.87-9.05-5.11-2.4-10.58-3.6-16.4-3.6-4.81,0-9.3.89-13.49,2.68-4.19,1.79-7.82,4.24-10.88,7.35-3.06,3.12-5.47,6.77-7.2,10.96-1.74,4.19-2.61,8.84-2.61,13.95s.89,9.48,2.68,13.72c1.79,4.24,4.24,7.92,7.35,11.03,3.12,3.12,6.8,5.55,11.04,7.28,4.24,1.74,8.91,2.61,14.02,2.61,5.62,0,10.88-1.17,15.79-3.53,4.26-2.04,8.05-4.85,11.39-8.43.83-.89,2.21-.96,3.07-.1l11.4,11.4c.8.8.86,2.11.11,2.95-3.09,3.44-6.66,6.46-10.72,9.05-4.65,2.96-9.73,5.24-15.25,6.82-5.52,1.58-11.09,2.38-16.71,2.38Z"/><path class="cls-1" d="M335.86,242.95c-7.97,0-15.4-1.41-22.3-4.22-6.9-2.81-12.93-6.74-18.09-11.8-5.16-5.06-9.2-10.93-12.11-17.62-2.91-6.69-4.37-13.92-4.37-21.69s1.46-15,4.37-21.69c2.91-6.69,6.95-12.57,12.11-17.62,5.16-5.06,11.19-8.99,18.09-11.8,6.9-2.81,14.33-4.21,22.3-4.21s15.25,1.41,22.14,4.21c6.9,2.81,12.93,6.74,18.09,11.8,5.16,5.06,9.17,10.93,12.03,17.62,2.86,6.69,4.29,13.92,4.29,21.69s-1.43,15-4.29,21.69c-2.86,6.69-6.87,12.57-12.03,17.62-5.16,5.06-11.19,8.99-18.09,11.8-6.89,2.81-14.28,4.22-22.14,4.22ZM335.86,222.56c4.8,0,9.25-.89,13.33-2.69,4.08-1.78,7.66-4.26,10.73-7.43,3.07-3.17,5.47-6.87,7.21-11.11,1.74-4.24,2.61-8.81,2.61-13.72s-.87-9.73-2.61-13.87c-1.74-4.14-4.14-7.79-7.21-10.96-3.06-3.17-6.64-5.65-10.73-7.43-4.09-1.79-8.48-2.68-13.18-2.68s-9.43.89-13.57,2.68c-4.14,1.79-7.74,4.27-10.81,7.43-3.06,3.17-5.47,6.82-7.2,10.96-1.74,4.14-2.61,8.66-2.61,13.57s.86,9.78,2.61,14.02c1.73,4.24,4.14,7.95,7.2,11.11,3.06,3.17,6.67,5.65,10.81,7.43,4.14,1.79,8.61,2.69,13.41,2.69Z"/><path class="cls-1" d="M445.9,242.8c-8.59,0-17.01-1.63-25.29-4.91-7.62-3.01-14.46-7.11-20.53-12.28-.87-.74-.98-2.07-.27-2.97l10.08-12.75c.75-.95,2.13-1.05,3.05-.27,5.63,4.77,11.07,8.3,16.32,10.57,5.77,2.51,11.88,3.75,18.31,3.75,4.49,0,8.38-.54,11.65-1.61,3.27-1.07,5.8-2.63,7.59-4.67,1.78-2.04,2.68-4.44,2.68-7.21,0-3.68-1.33-6.54-3.99-8.58-2.66-2.04-7.2-3.58-13.64-4.6l-21.3-3.68c-9.09-1.63-16.04-4.88-20.84-9.73-4.81-4.85-7.21-11.16-7.21-18.93,0-6.64,1.74-12.39,5.21-17.24,3.48-4.85,8.36-8.59,14.64-11.19,6.28-2.6,13.77-3.91,22.45-3.91,7.76,0,15.6,1.31,23.52,3.91,7.2,2.37,13.57,5.65,19.12,9.83.93.7,1.1,2.04.41,2.97l-9.48,13c-.69.95-2.02,1.12-2.96.43-10.67-7.73-21.39-11.6-32.15-11.6-3.99,0-7.46.51-10.42,1.53-2.96,1.02-5.24,2.43-6.82,4.21-1.59,1.79-2.38,3.86-2.38,6.21,0,3.48,1.2,6.08,3.6,7.82,2.4,1.74,6.31,3.12,11.72,4.14l20.23,3.22c10.73,1.74,18.78,5.13,24.14,10.19,5.36,5.06,8.04,11.72,8.04,20,0,6.95-1.87,12.98-5.59,18.09-3.73,5.11-8.99,9.1-15.79,11.95-6.8,2.86-14.84,4.29-24.14,4.29Z"/><path class="cls-1" d="M504.44,239.13v-103.03c0-1.18.95-2.13,2.13-2.13h17.97c1.18,0,2.13.95,2.13,2.13v103.03c0,1.18-.95,2.13-2.13,2.13h-17.97c-1.18,0-2.13-.95-2.13-2.13Z"/><path class="cls-1" d="M546.13,239.13v-103.03c0-1.18.95-2.13,2.13-2.13h48.3c7.25,0,13.59,1.23,19,3.68,5.41,2.45,9.65,5.9,12.72,10.34,3.06,4.44,4.59,9.58,4.59,15.4,0,4.81-1.17,9.12-3.52,12.95-2.35,3.83-5.67,7.08-9.97,9.73,5.31,2.25,9.53,5.49,12.65,9.73,3.11,4.24,4.67,9.02,4.67,14.33,0,6.23-1.58,11.67-4.75,16.32-3.17,4.65-7.56,8.27-13.18,10.88-5.62,2.61-12.16,3.91-19.62,3.91h-50.9c-1.18,0-2.13-.95-2.13-2.13ZM568.36,177.96h26.82c4.8,0,8.58-1.17,11.34-3.53,2.76-2.35,4.14-5.46,4.14-9.35s-1.38-6.98-4.14-9.28c-2.76-2.3-6.54-3.45-11.34-3.45h-26.82v25.59ZM568.36,222.87h28.97c5.21,0,9.32-1.25,12.34-3.75,3.01-2.5,4.52-5.85,4.52-10.04s-1.51-7.56-4.52-10.12c-3.02-2.55-7.13-3.83-12.34-3.83h-28.97v27.74Z"/><path class="cls-1" d="M418.44,111.17c-5.62,0-10.63-1.31-15.02-3.41-4.39-2.09-7.82-4.55-10.27-8.23-2.45-3.68-3.68-7.92-3.68-12.72,0-7.67,2.86-13.62,8.58-17.86,5.72-4.24,13.69-6.36,23.91-6.36,6.95,0,13.49,1.07,19.62,3.22v-5.82c0-4.6-1.43-8.07-4.29-10.42-2.86-2.35-7.05-3.53-12.56-3.53-3.27,0-6.9.54-10.88,1.61-3.47.94-7.34,2.32-11.59,4.15-1.05.45-2.29.02-2.78-1.01l-5.65-11.76c-.53-1.1,0-2.45,1.12-2.92,5.57-2.32,10.9-4.12,15.99-5.39,5.72-1.43,11.44-2.15,17.17-2.15,10.93,0,19.36,2.58,25.29,7.74,5.92,5.16,8.89,12.44,8.89,21.84v49.67c0,1.18-.95,2.13-2.13,2.13h-16.43c-1.18,0-2.17-.95-2.17-2.13v-3.04c-5.9,2.82-6.65,3.17-10.53,4.44-3.75,1.22-7.97,1.95-12.57,1.95ZM406.15,86.35c0,3.06,1.46,5.49,4.39,7.28,2.92,1.79,6.8,2.68,11.64,2.68,3.92,0,7.75-.84,11.25-2.6,1.65-.83,3.34-1.76,4.78-2.92,1.18-.94,2.27-1.99,3.36-3.02v-8.33c-2.81-1.12-5.74-1.92-8.77-2.37-3.04-.46-6.3-.69-9.78-.69-5.29,0-9.42.87-12.4,2.6-2.98,1.74-4.47,4.19-4.47,7.36Z"/><path class="cls-1" d="M120.44,83.75L77.23,8.9c-3.25-5.33-9.11-8.9-15.8-8.9s-12.51,3.53-15.77,8.83c-.17.28-.33.56-.48.84L2.4,83.75c-3.11,5.51-3.31,12.48.08,18.34,3.42,5.92,9.62,9.23,16.01,9.24h.02c.26-.02,2.35-.17,5.23-.77,5.01-1.04,11.24-4.75,17.02-8.69,6.8-4.63,12.45-9.24,20.67-9.24s13.94,4.61,20.66,9.24c5.76,3.97,12.02,7.65,17.02,8.69,2.95.61,5.06.76,5.24.77h.01c6.39,0,12.59-3.31,16.01-9.24,3.39-5.87,3.19-12.83.08-18.34ZM61.43,83.39c-7.67,0-13.87-6.2-13.87-13.86s6.2-13.87,13.87-13.87,13.86,6.21,13.86,13.87-6.2,13.86-13.86,13.86Z"/></svg>