<?xml version="1.0" encoding="UTF-8" standalone="no"?>
<!-- Created with Inkscape (http://www.inkscape.org/) -->

<svg
   width="351.64066mm"
   height="105.66615mm"
   viewBox="0 0 351.64066 105.66615"
   version="1.1"
   id="svg1"
   xml:space="preserve"
   xmlns:inkscape="http://www.inkscape.org/namespaces/inkscape"
   xmlns:sodipodi="http://sodipodi.sourceforge.net/DTD/sodipodi-0.dtd"
   xmlns="http://www.w3.org/2000/svg"
   xmlns:svg="http://www.w3.org/2000/svg"><sodipodi:namedview
     id="namedview1"
     pagecolor="#ffffff"
     bordercolor="#000000"
     borderopacity="0.25"
     inkscape:showpageshadow="2"
     inkscape:pageopacity="0.0"
     inkscape:pagecheckerboard="0"
     inkscape:deskcolor="#d1d1d1"
     inkscape:document-units="mm" /><defs
     id="defs1" /><g
     inkscape:label="Capa 1"
     inkscape:groupmode="layer"
     id="layer1"
     transform="translate(108.69963,-68.476599)"><g
       id="g16"
       transform="translate(45.156387,0.56969029)"><path
         style="fill:#000000"
         d="m 113.43285,165.76784 v -7.80521 h 1.45521 c 1.31771,0 1.45521,0.0544 1.45521,0.57529 v 0.57528 l 0.62352,-0.58576 c 1.55217,-1.45819 4.06738,-0.8479 4.99587,1.21219 2.51232,5.57426 -1.35736,12.98265 -4.99587,9.56444 l -0.62352,-0.58576 v 2.42737 2.42737 h -1.45521 -1.45521 z m 5.74466,1.19062 c 0.9525,-1.89225 0.24983,-6.67835 -1.00209,-6.82554 -1.30757,-0.15373 -1.69986,0.71927 -1.69986,3.78284 0,3.57104 1.55471,5.32182 2.70195,3.0427 z m 31.82618,-1.19062 v -7.80521 h 1.4552 c 1.31771,0 1.45521,0.0544 1.45521,0.57529 v 0.57528 l 0.62352,-0.58576 c 1.55217,-1.45819 4.06739,-0.8479 4.99587,1.21219 2.51233,5.57426 -1.35736,12.98265 -4.99587,9.56444 l -0.62352,-0.58576 v 2.42737 2.42737 h -1.45521 -1.4552 z m 5.74465,1.19062 c 0.95251,-1.89225 0.24984,-6.67835 -1.00209,-6.82554 -1.30756,-0.15373 -1.69986,0.71927 -1.69986,3.78284 0,3.57104 1.55471,5.32182 2.70195,3.0427 z m -138.898722,2.81406 c -2.536063,-0.94889 -2.672377,-1.3927 -2.794417,-9.09791 l -0.101623,-6.41615 h 1.597045 1.597046 l 0.08374,6.1905 c 0.0764,5.64826 0.127887,6.23922 0.587766,6.74687 0.639529,0.70596 1.846994,0.7189 2.538681,0.0272 l 0.529166,-0.52917 v -6.21771 -6.21771 h 1.600434 1.600433 l -0.07908,6.59585 -0.07908,6.59584 -0.545515,0.73 c -1.300779,1.74067 -4.230304,2.45455 -6.534597,1.59237 z m 27.453026,0.12496 c -2.5957,-1.13178 -3.220525,-8.65939 -0.93141,-11.22135 1.00361,-1.12324 3.00065,-1.22314 4.0851,-0.20436 l 0.68277,0.64143 v -2.42737 -2.42737 h 1.5875 1.5875 v 7.80521 7.80521 h -1.45521 c -1.3177,0 -1.45521,-0.0544 -1.45521,-0.57529 v -0.57528 l -0.64498,0.60593 c -0.70309,0.66051 -2.5524,0.96725 -3.45606,0.57324 z m 3.4957,-2.93902 c 0.75365,-1.4972 0.33024,-6.43217 -0.5819,-6.78219 -1.80575,-0.69293 -2.95146,2.89278 -1.99259,6.23617 0.4339,1.51291 1.92825,1.82985 2.57449,0.54602 z m 6.77233,2.9231 c -3.1314,-1.3435 -1.86341,-5.74713 1.98142,-6.88131 2.26825,-0.66911 2.83045,-1.35186 2.06948,-2.51324 -0.74461,-1.13642 -2.54497,-0.66279 -2.54497,0.66952 0,0.43768 -0.19315,0.51027 -1.35775,0.51027 h -1.35776 l 0.14544,-1.08434 c 0.31829,-2.37302 3.28404,-3.57781 6.24946,-2.53875 1.81441,0.63576 1.99318,1.20491 2.14144,6.81789 l 0.1323,5.00817 -1.41384,-4.4e-4 c -1.20305,-3.8e-4 -1.435,-0.0814 -1.55581,-0.54337 l -0.14197,-0.54292 -0.58601,0.55053 c -0.66637,0.62602 -2.84109,0.94285 -3.76143,0.54799 z m 3.86798,-2.5619 c 0.38643,-0.49127 0.54837,-1.08254 0.54837,-2.00221 v -1.30506 l -0.59531,0.18545 c -1.41165,0.43975 -1.78287,0.65789 -2.19815,1.29168 -1.16765,1.78207 0.93478,3.49592 2.24509,1.83014 z m 7.55983,2.57782 c -2.59571,-1.13178 -3.22053,-8.65939 -0.93142,-11.22135 1.00361,-1.12324 3.00066,-1.22314 4.0851,-0.20436 l 0.68277,0.64143 v -2.42737 -2.42737 h 1.5875 1.5875 v 7.80521 7.80521 h -1.4552 c -1.31771,0 -1.45521,-0.0544 -1.45521,-0.57529 v -0.57528 l -0.64499,0.60593 c -0.70308,0.66051 -2.5524,0.96725 -3.45605,0.57324 z m 3.49569,-2.93902 c 0.75365,-1.4972 0.33024,-6.43217 -0.5819,-6.78219 -1.80575,-0.69293 -2.95146,2.89278 -1.99259,6.23617 0.4339,1.51291 1.92825,1.82985 2.57449,0.54602 z m 33.495246,2.9231 c -3.1314,-1.3435 -1.8634,-5.74713 1.98142,-6.88131 2.26825,-0.66911 2.83045,-1.35186 2.06949,-2.51324 -0.74462,-1.13642 -2.54498,-0.66279 -2.54498,0.66952 0,0.43768 -0.19315,0.51027 -1.35775,0.51027 h -1.35776 l 0.14544,-1.08434 c 0.31829,-2.37302 3.28404,-3.57781 6.24946,-2.53875 1.81441,0.63576 1.99318,1.20491 2.14145,6.81789 l 0.13229,5.00817 -1.41384,-4.4e-4 c -1.20305,-3.8e-4 -1.43499,-0.0814 -1.5558,-0.54337 l -0.14198,-0.54292 -0.58601,0.55053 c -0.66637,0.62602 -2.84109,0.94285 -3.76143,0.54799 z m 3.86798,-2.5619 c 0.38643,-0.49127 0.54837,-1.08254 0.54837,-2.00221 v -1.30506 l -0.59531,0.18545 c -1.41165,0.43975 -1.78287,0.65789 -2.19815,1.29168 -1.16765,1.78207 0.93478,3.49592 2.24509,1.83014 z m 17.82786,2.5619 c -3.1314,-1.3435 -1.86341,-5.74713 1.98142,-6.88131 2.26825,-0.66911 2.83044,-1.35186 2.06948,-2.51324 -0.74461,-1.13642 -2.54497,-0.66279 -2.54497,0.66952 0,0.43768 -0.19316,0.51027 -1.35776,0.51027 h -1.35775 l 0.14544,-1.08434 c 0.31829,-2.37302 3.28403,-3.57781 6.24945,-2.53875 1.81441,0.63576 1.99318,1.20491 2.14145,6.81789 l 0.13229,5.00817 -1.41383,-4.4e-4 c -1.20305,-3.8e-4 -1.435,-0.0814 -1.55581,-0.54337 l -0.14198,-0.54292 -0.58601,0.55053 c -0.66637,0.62602 -2.84109,0.94285 -3.76142,0.54799 z m 3.86797,-2.5619 c 0.38643,-0.49127 0.54837,-1.08254 0.54837,-2.00221 v -1.30506 l -0.59531,0.18545 c -1.41165,0.43975 -1.78287,0.65789 -2.19814,1.29168 -1.16766,1.78207 0.93478,3.49592 2.24508,1.83014 z m 12.00703,2.5619 c -3.1314,-1.3435 -1.86341,-5.74713 1.98142,-6.88131 2.26825,-0.66911 2.83044,-1.35186 2.06948,-2.51324 -0.74461,-1.13642 -2.54497,-0.66279 -2.54497,0.66952 0,0.43768 -0.19316,0.51027 -1.35776,0.51027 h -1.35775 l 0.14544,-1.08434 c 0.31829,-2.37302 3.28403,-3.57781 6.24945,-2.53875 1.81441,0.63576 1.99318,1.20491 2.14145,6.81789 l 0.13229,5.00817 -1.41383,-4.4e-4 c -1.20305,-3.8e-4 -1.435,-0.0814 -1.55581,-0.54337 l -0.14198,-0.54292 -0.58601,0.55053 c -0.66637,0.62602 -2.84109,0.94285 -3.76142,0.54799 z m 3.86797,-2.5619 c 0.38643,-0.49127 0.54837,-1.08254 0.54837,-2.00221 v -1.30506 l -0.59531,0.18545 c -1.41165,0.43975 -1.78287,0.65789 -2.19814,1.29168 -1.16766,1.78207 0.93478,3.49592 2.24508,1.83014 z m 17.82786,2.5619 c -3.1314,-1.3435 -1.86341,-5.74713 1.98142,-6.88131 2.26825,-0.66911 2.83045,-1.35186 2.06948,-2.51324 -0.74461,-1.13642 -2.54497,-0.66279 -2.54497,0.66952 0,0.43768 -0.19315,0.51027 -1.35775,0.51027 h -1.35776 l 0.14544,-1.08434 c 0.31829,-2.37302 3.28404,-3.57781 6.24945,-2.53875 1.81442,0.63576 1.99319,1.20491 2.14145,6.81789 l 0.13229,5.00817 -1.41383,-4.4e-4 c -1.20305,-3.8e-4 -1.435,-0.0814 -1.55581,-0.54337 l -0.14197,-0.54292 -0.58602,0.55053 c -0.66636,0.62602 -2.84108,0.94285 -3.76142,0.54799 z m 3.86798,-2.5619 c 0.38643,-0.49127 0.54837,-1.08254 0.54837,-2.00221 v -1.30506 l -0.59532,0.18545 c -1.41164,0.43975 -1.78287,0.65789 -2.19814,1.29168 -1.16766,1.78207 0.93478,3.49592 2.24509,1.83014 z M 8.2763304,144.40273 C 8.1765724,130.39636 8.1323074,107.56612 8.1779654,93.668881 l 0.08301,-25.267709 0.595313,-0.08455 0.595312,-0.08455 v 50.818408 50.8184 h -0.496947 -0.496948 z m 18.6377746,19.51303 v -5.95313 h 1.455208 1.455209 v 0.64943 0.64943 l 0.631897,-0.63189 c 1.270086,-1.27009 3.738924,-1.15935 4.765135,0.21375 0.512342,0.68552 0.562888,1.1485 0.642469,5.88479 l 0.08638,5.14074 h -1.607731 -1.607731 v -4.57729 c 0,-4.80479 -0.09327,-5.21229 -1.192972,-5.21229 -1.455412,0 -1.57847,0.38861 -1.668721,5.26981 l -0.08357,4.51977 h -1.437786 -1.437786 z m 11.1125,0 v -5.95313 h 1.5875 1.5875 v 5.95313 5.95312 h -1.5875 -1.5875 z m 43.656249,-1.85209 v -7.80521 h 1.5875 1.5875 v 7.80521 7.80521 h -1.5875 -1.5875 z m 4.7625,6.6076 c 0,-1.06834 0.25754,-1.58241 2.38593,-4.7625 l 2.38593,-3.56489 h -2.25364 -2.25363 v -1.19063 -1.19062 h 3.96875 3.96875 v 1.25834 c 0,1.13861 -0.214,1.57876 -2.24896,4.62564 -1.23693,1.85201 -2.24896,3.42888 -2.24896,3.50415 0,0.0753 1.01203,0.13687 2.24896,0.13687 h 2.24896 v 1.19063 1.19062 h -4.10105 -4.10104 z m 11.72429,0.93088 c -0.86016,-0.34653 -1.13781,-1.78048 -1.13948,-5.88483 l -0.001,-3.63802 h -0.66146 c -0.59532,0 -0.66146,-0.10584 -0.66146,-1.05834 0,-0.9525 0.0661,-1.05833 0.66146,-1.05833 h 0.66146 v -1.5875 -1.5875 h 1.5875 1.587496 v 1.5875 1.5875 h 0.79375 0.79375 v 1.05833 1.05834 h -0.80102 -0.80101 l 0.0734,3.77031 0.0734,3.77031 0.7276,0.0837 c 0.65625,0.0755 0.72761,0.18579 0.72761,1.12448 v 1.04076 l -1.52136,-0.0168 c -0.836736,-0.009 -1.781826,-0.12171 -2.100186,-0.24996 z m 36.959046,-7.53848 v -7.80521 h 1.5875 1.5875 v 7.80521 7.80521 h -1.5875 -1.5875 z M 38.026605,155.3168 v -1.32292 h 1.5875 1.5875 v 1.32292 1.32291 h -1.5875 -1.5875 z m -51.593751,-14.02292 v -6.35 h 1.190625 c 1.048855,0 1.190625,0.069 1.190625,0.57974 0,0.51968 0.03426,0.53462 0.330729,0.1442 1.8950124,-2.4955 4.4789374,-0.52363 4.6490494,3.54784 0.18605,4.45291 -1.745186,6.88722 -4.0693124,5.12934 -0.829978,-0.62776 -0.910466,-0.49986 -0.910466,1.4468 v 1.85208 h -1.190625 -1.190625 z m 4.7690494,0.90882 c 0.618312,-1.62629 0.209005,-5.16588 -0.634809,-5.48968 -1.3076564,-0.50179 -2.2488824,3.72385 -1.2466014,5.59663 0.442208,0.82627 1.5505534,0.76327 1.8814104,-0.10695 z m -142.8815534,2.06733 c -2.79956,-1.39854 -2.9375,-10.30475 -0.18559,-11.98269 2.75611,-1.6805 6.27101,0.10845 6.27101,3.19171 v 0.81674 l -1.25352,-0.0806 -1.25351,-0.0807 -0.16223,-1.00563 c -0.27418,-1.69962 -1.83046,-2.13611 -2.54623,-0.71415 -0.45156,0.89707 -0.45156,6.77584 0,7.67291 0.77052,1.53072 2.38624,0.82245 2.68615,-1.17752 l 0.18051,-1.20373 h 1.17442 1.17441 l -4.1e-4,1.12448 c -8.7e-4,2.38414 -1.5444,3.90178 -3.96834,3.90178 -0.65484,0 -1.60734,-0.20817 -2.11667,-0.46261 z m 8.28848,0.0838 c -0.8646,-0.62516 -1.23511,-2.00635 -0.88599,-3.30286 0.31961,-1.18697 0.7211,-1.48074 2.91626,-2.13382 l 1.45521,-0.43295 v -0.91029 c 0,-1.22753 -1.57918,-1.56266 -1.87169,-0.39721 -0.15066,0.60028 -0.30459,0.67755 -1.34982,0.67755 h -1.17977 l 0.16675,-0.59532 c 0.51724,-1.84659 1.4902,-2.46946 3.76937,-2.41307 2.74778,0.068 2.93749,0.43327 3.03981,5.85303 l 0.0712,3.77069 -1.12448,-3.8e-4 c -0.8698,-2.9e-4 -1.12448,-0.0995 -1.12448,-0.43825 0,-0.39681 -0.0486,-0.39388 -0.51843,0.0313 -0.72298,0.65429 -2.6333,0.81988 -3.36393,0.29159 z m 3.13392,-1.6458 c 0.44459,-0.40235 0.73723,-2.73712 0.34306,-2.73712 -0.68474,0 -1.98377,0.86539 -2.12125,1.41313 -0.34992,1.39422 0.77503,2.23183 1.77819,1.32399 z m 5.62236,1.64996 c -0.85332,-0.37156 -1.55088,-1.60169 -1.38812,-2.44792 0.16948,-0.88117 1.988,-0.70425 2.31191,0.22492 0.46228,1.32611 2.54931,1.23109 2.35629,-0.10727 -0.0856,-0.59366 -0.40579,-0.81149 -2.69585,-1.83419 -3.84079,-1.71521 -1.42494,-6.37226 2.72582,-5.25457 1.17491,0.31637 2.13478,1.34581 2.13478,2.28951 0,0.96079 -2.01387,0.93061 -2.38125,-0.0357 -0.29308,-0.77084 -1.32134,-0.9041 -1.87049,-0.24241 -0.53483,0.64442 -0.0139,1.21166 1.8018,1.9622 2.01912,0.8346 2.35452,1.1282 2.56392,2.24445 0.50474,2.69047 -2.6109,4.48457 -5.55881,3.20096 z m 7.62592,0.0517 c -2.38046,-1.1478 -1.15023,-4.63754 1.93986,-5.50272 1.41306,-0.39563 1.81302,-0.83055 1.58805,-1.72686 -0.23312,-0.92886 -1.82308,-0.86484 -1.95709,0.0788 -0.11254,0.79239 -2.42969,0.91864 -2.42801,0.1323 0.004,-2.03989 2.99854,-3.25597 5.47011,-2.22167 1.16795,0.48876 1.22772,0.71459 1.39341,5.26489 l 0.14695,4.0354 -1.11133,-5.1e-4 c -0.7789,-3.6e-4 -1.192,-0.13901 -1.38102,-0.46353 -0.14832,-0.25466 -0.2733,-0.33331 -0.27773,-0.17476 -0.021,0.75178 -2.23781,1.13096 -3.3832,0.57867 z m 3.15589,-1.70169 c 0.32948,-0.29818 0.48385,-0.81034 0.48385,-1.60533 v -1.16745 l -0.59531,0.17767 c -1.18841,0.35469 -1.78594,0.91117 -1.78594,1.66326 0,1.29461 0.9701,1.77105 1.8974,0.93185 z m 9.35321,1.43007 c -1.62145,-1.40885 -1.01577,-4.08019 1.09172,-4.81503 2.30116,-0.80237 2.60663,-1.02219 2.60663,-1.87584 0,-1.04832 -1.78978,-1.22234 -1.93663,-0.1883 -0.0898,0.63212 -2.429,0.94244 -2.429,0.32223 0,-1.65637 1.33744,-2.71436 3.4679,-2.74331 2.99364,-0.0407 3.36264,0.58292 3.46817,5.86104 l 0.0754,3.77069 -1.09617,-3.8e-4 c -0.79287,-2.7e-4 -1.14455,-0.12643 -1.27101,-0.45598 -0.11048,-0.28792 -0.24262,-0.35119 -0.35903,-0.1719 -0.6493,1.00003 -2.62233,1.16187 -3.61797,0.29678 z m 3.34679,-1.43007 c 0.32948,-0.29818 0.48385,-0.81034 0.48385,-1.60533 v -1.16745 l -0.59531,0.17767 c -1.18841,0.35469 -1.78594,0.91117 -1.78594,1.66326 0,1.29461 0.9701,1.77105 1.8974,0.93185 z m 7.53099,1.47701 c -0.5779,-0.45457 -0.69714,-0.4772 -0.69714,-0.13229 0,0.31674 -0.28426,0.41608 -1.19063,0.41608 h -1.19062 v -6.21771 -6.2177 h 1.32292 1.32291 v 1.89309 1.89309 l 0.55135,-0.49897 c 1.23026,-1.11336 3.39006,-0.39222 3.919969,1.30884 1.589753,5.1033 -0.999149,9.94653 -4.038759,7.55557 z m 1.6748,-1.81548 c 0.99922,-1.86707 -0.0158,-6.26821 -1.28854,-5.58706 -1.43919,0.77023 -1.11433,6.09883 0.37181,6.09883 0.36477,0 0.76132,-0.22138 0.91673,-0.51177 z m 9.855134,1.97989 c -2.152195,-0.97136 -2.35703,-7.61332 -0.276778,-8.97479 2.611798,-1.70936 5.379632,-0.21164 5.686748,3.0772 l 0.166559,1.78364 h -2.41951 -2.41951 v 1.01732 c 0,1.89923 1.570832,2.49541 2.197883,0.83416 0.259878,-0.6885 0.43137,-0.79315 1.299707,-0.79315 h 1.000326 v 0.78958 c 0,2.02162 -2.948948,3.29801 -5.235425,2.26604 z m 3.118759,-6.24801 c 0,-0.90578 -0.503764,-1.57011 -1.190625,-1.57011 -0.686861,0 -1.190625,0.66433 -1.190625,1.57011 0,0.47138 0.163758,0.54656 1.190625,0.54656 1.026866,0 1.190625,-0.0752 1.190625,-0.54656 z m 15.201515,5.98254 c -1.738283,-1.73828 -0.658529,-4.30109 2.165304,-5.13938 l 1.550889,-0.4604 v -0.91029 c 0,-1.14503 -1.381263,-1.38037 -1.848677,-0.31498 -0.394442,0.89907 -2.252364,0.87394 -2.252364,-0.0305 0,-2.22895 4.245822,-3.35453 6.007693,-1.59266 l 0.606891,0.60688 0.0036,3.51776 c 0.002,1.93476 0.0754,3.78565 0.16315,4.11307 l 0.159538,0.59531 h -1.221485 c -0.93443,0 -1.221484,-0.0978 -1.221484,-0.41608 0,-0.34491 -0.119242,-0.32228 -0.697139,0.13229 -0.995355,0.78295 -2.578766,0.7361 -3.415929,-0.10106 z m 3.336713,-1.21196 c 0.443918,-0.23758 0.828571,-2.90111 0.418962,-2.90111 -0.635559,0 -1.848096,0.72834 -2.036201,1.2231 -0.516739,1.35912 0.412172,2.32294 1.617239,1.67801 z m 9.363288,1.21196 c -1.675188,-1.67519 -0.602101,-4.35893 2.036199,-5.09244 1.742735,-0.48453 2.277523,-1.06174 1.803799,-1.9469 -0.392536,-0.73346 -1.614945,-0.60066 -1.972483,0.21429 -0.394441,0.89907 -2.252364,0.87394 -2.252364,-0.0305 0,-2.22895 4.245823,-3.35453 6.007694,-1.59266 l 0.60689,0.60688 v 3.28625 c 0,1.80743 0.07441,3.65831 0.165364,4.11307 l 0.165365,0.82682 h -1.223698 c -0.936444,0 -1.223698,-0.0977 -1.223698,-0.41608 0,-0.34491 -0.119242,-0.32228 -0.69714,0.13229 -0.995355,0.78295 -2.578766,0.7361 -3.415928,-0.10106 z m 3.427899,-1.28489 c 0.292706,-0.21403 0.528452,-0.82723 0.615732,-1.60157 l 0.141429,-1.25476 -0.7636,0.18297 c -1.430318,0.34272 -1.689642,0.59788 -1.689642,1.66248 0,1.41529 0.62973,1.79062 1.696081,1.01088 z m 14.987333,1.63733 c -1.248745,-0.2554 -1.329016,-0.51114 -1.333529,-4.24867 l -0.0041,-3.35503 -0.595312,-0.0846 c -0.466281,-0.0662 -0.595313,-0.25659 -0.595313,-0.8783 0,-0.6217 0.129032,-0.81207 0.595313,-0.87829 0.525434,-0.0746 0.595312,-0.23768 0.595312,-1.38907 v -1.30451 h 1.190625 1.190625 v 1.30534 1.30534 l 0.727604,0.0837 c 0.613456,0.0706 0.727605,0.20825 0.727605,0.87747 0,0.66923 -0.114149,0.80689 -0.727605,0.87747 l -0.727604,0.0837 v 2.60662 c 0,3.05568 0.10752,3.44365 0.954349,3.44365 0.521787,0 0.633151,0.13452 0.633151,0.7648 0,0.86164 -0.92454,1.13933 -2.631169,0.79029 z m 9.064438,-0.0756 c -2.334842,-1.05612 -2.533336,-7.52709 -0.2762,-9.00425 2.604362,-1.7044 5.298269,-0.1564 5.654214,3.24909 l 0.170351,1.62984 h -2.418942 -2.418942 v 1.03943 c 0,1.89945 1.377616,2.47514 2.116667,0.88452 0.346426,-0.74559 0.527398,-0.8549 1.423681,-0.85989 l 1.026807,-0.006 -0.158702,0.97797 c -0.330608,2.03729 -2.907958,3.0891 -5.118934,2.08902 z m 3.091731,-6.25938 c 0,-0.88217 -0.502565,-1.57011 -1.147017,-1.57011 -0.804333,0 -1.234233,0.47922 -1.234233,1.37583 v 0.74084 h 1.190625 c 1.026867,0 1.190625,-0.0752 1.190625,-0.54656 z m 27.0809244,6.12229 c -2.116273,-1.29042 -2.076553,-7.52128 0.05686,-8.91914 2.93526201,-1.92326 5.765116,0.2317 5.7803,4.40174 0.01566,4.30063 -2.72026599,6.41797 -5.837157,4.5174 z m 2.93038701,-1.49359 c 1.067518,-1.06752 0.426107,-6.19881 -0.77485201,-6.19881 -0.937026,0 -1.190625,0.72489 -1.190625,3.40329 0,2.42404 0.291884,3.21129 1.190625,3.21129 0.197493,0 0.54617601,-0.1871 0.77485201,-0.41577 z m 81.58043259,1.75536 c -2.31375,-0.74634 -3.76879,-2.75934 -4.02823,-5.57292 -0.0738,-0.80037 -0.18904,-2.10281 -0.25608,-2.89433 -0.64203,-7.58052 1.59561,-11.45196 6.61909,-11.45196 5.02035,0 6.56419,2.34736 6.56419,9.98067 0,8.33706 -3.10689,11.8069 -8.89897,9.93854 z m 3.5418,-2.94838 c 1.75566,-0.9396 2.16452,-11.01759 0.5355,-13.19948 -1.68972,-2.2632 -3.90817,-0.56025 -4.31357,3.31121 -0.78419,7.48902 0.7514,11.50809 3.77807,9.88827 z m 26.550826,3.08226 c -0.14552,-0.0573 -0.58982,-0.17593 -0.98733,-0.26352 -5.37031,-1.18335 -5.65146,-17.12984 -0.34112,-19.34864 6.00537,-2.5092 9.52517,1.07275 9.50421,9.67203 -0.0192,7.86421 -3.30523,11.85942 -8.17576,9.94013 z m 3.35553,-3.59852 c 1.12759,-1.51666 1.37865,-10.08678 0.35847,-12.23665 -1.02262,-2.15501 -3.75112,-1.71524 -4.40412,0.70984 -0.38104,1.41507 -0.37411,8.98107 0.01,10.4058 0.53219,1.9764 2.9093,2.63663 4.03612,1.12101 z M -97.704647,139.7063 v -4.7625 h 1.190625 1.190625 v 4.7625 4.7625 h -1.190625 -1.190625 z m 12.435417,0 v -4.7625 h 1.066859 c 0.859084,0 1.113461,0.11594 1.306146,0.59532 0.131607,0.32742 0.246833,0.4404 0.256057,0.25108 0.0224,-0.45969 1.863393,-1.22228 2.181878,-0.90379 0.713379,0.71338 1.53906,0.0179 1.53906,-1.29637 v -1.29207 h 1.190625 1.190625 v 1.30534 1.30534 l 0.727604,0.0837 c 0.613456,0.0706 0.727604,0.20825 0.727604,0.87747 0,0.66923 -0.114148,0.80689 -0.727604,0.87747 l -0.727604,0.0837 v 2.60662 c 0,3.05568 0.107519,3.44365 0.954349,3.44365 0.527112,0 0.633151,0.13294 0.633151,0.79375 v 0.79375 h -1.568602 c -2.319201,0 -2.400148,-0.14237 -2.400148,-4.22139 v -3.38984 l -0.661459,-0.12644 c -0.363802,-0.0695 -0.661458,-0.0239 -0.661458,0.10144 0,0.12534 -0.245952,0.2279 -0.546561,0.2279 -0.622486,0 -1.608337,0.46751 -1.896783,0.8995 -0.106913,0.16012 -0.19621,1.69011 -0.198438,3.39998 l -0.0041,3.10885 h -1.190625 -1.190625 z m 32.279167,-1.44071 v -6.2322 h 1.273283 1.273283 l -0.01651,6.15156 -0.01651,6.15156 -1.256771,0.0806 -1.256771,0.0806 z m 13.758333,1.44071 v -4.7625 h 1.190625 1.190625 v 4.7625 4.7625 h -1.190625 -1.190625 z m 12.435417,-0.0152 v -4.77771 l 1.124479,0.0814 c 0.726267,0.0525 1.101055,0.19848 1.058334,0.41208 -0.08821,0.44107 0.323344,0.42096 0.701141,-0.0343 0.71398,-0.86029 2.920812,-0.68402 3.662555,0.29255 0.298763,0.39334 0.390768,0.37467 1.007103,-0.20434 0.993403,-0.93325 2.60648,-0.88697 3.454678,0.0991 l 0.633377,0.73634 v 4.08629 4.08629 h -1.190625 -1.190625 l -0.0041,-3.50573 c -0.0045,-3.88277 -0.11096,-4.2492 -1.197804,-4.12223 -0.978956,0.11437 -1.100544,0.63256 -1.060363,4.51911 l 0.03214,3.10885 h -1.258947 -1.258947 l -0.07341,-3.77031 -0.07341,-3.77032 -0.609875,-0.0864 c -1.223292,-0.17342 -1.3745,0.27626 -1.3745,4.0876 v 3.53948 h -1.190625 -1.190625 z m 42.333334,-5.02054 v -9.79824 l 2.962328,0.0748 2.962328,0.0748 1.315135,6.53677 c 0.723325,3.59523 1.393203,6.48853 1.488618,6.42956 0.09542,-0.059 0.758806,-3.03028 1.474202,-6.60292 l 1.30072,-6.49571 h 2.979585 2.979585 v 9.78959 9.78958 h -1.852084 -1.852083 l -0.02244,-7.73906 -0.02244,-7.73906 -1.739961,7.73906 -1.739961,7.73906 h -1.523171 -1.523171 l -0.552824,-2.4474 c -0.304055,-1.34599 -1.077983,-4.76904 -1.719843,-7.60669 l -1.167017,-5.15938 -0.02167,7.60677 -0.02167,7.60677 H 17.389104 15.53702 Z m 20.108334,0.0139 v -9.79484 h 5.55625 5.556249 v 1.5875 1.5875 h -3.58217 -3.582181 l 0.07645,2.3151 0.07645,2.31511 h 3.175001 3.175 l 0.0788,1.65364 0.0788,1.65365 h -3.32949 -3.329505 l 0.07573,2.57968 0.07573,2.57969 2.910415,0.0375 c 1.60073,0.0206 3.24378,0.0504 3.65122,0.0662 l 0.74081,0.0287 -0.0793,1.52135 -0.0794,1.52136 -5.622391,0.0714 -5.622396,0.0714 z m 16.404169,1.58224 v -8.20208 h -2.11667 -2.11667 v -1.5875 -1.5875 h 6.21771 6.21771 v 1.5875 1.5875 h -2.11667 -2.11666 v 8.20208 8.20208 h -1.98438 -1.98437 z m 10.05416,-1.57591 v -9.80117 h 4.19386 c 4.62131,0 5.55936,0.19207 6.8431,1.40119 2.18384,2.0569 1.56515,7.06842 -1.00398,8.13259 l -0.82868,0.34325 0.86317,0.287 c 1.54583,0.51399 1.87186,1.28889 2.13551,5.07567 0.12984,1.86482 0.35431,3.50883 0.49884,3.65336 0.55233,0.55233 0.19639,0.6861 -1.82559,0.6861 -2.49205,0 -2.35145,0.20764 -2.56539,-3.78865 -0.20782,-3.88193 -0.44399,-4.2519 -2.78179,-4.35786 l -1.69259,-0.0767 -0.0114,4.04547 -0.0114,4.04547 -1.90682,0.0777 -1.90682,0.0777 z m 7.73522,-2.07296 c 1.83489,-1.83489 0.34739,-4.81779 -2.4025,-4.81779 h -1.51695 l 0.0398,2.44739 c 0.0219,1.34607 0.0563,2.61054 0.0765,2.80993 0.0624,0.61626 3.09821,0.26541 3.80315,-0.43953 z m 22.60367,11.67456 c -0.097,-0.097 -0.17638,-4.50233 -0.17638,-9.78958 v -9.61319 l 4.16718,0.006 c 5.781516,0.008 7.293076,0.79901 8.021946,4.19761 0.9587,4.47023 -1.09927,7.08314 -5.839126,7.41369 l -2.24896,0.15684 -0.0732,3.90261 -0.0732,3.9026 h -1.80091 c -0.99051,0 -1.88029,-0.0794 -1.97731,-0.17639 z m 7.41563,-11.31061 c 2.058076,-1.77178 0.621616,-5.18174 -2.18281,-5.18174 h -1.44045 v 2.91041 2.91042 h 1.44045 c 1.14176,0 1.59439,-0.13252 2.18281,-0.63909 z m 21.977916,11.28856 c -0.0521,-0.10914 -0.088,-4.48469 -0.0798,-9.72343 l 0.0148,-9.525 1.91248,-0.0777 1.91248,-0.0777 0.07,8.14745 0.07,8.14745 2.91041,0.0195 c 4.50751,0.0303 4.10105,-0.13826 4.10105,1.70025 v 1.5875 h -5.40835 c -2.97459,0 -5.45092,-0.0893 -5.50297,-0.19844 z m 12.7634,-9.59114 v -9.78958 h 1.98437 1.98438 v 9.78958 9.78958 h -1.98438 -1.98437 z m 10.05417,1.5875 v -8.20208 h -2.11667 -2.11667 v -1.5875 -1.5875 h 6.21771 6.21771 v 1.5875 1.5875 h -2.11667 -2.11666 v 8.20208 8.20208 h -1.98438 -1.98437 z m 7.14375,8.05901 c 0,-0.0909 1.13109,-4.43805 2.51354,-9.66025 1.38245,-5.2222 2.51354,-9.55813 2.51354,-9.63538 0,-0.0772 1.13109,-0.14046 2.51354,-0.14046 1.38245,0 2.51354,0.062 2.51354,0.1378 0,0.0758 1.1311,4.40674 2.51354,9.62432 1.38245,5.21758 2.51355,9.56589 2.51355,9.66291 0,0.097 -0.91692,0.14161 -2.03759,0.0991 l -2.03759,-0.0773 -0.4235,-1.98438 -0.4235,-1.98437 h -2.61845 -2.61844 l -0.4235,1.98437 -0.4235,1.98438 -2.03759,0.0773 c -1.12068,0.0425 -2.03759,0.003 -2.03759,-0.0881 z m 9.39874,-7.59599 c -0.0603,-0.1819 -0.47725,-2.05117 -0.92654,-4.15394 -0.44929,-2.10277 -0.85908,-3.8654 -0.91063,-3.91695 -0.0516,-0.0515 -0.29626,0.83545 -0.54378,1.97113 -0.24752,1.13568 -0.66469,3.04713 -0.92706,4.24768 l -0.47702,2.18281 h 1.94734 c 1.43996,0 1.91877,-0.0862 1.83769,-0.33073 z m 7.18181,7.56267 c -0.097,-0.097 -0.17639,-4.50233 -0.17639,-9.78958 v -9.61319 h 2.34356 2.34356 l 2.35279,6.66644 2.3528,6.66643 0.0707,-6.66643 0.0707,-6.66644 h 1.71525 1.71525 v 9.78958 9.78958 l -2.18282,-4.3e-4 -2.18281,-4.3e-4 -2.38125,-6.76524 -2.38125,-6.76522 -0.0706,6.76566 -0.0706,6.76566 h -1.67123 c -0.91918,0 -1.7506,-0.0794 -1.84762,-0.17639 z m 14.3757,-0.096 c 0,-0.2238 4.46419,-17.30746 4.92412,-18.84375 0.11898,-0.39742 0.48384,-0.46302 2.57523,-0.46302 h 2.43661 l 2.48468,9.45885 c 1.36658,5.20237 2.53701,9.60768 2.60096,9.78958 0.0867,0.24654 -0.4174,0.33073 -1.98017,0.33073 h -2.09644 l -0.3511,-1.78594 c -0.1931,-0.98226 -0.40628,-1.93476 -0.47372,-2.11666 -0.0866,-0.23346 -0.87821,-0.33073 -2.69161,-0.33073 h -2.56898 l -0.3511,1.78593 c -0.19311,0.98227 -0.40628,1.93477 -0.47373,2.11667 -0.1534,0.41375 -4.03475,0.46987 -4.03475,0.0583 z m 9.26041,-7.45485 c 0,-0.61524 -1.68071,-8.14273 -1.79301,-8.03044 -0.0624,0.0624 -0.45646,1.6987 -0.8756,3.63613 -0.41914,1.93743 -0.82588,3.79048 -0.90385,4.1179 l -0.14178,0.59532 h 1.85712 c 1.27257,0 1.85712,-0.10038 1.85712,-0.31891 z m -289.718747,-3.91435 v -1.05834 h 1.190625 1.190625 v 1.05834 1.05833 h -1.190625 -1.190625 z m 58.472917,0 v -1.05834 h 1.190625 1.190625 v 1.05834 1.05833 h -1.190625 -1.190625 z M -146.1234,125.6138 c 0,-0.0419 5.70699,-12.93193 12.6822,-28.644447 l 12.6822,-28.568211 h 9.57965 9.57966 l 1.48109,3.373438 c 1.756622,4.000996 1.558158,3.918615 2.788472,1.157484 2.180858,-4.89439 1.148953,-4.667472 21.114379,-4.643085 20.457576,0.02499 19.242202,-0.339544 21.941591,6.581065 0.226969,0.581895 0.417677,0.27763 1.8677,-2.97982 l 1.61492,-3.627888 9.528353,0.0694 9.528353,0.0694 12.649022,28.442709 c 6.956962,15.643495 12.6520354,28.532005 12.6557184,28.641145 0.0037,0.10914 -4.2172784,0.19844 -9.3799134,0.19844 h -9.386609 l -0.365038,-0.59531 c -0.20077,-0.32742 -3.805156,-8.35814 -8.009745,-17.84605 -4.204589,-9.487902 -7.720147,-17.167434 -7.812351,-17.065622 -0.255026,0.281599 -2.960812,6.497327 -2.959995,6.799695 3.94e-4,0.145521 2.817633,6.604237 6.260531,14.352697 3.442899,7.74847 6.259816,14.14808 6.259816,14.22136 0,0.0733 -4.268087,0.13324 -9.484637,0.13324 h -9.484636 l -1.598269,-3.60787 -1.598269,-3.60787 -1.101727,2.35102 c -1.156513,2.46794 -2.004035,3.56283 -3.323087,4.29302 -0.716673,0.39674 -2.450912,0.4394 -17.859376,0.4394 h -17.065625 l -0.849923,-0.46465 c -1.213037,-0.66318 -2.181195,-1.97961 -3.302461,-4.49045 l -0.977383,-2.18865 -0.706176,1.5875 c -0.388396,0.87313 -1.101745,2.48047 -1.585215,3.57188 l -0.87904,1.98437 -9.20986,0.0696 c -5.06542,0.0383 -9.35061,0.0156 -9.52265,-0.0504 -0.2014,-0.0773 1.9444,-5.19076 6.02479,-14.35714 l 6.3376,-14.237119 -1.57235,-3.558461 -1.57235,-3.55846 -0.55676,1.17721 c -0.30622,0.647466 -3.88183,8.678148 -7.94579,17.84596 l -7.38901,16.66875 -9.5389,0.0695 c -5.24639,0.0382 -9.5389,0.0351 -9.5389,-0.007 z m 87.423733,-3.17151 c 0.829274,-0.79479 3.328354,-5.83766 3.328354,-6.71626 0,-0.33261 -6.553401,-15.39284 -6.857919,-15.760024 -0.08445,-0.101826 -1.634034,3.162084 -3.443528,7.253124 -4.825652,10.9102 -6.594586,12.73546 -11.613117,11.98288 -4.625948,-0.6937 -4.150173,0.0921 -15.757523,-26.023948 l -10.01263,-22.527961 h -7.09535 -7.09535 l 1.65991,3.770312 c 13.95594,31.699507 21.187601,47.621567 21.902561,48.223167 l 0.782712,0.65861 h 16.652336 16.652336 z m -14.93315,-6.08542 c 1.791977,-0.91553 2.319612,-1.824 6.344527,-10.92387 l 3.749187,-8.476475 -3.862963,-8.716731 c -4.643814,-10.478713 -5.305648,-11.323486 -8.871331,-11.323486 -3.513957,0 -4.033753,0.667134 -8.732315,11.207529 l -3.914757,8.782066 0.348609,0.82887 c 7.949505,18.901167 9.822647,21.236107 14.939043,18.622097 z m 33.211853,-33.932811 c 2.718075,-6.111875 5.0033,-11.261328 5.078277,-11.443229 0.107073,-0.259769 -1.391911,-0.330729 -6.986428,-0.330729 h -7.122749 l -1.506718,3.423681 c -0.828695,1.883025 -1.571018,3.591245 -1.649606,3.796044 -0.07859,0.204799 1.303167,3.635002 3.070568,7.622673 1.767402,3.987671 3.325398,7.537589 3.462214,7.888708 0.368736,0.946304 0.310858,1.058458 5.654442,-10.957148 z m 74.130575,33.615631 c -1.271478,-0.45347 -1.938237,-1.05455 -2.656473,-2.3948 l -0.567158,-1.05833 -0.08658,-8.00365 -0.08658,-8.003642 h 2.004811 2.00481 l 0.0015,7.209892 c 0.0019,9.10023 0.159188,9.72987 2.428526,9.71939 2.088725,-0.01 2.185121,-0.40248 2.287588,-9.32251 l 0.08738,-7.606772 h 1.80254 c 2.244019,0 2.055419,-0.771072 1.980579,8.097602 -0.0918,10.87873 -2.437094,13.7751 -9.200918,11.36282 z m 27.997203,-0.11828 c -5.16905,-2.3932 -5.0216,-17.018195 0.19355,-19.197222 6.17421,-2.579752 9.73122,1.564074 9.39423,10.944052 -0.24151,6.72247 -1.75419,8.74316 -6.54507,8.74316 -1.37412,0 -2.30985,-0.15069 -3.04271,-0.48999 z m 4.34673,-2.66328 c 0.99377,-0.53185 1.20952,-1.76072 1.20952,-6.88928 0,-6.23965 -0.31811,-7.143749 -2.51354,-7.143749 -2.18472,0 -2.51354,0.917239 -2.51354,7.011459 0,6.77923 0.96251,8.54955 3.81756,7.02157 z m 26.8741,2.84169 c -1.41052,-0.50009 -2.20074,-1.24541 -2.96022,-2.79204 l -0.74394,-1.51497 v -5.15937 c 0,-8.23639 1.32681,-10.328667 6.53994,-10.312945 5.013146,0.01512 6.429586,2.295413 6.406046,10.312945 -0.0243,8.28134 -3.253876,11.58938 -9.241826,9.46638 z m 4.09061,-2.84622 c 1.66792,-0.89264 1.85202,-11.6884 0.22878,-13.416256 -2.49046,-2.650973 -4.18331,0.04488 -4.18562,6.665546 -0.002,6.41393 1.0934,8.28318 3.95684,6.75071 z M 14.3302,115.44256 c 0.09863,-0.40662 1.243956,-4.75645 2.545161,-9.66629 1.301205,-4.90984 2.365827,-8.98773 2.365827,-9.061977 0,-0.07425 1.106669,-0.134995 2.459264,-0.134995 h 2.459264 l 2.481202,9.458852 c 1.364661,5.20237 2.532918,9.60769 2.596127,9.78959 0.08567,0.24655 -0.422403,0.33073 -1.996233,0.33073 h -2.111159 l -0.176834,-1.12448 c -0.09726,-0.61847 -0.296801,-1.57521 -0.443428,-2.1261 l -0.266593,-1.00161 -2.566951,0.0756 -2.566951,0.0756 -0.410521,1.98437 -0.410521,1.98438 -2.068494,0.0778 -2.068494,0.0778 z m 9.144321,-7.01133 c 0,-0.17539 -0.381548,-2.09661 -0.847884,-4.26937 -0.962955,-4.486597 -0.866325,-4.531921 -2.025936,0.95025 l -0.769529,3.63802 h 1.821675 c 1.244916,0 1.821674,-0.10096 1.821674,-0.3189 z m 25.135413,-0.47485 v -8.202082 h -2.11666 -2.11667 v -1.5875 -1.5875 h 6.21771 6.21771 v 1.5875 1.5875 h -2.11667 -2.11667 v 8.202082 8.20209 h -1.98437 -1.98438 z m 25.13542,-1.5978 v -9.799884 l 2.28133,0.07645 2.28133,0.07645 2.28274,6.453044 2.28273,6.45305 0.0708,-6.51919 0.0708,-6.519196 h 1.84746 1.84747 v 9.799886 9.79988 l -2.29241,-0.0764 -2.29241,-0.0765 -2.32508,-6.61458 -2.32508,-6.61458 -0.0127,6.68073 -0.0127,6.68073 h -1.85209 -1.85208 z m 30.956246,0.0103 v -9.789583 h 2.89259 c 2.52709,0 2.90962,0.05851 3.02743,0.463021 0.0742,0.254661 0.69687,3.300862 1.3838,6.769332 0.68693,3.46847 1.32954,6.14738 1.42802,5.95313 0.0985,-0.19426 0.76104,-3.24046 1.47237,-6.76934 l 1.29332,-6.416143 h 2.85019 2.8502 l 0.0356,0.859896 c 0.0196,0.472942 0.0494,4.878227 0.0661,9.789517 l 0.0305,8.92963 -1.78594,6e-5 -1.78593,6e-5 -0.0168,-7.60677 c -0.009,-4.18372 -0.10821,-7.36864 -0.21996,-7.0776 -0.11176,0.29104 -0.90204,3.71409 -1.75617,7.60677 l -1.55296,7.0776 h -1.52932 -1.52932 l -0.17785,-0.70863 c -0.0978,-0.38974 -0.86396,-3.75326 -1.70254,-7.47448 l -1.52468,-6.76584 -0.0223,7.47448 -0.0223,7.47447 h -1.85208 -1.85209 z m 18.84374,9.45886 c 0.0632,-0.18191 1.23645,-4.58722 2.6072,-9.78959 l 2.49228,-9.458853 h 2.44818 c 1.3465,0 2.44819,0.03467 2.44819,0.07705 0,0.04238 1.13109,4.350363 2.51354,9.573293 1.38245,5.22294 2.51354,9.59358 2.51354,9.71253 0,0.11896 -0.88838,0.21629 -1.97418,0.21629 h -1.97417 l -0.24988,-0.99218 c -0.13744,-0.54571 -0.35459,-1.46844 -0.48258,-2.05052 l -0.23269,-1.05834 -2.5385,-0.0753 c -1.88123,-0.0558 -2.57116,0.0127 -2.66465,0.26459 -0.0694,0.18695 -0.28414,1.14359 -0.47725,2.12586 l -0.3511,1.78594 h -2.09643 c -1.56206,0 -2.06714,-0.0843 -1.9815,-0.33073 z m 9.35992,-7.54063 c -0.0783,-0.25466 -0.49106,-2.10796 -0.91717,-4.11844 -0.42611,-2.01048 -0.8256,-3.70626 -0.88775,-3.76841 -0.11194,-0.11194 -1.79249,7.4175 -1.79249,8.03097 0,0.21873 0.58736,0.3189 1.86992,0.3189 1.65873,0 1.85382,-0.0523 1.72749,-0.46302 z M 63.175674,95.190235 c 0.008,-0.181901 0.2868,-1.045104 0.62066,-1.918229 l 0.60701,-1.5875 1.90898,-0.07806 1.90899,-0.07806 -1.34708,1.996291 -1.34709,1.996292 h -1.18256 c -0.77694,0 -1.17788,-0.113441 -1.16891,-0.33073 z M 17.908188,87.517318 c -0.82741,-0.417238 -1.378401,-0.951459 -1.842,-1.785937 l -0.661458,-1.190625 -0.08032,-8.147815 -0.08032,-8.147815 1.932407,0.07802 1.932407,0.07802 0.132292,7.894623 0.132292,7.894623 0.742358,0.63819 c 0.941964,0.809787 1.806628,0.809798 2.748617,3.6e-5 l 0.742358,-0.638153 0.132292,-7.89466 0.132291,-7.894659 1.91823,-0.07774 1.918229,-0.07774 v 7.504194 c 0,9.632374 -0.295503,10.724913 -3.232648,11.951828 -1.566597,0.654405 -5.10039,0.555176 -6.567019,-0.184402 z m 80.155966,0.342444 c -1.93136,-0.585299 -3.02012,-2.102875 -3.31624,-4.62234 l -0.17333,-1.474791 h 1.98639 1.9864 l 0.13754,1.220261 c 0.37194,3.299858 4.826066,3.285396 4.826066,-0.01567 0,-1.600278 -0.71951,-2.28055 -3.526066,-3.333778 -3.81952,-1.433371 -5.3542,-3.515655 -4.95368,-6.721278 0.80084,-6.409729 11.213936,-6.782337 11.966486,-0.428194 l 0.15884,1.341159 h -1.85753 -1.85752 l -0.29769,-1.182223 c -0.66997,-2.660704 -4.130756,-2.278059 -4.130756,0.456722 0,1.60207 0.29384,1.870421 3.995036,3.648547 4.32957,2.080007 5.22798,3.589315 4.48715,7.538301 -0.54304,2.89466 -5.48803,4.768233 -9.431096,3.573284 z m -67.912163,-9.735152 0.06941,-9.723438 h 2.241276 2.241276 l 0.826096,2.248959 c 0.454353,1.236927 1.529373,4.213489 2.388932,6.614583 l 1.562836,4.365625 0.07069,-6.680729 0.07069,-6.68073 h 1.715249 1.715248 v 9.789584 9.789584 h -2.211105 -2.211106 l -2.404573,-6.813021 -2.404572,-6.813021 -0.01453,6.813021 -0.01453,6.813021 h -1.855344 -1.855343 z m 15.875003,0 0.0694,-9.723438 1.91823,-0.07774 1.91823,-0.07774 v 9.801175 9.801175 h -1.98763 -1.98764 z m 7.92386,0.264583 c -1.19249,-5.20237 -2.16766,-9.612691 -2.16704,-9.800713 8.4e-4,-0.256577 0.51235,-0.322581 2.05044,-0.264583 l 2.04931,0.07728 1.32118,6.945313 c 1.10406,5.803965 1.73951,8.247691 1.71999,6.614583 -0.002,-0.181901 0.61215,-3.337057 1.36517,-7.011458 l 1.36911,-6.68073 h 1.94213 c 1.37403,0 1.94393,0.09674 1.94829,0.33073 0.003,0.181901 -0.96822,4.587213 -2.15913,9.789583 l -2.16529,9.458855 h -2.553 -2.553 z m 13.17992,-0.330729 V 68.26888 h 5.42396 5.42396 v 1.719792 1.719792 h -3.43959 -3.43958 v 2.248958 2.248959 h 3.30729 3.30729 v 1.5875 1.5875 h -3.30729 -3.30729 v 2.645833 2.645834 h 3.57187 3.57188 v 1.5875 1.5875 h -5.55625 -5.55625 z m 13.22917,-0.03053 V 68.20782 l 4.43177,0.105126 c 4.99509,0.118489 6.05807,0.420642 7.12695,2.025841 1.58843,2.385444 0.8368,6.341111 -1.42062,7.476431 l -0.83155,0.418211 0.90969,0.328946 c 1.42674,0.515919 1.71559,1.218674 1.99319,4.849456 0.13649,1.785076 0.35968,3.513483 0.49598,3.840905 l 0.24782,0.595313 h -2.09316 c -2.4695,0 -2.28186,0.291698 -2.53859,-3.94641 -0.22794,-3.762829 -0.5621,-4.255674 -2.8855,-4.255674 h -1.46723 v 4.101042 4.101042 h -1.98438 -1.98437 z m 6.6803,-1.306181 c 3.47124,-0.964012 1.9439,-5.534466 -1.85166,-5.540979 l -0.85989,-0.0015 v 2.910417 2.910417 l 0.85989,-0.0015 c 0.47294,-8.11e-4 1.30619,-0.125418 1.85166,-0.276903 z m 22.894926,10.927858 c -0.0491,-0.10914 -0.0859,-4.484687 -0.0818,-9.723438 l 0.008,-9.525 1.91823,-0.07774 1.91823,-0.07774 v 9.801175 9.801175 h -1.83647 c -1.01006,0 -1.87667,-0.0893 -1.9258,-0.198438 z m 7.00015,-9.525 0.0694,-9.723438 4.10104,0.0061 c 7.33521,0.01091 8.58487,1.415225 8.58834,9.651195 0.004,8.316111 -1.33568,9.785242 -8.92233,9.788108 l -3.90586,0.0015 z m 7.72753,6.190413 c 0.93391,-0.933911 1.29029,-3.15892 1.15029,-7.181695 -0.16836,-4.83774 -0.56875,-5.509376 -3.48892,-5.852586 l -1.48303,-0.174301 v 6.915595 6.915595 h 1.59952 c 1.32677,0 1.7057,-0.10617 2.22214,-0.622608 z m 6.49865,3.345717 c 8.6e-4,-0.115262 1.13195,-4.479425 2.51354,-9.698139 1.38159,-5.218715 2.51198,-9.539198 2.51198,-9.601075 0,-0.06188 1.10102,-0.07827 2.44671,-0.03643 l 2.44671,0.07607 2.42867,9.128125 c 1.33576,5.020469 2.4992,9.396016 2.58541,9.723438 l 0.15675,0.595313 h -2.09226 -2.09227 l -0.17789,-0.992188 c -0.0978,-0.545703 -0.29427,-1.438672 -0.43652,-1.984375 l -0.25862,-0.992187 h -2.60341 -2.60341 l -0.36814,1.918229 -0.36813,1.918229 -2.04534,0.07728 c -1.12494,0.0425 -2.04464,-0.01703 -2.04378,-0.13229 z m 9.24908,-7.551755 c -0.005,-0.181901 -0.40337,-2.116667 -0.88444,-4.299479 l -0.87466,-3.96875 -0.44293,1.984375 c -0.24361,1.091406 -0.66727,3.026172 -0.94147,4.299479 l -0.49853,2.315104 h 1.8259 c 1.28955,0 1.82303,-0.09715 1.81613,-0.330729 z m 7.41811,-2.063107 v -9.846773 l 4.16718,0.127411 c 4.6954,0.14356 5.54979,0.377749 6.87195,1.883599 3.03995,3.462314 2.34266,14.539911 -1.05696,16.791529 l -1.07821,0.714112 -4.45198,0.08845 -4.45198,0.08845 z m 7.48579,6.358449 c 1.10911,-0.872427 1.37034,-2.112562 1.36463,-6.478155 -0.007,-5.474762 -0.42959,-6.296477 -3.41748,-6.647644 l -1.46419,-0.172087 v 6.915595 6.915595 h 1.41952 c 1.02257,0 1.60912,-0.149135 2.09752,-0.533304 z"
         id="path16" /></g></g></svg>
