<?xml version="1.0" encoding="UTF-8"?><svg id="Iconos" xmlns="http://www.w3.org/2000/svg" viewBox="0 0 790.03 787.9"><defs><style>.cls-1{fill:#bcc3cf;}.cls-2{fill:#ebf0f2;}</style></defs><circle class="cls-2" cx="395.01" cy="393.95" r="353.48"/><path class="cls-1" d="M395.01.33c-4.45,0-8.95.08-13.39.22l1.34,40.12c1.18-.04,2.37-.07,3.56-.1,0,0,.01,0,.02,0,.06,0,.11,0,.17,0h.01c.07,0,.11,0,.18,0,0,0,.02,0,.02,0,.05,0,.1,0,.15,0,.02,0,.03,0,.05,0,.04,0,.09,0,.13,0,.02,0,.03,0,.05,0,.05,0,.11,0,.16,0,.02,0,.05,0,.07,0,.04,0,.06,0,.1,0h.08s.06,0,.08,0c.03,0,.05,0,.08,0,.04,0,.09,0,.13,0,.03,0,.07,0,.1,0,.04,0,.05,0,.09,0,.03,0,.06,0,.09,0,.02,0,.05,0,.08,0,.03,0,.06,0,.09,0,.02,0,.05,0,.08,0,.06,0,.11,0,.16,0,.01,0,.05,0,.06,0,.03,0,.07,0,.1,0,.02,0,.03,0,.05,0,.04,0,.07,0,.11,0,.01,0,.01,0,.03,0,.07,0,.15,0,.22,0,.01,0,.04,0,.05,0,.04,0,.07,0,.11,0,.02,0,.03,0,.05,0,.04,0,.07,0,.11,0,.01,0,.03,0,.05,0,.07,0,.13,0,.2,0,.01,0,.04,0,.06,0h.1s.03,0,.06,0c.03,0,.07,0,.1,0,.01,0,.05,0,.06,0,.06,0,.12,0,.17,0,.02,0,.05,0,.07,0,.03,0,.07,0,.1,0,.02,0,.04,0,.06,0,.03,0,.07,0,.1,0,.01,0,.05,0,.07,0,.06,0,.11,0,.17,0,.02,0,.05,0,.07,0,.03,0,.07,0,.1,0,.02,0,.04,0,.06,0,.03,0,.07,0,.1,0,.01,0,.05,0,.06,0,.05,0,.1,0,.16,0,.02,0,.06,0,.09,0,.03,0,.06,0,.1,0,.02,0,.04,0,.07,0,.03,0,.07,0,.1,0,.02,0,.04,0,.06,0,.05,0,.1,0,.16,0,.02,0,.06,0,.09,0,.03,0,.06,0,.09,0,.02,0,.05,0,.08,0,.03,0,.06,0,.09,0,.04,0,.05,0,.09,0,.03,0,.05,0,.08,0,.05,0,.1,0,.15,0,.02,0,.05,0,.07,0,.04,0,.06,0,.09,0,.03,0,.05,0,.08,0,.04,0,.06,0,.09,0,.03,0,.05,0,.08,0,.05,0,.11,0,.16,0,.02,0,.04,0,.05,0,.04,0,.07,0,.11,0,.03,0,.05,0,.08,0,.04,0,.06,0,.1,0h.07s.11,0,.16,0h.04s.08,0,.13,0h.07s.07,0,.11,0h.06c.06,0,.11,0,.16,0h.22s.07,0,.12,0h.22V.33h0ZM368.25,1.23c-4.44.3-8.93.68-13.35,1.12l4.05,39.94c.19-.02.37-.04.55-.06,0,0,.01,0,.02,0,.06,0,.1,0,.16-.02,0,0,.02,0,.02,0,.05,0,.12-.01.16-.02.02,0,.05,0,.07,0,.03,0,.06,0,.09,0,.03,0,.06,0,.09,0,.01,0,.04,0,.05,0,3.58-.35,7.17-.65,10.78-.89l-2.69-40.05h0ZM341.58,3.93c-4.41.6-8.87,1.28-13.25,2.03l6.76,39.57c2.4-.41,4.81-.8,7.22-1.16.01,0,.03,0,.04,0,.03,0,.09-.01.12-.02.02,0,.05,0,.07,0,.03,0,.06,0,.09-.01.05,0,.11-.02.16-.02.01,0,.04,0,.05,0l.12-.02h.03c1.33-.2,2.67-.39,4.01-.57l-5.4-39.77h0ZM315.14,8.45c-4.36.9-8.77,1.89-13.09,2.93l9.45,39.01c1.34-.33,2.66-.64,4.01-.95,0,0,.02,0,.02,0,.06-.01.11-.02.16-.04h0c.06-.01.11-.03.16-.04h.05s.07-.03.11-.04c.02,0,.04,0,.06-.01.04-.01.07-.02.12-.03.03,0,.06-.01.09-.02.02,0,.07-.02.09-.02.03,0,.06-.01.09-.02.02,0,.04,0,.07-.02.03,0,.06-.01.1-.02h.02c.08-.02.15-.04.23-.06.01,0,.02,0,.03,0l.12-.03s.02,0,.03,0c.12-.03.25-.06.38-.08h.01c1.92-.43,3.85-.85,5.79-1.25l-8.11-39.31h0ZM289.07,14.76c-4.29,1.2-8.62,2.48-12.86,3.83l12.1,38.27c3.07-.97,6.16-1.9,9.26-2.79.02,0,.02,0,.04-.01.03,0,.07-.02.11-.03.01,0,.05-.01.06-.02.05-.01.1-.03.15-.04.03,0,.05-.02.09-.02.02,0,.05-.01.07-.02.03,0,.09-.02.12-.03.01,0,.02,0,.03,0,.07-.02.1-.03.17-.05,0,0,0,0,.01,0,.05-.02.11-.03.17-.05,0,0,0,0,0,0,.43-.12.84-.24,1.27-.36l-10.78-38.66h0ZM263.48,22.85c-4.2,1.49-8.43,3.07-12.57,4.7l14.7,37.35c.58-.23,1.17-.46,1.75-.68h0c.12-.04.22-.09.34-.13.01,0,.02,0,.03-.01.04-.02.09-.04.14-.05,0,0,.02,0,.03-.01.05-.02.1-.04.15-.06.02,0,.03-.01.05-.02.03-.01.08-.03.11-.04.02,0,.04-.01.06-.02.04-.02.07-.03.11-.04.02,0,.04-.01.06-.02.04-.02.09-.03.13-.05.02,0,.04-.02.06-.02.02,0,.07-.03.09-.03.02,0,.05-.02.07-.03.04-.02.1-.04.14-.05l.05-.02s.07-.03.1-.04c.02,0,.04-.02.07-.03.04-.02.07-.03.11-.04.01,0,.02,0,.04-.01.05-.02.1-.04.15-.06.02,0,.03-.01.05-.02.04-.02.07-.03.11-.04.02,0,.04-.01.05-.02.05-.02.1-.04.15-.06.01,0,.02,0,.04-.01.04-.02.09-.03.13-.05.01,0,.03,0,.04-.01.04-.02.1-.04.14-.05h.02c.05-.03.11-.05.17-.07,0,0,.01,0,.02,0,.05-.02.1-.04.15-.06,0,0,.01,0,.02,0,2.11-.79,4.24-1.57,6.36-2.32l-13.41-37.83h0ZM238.51,32.68c-4.08,1.77-8.19,3.64-12.22,5.55l17.22,36.26c3.62-1.72,7.28-3.38,10.96-4.98l-15.97-36.83h0ZM214.28,44.19c-3.95,2.05-7.92,4.19-11.8,6.37l19.66,35c.95-.53,1.9-1.06,2.86-1.59,0,0,.02,0,.03-.01.1-.05.2-.11.3-.16.02-.01.05-.03.07-.04.02-.01.05-.03.07-.04.05-.03.07-.04.12-.07.01,0,.02-.01.03-.02.04-.02.08-.05.12-.07.02,0,.03-.02.05-.03.03-.02.08-.05.11-.06.01,0,.02-.01.04-.02.05-.03.1-.05.15-.08.01,0,.02-.01.03-.02.04-.02.09-.05.13-.07,0,0,.02,0,.03-.01.11-.06.21-.11.31-.17,0,0,0,0,.01,0,.11-.06.21-.11.32-.17,0,0,.01,0,.02,0,.04-.02.1-.05.14-.08h.02c.11-.07.2-.12.31-.18,0,0,.02,0,.03-.01.11-.06.2-.11.31-.17,0,0,.02-.01.03-.02.04-.02.09-.05.13-.07,0,0,.01,0,.02-.01.05-.03.1-.06.15-.08,0,0,.02,0,.02-.01.05-.03.08-.04.13-.07.01,0,.02-.01.03-.02.1-.05.2-.11.3-.16.01,0,.03-.01.04-.02.04-.02.07-.04.11-.06.02,0,.03-.02.05-.02.04-.02.1-.05.14-.07.02,0,.03-.02.05-.02.03-.02.07-.04.1-.05l.06-.03s.07-.04.11-.06c.02-.01.04-.02.07-.04.04-.02.06-.03.1-.06.02-.01.05-.03.07-.04.02-.01.05-.03.07-.04.02-.01.05-.03.07-.04.04-.02.08-.04.12-.07.03-.01.05-.03.08-.04.02-.01.05-.02.07-.03.03-.01.06-.03.08-.04,0,0,.03-.02.04-.02.06-.03.11-.06.17-.09,0,0,.03-.02.04-.02.03-.02.06-.03.09-.05.02-.01.03-.02.05-.03.07-.03.13-.07.2-.1h0s.07-.04.1-.06c0,0,.02-.01.03-.02.11-.06.22-.12.33-.17h.01s.07-.05.11-.07h0c.12-.06.23-.12.35-.19h0c.39-.21.79-.41,1.18-.62h0s.04-.03.07-.04l-18.45-35.65h0ZM190.9,57.33c-3.8,2.31-7.62,4.72-11.34,7.16l22,33.58c2.51-1.65,5.05-3.26,7.61-4.85,0,0,0,0,.01,0,.1-.06.21-.13.31-.19,0,0,0,0,0,0,.75-.46,1.49-.92,2.24-1.37l-20.84-34.31h0ZM168.47,72.02c-3.63,2.56-7.28,5.22-10.82,7.91l24.23,32.01c3.2-2.42,6.44-4.79,9.72-7.1l-23.13-32.81h0ZM147.1,88.2c-3.45,2.8-6.9,5.7-10.26,8.62l26.34,30.29c1.75-1.52,3.51-3.03,5.29-4.51,0,0,0,0,0,0,.04-.04.1-.08.14-.12h0c.05-.04.09-.08.14-.12,0,0,0,0,.01,0,.04-.04.08-.06.12-.1,0,0,.02-.02.03-.02.04-.04.09-.07.13-.11,0,0,0,0,0,0,.03-.03.08-.07.12-.1.01-.01.03-.02.04-.03.03-.03.08-.06.11-.09h.02s.08-.08.12-.12c.02-.01.03-.03.05-.04.03-.03.05-.04.09-.07.01-.01.03-.02.04-.04.03-.03.08-.07.12-.1.02-.01.03-.03.05-.04.03-.02.05-.04.08-.06.02-.02.04-.03.05-.05.03-.02.05-.04.08-.06.03-.02.06-.05.08-.07.03-.02.05-.04.08-.06.02-.02.04-.03.06-.05.03-.02.04-.03.07-.05.02-.02.04-.03.06-.05.03-.03.07-.06.11-.09.02-.02.04-.03.06-.05.02-.01.05-.04.06-.05.02-.02.04-.04.07-.05.03-.02.06-.05.09-.07.03-.02.05-.04.08-.06.03-.02.04-.03.07-.06.02-.02.04-.03.06-.05.03-.02.05-.04.07-.06.03-.03.07-.06.1-.08.02-.01.04-.03.06-.05.02-.02.05-.04.07-.06.02-.01.03-.03.05-.04.02-.02.05-.04.07-.06.03-.02.05-.04.07-.06.03-.03.07-.06.1-.08.02-.01.04-.04.06-.05.02-.02.04-.03.06-.05.03-.03.06-.05.09-.08.02-.02.04-.03.06-.05.03-.02.06-.05.09-.07.02-.01.04-.03.05-.04.03-.02.06-.05.09-.07.01-.01.03-.02.04-.04.04-.03.08-.06.12-.1.01-.01.03-.02.04-.04.03-.03.05-.04.09-.07,0,0,.02-.01.03-.02l-25.3-31.16h0ZM126.88,105.78c-3.25,3.03-6.5,6.16-9.65,9.3l28.33,28.44c1.84-1.83,3.7-3.64,5.57-5.43,0,0,.01-.01.02-.02.08-.08.17-.16.25-.24.02-.01.02-.02.04-.04.02-.02.05-.04.07-.07.02-.02.05-.05.07-.07.02-.02.05-.05.07-.07.02-.02.05-.05.08-.07.01-.01.03-.03.04-.04.08-.08.16-.16.24-.23,0,0,.01-.01.02-.02.72-.68,1.46-1.37,2.18-2.05l-27.35-29.38h0ZM107.89,124.69c-3.04,3.24-6.07,6.58-9,9.93l30.19,26.46c1.59-1.81,3.19-3.6,4.81-5.38,0,0,.01-.01.02-.02.08-.09.16-.17.24-.26.01-.02.02-.02.03-.04.02-.03.05-.05.07-.08,0,0,.03-.03.04-.04.04-.04.07-.08.11-.12.02-.02.03-.03.05-.06.02-.02.04-.04.06-.06.02-.02.04-.04.06-.07.02-.02.04-.04.06-.07.03-.03.06-.07.09-.1.01-.01.03-.03.04-.04.03-.03.05-.06.08-.09.01-.01.02-.02.03-.03.04-.04.07-.08.11-.12,0,0,.02-.02.02-.02.04-.04.06-.06.09-.1,0,0,.02-.02.03-.03.08-.09.16-.17.24-.26,0,0,0,0,0,0,.59-.64,1.2-1.29,1.79-1.93l-29.27-27.46h0ZM90.23,144.85c-2.82,3.44-5.61,6.98-8.31,10.52l31.91,24.35c2.43-3.18,4.93-6.35,7.46-9.45,0,0,0,0,0,0l-31.07-25.42h0ZM73.97,166.16c-2.58,3.63-5.13,7.35-7.58,11.06l33.49,22.13c1.14-1.73,2.3-3.44,3.47-5.15,0,0,0,0,0,0,.04-.05.06-.08.1-.14,0,0,0-.01.01-.02.03-.05.06-.09.1-.14,0-.01.02-.03.03-.04.02-.03.04-.07.06-.09.01-.02.03-.04.04-.06.02-.03.04-.05.06-.08.03-.04.06-.08.09-.13,0,0,.02-.03.03-.04.02-.03.04-.06.07-.1v-.02c.92-1.32,1.84-2.63,2.77-3.93l-32.72-23.25h0ZM59.19,188.53c-2.33,3.79-4.62,7.68-6.81,11.55l34.92,19.8c1.01-1.78,2.04-3.56,3.08-5.32h0s.04-.07.06-.11c0,0,.02-.03.02-.04.04-.06.07-.12.11-.18,0,0,0-.02.01-.03.02-.03.03-.05.05-.08.01-.02.02-.04.03-.06.02-.03.03-.05.05-.08.01-.02.03-.06.04-.07.02-.03.04-.07.06-.1.02-.03.03-.05.05-.08.01-.02.02-.04.04-.06.02-.03.04-.07.06-.1l.02-.04s.05-.09.08-.14c0-.01.02-.03.02-.04.02-.04.04-.07.07-.11,0-.01.01-.02.02-.03.03-.05.06-.1.09-.15,0,0,0,0,0,0,.03-.05.06-.1.09-.15,0,0,0,0,0-.01.68-1.13,1.35-2.25,2.04-3.37l-34.22-20.97h0ZM45.96,211.86c-2.06,3.95-4.08,7.98-6.01,11.99l36.19,17.37c1.12-2.34,2.27-4.67,3.44-6.98.01-.02.01-.02.02-.04.02-.03.03-.06.05-.09.02-.04.05-.09.07-.13,0-.02.02-.03.03-.05.02-.03.04-.07.05-.1,0-.02.02-.03.03-.05.05-.1.11-.21.16-.31,0,0,0,0,0-.01.51-1,1.03-2,1.55-3l-35.57-18.59h0ZM34.36,236.04c-1.79,4.08-3.53,8.24-5.18,12.38l37.29,14.85c.17-.43.35-.87.52-1.3h0c.04-.13.09-.24.13-.35,0-.02.01-.03.02-.05.01-.03.03-.06.04-.09,0-.02.02-.04.03-.06.02-.04.03-.08.05-.12.01-.03.03-.06.04-.09.01-.03.02-.05.03-.08,0-.02.02-.06.03-.08,0-.02.02-.05.03-.07.02-.04.04-.09.05-.13,0-.02.02-.04.03-.07.01-.03.02-.06.04-.09,0-.02.02-.05.03-.07.01-.03.02-.06.04-.09,0-.02.02-.05.03-.07.02-.05.03-.08.05-.13,0-.02.02-.04.02-.06.02-.04.02-.05.04-.1,0-.02.02-.04.03-.06.02-.04.03-.08.05-.12.01-.03.02-.05.03-.08.01-.03.02-.06.04-.09,0-.02.02-.05.03-.07.01-.03.02-.05.03-.08.01-.03.02-.06.04-.09.01-.03.03-.08.05-.11.01-.03.02-.05.03-.08,0-.02.02-.05.03-.07.01-.03.02-.06.04-.09,0-.01.01-.03.02-.04.03-.06.05-.12.08-.19,0-.01.01-.03.02-.04.01-.03.03-.07.04-.1,0-.01.01-.03.02-.04.05-.11.09-.22.14-.34v-.02c.88-2.11,1.78-4.21,2.7-6.3l-36.76-16.12h0ZM24.44,260.97c-1.5,4.19-2.96,8.47-4.32,12.71l38.22,12.25c.93-2.9,1.9-5.79,2.9-8.66,0-.01,0-.02,0-.03.01-.03.02-.07.04-.1,0-.02.01-.04.02-.06,0-.03.02-.06.03-.08.01-.04.04-.1.05-.14,0-.02.01-.03.02-.05.01-.04.03-.09.05-.13,0,0,0-.02.01-.03.25-.7.5-1.41.75-2.11l-37.78-13.56h0ZM16.24,286.53c-1.21,4.28-2.37,8.65-3.43,12.97l38.97,9.6c.35-1.43.71-2.86,1.08-4.28h0c.03-.13.06-.25.1-.38,0-.01,0-.02,0-.03,0-.04.02-.07.03-.11,0-.01,0-.03.01-.04.02-.07.04-.15.06-.22,0-.01,0,0,0-.02l.03-.1s.01-.04.02-.06c0-.03.02-.06.02-.09,0-.02.02-.06.02-.08.01-.04.02-.09.03-.13,0-.03.01-.05.02-.09,0-.03.01-.05.02-.08,0-.02.01-.06.02-.08,0-.03.01-.05.02-.08.01-.04.02-.09.03-.13,0-.03.01-.06.02-.08,0-.03.01-.05.02-.09,0-.02.01-.05.02-.08,0-.03.02-.06.03-.1,0-.02.01-.04.02-.06.01-.04.03-.1.04-.15,0-.02.01-.04.02-.06,0-.03.02-.07.03-.1,0-.02.01-.04.02-.06.01-.06.02-.09.04-.14,0-.01,0-.03.01-.04.01-.04.02-.08.03-.13,0-.02.01-.04.02-.06,0-.03.02-.08.03-.11,0-.02,0-.04.01-.05.01-.04.03-.11.04-.16,0-.01,0-.02,0-.03.01-.04.02-.09.04-.13,0-.01,0-.03.01-.05.01-.04.03-.1.04-.15,0,0,0-.01,0-.02.01-.05.03-.11.04-.16,0-.01,0-.03.01-.04.01-.04.02-.09.04-.13,0-.01,0-.02,0-.04.01-.05.03-.11.05-.17,0,0,0,0,0,0,.01-.05.03-.11.04-.16,0-.01,0-.02,0-.03.01-.05.03-.1.04-.15,0,0,0,0,0-.01.02-.07.03-.11.05-.18,0,0,0,0,0,0,.01-.05.03-.12.05-.17,0,0,0,0,0-.01.23-.84.47-1.69.71-2.53l-38.62-10.93h0ZM9.82,312.58c-.92,4.36-1.77,8.79-2.54,13.18l39.54,6.91c.62-3.53,1.29-7.04,2.01-10.53,0-.01,0-.02,0-.03,0-.04.02-.08.03-.12,0-.02,0-.04.01-.06,0-.02.02-.07.02-.1.01-.05.02-.1.03-.15,0-.01,0-.04,0-.05,0-.04.02-.08.02-.12h0c.05-.23.09-.45.14-.66l-39.28-8.26h0ZM5.21,339c-.62,4.4-1.16,8.88-1.63,13.31l39.92,4.2c.2-1.94.42-3.88.66-5.8,0,0,0,0,0-.01,0-.05.01-.11.02-.15,0-.02,0-.03,0-.05,0-.03.01-.08.01-.12v-.06s.02-.11.03-.15c0-.03,0-.05,0-.08,0-.03,0-.05.01-.08,0-.03,0-.06.01-.09,0-.01,0-.04,0-.05.01-.12.03-.24.05-.36,0-.01,0-.02,0-.03.02-.18.05-.36.07-.54h0c.11-.88.23-1.75.34-2.62h0c0-.05.01-.09.02-.13,0-.01,0-.02,0-.03.01-.08.02-.15.03-.23,0-.01,0-.01,0-.03,0-.03,0-.06.01-.09,0-.02,0-.06.01-.09s0-.05,0-.07c0-.05.01-.1.02-.14v-.02c.01-.06.02-.12.03-.18,0,0,0-.01,0-.02.03-.25.07-.48.1-.73l-39.75-5.56h0ZM2.4,365.66c-.31,4.43-.56,8.93-.72,13.37l40.11,1.5c.02-.44.03-.88.05-1.32h0c0-.06,0-.12,0-.18,0,0,0,0,0,0,0-.05,0-.12,0-.17v-.07s0-.06,0-.08v-.1s0-.02,0-.04c.14-3.36.33-6.71.57-10.05l-40.04-2.85h0ZM1.4,392.42c0,.51,0,1.02,0,1.53,0,3.94.06,7.93.18,11.86l40.12-1.19c0-.06,0-.1,0-.16v-.02s0-.08,0-.13c0-.02,0-.03,0-.05,0-.02,0-.07,0-.1,0-.02,0-.05,0-.07,0-.02,0-.05,0-.07,0-.03,0-.06,0-.1h0c-.07-2.52-.11-5.03-.13-7.54h0c0-.06,0-.1,0-.14v-.02c0-.18,0-.35,0-.53,0-.01,0-.02,0-.04v-.1s0-.03,0-.05c0-.03,0-.07,0-.1,0-.02,0-.03,0-.05,0-.03,0-.07,0-.1,0-.01,0-.05,0-.06,0-.03,0-.06,0-.09,0-.02,0-.06,0-.08,0-.05,0-.1,0-.14,0-.02,0-.05,0-.08,0-.03,0-.05,0-.08v-.08s0-.05,0-.07,0-.06,0-.09v-.07s0-.06,0-.09v-.16s0-.04,0-.06v-.15h0v-.16s0-.02,0-.03v-.14h0c0-.24,0-.46,0-.69,0-.01,0-.03,0-.04,0-.02,0-.06,0-.09,0-.07,0-.15,0-.22l-40.14-.15h0ZM42.25,416.65l-40.06,2.54c.28,4.44.64,8.93,1.07,13.35l39.95-3.89c-.04-.4-.08-.8-.11-1.2v-.02s0-.08-.01-.12c0-.01,0-.03,0-.04,0-.06-.01-.12-.02-.18,0-.03,0-.06,0-.09,0-.02,0-.04,0-.07,0-.04,0-.09-.01-.12,0-.01,0-.03,0-.04-.01-.12-.02-.23-.03-.35,0,0,0-.02,0-.02-.1-1.12-.2-2.23-.29-3.35,0,0,0,0,0-.01-.01-.13-.02-.24-.03-.37,0,0,0,0,0,0,0-.06,0-.11-.01-.16,0-.01,0-.02,0-.04,0-.05,0-.11-.01-.16,0,0,0-.01,0-.02,0-.06,0-.12-.01-.17,0-.01,0-.03,0-.04,0-.04,0-.09,0-.13,0-.02,0-.04,0-.06,0-.04,0-.08,0-.11,0-.02,0-.04,0-.06,0-.05,0-.11-.01-.16,0-.02,0-.05,0-.07,0-.04,0-.05,0-.09,0-.03,0-.06,0-.09,0-.02,0-.05,0-.07,0-.08-.01-.15-.02-.23h0s0-.08,0-.11c0-.01,0-.04,0-.05v-.12s-.01-.02-.01-.02c-.1-1.35-.19-2.7-.28-4.06h0ZM44.59,440.61l-39.8,5.25c.58,4.41,1.25,8.88,1.98,13.26l39.59-6.6c-.66-3.95-1.25-7.92-1.78-11.91h0ZM48.55,464.36l-39.34,7.95c.88,4.37,1.85,8.78,2.88,13.11l39.05-9.3c-.04-.18-.09-.36-.13-.54,0,0,0-.01,0-.02-.01-.06-.02-.09-.03-.15,0-.01,0-.02,0-.03-.01-.04-.03-.11-.04-.15,0-.03-.01-.05-.02-.08,0-.02-.01-.05-.02-.07,0-.03-.02-.07-.02-.1,0-.01,0-.02,0-.03-.69-2.93-1.34-5.87-1.95-8.82h0c-.03-.13-.05-.26-.08-.39v-.02s-.02-.08-.03-.12c0-.01,0-.01,0-.03-.02-.12-.05-.24-.07-.36,0-.02,0-.03-.01-.05,0-.04-.01-.07-.02-.11v-.02c-.02-.08-.04-.16-.05-.24h0s-.02-.09-.02-.12c0-.02,0-.02,0-.04-.02-.09-.04-.17-.05-.26h0ZM54.13,487.79l-38.71,10.63c1.18,4.3,2.45,8.63,3.78,12.88l38.32-11.95c-1.19-3.83-2.32-7.68-3.39-11.56h0ZM61.3,510.78l-37.89,13.26c1.47,4.2,3.04,8.44,4.65,12.59l37.41-14.55c-.67-1.72-1.33-3.45-1.97-5.19h0c-.04-.12-.09-.23-.13-.35,0-.01-.01-.03-.02-.04-.01-.03-.02-.06-.03-.09,0-.02-.02-.04-.02-.06,0-.03-.02-.05-.03-.08-.02-.04-.03-.09-.05-.14,0-.02-.01-.04-.02-.06-.02-.04-.02-.07-.04-.11,0-.02-.01-.03-.02-.05-.02-.05-.04-.1-.06-.16h0c-.02-.05-.04-.12-.06-.17v-.02c-.59-1.59-1.16-3.18-1.72-4.78h0ZM70.03,533.22l-36.89,15.83c1.76,4.09,3.61,8.21,5.5,12.24l36.32-17.08c-.25-.54-.5-1.07-.75-1.61h0c-.05-.12-.11-.24-.16-.35,0,0,0-.02-.01-.03-.02-.04-.03-.07-.05-.11,0-.01-.01-.02-.02-.03-.03-.06-.05-.11-.08-.17,0-.02-.02-.04-.03-.06-.01-.03-.03-.05-.04-.08,0-.02-.02-.05-.03-.07-.01-.02-.02-.05-.03-.08-.02-.04-.04-.09-.06-.13,0-.02-.02-.04-.03-.07-.01-.03-.03-.06-.04-.09,0-.02-.02-.04-.03-.06-.02-.04-.04-.08-.05-.12,0-.01-.01-.02-.02-.03-.02-.05-.04-.1-.07-.15,0-.01-.01-.03-.02-.04-.02-.04-.04-.08-.06-.12,0-.01-.01-.02-.02-.04-.03-.06-.04-.1-.07-.16,0,0,0,0,0-.01-.02-.05-.04-.1-.07-.15,0,0,0-.01-.01-.02-.05-.1-.1-.22-.15-.33,0,0,0-.01,0-.02-.2-.45-.41-.91-.61-1.36,0,0,0,0,0,0-.06-.12-.1-.22-.15-.34h0c-.07-.16-.16-.35-.23-.51,0,0,0,0,0,0-.05-.11-.1-.22-.15-.34,0,0,0,0,0-.01-.02-.05-.05-.1-.07-.15v-.02c-.03-.06-.05-.1-.08-.16,0,0,0,0,0-.01-.02-.05-.04-.09-.06-.14,0-.01-.01-.02-.02-.04-.05-.1-.09-.2-.14-.31,0-.02-.02-.03-.02-.05-.01-.03-.04-.08-.05-.11,0-.01-.01-.03-.02-.04-.02-.04-.05-.1-.06-.15,0-.02-.02-.04-.03-.06-.01-.03-.03-.06-.04-.09l-.03-.07s-.02-.04-.03-.07c-.02-.05-.04-.1-.07-.15,0-.01-.02-.04-.02-.05-.01-.03-.03-.06-.04-.09,0-.02-.01-.03-.02-.05-.05-.11-.1-.22-.15-.33h0c-.31-.72-.62-1.44-.93-2.15h0ZM80.28,555.01l-35.72,18.31c2.03,3.96,4.16,7.94,6.32,11.83l35.07-19.52c-.35-.63-.7-1.27-1.05-1.9h0c-.06-.11-.12-.22-.18-.32,0,0-.02-.03-.02-.04-.02-.03-.03-.06-.05-.09-.01-.02-.02-.03-.03-.05-.03-.05-.06-.1-.08-.15-.01-.02-.02-.03-.03-.05-.01-.03-.03-.05-.04-.08-.01-.02-.03-.05-.04-.07-.01-.02-.02-.04-.04-.07-.03-.05-.05-.08-.07-.13,0-.01-.01-.02-.02-.04-.02-.04-.04-.08-.06-.12,0-.01-.01-.03-.02-.04-.02-.04-.05-.09-.07-.13,0,0,0-.01-.01-.02-.03-.05-.05-.1-.08-.15,0-.01-.01-.02-.02-.03-.02-.04-.05-.08-.07-.12,0-.01-.01-.02-.02-.03-.03-.05-.06-.1-.08-.15,0,0,0,0,0,0-.03-.05-.05-.09-.08-.14,0,0-.01-.02-.02-.03-.05-.1-.12-.21-.17-.31,0,0,0,0,0-.01-.03-.05-.05-.1-.08-.15,0,0,0,0,0,0-.03-.06-.06-.1-.09-.16h0s-.06-.11-.09-.16c0,0,0,0,0-.01-.06-.11-.11-.21-.17-.32,0,0,0,0,0-.01-.03-.05-.05-.1-.08-.15,0,0,0,0,0,0-.03-.06-.05-.1-.09-.16,0,0,0,0,0-.01-.03-.05-.05-.1-.08-.14,0,0,0-.02-.01-.02-.05-.1-.11-.21-.16-.31,0,0,0-.02-.01-.03-.03-.05-.05-.09-.08-.14,0,0,0,0,0-.01-.03-.06-.05-.1-.08-.15,0,0,0-.02-.01-.03-.02-.04-.05-.09-.07-.13,0-.01-.01-.02-.02-.03-.03-.05-.05-.1-.08-.15,0,0-.01-.02-.02-.03-.02-.04-.04-.08-.06-.12,0-.01-.02-.03-.02-.05-.02-.04-.05-.09-.07-.13,0,0,0-.01-.01-.02-.03-.05-.05-.1-.08-.14,0-.02-.02-.03-.03-.05-.02-.03-.04-.07-.05-.1-.01-.02-.02-.04-.03-.06-.02-.04-.05-.09-.07-.13,0-.02-.02-.03-.03-.05-.02-.03-.03-.06-.05-.09l-.04-.08s-.02-.04-.03-.06c-.03-.05-.06-.11-.08-.16,0,0-.01-.03-.02-.04-.02-.03-.03-.06-.05-.09l-.02-.04c-.06-.11-.11-.21-.17-.32,0,0,0-.02-.01-.03-.08-.15-.16-.31-.24-.46h0c-.3-.59-.61-1.18-.91-1.76h0ZM91.99,576.05l-34.39,20.71c2.29,3.81,4.69,7.63,7.11,11.37l33.66-21.87c-2.19-3.37-4.31-6.76-6.39-10.21h0ZM105.11,596.24l-32.9,23c2.55,3.64,5.19,7.3,7.87,10.85l32.1-24.1c-2.05-2.73-4.06-5.48-6.02-8.27-.01-.02-.01-.02-.03-.04l-.06-.09h0c-.04-.06-.08-.12-.12-.18-.01-.02-.03-.05-.05-.07-.01-.02-.03-.04-.04-.06-.03-.04-.05-.07-.07-.1,0-.01-.02-.03-.03-.04-.03-.05-.06-.08-.09-.12l-.02-.03s-.06-.08-.09-.13c0,0,0,0,0,0-.15-.21-.28-.41-.43-.62h0ZM119.57,615.5l-31.26,25.18c2.79,3.46,5.68,6.93,8.58,10.29l30.39-26.22c-.71-.83-1.42-1.66-2.13-2.49h0c-.08-.1-.16-.19-.24-.29-.01-.02-.01-.02-.03-.03-.02-.03-.05-.05-.07-.08,0,0-.03-.03-.03-.04-.03-.04-.07-.08-.1-.12-.02-.03-.03-.04-.06-.07-.02-.02-.03-.04-.05-.06-.02-.03-.04-.05-.06-.07-.01-.02-.03-.03-.04-.05-.03-.03-.07-.08-.1-.12-.01-.02-.03-.03-.04-.05-.03-.03-.05-.06-.08-.09,0-.01-.02-.02-.03-.04-.04-.04-.07-.08-.11-.13,0,0-.01-.02-.02-.02-.04-.04-.06-.07-.09-.11,0,0-.02-.02-.02-.03-.07-.08-.16-.19-.23-.27,0,0,0,0,0-.01-.12-.14-.24-.28-.36-.43h0c-1.28-1.54-2.56-3.1-3.82-4.66h0ZM135.3,633.73l-29.49,27.24c3.02,3.27,6.13,6.53,9.26,9.69l28.55-28.22c-.94-.96-1.88-1.92-2.82-2.88h0c-.09-.1-.18-.19-.27-.28h0c-.09-.1-.17-.19-.26-.28l-.02-.02s-.05-.06-.08-.09c0,0-.01-.01-.02-.02-.08-.09-.16-.17-.25-.26-.02-.02-.02-.02-.03-.03-.08-.09-.16-.17-.25-.26,0,0-.01-.01-.02-.02-.03-.03-.05-.06-.08-.09h-.01c-.06-.07-.11-.13-.17-.19h0s-.06-.06-.08-.09c0,0-.01-.01-.02-.02-.08-.09-.17-.18-.25-.27h-.01c-1.23-1.31-2.45-2.61-3.66-3.92h0ZM152.22,650.85l-27.58,29.17c3.23,3.06,6.56,6.1,9.89,9.04l26.57-30.09c-.5-.44-1-.88-1.5-1.33h-.01s-.05-.06-.08-.08c-.02-.02-.03-.03-.06-.05-.02-.02-.04-.03-.06-.05-.04-.04-.08-.07-.12-.11,0,0-.01-.01-.02-.02-1.48-1.33-2.97-2.68-4.43-4.03,0,0-.01-.01-.02-.02-.04-.04-.08-.08-.12-.11-.01-.01-.03-.03-.04-.04-.02-.02-.05-.04-.07-.07-.02-.02-.04-.04-.07-.06,0,0-.02-.02-.03-.03-.76-.71-1.52-1.41-2.27-2.13h0ZM170.27,666.79l-25.54,30.97c3.43,2.83,6.96,5.64,10.48,8.35l24.47-31.82c-.27-.21-.54-.41-.8-.62,0,0-.02-.01-.03-.02-.03-.02-.06-.05-.09-.07-.04-.03-.07-.06-.11-.08-.02-.01-.03-.03-.05-.04-.03-.02-.06-.05-.09-.07-.01-.01-.03-.02-.04-.03-.09-.07-.19-.14-.27-.21,0,0-.01,0-.02-.01-1.08-.84-2.17-1.69-3.24-2.55,0,0,0,0-.01,0-.09-.07-.19-.15-.27-.22-.01,0-.02-.02-.03-.03l-.1-.08s-.02-.02-.03-.03c-.03-.03-.08-.07-.12-.1-.02-.01-.04-.03-.06-.04-.02-.01-.05-.04-.07-.06-.02-.02-.04-.03-.06-.05-.02-.01-.03-.02-.05-.04-.05-.04-.1-.08-.15-.12,0,0-.01,0-.02-.02-.03-.03-.06-.05-.1-.08h0c-1.21-.97-2.41-1.95-3.6-2.93h0ZM189.36,681.48l-23.38,32.63c3.62,2.59,7.33,5.16,11.03,7.62l22.26-33.4c-3.34-2.22-6.65-4.51-9.91-6.85h0ZM209.4,694.83l-21.11,34.14c3.79,2.34,7.66,4.65,11.52,6.86l19.93-34.84c-3.48-1.99-6.94-4.05-10.35-6.16h0ZM230.3,706.78l-18.73,35.5c3.94,2.08,7.96,4.11,11.97,6.06l17.51-36.12s0,0-.01,0c-.05-.02-.08-.04-.13-.06-.02-.01-.05-.02-.07-.03-.02,0-.05-.02-.07-.03-3.52-1.71-7.01-3.48-10.47-5.3h0ZM251.97,717.29l-16.26,36.7c4.07,1.8,8.23,3.56,12.36,5.22l14.99-37.24c-.38-.15-.75-.3-1.13-.46l-.04-.02s-.06-.03-.09-.04c-.03-.01-.04-.01-.07-.03-.03-.01-.06-.02-.08-.03-.05-.02-.09-.04-.14-.06-.01,0-.02,0-.04-.01-.04-.02-.1-.04-.14-.06h-.02c-.11-.05-.23-.1-.34-.15,0,0,0,0,0,0-.99-.4-1.96-.81-2.95-1.22,0,0-.01,0-.02,0-.05-.02-.09-.04-.14-.06-.01,0-.02,0-.03-.01-.05-.02-.1-.04-.16-.07,0,0-.02,0-.03-.01-.04-.02-.08-.03-.12-.05-.02,0-.04-.02-.06-.02-.03-.01-.07-.03-.1-.04l-.08-.03s-.08-.03-.11-.05c-.03-.01-.06-.03-.09-.04-.02,0-.03-.01-.05-.02-.03-.01-.07-.03-.1-.04h-.02c-1.66-.71-3.31-1.43-4.95-2.15h0ZM274.3,726.28l-13.71,37.73c4.19,1.52,8.46,2.99,12.69,4.37l12.4-38.18c-1.68-.54-3.34-1.1-5-1.67,0,0,0,0,0,0-.12-.04-.23-.08-.35-.12,0,0-.02,0-.03,0-.04-.01-.09-.03-.13-.05-.02,0-.03-.01-.05-.02-.04-.01-.09-.03-.13-.04-.02,0-.05-.02-.07-.02-.04-.01-.07-.02-.11-.04-.02,0-.05-.02-.07-.02-.02,0-.06-.02-.08-.03-.03,0-.06-.02-.08-.03-.01,0-.02,0-.03-.01-.07-.02-.14-.05-.2-.07-.01,0-.02,0-.03,0-1.68-.58-3.35-1.18-5.02-1.78h0ZM297.2,733.72l-11.09,38.58c4.28,1.23,8.64,2.4,12.96,3.49l9.75-38.94c-.45-.11-.9-.23-1.35-.34-.01,0-.03,0-.04,0-.04,0-.07-.02-.11-.03-.04-.01-.1-.02-.14-.04-.01,0-.03,0-.04-.01-.04-.01-.08-.02-.13-.03-.01,0-.03,0-.04-.01-3.29-.84-6.53-1.73-9.78-2.66h0ZM320.56,739.57l-8.41,39.25c4.35.93,8.78,1.8,13.16,2.59l7.07-39.51c-.66-.12-1.31-.24-1.97-.36h0s-.08-.02-.12-.02c-.01,0-.03,0-.04,0-.06-.01-.12-.02-.19-.03-.02,0-.04,0-.06-.01-.03,0-.05,0-.08-.01-.03,0-.06-.01-.09-.02-.02,0-.04,0-.07-.01-.06-.01-.1-.02-.15-.03,0,0,0,0,0,0-.06-.01-.11-.02-.17-.03-.01,0-.03,0-.04,0-.06-.01-.1-.02-.16-.03,0,0,0,0,0,0-1.66-.31-3.32-.64-4.97-.97,0,0-.02,0-.03,0-.11-.02-.23-.05-.34-.07-.02,0-.03,0-.05,0-.03,0-.08-.02-.11-.02-.02,0-.05,0-.07-.01-.02,0-.05-.01-.07-.01-.07-.01-.13-.03-.2-.04-.01,0,0,0-.02,0-.04,0-.08-.02-.12-.03h-.02c-.89-.19-1.78-.37-2.67-.56h0ZM344.27,743.81l-5.71,39.73c4.4.63,8.88,1.2,13.3,1.68l4.36-39.9c-3.99-.44-7.99-.94-11.94-1.51h0ZM368.21,746.43l-3,40.03c4.43.33,8.93.59,13.37.78l1.65-40.11h0c-.06,0-.11,0-.17,0-.02,0-.04,0-.06,0-.04,0-.08,0-.11,0-.02,0-.05,0-.07,0-.05,0-.07,0-.12,0-.02,0-.04,0-.06,0-.05,0-.09,0-.14,0-.03,0-.05,0-.08,0-.02,0-.06,0-.09,0-.03,0-.05,0-.08,0-.04,0-.06,0-.09,0-.04,0-.09,0-.13,0-.02,0-.07,0-.09,0-.03,0-.07,0-.1,0-.02,0-.04,0-.06,0-.04,0-.07,0-.11,0-.01,0-.03,0-.04,0-.12,0-.25-.01-.37-.02-.01,0-.02,0-.03,0-.04,0-.08,0-.12,0h-.01c-.14,0-.27-.01-.41-.02h-.01c-3.16-.15-6.32-.35-9.46-.58h0ZM404.31,747.31c-1.55.04-3.08.07-4.64.09,0,0,0,0,0,0-.04,0-.1,0-.14,0h-.01s-.09,0-.12,0c0,0-.02,0-.03,0-.04,0-.08,0-.12,0,0,0-.02,0-.03,0-.04,0-.08,0-.11,0-.01,0-.02,0-.04,0-.04,0-.07,0-.11,0-.02,0-.03,0-.05,0-.02,0-.06,0-.09,0-.02,0-.04,0-.06,0-.02,0-.06,0-.08,0-.02,0-.04,0-.06,0-.02,0-.05,0-.08,0-.02,0-.04,0-.07,0-.02,0-.06,0-.08,0-.02,0-.04,0-.07,0-.02,0-.05,0-.07,0-.02,0-.05,0-.07,0-.02,0-.05,0-.07,0-.02,0-.05,0-.07,0-.02,0-.04,0-.07,0-.03,0-.05,0-.08,0-.02,0-.05,0-.07,0-.03,0-.05,0-.08,0-.02,0-.04,0-.06,0-.03,0-.06,0-.08,0-.02,0-.04,0-.06,0-.03,0-.06,0-.09,0-.01,0-.04,0-.05,0-.03,0-.06,0-.09,0-.01,0-.05,0-.06,0-.03,0-.06,0-.09,0-.01,0-.04,0-.05,0-.03,0-.06,0-.09,0-.01,0-.04,0-.05,0-.03,0-.06,0-.09,0-.01,0-.03,0-.04,0-.03,0-.07,0-.1,0-.01,0-.04,0-.05,0-.03,0-.06,0-.09,0h-.05s-.06,0-.1,0h-.04s-.07,0-.1,0c-.01,0-.02,0-.04,0h-.11s-.04,0-.06,0h-.09s-.05,0-.06,0h-.09s-.05,0-.06,0h-.14s-.06,0-.1,0h-.19s-.06,0-.1,0h-.61s-.04,0-.06,0h-.16s-.08,0-.12,0h-.04c-.11,0-.22,0-.33,0h-.02c-.06,0-.09,0-.15,0h-.02c-.06,0-.1,0-.16,0h0c-.45,0-.92,0-1.38,0l-.31,40.14c1.02,0,2.04.01,3.06.01,3.43,0,6.91-.04,10.33-.13l-1.04-40.13h0ZM428.35,745.88c-3.98.37-7.98.68-12,.92l2.38,40.07c4.44-.26,8.94-.61,13.36-1.02l-3.74-39.97h0ZM452.24,742.82c-.4.06-.79.13-1.19.19h-.02c-.13.02-.25.04-.38.06h-.02s-.07.01-.11.02c-.02,0-.03,0-.05,0-.11.02-.22.03-.33.05-.02,0-.05,0-.07.01-.03,0-.06,0-.09.01-.03,0-.06,0-.1.01-.02,0-.04,0-.06.01-.05,0-.11.02-.15.02-.02,0-.04,0-.05,0-.03,0-.09.01-.12.02-.02,0-.03,0-.05,0-.05,0-.1.02-.15.02,0,0-.02,0-.03,0-.06,0-.12.02-.18.03,0,0,0,0-.01,0-.06,0-.12.02-.17.03,0,0,0,0,0,0-2.85.44-5.71.84-8.58,1.2l5.09,39.82c4.42-.57,8.88-1.21,13.27-1.93l-6.45-39.62h0ZM475.86,738.14c-2.19.51-4.39,1.01-6.6,1.48,0,0,0,0,0,0-.12.03-.24.05-.36.08,0,0-.01,0-.02,0-.12.03-.24.05-.36.08,0,0,0,0,0,0-.06.01-.12.03-.18.04,0,0,0,0,0,0-.12.03-.24.05-.36.08,0,0,0,0,0,0-.07.01-.11.02-.17.04,0,0,0,0,0,0-.12.03-.24.05-.36.08,0,0,0,0,0,0-1.1.23-2.22.46-3.32.68l7.8,39.38c4.37-.87,8.78-1.82,13.12-2.83l-9.14-39.08h0ZM499.1,731.85c-.41.13-.82.25-1.23.38-.01,0-.03,0-.04.01-.03,0-.08.02-.11.03-.05.01-.09.03-.14.04-.01,0-.04.01-.06.02-.04.01-.08.02-.11.03h-.02c-2.34.71-4.68,1.39-7.04,2.05h-.03s-.07.03-.11.04c-.02,0-.07.02-.09.03-.03,0-.06.02-.09.02-.04.01-.09.02-.13.04-.01,0-.02,0-.03,0-.78.22-1.57.43-2.35.64l10.48,38.75c4.3-1.16,8.64-2.42,12.89-3.73l-11.8-38.37h0ZM521.86,723.99c-1.87.72-3.74,1.42-5.62,2.11,0,0-.02,0-.02,0-.11.04-.22.08-.33.12-.01,0-.02,0-.03.01-.04.02-.1.03-.14.05,0,0-.02,0-.03.01-.05.02-.11.04-.16.06,0,0-.01,0-.02,0-.05.02-.09.03-.14.05-.01,0-.02,0-.03.01-.04.02-.11.04-.15.05,0,0,0,0-.01,0-.05.02-.11.04-.16.06-.01,0-.02,0-.04.01-.04.02-.08.03-.13.05-.01,0-.03.01-.04.02-.05.02-.11.04-.16.06,0,0,0,0,0,0-.05.02-.1.04-.16.06,0,0-.02,0-.03.01-.12.04-.22.08-.33.12,0,0-.01,0-.02,0-.05.02-.11.04-.16.06,0,0,0,0,0,0-1.12.4-2.24.8-3.37,1.19l13.11,37.94c4.21-1.45,8.45-3,12.6-4.6l-14.41-37.47h0ZM544.02,714.58c-3.03,1.41-6.08,2.78-9.16,4.11-.02,0-.04.02-.06.02-.03.01-.05.02-.08.03-.05.02-.09.04-.14.06,0,0,0,0,0,0-.05.02-.1.04-.15.07,0,0-.02,0-.03.01-.46.2-.91.39-1.37.58l15.68,36.95c4.1-1.74,8.22-3.57,12.26-5.45l-16.94-36.39h0ZM565.49,703.67c-.59.33-1.2.66-1.8.98l-.03.02s-.08.04-.12.06c-.01,0-.03.01-.04.02-.04.02-.09.05-.13.07-.03.01-.05.03-.08.04-.02.01-.03.02-.05.03-1.75.95-3.51,1.89-5.29,2.81h0c-.28.15-.55.29-.83.43h0c-.76.39-1.51.78-2.27,1.17l18.18,35.79c3.97-2.01,7.95-4.13,11.85-6.28l-19.39-35.15h0ZM586.17,691.33c-.53.34-1.05.67-1.58,1.01,0,0,0,0,0,0-.1.07-.21.13-.31.2,0,0-.01,0-.02.01-.05.03-.09.06-.14.09,0,0,0,0-.01,0-.1.07-.2.13-.3.19,0,0-.01,0-.02.01-.1.07-.2.13-.31.19,0,0,0,0-.01,0-.05.03-.1.07-.15.1h0c-.1.07-.21.13-.32.2,0,0,0,0,0,0-2.34,1.47-4.68,2.91-7.06,4.33l20.57,34.47c3.82-2.28,7.65-4.66,11.39-7.07l-21.74-33.75h0ZM605.96,677.61c-3.22,2.4-6.48,4.74-9.78,7.03l22.87,32.99c3.65-2.53,7.32-5.17,10.88-7.82l-23.98-32.19h0ZM624.77,662.58c-1.24,1.06-2.48,2.11-3.73,3.15,0,0,0,0,0,0-.09.08-.19.15-.28.23,0,0,0,0-.01.01-.04.04-.09.07-.13.11,0,0,0,0-.01,0-.05.04-.09.07-.14.11,0,0-.01,0-.02.01-.04.04-.07.06-.11.09-.01,0-.02.02-.03.03-.04.03-.08.07-.13.1,0,0-.01,0-.02.02-.03.03-.08.06-.11.09-.01.01-.03.02-.04.04-.03.03-.06.05-.1.08,0,0-.02.02-.03.02-.03.03-.09.07-.12.1l-.05.04s-.05.04-.08.07c-.02.01-.04.03-.05.04-.03.03-.08.07-.11.09-.02.01-.03.03-.05.04-.03.02-.05.04-.07.06-.02.02-.04.04-.07.05-.03.02-.03.03-.06.05-.04.04-.09.07-.13.11,0,0-.03.03-.04.03l-.09.07s-.02.01-.03.02c-.09.08-.19.15-.28.23h-.02c-1.04.86-2.08,1.71-3.13,2.54l25.06,31.36c3.47-2.78,6.95-5.65,10.33-8.54l-26.1-30.49h0ZM642.52,646.31c-.29.28-.57.56-.86.84h0c-.09.09-.18.17-.27.26-.02.02-.02.02-.03.03-.02.02-.05.05-.07.07-.02.02-.05.05-.07.07l-.08.08s-.04.04-.06.06c-.02.02-.04.03-.05.05-.03.03-.05.05-.08.08-.02.01-.03.03-.05.04-.04.04-.07.06-.11.1-.01.01-.02.02-.04.04-.03.03-.06.06-.09.09-.01.01-.02.02-.03.03-.04.04-.08.08-.12.11,0,0-.01.01-.02.02-.04.04-.07.06-.11.1,0,0-.02.02-.03.02-.09.08-.17.16-.25.24,0,0,0,0-.01.01-2.08,2-4.18,3.97-6.3,5.92l27.12,29.59c3.28-3,6.55-6.11,9.72-9.22l-28.11-28.66h0ZM659.13,628.88c-1.11,1.25-2.23,2.48-3.35,3.71h-.01s-.05.07-.08.1l-.02.02c-.05.06-.11.12-.16.18h0s-.05.06-.07.09c-.01.02-.02.02-.04.04l-.07.08s-.06.06-.09.09c-.02.02-.04.04-.06.07-.01.02-.03.03-.04.05-.02.02-.04.05-.07.07-.01.02-.03.03-.04.05-.04.04-.07.08-.11.12-.02.02-.03.03-.05.05-.02.02-.04.04-.06.07-.01.02-.03.04-.05.05-.03.03-.06.07-.09.1-.01.02-.04.05-.06.06-.02.02-.04.04-.06.07-.02.02-.04.04-.05.05-.02.02-.04.04-.06.07,0,0-.03.03-.03.04-.04.05-.09.09-.13.14,0,0-.02.03-.03.03-.02.03-.05.05-.07.08,0,0-.02.02-.03.03-.05.05-.1.11-.15.16h0s-.05.07-.08.1c0,0-.02.02-.02.03-.08.09-.17.18-.25.27h0c-.87.94-1.75,1.88-2.64,2.8l29.06,27.69c3.07-3.22,6.12-6.54,9.08-9.86l-29.98-26.69h0ZM674.52,610.36c-.53.68-1.05,1.35-1.58,2.03h0s-.05.07-.08.1c0,0,0,.01-.02.02-.07.09-.14.18-.22.27-.01.02-.02.03-.04.05-.02.02-.04.05-.06.07-.03.03-.06.08-.09.11-.01.01-.02.03-.04.05-.02.03-.05.06-.07.09-.01.02-.03.03-.04.05-.03.03-.06.08-.09.11,0,0,0,0-.01.01-.03.04-.08.1-.11.14,0,0,0,.01-.01.02-.03.04-.07.09-.11.14,0,0,0,0,0,0-1.64,2.06-3.3,4.11-4.98,6.13l30.87,25.66c2.84-3.42,5.67-6.94,8.39-10.45l-31.72-24.6h0ZM688.62,590.84c-2.24,3.33-4.54,6.63-6.88,9.88l32.54,23.51c2.61-3.61,5.18-7.31,7.66-11l-33.32-22.39h0ZM701.37,570.41c-.77,1.33-1.54,2.65-2.33,3.97h0c-.06.12-.13.22-.19.33,0,0-.01.02-.02.03-.02.03-.04.07-.06.1h0c-.04.08-.08.14-.12.21,0,0,0,.02-.01.03-.02.03-.04.06-.05.09-.01.02-.02.03-.03.05-.03.05-.05.09-.08.14-.01.02-.03.05-.04.07-.01.02-.03.05-.04.07-.01.02-.03.04-.04.06-.02.03-.03.05-.05.08-.01.02-.03.06-.04.07-.02.03-.04.07-.06.1-.02.03-.03.05-.05.08-.01.02-.03.04-.04.07-.02.03-.03.06-.05.08-.01.02-.02.04-.03.05-.02.04-.06.09-.08.13-.01.02-.02.03-.03.05-.02.04-.04.07-.06.1,0,.01-.02.03-.02.04-.03.05-.06.1-.09.14,0,0,0,0,0,0-.02.04-.06.1-.08.14,0,0-.01.02-.02.03-.03.05-.06.1-.09.14,0,0,0,0,0,0-.03.05-.07.11-.1.16,0,0,0,0,0,0-.1.16-.19.32-.29.48,0,0,0,0,0,0-.65,1.07-1.31,2.14-1.97,3.2l34.06,21.24c2.36-3.78,4.68-7.64,6.9-11.5l-34.76-20.07h0ZM712.69,549.15c-1.77,3.61-3.59,7.18-5.48,10.72l35.43,18.87c2.09-3.93,4.15-7.95,6.1-11.95l-36.05-17.65h0ZM722.53,527.18c-.32.79-.65,1.58-.97,2.37v.02s-.04.07-.05.11c0,.01-.01.03-.02.04-.02.05-.04.1-.06.15,0,.02-.02.05-.03.08,0,.02-.02.05-.03.07-.01.03-.03.07-.04.1,0,.02-.01.03-.02.05-.02.05-.04.11-.07.16h0c-.03.06-.05.11-.07.17,0,0,0,0,0,0-.6,1.44-1.22,2.87-1.84,4.3,0,.02-.02.03-.02.05-.01.03-.03.08-.05.11,0,.01-.01.03-.02.04-.02.04-.04.1-.06.14-.01.03-.02.05-.04.08,0,.02-.02.04-.03.06-.43,1-.87,1.99-1.32,2.98l36.64,16.4c1.82-4.06,3.59-8.22,5.27-12.34l-37.18-15.14h0ZM730.84,504.58c-.13.41-.28.84-.41,1.24,0,0,0,.02,0,.03-.01.04-.03.08-.04.12,0,.02-.01.04-.02.06,0,.02-.02.05-.02.07-.02.06-.04.11-.06.17,0,.01,0,.02,0,.03-1.02,3.03-2.07,6.05-3.17,9.04v.02s-.03.07-.05.1c0,.02-.01.04-.02.06-.01.03-.03.07-.04.1-.01.03-.03.09-.04.12,0,.02-.02.04-.02.06-.01.03-.02.07-.04.1,0,.01,0,.02-.01.04l37.67,13.85c1.54-4.18,3.02-8.45,4.42-12.68l-38.13-12.55h0ZM737.58,481.46c-.56,2.19-1.14,4.37-1.73,6.54,0,.01,0,.02,0,.03-.01.04-.03.09-.04.14,0,.01,0,.03-.01.04-.01.04-.03.11-.04.15,0,.02-.01.04-.02.07,0,.03-.02.06-.02.09,0,.03-.01.05-.02.08,0,.02-.01.05-.02.07-.03.11-.06.22-.09.34v.02c-.38,1.36-.77,2.71-1.16,4.06l38.54,11.24c1.25-4.27,2.44-8.63,3.53-12.95l-38.9-9.91h0ZM742.72,457.94c-.46,2.53-.95,5.06-1.47,7.57h0c-.03.13-.05.25-.07.37,0,0,0,0,0,.01,0,.04-.02.11-.03.15,0,.01,0,.03,0,.04,0,.04-.02.1-.03.15,0,0,0,.01,0,.02-.01.06-.02.11-.03.16,0,.02,0,.04-.01.06,0,.03-.01.07-.02.11,0,.02,0,.05-.01.07,0,.03-.01.06-.02.09-.01.05-.02.11-.03.16,0,.01,0,.04,0,.05,0,.04-.02.07-.02.11,0,.02,0,.02,0,.04-.19.88-.38,1.77-.57,2.65l39.22,8.57c.95-4.35,1.84-8.77,2.64-13.15l-39.49-7.22h0ZM746.24,434.12c-.45,4-.97,7.98-1.56,11.94l39.71,5.87c.65-4.4,1.23-8.87,1.73-13.29l-39.89-4.51h0ZM748.13,410.11c-.18,4.02-.43,8.03-.74,12.02l40.02,3.16c.35-4.43.63-8.93.83-13.37l-40.1-1.8h0ZM788.54,385.14l-40.13.88s0,.04,0,.06c0,.06,0,.11,0,.17,0,.02,0,.04,0,.06,0,.07,0,.14,0,.21h0c.04,1.97.07,3.96.07,5.94h0c0,.09,0,.16,0,.25,0,0,0,0,0,.01,0,.15,0,.32,0,.47v.02c0,.08,0,.14,0,.22v.04c0,.07,0,.14,0,.21v.04c0,.07,0,.15,0,.22h0v.17s0,.07,0,.1v.13s0,.05,0,.07v.05s0,.06,0,.1v.03s0,.07,0,.11v.02c0,1.12,0,2.22-.02,3.34l40.14.46c.02-1.53.03-3.06.03-4.59,0-2.92-.03-5.89-.1-8.81h0ZM787.05,358.39l-39.98,3.58c.01.12.02.25.03.37,0,0,0,0,0,0,.01.13.02.24.03.37,0,0,0,0,0,0,0,.06,0,.11.01.17,0,0,0,.01,0,.02.01.12.02.24.03.36,0,0,0,.01,0,.02,0,.06,0,.09.01.15,0,.01,0,.03,0,.04,0,.12.02.23.03.35,0,.01,0,.02,0,.03,0,.05,0,.1.01.15,0,.01,0,.02,0,.04,0,.12.02.23.03.35,0,0,0,.02,0,.03,0,.05,0,.1.01.14,0,.01,0,.03,0,.04,0,.12.02.23.03.34,0,.01,0,.03,0,.04,0,.05,0,.09.01.14,0,.01,0,.02,0,.04,0,.12.02.23.03.35,0,0,0,.02,0,.03,0,.05,0,.11.01.15,0,0,0,.02,0,.03,0,.12.02.24.03.36,0,0,0,.01,0,.02,0,.05,0,.12.01.17,0,0,0,0,0,.01.2,2.56.37,5.13.51,7.7l40.08-2.23c-.25-4.44-.57-8.94-.97-13.36h0ZM783.75,331.79l-39.64,6.29c.4,2.5.77,5.01,1.11,7.53h0c.03.18.05.37.07.55h0c.17,1.28.34,2.56.5,3.84l39.84-4.94c-.55-4.42-1.18-8.89-1.88-13.28h0ZM778.64,305.45l-39.12,8.99c.11.48.22.97.33,1.45,0,.01,0,.02,0,.03,0,.04.02.09.03.14,0,.01,0,.03,0,.04.01.06.02.1.04.16,0,.02,0,.04.01.06,0,.03.01.05.02.09,0,.03.01.06.02.09,0,.02,0,.03.01.05.72,3.21,1.39,6.43,2.02,9.67l39.41-7.65c-.85-4.37-1.78-8.79-2.78-13.13h0ZM771.73,279.52l-38.41,11.65c.25.82.49,1.64.73,2.45,0,.01,0,0,0,.02,0,.03.02.06.03.1s.01.05.02.08c0,.02.01.05.02.07.01.04.03.11.05.16,0,0,0,.01,0,.02.02.05.03.11.05.16,0,0,0,0,0,0,.83,2.83,1.62,5.66,2.38,8.52l38.79-10.33c-1.15-4.3-2.38-8.64-3.67-12.9h0ZM763.07,254.13l-37.52,14.26c.31.82.62,1.64.92,2.46,0,0,0,0,0,0,.04.12.08.22.13.34,0,0,0,.02,0,.02.07.18.12.34.19.52,0,0,0,0,0,0,.04.12.09.23.13.35,0,0,0,0,0,0,.06.17.13.36.19.53,0,0,0,0,0,0,.32.88.64,1.77.96,2.65,0,0,0,0,0,0,.06.17.13.36.19.53,0,0,0,0,0,0,.04.12.08.23.12.35,0,0,0,0,0,.01.06.17.12.35.18.52,0,0,0,.01,0,.02.04.11.08.23.12.33,0,.01,0,.02.01.04.01.04.03.09.05.13v.04c.03.05.05.11.07.16,0,0,0,.02.01.03.01.04.03.09.04.13,0,.02.01.03.02.05.01.04.03.09.05.13v.03c.03.05.04.09.06.14,0,.02.02.04.02.07,0,.02.02.07.03.09,0,.02.02.05.03.08,0,.02.01.04.02.06.02.06.04.12.06.18,0,.01,0,.02.01.04.01.04.02.07.04.11,0,.01,0,.02.01.03.13.39.27.78.4,1.17l37.99-12.97c-1.44-4.21-2.97-8.46-4.55-12.62h0ZM752.68,229.39l-36.46,16.8c1.25,2.72,2.48,5.48,3.67,8.23,0,0,0,.02.01.03.02.05.03.08.06.13,0,.01.01.02.02.04.02.04.04.1.06.14.01.02.02.05.03.07,0,.02.02.05.03.07.01.03.03.06.04.09,0,.01,0,.01,0,.02.31.73.62,1.46.93,2.19l37.01-15.54c-1.72-4.1-3.54-8.23-5.41-12.28h0ZM740.63,205.42l-35.22,19.25c1.5,2.74,2.97,5.52,4.4,8.3h0c.03.06.06.12.08.17,0,0,0,0,0,.01.02.04.04.09.06.13.01.02.02.04.03.06.02.03.02.05.04.08.05.1.1.2.15.3v.02c.28.53.55,1.06.81,1.59l35.86-18.04c-2-3.97-4.1-7.97-6.23-11.88h0ZM726.97,182.34l-33.83,21.61c.22.34.44.69.66,1.03,0,0,.01.02.02.03.02.03.04.06.06.09,0,0,.03.04.03.05.02.04.05.07.07.11.02.04.03.05.06.09.01.02.02.04.03.05.02.03.05.07.06.1,0,.01.02.03.03.04.03.05.06.1.09.14,0,0,0,.01.01.02.03.05.05.09.08.13,0,0,.01.02.02.02.07.1.13.2.19.31,0,0,0,0,0,0,.63,1.01,1.26,2.02,1.88,3.03v.02s.06.08.09.13c0,.01.01.02.02.03.03.05.06.09.09.14,0,0,.01.02.02.03.02.04.05.08.07.11,0,.02.02.03.03.05.02.04.04.07.06.11,0,.02.02.03.03.05.02.04.05.08.07.12.01.02.03.04.04.07.01.02.03.05.04.07.01.02.03.05.04.07.01.02.02.03.03.05.03.05.06.11.1.16,0,0,.02.03.02.04.02.03.04.06.06.1v.02c.08.11.14.22.21.33h0c.67,1.11,1.33,2.21,1.99,3.32l34.55-20.44c-2.27-3.83-4.63-7.67-7.02-11.42h0ZM711.78,160.25l-32.28,23.85c2.38,3.23,4.71,6.5,6.99,9.81l33.08-22.74c-2.52-3.66-5.14-7.34-7.78-10.92h0ZM695.13,139.25l-30.59,25.99c.43.5.85,1.01,1.28,1.51l.02.02s.05.06.07.09c0,0,.01.01.02.02.04.05.09.1.13.15,0,0,.03.03.04.04.02.02.04.05.06.07.02.03.03.04.05.06.02.02.03.04.05.06.03.03.07.08.1.12.01.01.02.03.03.04.03.03.05.06.08.09.01.01.02.03.04.04.04.04.07.08.1.12,0,0,0,.01.01.02.03.03.07.08.1.12,0,0,.01.02.02.03.07.09.15.19.23.27,0,0,0,.01.01.02.11.14.24.29.35.42,0,0,0,0,0,0,.08.1.15.19.24.29t0,0c.2.24.4.48.59.72,0,0,0,0,0,.01.08.09.15.18.23.28,0,0,.01.01.02.02.04.04.06.08.1.12,0,0,0,.01.01.02.04.05.07.08.11.13,0,0,.01.01.02.02.03.04.06.07.09.11,0,.01.02.02.03.03.04.04.07.08.1.12,0,.01.02.02.03.03.03.03.05.06.08.1.01.02.02.03.04.05.03.03.05.06.08.1,0,.01.02.02.03.03.03.03.07.08.1.12.02.02.03.04.05.06.01.02.04.04.05.06.02.02.04.05.06.07,0,0,.01.01.02.02l.13.16s.02.03.03.04c.02.03.05.06.07.09,0,0,0,.01.02.02.85,1.05,1.7,2.11,2.54,3.17l31.46-24.93c-2.76-3.48-5.62-6.97-8.5-10.36h0ZM677.1,119.43l-28.76,28c2.8,2.88,5.55,5.8,8.25,8.77l29.7-27.01c-2.99-3.29-6.08-6.57-9.18-9.76h0ZM657.77,100.87l-26.8,29.88c2.1,1.89,4.17,3.79,6.23,5.72,0,0,0,0,.01,0,.09.08.17.16.26.24,0,0,.02.02.03.03.03.03.06.05.09.08.01.01.03.03.05.04.04.04.07.06.11.1.02.02.04.04.06.05.02.02.03.03.06.05l.07.06s.03.03.04.04c.05.05.1.09.14.14,0,0,.02.01.02.02.03.03.06.05.09.08h.01c.52.51,1.04,1.01,1.57,1.51l27.8-28.95c-3.21-3.08-6.51-6.15-9.82-9.12h0ZM637.23,83.66l-24.72,31.63s.02.01.03.02c.03.03.07.05.1.08.02.01.03.03.05.04.03.02.06.05.09.07l.04.03s.09.07.13.1c0,0,.02.02.03.02.03.03.07.06.11.08.01,0,.02.02.03.03.09.07.18.14.27.21l.03.02s.08.07.13.1c0,0,0,0,0,0,.04.03.1.08.14.11,0,0,.01,0,.02.01.03.03.09.07.13.1,0,0,0,0,.01.01.1.08.19.15.29.23,0,0,0,0,0,0,.1.08.19.15.29.23,0,0,0,0,0,0,.14.11.3.24.44.35,0,0,0,0,0,0,.1.08.2.16.29.23,0,0,0,0,0,0,2.26,1.8,4.49,3.62,6.7,5.47l25.78-30.77c-3.41-2.86-6.91-5.69-10.42-8.43h0ZM615.56,67.88l-22.52,33.23c2.34,1.58,4.65,3.19,6.95,4.83,0,0,0,0,0,0,.05.03.09.06.13.09l.03.02s.09.06.13.09c.02.01.04.03.05.04.03.02.04.03.07.05.03.02.05.04.08.05,0,0,.03.02.04.03.79.57,1.58,1.13,2.36,1.71l23.63-32.45c-3.6-2.62-7.29-5.21-10.97-7.71h0ZM592.86,53.6l-20.2,34.69c.48.28.97.57,1.45.85.01,0,.02.01.03.02.04.02.08.05.12.07.01,0,.03.02.04.02.04.02.09.06.13.08.02.01.04.02.06.04.02.01.06.03.08.04.02.01.05.03.07.04.02.01.04.03.06.04.05.03.1.06.15.09,0,0,.02.01.03.02.04.02.07.04.11.06h0c1.03.61,2.05,1.23,3.07,1.85h.02c.1.07.2.14.3.2,0,0,.03.02.04.02.03.02.06.04.09.06,0,0,.03.02.04.02.05.03.11.06.16.1,0,0,.04.02.05.03.03.02.05.03.08.05.02.01.04.02.06.03.03.02.05.03.08.05.04.02.08.05.12.07l.07.04s.06.04.08.05c.02.01.04.03.06.04.04.02.06.04.1.06.03.02.05.03.08.05.03.02.07.04.09.06.02.01.04.02.05.03.03.02.07.04.1.06.01,0,.03.02.04.03.05.03.09.06.14.09.01,0,.02.01.03.02.04.02.08.05.12.08,0,0,.02.01.03.02.05.03.1.06.15.09,0,0,0,0,0,0,.04.02.1.06.13.08.01,0,.03.02.04.03.09.06.19.12.29.18,0,0,.02.01.03.02.05.03.08.05.13.08,0,0,.01,0,.02.01.06.03.1.06.15.09,0,0,0,0,0,0,.05.03.1.06.14.09,0,0,.01,0,.02.01.09.06.21.13.3.19,0,0,.02.01.03.02.04.02.09.05.12.08.01,0,.02.01.03.02.05.03.1.06.14.09h.02s.08.06.12.09l.04.02s.09.06.14.09c0,0,.02.01.03.02.04.02.07.04.11.07l.06.04s.05.03.08.05c.03.02.06.04.09.06.03.02.06.04.08.05.03.02.06.04.09.05.02.01.03.02.04.03.03.02.06.04.09.06h0s.08.05.12.08l21.37-33.98c-3.77-2.37-7.63-4.71-11.47-6.95h0ZM569.24,40.9l-17.79,35.98c1.09.54,2.18,1.09,3.27,1.64t.04.02s.06.03.1.05c.02.01.04.02.06.03.04.02.08.04.13.06.03.02.05.03.08.04.02.01.04.02.07.03.03.01.06.03.09.05.02,0,.03.02.05.03.05.03.09.05.14.07.02,0,.03.02.05.02.04.02.07.04.11.06.01,0,.03.01.04.02.11.06.21.11.32.16,0,0,0,0,.01,0,2.06,1.06,4.11,2.13,6.15,3.23l19.01-35.35c-3.92-2.11-7.93-4.18-11.92-6.15h0ZM544.8,29.84l-15.28,37.12c3.72,1.53,7.4,3.12,11.06,4.78l16.55-36.57c-4.06-1.84-8.2-3.63-12.32-5.32h0ZM519.65,20.48l-12.7,38.08c2.56.85,5.11,1.74,7.64,2.65,0,0,.01,0,.02,0,.04.01.1.04.15.05.02,0,.04.01.06.02.03.01.07.03.1.04.03.01.06.02.09.03.02,0,.03.01.05.02,1.09.39,2.17.79,3.25,1.19l14-37.62c-4.17-1.55-8.43-3.06-12.66-4.46h0ZM493.92,12.87l-10.06,38.86c1.24.32,2.48.65,3.72.99h0c.13.04.25.07.38.11h.02s.08.03.12.04c.01,0,.01,0,.02,0,.08.02.16.04.24.07h0s.07.02.11.03c.02,0,.02,0,.05.01.03,0,.07.02.1.03.02,0,.04.01.07.02.05.01.1.03.15.04.03,0,.04.01.07.02.03,0,.06.02.09.02.02,0,.05.01.07.02.03,0,.05.01.08.02.04.01.09.03.14.04.03,0,.05.01.08.02.03,0,.05.01.09.02.02,0,.05.01.07.02.03,0,.07.02.1.03.03,0,.05.01.08.02.04.01.08.02.12.03l.07.02s.07.02.1.03c.02,0,.04.01.06.02.04.01.11.03.15.04.01,0,.03,0,.04.01.04.01.07.02.12.03.02,0,.04.01.06.02.03,0,.08.02.11.03.02,0,.03,0,.05.01.05.02.1.03.16.04.01,0,.03,0,.04.01.04.01.07.02.12.03.02,0,.04,0,.05.01.04.01.09.02.13.04.02,0,.03,0,.05.01.04.01.09.03.14.04.02,0,.03,0,.05.01.04.01.07.02.11.03.02,0,.04,0,.05.01.04.01.11.03.16.04.01,0,.02,0,.04,0,.04.01.08.02.13.04.02,0,.04.01.06.02.03,0,.08.02.11.03.02,0,.03,0,.05.01l.15.04s.04.01.07.02c.03,0,.06.02.1.03.02,0,.05.01.07.02.03,0,.06.02.1.03.04.01.08.02.11.03.03,0,.06.02.09.03.02,0,.05.01.07.02.03,0,.05.02.09.02.03,0,.05.01.08.02.04.01.09.03.14.04.03,0,.06.02.09.02.02,0,.04.01.07.02.03,0,.06.02.09.03.03,0,.04.01.07.02.06.02.11.03.17.05.01,0,.03,0,.04.01.03,0,.07.02.1.03.02,0,.03,0,.05.01.03,0,.07.02.1.03.01,0,.01,0,.02,0,.08.02.16.05.23.07h.01s.08.03.13.04h0c.4.12.79.23,1.19.35l11.39-38.49c-4.27-1.26-8.62-2.47-12.93-3.59h0ZM467.73,7.04l-7.37,39.46c1.37.26,2.71.51,4.07.79,0,0,0,0,0,0,2.58.51,5.16,1.06,7.72,1.63l8.72-39.18c-4.34-.97-8.76-1.87-13.14-2.69h0ZM441.21,3.01l-4.67,39.87c.96.11,1.92.23,2.88.35.03,0,.05,0,.08.01.02,0,.05,0,.07,0,.03,0,.08.01.12.01.01,0,.03,0,.04,0,.06,0,.12.01.18.02,0,0,0,0,0,0,2.17.27,4.35.57,6.51.89,0,0,.02,0,.03,0,.06,0,.09.01.15.02,0,0,.02,0,.03,0,.06,0,.11.02.16.02.02,0,.04,0,.06,0,.03,0,.06,0,.09.01.03,0,.06,0,.09.01.02,0,.04,0,.07,0,.12.02.24.04.36.05h.02c.33.05.67.1,1,.15l6.02-39.69c-4.4-.67-8.87-1.27-13.29-1.78h0ZM414.5.8l-1.96,40.09s0,0,.01,0c2.07.1,4.13.22,6.2.36,0,0,0,0,0,0,.06,0,.13,0,.18.01,0,0,0,0,0,0,.12,0,.25.02.36.02,0,0,.02,0,.03,0,.06,0,.11,0,.16.01,0,0,0,0,.01,0,.12,0,.24.02.36.02,0,0,.02,0,.03,0,.05,0,.11,0,.15.01,0,0,.02,0,.03,0,.12,0,.23.02.35.02.01,0,.02,0,.03,0,.06,0,.1,0,.16.01,0,0,.01,0,.02,0,.12,0,.24.02.36.03,0,0,.01,0,.02,0,1.18.09,2.37.18,3.55.28l3.31-40c-4.43-.37-8.93-.66-13.37-.88h0ZM395.01.33v40.14h.32s.04,0,.06,0h.16s.08,0,.12,0h.04c.11,0,.22,0,.33,0h.03s.1,0,.15,0h.02s.1,0,.15,0c0,0,.02,0,.02,0,1.37,0,2.75.02,4.11.04l.61-40.14c-2.03-.03-4.08-.05-6.11-.05h0Z"/></svg>