<?xml version="1.0" encoding="UTF-8" standalone="no"?>
<!-- Created with Inkscape (http://www.inkscape.org/) -->

<svg
   version="1.1"
   id="svg1"
   width="106.65868"
   height="106.66669"
   viewBox="0 0 106.65868 106.66669"
   xmlns="http://www.w3.org/2000/svg"
   xmlns:svg="http://www.w3.org/2000/svg">
  <defs
     id="defs1">
    <clipPath
       clipPathUnits="userSpaceOnUse"
       id="clipPath197">
      <path
         d="M 0,2436 H 1125 V 0 H 0 Z"
         transform="translate(-181.134,-1791.6016)"
         id="path197" />
    </clipPath>
  </defs>
  <g
     id="g1"
     transform="translate(-147.44133,-803.5672)">
    <g
       id="group-MC3">
      <path
         id="path196"
         d="M 0,0 C -0.003,-0.056 -0.003,-0.113 -0.006,-0.169 L -0.007,-0.17 c 0,-0.008 0,-0.015 -0.001,-0.023 v -0.002 c -10e-4,-0.007 -10e-4,-0.014 -10e-4,-0.022 0,0 -0.001,-0.002 -0.001,-0.003 0,-0.007 0,-0.014 -10e-4,-0.02 0,-0.001 0,-0.003 0,-0.004 -0.001,-0.008 -0.001,-0.015 -0.002,-0.023 -0.001,-0.024 -0.003,-0.049 -0.004,-0.073 v -0.001 c -10e-4,-0.007 -10e-4,-0.015 -0.002,-0.023 0,-0.001 0,-0.001 0,-0.002 -0.001,-0.007 -0.001,-0.014 -0.002,-0.021 0,-0.002 0,-0.003 0,-0.005 0,-0.006 -10e-4,-0.012 -10e-4,-0.018 0,-0.002 0,-0.004 -0.001,-0.006 0,-0.006 0,-0.012 -0.001,-0.018 0,-0.002 0,-0.004 0,-0.006 -0.001,-0.006 -0.001,-0.012 -0.001,-0.018 -10e-4,-0.002 -10e-4,-0.004 -10e-4,-0.006 0,-0.006 -0.001,-0.013 -0.001,-0.019 0,-0.001 0,-0.003 -0.001,-0.004 -0.001,-0.024 -0.003,-0.048 -0.005,-0.072 0,0 0,-0.002 0,-0.003 0,-0.006 -0.001,-0.013 -0.001,-0.02 -0.001,-0.003 -0.001,-0.003 -0.001,-0.006 0,-0.006 -10e-4,-0.011 -10e-4,-0.017 0,-0.002 -0.001,-0.005 -0.001,-0.007 0,-0.006 -0.001,-0.011 -0.001,-0.016 0,-0.002 0,-0.006 -0.001,-0.008 0,-0.006 0,-0.011 -0.001,-0.016 0,-0.002 0,-0.005 0,-0.007 -0.001,-0.006 -0.001,-0.012 -0.002,-0.017 0,-0.002 0,-0.005 0,-0.007 -10e-4,-0.006 -10e-4,-0.012 -0.002,-0.019 0,-0.001 0,-0.003 0,-0.004 0,-0.007 -0.001,-0.015 -0.002,-0.023 v 0 C -0.048,-0.753 -0.05,-0.777 -0.052,-0.802 v -0.001 c 0,-0.007 -0.001,-0.015 -0.001,-0.022 -0.001,-0.001 -0.001,-0.002 -0.001,-0.003 0,-0.007 -0.001,-0.014 -0.002,-0.021 0,-0.001 0,-0.002 0,-0.003 0,-0.007 -0.001,-0.014 -0.002,-0.021 v -0.002 c 0,-0.008 -10e-4,-0.016 -0.002,-0.023 V -0.899 C -0.072,-1.044 -0.087,-1.188 -0.101,-1.332 -0.058,-0.891 -0.025,-0.447 0,0 m -0.738,-5.212 v -0.001 c -0.002,-0.007 -0.004,-0.014 -0.005,-0.022 0,-10e-4 -0.001,-10e-4 -0.001,-0.002 -0.001,-0.006 -0.003,-0.013 -0.004,-0.02 -0.001,-0.002 -0.001,-0.002 -0.001,-0.004 -0.002,-0.006 -0.003,-0.012 -0.004,-0.018 -0.001,-0.002 -0.002,-0.005 -0.002,-0.007 -0.001,-0.005 -0.003,-0.01 -0.004,-0.015 0,-0.002 -0.001,-0.005 -0.001,-0.007 -0.002,-0.005 -0.003,-0.011 -0.004,-0.016 -0.001,-0.002 -0.001,-0.005 -0.002,-0.007 -0.001,-0.005 -0.002,-0.01 -0.003,-0.015 -0.001,-0.003 -0.001,-0.005 -0.002,-0.008 -0.001,-0.005 -0.003,-0.01 -0.004,-0.014 0,-0.003 -0.001,-0.005 -0.002,-0.008 -0.001,-0.006 -0.002,-0.011 -0.003,-0.016 l -0.002,-0.006 c -0.001,-0.006 -0.003,-0.012 -0.004,-0.018 0,-10e-4 -0.001,-0.004 -0.001,-0.005 -0.002,-0.007 -0.004,-0.014 -0.005,-0.022 v 0 C -0.796,-5.458 -0.8,-5.473 -0.803,-5.489 -0.804,-5.491 -0.804,-5.493 -0.805,-5.495 -0.806,-5.5 -0.807,-5.505 -0.809,-5.51 -0.81,-5.514 -0.81,-5.516 -0.811,-5.52 -0.812,-5.524 -0.813,-5.528 -0.814,-5.533 -0.815,-5.537 -0.816,-5.539 -0.817,-5.543 -0.818,-5.547 -0.819,-5.551 -0.819,-5.555 -0.82,-5.558 -0.821,-5.562 -0.822,-5.566 -0.823,-5.569 -0.824,-5.573 -0.825,-5.577 -0.826,-5.58 -0.827,-5.585 -0.828,-5.588 -0.829,-5.592 -0.829,-5.595 -0.83,-5.599 -0.831,-5.603 -0.832,-5.606 -0.833,-5.61 l -0.003,-0.011 c -0.001,-0.004 -0.002,-0.008 -0.003,-0.012 0,-0.003 -0.001,-0.007 -0.002,-0.01 -0.001,-0.004 -0.002,-0.008 -0.003,-0.012 -0.001,-0.004 -0.002,-0.007 -0.003,-0.011 L -0.85,-5.677 c 0,-0.004 -0.001,-0.007 -0.002,-0.011 -0.001,-0.004 -0.002,-0.007 -0.003,-0.011 L -0.858,-5.71 -0.861,-5.721 c 0,-0.004 -0.001,-0.007 -0.002,-0.01 C -0.864,-5.735 -0.865,-5.74 -0.866,-5.744 -0.867,-5.746 -0.867,-5.749 -0.868,-5.751 -0.87,-5.761 -0.873,-5.77 -0.875,-5.779 -0.876,-5.782 -0.876,-5.784 -0.877,-5.787 -0.878,-5.791 -0.879,-5.796 -0.88,-5.8 -0.881,-5.803 -0.882,-5.806 -0.883,-5.809 -0.884,-5.814 -0.885,-5.817 -0.886,-5.822 -0.887,-5.825 -0.887,-5.828 -0.888,-5.831 -0.889,-5.836 -0.89,-5.839 -0.892,-5.844 L -0.894,-5.853 C -0.895,-5.857 -0.896,-5.862 -0.897,-5.866 -0.898,-5.869 -0.899,-5.872 -0.899,-5.875 -0.901,-5.88 -0.902,-5.883 -0.903,-5.888 -0.904,-5.891 -0.904,-5.894 -0.905,-5.897 -0.906,-5.901 -0.907,-5.906 -0.908,-5.91 -0.909,-5.913 -0.91,-5.916 -0.911,-5.919 c 0,-0.002 -0.001,-0.003 -0.001,-0.005 0.119,0.463 0.226,0.93 0.323,1.401 -0.047,-0.23 -0.096,-0.46 -0.149,-0.689 m -1.652,-5.063 -10e-4,-10e-4 c -0.003,-0.007 -0.005,-0.014 -0.008,-0.021 L -2.4,-10.298 c -0.003,-0.006 -0.006,-0.013 -0.008,-0.02 l -10e-4,-0.001 c -0.003,-0.007 -0.006,-0.013 -0.008,-0.02 l -0.001,-0.002 c -0.003,-0.006 -0.006,-0.012 -0.008,-0.018 -10e-4,-10e-4 -10e-4,-0.003 -0.002,-0.004 -0.002,-0.006 -0.005,-0.012 -0.008,-0.018 0,-10e-4 0,-0.002 -10e-4,-0.002 -0.002,-0.007 -0.005,-0.014 -0.008,-0.02 l -0.001,-10e-4 c -0.015,-0.036 -0.03,-0.071 -0.046,-0.106 0,-0.002 -0.002,-0.005 -0.003,-0.007 -0.002,-0.004 -0.004,-0.009 -0.006,-0.014 -10e-4,-0.003 -0.002,-0.006 -0.004,-0.01 -0.002,-0.003 -0.003,-0.007 -0.005,-0.01 -0.001,-0.004 -0.002,-0.007 -0.004,-0.01 -0.002,-0.004 -0.003,-0.008 -0.005,-0.011 -10e-4,-0.004 -0.003,-0.007 -0.004,-0.011 -0.002,-0.003 -0.003,-0.006 -0.005,-0.01 -10e-4,-0.003 -0.003,-0.007 -0.005,-0.011 -10e-4,-0.003 -0.002,-0.006 -0.004,-0.009 -0.002,-0.005 -0.003,-0.008 -0.005,-0.012 -0.001,-0.003 -0.003,-0.006 -0.004,-0.009 -0.002,-0.004 -0.003,-0.007 -0.005,-0.012 -10e-4,-0.003 -0.003,-0.005 -0.004,-0.008 -0.002,-0.004 -0.004,-0.009 -0.006,-0.013 -10e-4,-0.002 -0.002,-0.005 -0.003,-0.007 -0.002,-0.005 -0.004,-0.009 -0.006,-0.014 -0.001,-0.002 -0.002,-0.004 -0.003,-0.006 -0.002,-0.005 -0.004,-0.01 -0.006,-0.015 -10e-4,-0.002 -0.002,-0.004 -0.003,-0.006 -0.002,-0.004 -0.004,-0.009 -0.006,-0.014 -10e-4,-0.002 -0.002,-0.004 -0.003,-0.006 -0.002,-0.006 -0.004,-0.01 -0.007,-0.015 0,-10e-4 -0.001,-0.003 -0.002,-0.005 -0.002,-0.005 -0.004,-0.01 -0.007,-0.016 0,-10e-4 -10e-4,-0.002 -10e-4,-0.003 -0.042,-0.093 -0.084,-0.186 -0.126,-0.278 -10e-4,0 -10e-4,0 -10e-4,0 -0.062,-0.137 -0.128,-0.271 -0.193,-0.406 0.197,0.41 0.386,0.825 0.564,1.246 -0.009,-0.021 -0.017,-0.042 -0.026,-0.063 m -3.973,30.748 v 0 c 0.004,-0.006 0.009,-0.012 0.014,-0.018 v -10e-4 c 0.005,-0.006 0.009,-0.011 0.013,-0.017 0.001,-0.001 0.001,-0.001 0.002,-0.002 0.004,-0.005 0.008,-0.011 0.012,-0.016 0.001,-0.001 0.001,-0.001 0.002,-0.002 0.004,-0.005 0.008,-0.01 0.012,-0.016 10e-4,-0.001 10e-4,-0.001 0.002,-0.003 0.004,-0.005 0.008,-0.01 0.012,-0.015 10e-4,-10e-4 10e-4,-10e-4 0.002,-0.003 0.004,-0.005 0.008,-0.01 0.012,-0.015 0.001,-10e-4 0.001,-0.002 0.002,-0.003 0.004,-0.005 0.008,-0.01 0.012,-0.015 0.001,-0.002 0.001,-0.002 0.002,-0.003 0.004,-0.005 0.008,-0.01 0.011,-0.015 0.001,-0.001 0.002,-0.002 0.003,-0.004 0.004,-0.005 0.008,-0.01 0.012,-0.014 0.001,-0.002 0.001,-0.002 0.002,-0.003 0.004,-0.005 0.008,-0.011 0.012,-0.016 0.001,-0.001 0.001,-0.001 0.001,-0.002 0.005,-0.006 0.009,-0.011 0.013,-0.017 l 0.001,-0.001 c 0.004,-0.006 0.009,-0.011 0.013,-0.017 l 10e-4,-10e-4 c 0.042,-0.055 0.082,-0.11 0.123,-0.165 -0.164,0.218 -0.336,0.43 -0.506,0.644 0.07,-0.088 0.146,-0.171 0.215,-0.26 M -3.637,16.3 c 10e-4,-0.001 0.002,-0.003 0.002,-0.004 0.003,-0.005 0.006,-0.011 0.009,-0.016 10e-4,-0.001 10e-4,-0.002 0.002,-0.003 0.003,-0.006 0.005,-0.011 0.008,-0.016 10e-4,-0.002 0.002,-0.003 0.003,-0.004 0.003,-0.006 0.005,-0.01 0.008,-0.016 10e-4,-0.001 10e-4,-0.002 0.002,-0.003 0.003,-0.006 0.006,-0.011 0.009,-0.017 0,-0.001 10e-4,-0.002 0.002,-0.003 0.002,-0.005 0.005,-0.011 0.008,-0.016 10e-4,-0.001 10e-4,-0.003 0.002,-0.004 0.003,-0.006 0.005,-0.01 0.009,-0.016 0,-10e-4 10e-4,-0.002 0.002,-0.003 0.002,-0.006 0.006,-0.012 0.008,-0.017 0.001,-10e-4 0.001,-10e-4 0.002,-0.002 0.003,-0.006 0.006,-0.012 0.009,-0.018 0,0 10e-4,-0.001 10e-4,-0.001 0.124,-0.233 0.239,-0.472 0.358,-0.709 -0.147,0.294 -0.293,0.59 -0.45,0.879 0.002,-0.004 0.004,-0.007 0.006,-0.011 m 2.001,-4.53 c 0,0 0,0 0,0 0.002,-0.007 0.004,-0.014 0.007,-0.02 0,0 0,-10e-4 0,-10e-4 0.002,-0.007 0.005,-0.014 0.007,-0.02 0,0 0,0 0,-10e-4 0.002,-0.006 0.005,-0.013 0.007,-0.02 0,0 0,-10e-4 10e-4,-0.002 0.002,-0.005 0.004,-0.013 0.006,-0.018 0,-0.001 0.001,-0.002 0.001,-0.002 0.002,-0.007 0.004,-0.013 0.006,-0.019 10e-4,-10e-4 10e-4,-0.002 10e-4,-0.002 0.016,-0.047 0.033,-0.096 0.049,-0.143 0,-10e-4 0,-10e-4 0,-0.002 0.002,-0.005 0.004,-0.011 0.006,-0.017 0,-10e-4 10e-4,-0.003 10e-4,-0.004 0.002,-0.006 0.004,-0.011 0.006,-0.016 0,-0.002 0.001,-0.004 0.002,-0.005 0.001,-0.006 0.003,-0.011 0.005,-0.016 0,-0.002 10e-4,-0.004 0.002,-0.006 10e-4,-0.005 0.004,-0.011 0.005,-0.016 0.001,-10e-4 0.001,-0.003 0.002,-0.005 0.002,-0.005 0.003,-0.01 0.005,-0.015 10e-4,-0.003 10e-4,-0.004 0.002,-0.006 0.002,-0.006 0.003,-0.01 0.005,-0.016 0.001,-0.002 0.001,-0.004 0.002,-0.006 0.002,-0.004 0.004,-0.01 0.005,-0.015 10e-4,-0.002 10e-4,-0.004 0.002,-0.006 0.002,-0.005 0.004,-0.01 0.005,-0.016 10e-4,-0.001 10e-4,-0.002 0.002,-0.004 0.002,-0.006 0.003,-0.011 0.006,-0.017 0,-10e-4 0,-0.002 0,-0.003 0.002,-0.006 0.005,-0.013 0.007,-0.019 0,0 0,0 0,0 0.018,-0.055 0.036,-0.112 0.054,-0.167 0,0 0,0 0,0 0.002,-0.007 0.005,-0.013 0.007,-0.02 0,0 0,-10e-4 0,-0.002 0.002,-0.006 0.004,-0.013 0.006,-0.019 10e-4,-10e-4 10e-4,-10e-4 10e-4,-10e-4 0.002,-0.007 0.004,-0.014 0.006,-0.021 0,0 0,0 0.001,0 0.013,-0.042 0.023,-0.085 0.037,-0.127 -0.135,0.427 -0.277,0.851 -0.43,1.27 0.055,-0.151 0.11,-0.303 0.163,-0.455 M -0.112,4.9 C -0.11,4.884 -0.109,4.869 -0.107,4.853 -0.113,4.914 -0.124,4.973 -0.13,5.034 -0.125,4.989 -0.117,4.945 -0.112,4.9 m -13.636,-28.759 c -0.001,-10e-4 -0.002,-10e-4 -0.003,-0.002 -0.005,-0.004 -0.011,-0.007 -0.016,-0.01 -0.001,-0.001 -0.003,-0.002 -0.004,-0.003 -0.005,-0.003 -0.01,-0.007 -0.015,-0.01 -0.001,-0.001 -0.002,-0.001 -0.004,-0.003 -0.005,-0.003 -0.01,-0.006 -0.015,-0.009 -10e-4,-10e-4 -0.003,-0.002 -0.004,-0.004 -0.005,-0.002 -0.009,-0.005 -0.014,-0.008 -0.002,-10e-4 -0.005,-0.003 -0.006,-0.005 -0.005,-0.002 -0.009,-0.005 -0.013,-0.008 -0.002,-0.001 -0.005,-0.003 -0.006,-0.004 -0.004,-0.002 -0.008,-0.005 -0.013,-0.008 -0.002,-0.001 -0.004,-0.003 -0.007,-0.004 -0.004,-0.003 -0.007,-0.006 -0.011,-0.008 -0.003,-0.002 -0.006,-0.004 -0.008,-0.005 -0.003,-0.002 -0.007,-0.005 -0.01,-0.007 -0.003,-10e-4 -0.007,-0.004 -0.01,-0.006 -0.003,-0.002 -0.006,-0.004 -0.009,-0.006 -0.003,-0.002 -0.006,-0.004 -0.01,-0.006 -0.002,-0.002 -0.005,-0.004 -0.008,-0.005 -0.003,-0.003 -0.008,-0.005 -0.011,-0.008 -0.002,-0.001 -0.004,-0.003 -0.007,-0.004 -0.004,-0.003 -0.008,-0.005 -0.012,-0.008 -0.002,-0.001 -0.003,-0.002 -0.004,-0.003 -0.005,-0.003 -0.011,-0.006 -0.015,-0.01 -10e-4,0 -10e-4,0 -10e-4,0 -0.201,-0.129 -0.404,-0.255 -0.608,-0.379 0.333,0.204 0.661,0.415 0.986,0.632 -0.048,-0.032 -0.094,-0.068 -0.142,-0.099 m -3.735,-2.099 c -0.001,-0.001 -0.001,-0.001 -0.002,-0.001 -0.006,-0.003 -0.012,-0.006 -0.018,-0.009 -0.001,0 -0.001,-0.001 -0.002,-0.001 -0.006,-0.002 -0.012,-0.005 -0.017,-0.008 -0.001,-0.001 -0.003,-0.001 -0.005,-0.002 -0.005,-0.003 -0.01,-0.005 -0.015,-0.007 -0.002,-10e-4 -0.004,-0.002 -0.006,-0.003 -0.004,-0.002 -0.009,-0.004 -0.013,-0.006 -0.003,-0.002 -0.006,-0.003 -0.008,-0.004 -0.005,-0.002 -0.008,-0.004 -0.013,-0.006 -0.002,-0.001 -0.005,-0.002 -0.008,-0.004 -0.004,-0.002 -0.008,-0.003 -0.012,-0.005 -0.003,-0.002 -0.006,-0.003 -0.009,-0.005 -0.004,-0.001 -0.008,-0.003 -0.011,-0.005 -0.006,-0.003 -0.013,-0.006 -0.019,-0.009 h -0.001 c -0.021,-0.01 -0.042,-0.02 -0.063,-0.029 l -0.001,-10e-4 c -0.014,-0.006 -0.027,-0.012 -0.041,-0.019 l -0.002,-10e-4 c -0.006,-0.002 -0.013,-0.005 -0.019,-0.008 l -10e-4,-10e-4 c -0.007,-0.003 -0.013,-0.006 -0.02,-0.009 l -0.002,-0.001 c -0.006,-0.003 -0.013,-0.006 -0.019,-0.009 h -0.001 c -0.007,-0.003 -0.014,-0.006 -0.02,-0.009 l -0.002,-10e-4 c -0.225,-0.103 -0.451,-0.203 -0.679,-0.301 v 0 c -0.008,-0.003 -0.015,-0.006 -0.022,-0.009 v -10e-4 c -0.007,-0.002 -0.014,-0.005 -0.02,-0.008 l -0.003,-10e-4 c -0.006,-0.003 -0.012,-0.006 -0.019,-0.008 l -0.002,-10e-4 c -0.006,-0.003 -0.012,-0.005 -0.018,-0.008 -0.001,0 -0.003,-0.001 -0.003,-0.001 -0.006,-0.003 -0.012,-0.005 -0.018,-0.008 -0.002,-0.001 -0.002,-0.001 -0.004,-0.002 -0.006,-0.002 -0.011,-0.004 -0.017,-0.007 -10e-4,0 -0.002,0 -0.003,-0.001 0.456,0.193 0.906,0.396 1.35,0.61 -0.064,-0.03 -0.128,-0.061 -0.192,-0.091 m -6.6,-2.239 v 0 c -0.007,-0.001 -0.015,-0.003 -0.022,-0.004 -0.001,-0.001 -0.002,-0.001 -0.003,-0.001 -0.007,-10e-4 -0.013,-0.003 -0.02,-0.004 -0.002,-0.001 -0.001,-0.001 -0.003,-0.001 -0.007,-10e-4 -0.013,-0.003 -0.019,-0.004 -0.002,-0.001 -0.003,-0.001 -0.005,-0.001 -0.006,-0.001 -0.012,-0.002 -0.018,-0.004 -0.002,0 -0.003,-10e-4 -0.005,-10e-4 -0.006,-0.001 -0.011,-0.002 -0.017,-0.003 -0.002,-0.001 -0.004,-0.001 -0.006,-0.002 -0.006,-10e-4 -0.012,-0.002 -0.017,-0.004 -0.001,0 -0.005,0 -0.006,-0.001 -0.006,-0.001 -0.011,-0.002 -0.017,-0.003 -0.002,-0.001 -0.004,-0.001 -0.006,-0.001 -0.006,-0.002 -0.012,-0.003 -0.018,-0.004 -0.002,-0.001 -0.003,-0.001 -0.005,-0.001 -0.007,-0.002 -0.013,-0.003 -0.02,-0.004 -0.004,-0.001 -0.007,-0.002 -0.01,-0.003 -0.005,-0.001 -0.01,-0.002 -0.015,-0.002 -0.003,-10e-4 -0.008,-0.002 -0.012,-0.003 -0.003,-10e-4 -0.006,-10e-4 -0.009,-0.002 -0.005,-0.001 -0.011,-0.002 -0.015,-0.003 -0.003,-0.001 -0.005,-0.001 -0.007,-0.002 -0.005,-0.001 -0.012,-0.002 -0.017,-0.003 -0.002,0 -0.003,-0.001 -0.005,-0.001 -0.001,0 -0.002,-0.001 -0.003,-0.001 0.273,0.056 0.542,0.125 0.813,0.188 -0.171,-0.04 -0.34,-0.087 -0.513,-0.125 m -6.049,-0.682 h -0.002 c -0.025,-10e-4 -0.048,-10e-4 -0.073,-10e-4 h -0.002 c -0.007,0 -0.014,0 -0.022,0 h -0.003 c -0.007,0 -0.015,0 -0.022,-0.001 h -0.001 c -0.008,0 -0.016,0 -0.024,0 h -0.002 c -0.007,0 -0.014,0 -0.021,0 h -0.005 -0.019 c -0.002,0 -0.003,0 -0.005,0 h -0.021 -0.002 c -0.008,0 -0.016,-0.001 -0.024,-0.001 h -0.004 -0.019 c -0.002,0 -0.004,0 -0.006,0 h -0.017 -0.007 -0.019 -0.003 c -0.008,0 -0.015,0 -0.023,0 h -0.006 -0.016 -0.009 -0.015 -0.007 -0.02 c 0.261,0 0.52,0.013 0.78,0.02 -0.121,-0.003 -0.24,-0.016 -0.361,-0.017 m -9.529,1.375 c -0.002,0 -0.003,0.001 -0.005,0.001 -0.006,0.002 -0.011,0.004 -0.016,0.006 -0.002,0 -0.003,0 -0.005,0.001 -0.006,0.002 -0.011,0.003 -0.018,0.005 0,0.001 0,0.001 -0.001,0.001 -0.027,0.008 -0.052,0.019 -0.079,0.028 0.043,-0.014 0.085,-0.03 0.128,-0.043 -0.001,0 -0.003,10e-4 -0.004,10e-4 m -6.366,2.816 v 0 c -0.007,0.004 -0.013,0.008 -0.02,0.012 v 0 c -0.007,0.004 -0.013,0.007 -0.02,0.011 v 0 c -0.006,0.004 -0.013,0.008 -0.019,0.012 h -0.001 c -0.006,0.003 -0.011,0.007 -0.017,0.01 -10e-4,0.001 -0.002,0.002 -0.003,0.002 -0.006,0.004 -0.012,0.007 -0.018,0.011 -0.002,10e-4 -0.003,10e-4 -0.005,0.003 -0.006,0.003 -0.011,0.006 -0.016,0.009 -0.003,0.002 -0.006,0.004 -0.01,0.006 -0.003,0.002 -0.006,0.003 -0.009,0.005 -0.005,0.003 -0.009,0.006 -0.014,0.009 -0.002,10e-4 -0.003,0.002 -0.005,0.003 -0.006,0.003 -0.01,0.006 -0.016,0.009 -10e-4,10e-4 -0.002,10e-4 -0.003,0.002 -0.005,0.003 -0.011,0.006 -0.016,0.009 -10e-4,10e-4 -0.002,0.002 -0.003,0.002 -0.006,0.004 -0.011,0.007 -0.017,0.01 0,10e-4 -0.001,10e-4 -0.001,10e-4 -0.006,0.004 -0.012,0.008 -0.018,0.011 0,0 -10e-4,0 -10e-4,10e-4 -0.039,0.023 -0.076,0.047 -0.114,0.07 0.221,-0.134 0.449,-0.26 0.675,-0.388 -0.109,0.062 -0.221,0.117 -0.329,0.18 m -8.153,6.955 c 0,0 0,0 0,0 -0.004,0.005 -0.009,0.011 -0.013,0.016 0,10e-4 -0.001,10e-4 -0.001,0.002 -0.004,0.005 -0.009,0.01 -0.013,0.015 0,10e-4 -10e-4,10e-4 -10e-4,0.002 -0.005,0.005 -0.008,0.01 -0.013,0.015 0,0.001 -0.001,0.001 -0.002,0.002 -0.004,0.005 -0.008,0.01 -0.012,0.015 0,0.001 -10e-4,0.001 -0.002,0.002 -0.003,0.005 -0.008,0.01 -0.011,0.015 -0.001,0.001 -0.002,0.002 -0.003,0.003 -0.004,0.004 -0.008,0.01 -0.012,0.014 0,0.001 -0.001,0.002 -0.002,0.003 -0.004,0.005 -0.007,0.009 -0.012,0.014 0,10e-4 -10e-4,0.002 -0.002,0.003 -0.003,0.004 -0.008,0.01 -0.012,0.015 0,0 -0.001,0.001 -0.001,0.001 -0.004,0.006 -0.009,0.011 -0.013,0.016 0,10e-4 -10e-4,10e-4 -10e-4,0.002 -0.005,0.005 -0.009,0.01 -0.013,0.015 0,10e-4 0,10e-4 0,10e-4 -0.05,0.061 -0.1,0.123 -0.15,0.186 -10e-4,0.001 -0.002,0.002 -0.003,0.003 -0.003,0.004 -0.007,0.009 -0.011,0.014 -0.001,0.001 -0.002,0.002 -0.003,0.003 -0.003,0.005 -0.006,0.008 -0.01,0.013 -10e-4,0.002 -0.003,0.003 -0.004,0.005 -0.003,0.004 -0.006,0.008 -0.01,0.012 -0.001,0.002 -0.002,0.004 -0.004,0.005 -0.003,0.004 -0.006,0.009 -0.009,0.012 -0.002,0.002 -0.003,0.004 -0.005,0.006 -0.003,0.004 -0.006,0.008 -0.009,0.011 -10e-4,0.002 -0.003,0.005 -0.005,0.007 -0.003,0.004 -0.006,0.007 -0.009,0.011 -10e-4,0.002 -0.003,0.004 -0.005,0.006 -0.003,0.004 -0.006,0.008 -0.009,0.012 -0.001,0.002 -0.003,0.004 -0.005,0.006 -0.003,0.004 -0.005,0.007 -0.008,0.011 -0.002,0.002 -0.004,0.005 -0.006,0.007 -0.002,0.003 -0.006,0.007 -0.008,0.01 -0.002,0.003 -0.004,0.005 -0.006,0.007 -0.003,0.004 -0.005,0.007 -0.008,0.011 -0.002,0.002 -0.004,0.005 -0.006,0.007 -0.003,0.004 -0.005,0.007 -0.008,0.01 -0.002,0.003 -0.004,0.005 -0.005,0.007 -0.003,0.003 -0.006,0.008 -0.009,0.011 -0.002,0.003 -0.004,0.005 -0.006,0.008 -0.002,0.003 -0.005,0.006 -0.007,0.009 -0.003,0.003 -0.005,0.006 -0.007,0.009 -0.002,0.003 -0.005,0.006 -0.007,0.009 -0.003,0.003 -0.005,0.007 -0.008,0.01 -0.002,0.003 -0.003,0.004 -0.006,0.007 -0.003,0.004 -0.006,0.008 -0.009,0.012 -0.001,0.002 -0.003,0.005 -0.004,0.006 -0.004,0.004 -0.008,0.009 -0.011,0.014 -0.001,0.001 -0.002,0.002 -0.003,0.004 -0.005,0.005 -0.009,0.011 -0.013,0.016 l -10e-4,0.001 c -0.028,0.037 -0.056,0.073 -0.084,0.109 l -0.001,10e-4 c -0.004,0.006 -0.009,0.011 -0.013,0.017 l -10e-4,0.001 c -0.004,0.006 -0.009,0.011 -0.013,0.017 -10e-4,0.001 -10e-4,0.001 -10e-4,0.002 -0.005,0.006 -0.009,0.011 -0.013,0.016 l -0.001,0.002 c -0.004,0.005 -0.009,0.011 -0.013,0.017 l -10e-4,0.001 c -0.071,0.092 -0.141,0.185 -0.21,0.278 0.29,-0.387 0.588,-0.768 0.896,-1.14 -0.003,0.003 -0.006,0.006 -0.009,0.01 m -2.828,4.057 c -10e-4,10e-4 -10e-4,0.002 -0.002,0.003 -0.003,0.005 -0.005,0.008 -0.008,0.013 l -0.003,0.007 c -0.003,0.004 -0.005,0.007 -0.007,0.011 -0.002,0.003 -0.003,0.006 -0.005,0.008 -0.002,0.004 -0.004,0.007 -0.006,0.01 -0.002,0.004 -0.004,0.007 -0.006,0.01 -10e-4,0.003 -0.003,0.006 -0.004,0.008 -0.002,0.004 -0.005,0.008 -0.007,0.012 -0.002,0.003 -0.003,0.005 -0.005,0.008 -0.002,0.004 -0.004,0.008 -0.007,0.012 -0.001,0.003 -0.002,0.005 -0.003,0.007 -0.003,0.004 -0.006,0.009 -0.008,0.013 -0.002,0.003 -0.002,0.004 -0.004,0.007 -0.002,0.004 -0.005,0.008 -0.007,0.013 -10e-4,0.001 -0.003,0.004 -0.004,0.006 -0.003,0.005 -0.005,0.009 -0.008,0.014 -0.001,10e-4 -0.003,0.004 -0.004,0.006 -0.002,0.005 -0.005,0.009 -0.008,0.014 -0.001,0.002 -0.001,0.003 -0.002,0.005 -0.003,0.005 -0.006,0.01 -0.009,0.015 -10e-4,0.002 -0.002,0.003 -0.003,0.005 -0.003,0.005 -0.006,0.011 -0.009,0.016 -10e-4,10e-4 -10e-4,0.002 -0.002,0.003 -0.003,0.006 -0.007,0.012 -0.01,0.018 0,0.001 -10e-4,0.001 -10e-4,0.002 -0.096,0.168 -0.189,0.338 -0.282,0.508 0.221,-0.405 0.45,-0.805 0.689,-1.198 -0.089,0.147 -0.178,0.295 -0.265,0.444 m -2.704,6.088 c 0.084,-0.262 0.174,-0.522 0.265,-0.781 -0.091,0.259 -0.181,0.519 -0.265,0.781 m 4.34,27.209 c -0.158,-0.218 -0.316,-0.436 -0.468,-0.658 0.152,0.223 0.31,0.44 0.468,0.658 m 6.509,6.628 c 0.004,0.003 0.009,0.007 0.014,0.011 0.002,10e-4 0.003,0.002 0.004,0.003 0.005,0.003 0.009,0.006 0.014,0.01 0.001,0.001 0.003,0.003 0.005,0.004 0.004,0.003 0.008,0.006 0.012,0.009 0.003,0.002 0.004,0.003 0.006,0.004 0.004,0.003 0.008,0.006 0.012,0.009 0.002,0.001 0.005,0.004 0.007,0.005 0.003,0.003 0.006,0.005 0.009,0.007 0.003,0.002 0.007,0.005 0.01,0.007 0.002,0.002 0.004,0.004 0.007,0.005 0.004,0.003 0.008,0.006 0.012,0.009 10e-4,10e-4 0.003,0.002 0.004,0.003 0.004,0.004 0.009,0.007 0.014,0.011 10e-4,0 10e-4,0.001 0.002,0.001 0.211,0.156 0.425,0.31 0.64,0.461 10e-4,0 10e-4,0.001 0.002,0.001 0.005,0.004 0.01,0.007 0.016,0.011 10e-4,0.001 10e-4,0.002 0.002,0.002 0.006,0.004 0.01,0.007 0.016,0.011 10e-4,0 0.002,0.001 0.002,0.002 0.005,0.003 0.011,0.007 0.016,0.011 10e-4,0 0.002,0.001 0.003,0.001 0.005,0.004 0.009,0.007 0.014,0.011 0.002,0.001 0.003,0.002 0.005,0.003 0.004,0.002 0.01,0.007 0.014,0.009 10e-4,10e-4 0.003,0.002 0.004,0.004 0.005,0.003 0.009,0.006 0.014,0.009 10e-4,0.001 0.003,0.002 0.005,0.003 0.005,0.004 0.008,0.006 0.013,0.01 0.002,10e-4 0.004,0.002 0.005,0.003 0.004,0.003 0.009,0.006 0.013,0.009 0.002,0.002 0.005,0.003 0.007,0.005 0.004,0.003 0.007,0.005 0.011,0.008 0.003,0.001 0.005,0.003 0.008,0.005 0.004,0.003 0.007,0.005 0.011,0.007 0.002,0.002 0.005,0.004 0.008,0.006 0.004,0.003 0.006,0.004 0.01,0.007 0.004,0.003 0.009,0.006 0.013,0.009 0.002,0.001 0.003,0.002 0.005,0.003 0.006,0.004 0.012,0.009 0.018,0.013 h 0.001 c 0.031,0.022 0.063,0.043 0.095,0.065 v 0 c 0.006,0.004 0.012,0.009 0.018,0.013 h 10e-4 c 0.006,0.005 0.012,0.009 0.018,0.013 h 10e-4 c 0.006,0.004 0.012,0.009 0.018,0.013 h 10e-4 c 0.012,0.008 0.024,0.017 0.037,0.025 -0.407,-0.275 -0.806,-0.559 -1.198,-0.852 0,0 0,0 10e-4,10e-4 m 6.196,3.583 c -0.244,-0.105 -0.485,-0.217 -0.727,-0.329 0.242,0.112 0.483,0.224 0.727,0.329 m 5.578,1.789 c -0.287,-0.062 -0.573,-0.127 -0.857,-0.198 0.284,0.071 0.57,0.136 0.857,0.198 m 5.942,0.701 h 10e-4 c 0.007,0 0.015,0 0.023,0 h 0.002 c 0.007,0 0.015,10e-4 0.022,10e-4 h 0.003 c 0.007,0 0.015,0 0.022,0 h 0.002 c 0.008,0 0.015,0 0.023,0 h 0.001 c 0.033,10e-4 0.065,10e-4 0.098,0.002 h 0.003 c 0.007,0 0.014,0 0.021,0 10e-4,0 0.003,0 0.004,0 0.007,0 0.013,0 0.02,10e-4 h 0.005 c 0.006,0 0.012,0 0.018,0 h 0.007 c 0.005,0 0.011,0 0.017,0 h 0.007 c 0.006,0 0.012,0 0.018,0 h 0.006 c 0.006,0 0.013,0 0.02,10e-4 h 0.004 c 0.015,0 0.031,0 0.047,0 h 0.006 c 0.006,0 0.012,0 0.018,0 h 0.008 0.016 c 0.003,0 0.006,0 0.009,0 h 0.014 0.01 0.013 0.011 c 0.004,0 0.009,0 0.014,0 h 0.009 0.014 0.01 0.015 0.009 0.019 c -0.301,0 -0.598,-0.014 -0.897,-0.022 0.103,0.003 0.205,0.015 0.308,0.017 m 6.246,-0.515 0.001,-10e-4 c 0.007,-0.001 0.014,-0.002 0.021,-0.004 0.001,0 0.003,0 0.004,0 0.006,-0.001 0.012,-0.003 0.019,-0.004 0.002,0 0.003,0 0.005,-10e-4 0.006,-0.001 0.012,-0.002 0.018,-0.003 0.002,-0.001 0.002,-0.001 0.004,-0.001 0.006,-10e-4 0.012,-0.002 0.019,-0.004 0.002,0 0.003,0 0.005,-0.001 0.006,-0.001 0.012,-0.002 0.018,-0.003 10e-4,0 0.003,-0.001 0.005,-0.001 0.006,-10e-4 0.011,-0.002 0.017,-0.003 0.003,-10e-4 0.003,-10e-4 0.006,-0.002 0.006,-0.001 0.013,-0.002 0.019,-0.003 10e-4,0 0.003,-0.001 0.004,-0.001 0.015,-0.003 0.03,-0.006 0.046,-0.009 0.002,0 0.003,0 0.005,-10e-4 0.006,-0.001 0.011,-0.002 0.017,-0.003 0.004,-0.001 0.005,-0.001 0.009,-0.002 0.004,-0.001 0.009,-0.001 0.013,-0.002 0.004,-10e-4 0.007,-0.002 0.01,-0.002 0.004,-0.001 0.008,-0.002 0.012,-0.003 0.004,0 0.008,-0.001 0.012,-0.002 0.004,-0.001 0.007,-0.001 0.01,-0.002 0.004,-10e-4 0.009,-0.002 0.013,-0.003 0.003,0 0.006,-10e-4 0.009,-10e-4 0.004,-0.001 0.01,-0.002 0.014,-0.003 0.003,-0.001 0.005,-0.001 0.008,-0.002 0.005,-10e-4 0.01,-0.002 0.014,-0.003 0.003,0 0.005,0 0.008,-10e-4 0.005,-0.001 0.009,-0.002 0.015,-0.003 0.002,0 0.004,-0.001 0.006,-0.001 0.005,-10e-4 0.011,-0.003 0.016,-0.003 0.002,-10e-4 0.003,-10e-4 0.004,-10e-4 0.034,-0.007 0.069,-0.014 0.103,-0.021 -0.267,0.055 -0.539,0.097 -0.808,0.144 0.099,-0.017 0.2,-0.026 0.299,-0.044 m 3.896,-0.999 c 10e-4,0 0,0 10e-4,0 0.007,-0.002 0.014,-0.004 0.02,-0.007 0.001,0 0.004,-10e-4 0.005,-10e-4 0.006,-0.002 0.011,-0.004 0.016,-0.005 0.003,-0.001 0.006,-0.002 0.009,-0.003 0.004,-0.002 0.009,-0.003 0.013,-0.005 0.003,-10e-4 0.007,-0.002 0.009,-0.003 0.004,-10e-4 0.008,-0.002 0.012,-0.004 0.003,-0.001 0.008,-0.002 0.011,-0.003 0.003,-0.001 0.007,-0.003 0.011,-0.004 0.004,-0.001 0.007,-0.002 0.011,-0.003 0.003,-0.002 0.006,-0.003 0.01,-0.004 0.003,-10e-4 0.009,-0.003 0.012,-0.004 0.003,-0.001 0.006,-0.002 0.009,-0.003 0.004,-0.001 0.009,-0.003 0.014,-0.004 0.002,-10e-4 0.004,-0.002 0.006,-0.002 0.004,-0.002 0.011,-0.004 0.016,-0.006 0.001,0 0.003,-0.001 0.004,-0.001 0.006,-0.002 0.012,-0.004 0.017,-0.006 0.001,0 0.002,-10e-4 0.003,-10e-4 0.007,-0.002 0.013,-0.004 0.019,-0.006 0,0 0.001,-0.001 0.001,-0.001 0.113,-0.038 0.223,-0.083 0.335,-0.123 -0.317,0.111 -0.634,0.223 -0.955,0.324 0.13,-0.041 0.261,-0.082 0.391,-0.125 m 5.698,-2.543 c 0,0 0,0 0,0 0.006,-0.003 0.011,-0.006 0.017,-0.01 10e-4,0 0.002,-10e-4 0.003,-0.002 0.006,-0.003 0.011,-0.005 0.016,-0.009 0.001,0 0.003,-0.001 0.004,-0.002 0.005,-0.003 0.01,-0.006 0.015,-0.008 0.001,-0.001 0.003,-0.002 0.005,-0.003 0.005,-0.003 0.009,-0.006 0.014,-0.008 0.002,-0.002 0.004,-0.003 0.006,-0.004 0.004,-0.002 0.008,-0.005 0.012,-0.007 0.003,-0.002 0.005,-0.003 0.008,-0.005 0.004,-0.002 0.007,-0.004 0.012,-0.006 0.002,-0.002 0.005,-0.003 0.008,-0.005 0.003,-0.002 0.007,-0.004 0.011,-0.006 0.003,-0.002 0.006,-0.004 0.009,-0.006 0.003,-0.002 0.007,-0.004 0.01,-0.006 0.004,-0.002 0.007,-0.004 0.011,-0.006 0.003,-0.002 0.005,-0.003 0.007,-0.005 0.005,-0.002 0.009,-0.005 0.014,-0.007 0.002,-0.002 0.004,-0.003 0.006,-0.004 0.005,-0.003 0.01,-0.006 0.015,-0.009 10e-4,0 0.003,-0.002 0.004,-0.002 0.006,-0.003 0.011,-0.007 0.017,-0.01 10e-4,0 0.002,-0.001 0.003,-0.002 0.078,-0.046 0.154,-0.095 0.231,-0.141 -0.283,0.169 -0.571,0.334 -0.861,0.495 0.134,-0.075 0.27,-0.145 0.403,-0.222 m 4.88,-3.486 c 10e-4,-0.001 0.002,-0.002 0.003,-0.003 0.005,-0.004 0.009,-0.007 0.013,-0.011 10e-4,-0.001 0.003,-0.002 0.004,-0.004 0.004,-0.003 0.009,-0.007 0.012,-0.01 0.002,-0.001 0.003,-0.003 0.005,-0.004 0.004,-0.004 0.007,-0.006 0.011,-0.01 0.002,-0.002 0.004,-0.004 0.006,-0.006 0.003,-0.002 0.007,-0.006 0.01,-0.008 0.003,-0.002 0.005,-0.004 0.007,-0.007 0.004,-0.003 0.006,-0.005 0.01,-0.008 0.002,-0.002 0.005,-0.004 0.007,-0.006 0.003,-0.003 0.006,-0.006 0.009,-0.008 0.003,-0.003 0.006,-0.005 0.008,-0.007 0.003,-0.003 0.006,-0.006 0.009,-0.008 0.003,-0.003 0.006,-0.005 0.008,-0.007 0.003,-0.003 0.006,-0.005 0.008,-0.008 0.004,-0.002 0.007,-0.005 0.01,-0.008 0.003,-0.002 0.004,-0.004 0.007,-0.006 0.003,-0.003 0.007,-0.006 0.01,-0.009 0.002,-0.002 0.004,-0.004 0.007,-0.006 0.003,-0.003 0.006,-0.006 0.009,-0.008 0.003,-0.003 0.005,-0.005 0.008,-0.007 0.003,-0.003 0.006,-0.006 0.009,-0.009 0.003,-0.002 0.005,-0.004 0.008,-0.006 0.003,-0.003 0.006,-0.006 0.01,-0.009 0.002,-0.002 0.004,-0.004 0.006,-0.006 0.004,-0.003 0.008,-0.007 0.011,-0.01 0.002,-0.002 0.004,-0.003 0.006,-0.005 0.004,-0.003 0.007,-0.007 0.011,-0.01 0.002,-0.002 0.004,-0.003 0.006,-0.005 0.004,-0.004 0.009,-0.008 0.013,-0.012 0.001,0 0.003,-0.002 0.003,-0.003 0.005,-0.004 0.01,-0.008 0.014,-0.012 10e-4,-0.001 0.003,-0.002 0.003,-0.003 0.006,-0.005 0.011,-0.009 0.016,-0.014 l 0.001,-10e-4 c 0.04,-0.035 0.079,-0.071 0.119,-0.107 10e-4,-0.001 10e-4,-0.001 0.002,-0.001 0.005,-0.005 0.01,-0.01 0.015,-0.014 0,-0.001 0.002,-0.002 0.002,-0.002 0.005,-0.005 0.009,-0.009 0.014,-0.013 l 10e-4,-0.001 c -0.246,0.224 -0.501,0.438 -0.754,0.653 0.1,-0.085 0.204,-0.165 0.303,-0.251 M 9.216,-2.583 c 0.13,1.21 0.206,2.444 0.225,3.667 L 0.047,1.232 C 0.044,1.011 0.03,0.794 0.022,0.575 c 0.014,0.382 0.029,0.763 0.029,1.148 0,1.056 -0.053,2.1 -0.158,3.128 0.027,-0.266 0.051,-0.534 0.071,-0.803 L 9.333,4.752 C 9.241,5.973 9.092,7.203 8.889,8.407 L -0.376,6.846 C -0.365,6.782 -0.36,6.717 -0.35,6.653 -0.544,7.849 -0.81,9.021 -1.138,10.167 -1.084,9.978 -1.023,9.791 -0.972,9.6 l 9.08,2.411 C 7.794,13.196 7.42,14.379 6.997,15.529 l -8.818,-3.243 c 0.004,-0.01 0.007,-0.02 0.011,-0.03 -0.336,0.916 -0.715,1.81 -1.133,2.682 0.009,-0.018 0.019,-0.036 0.028,-0.055 l 8.48,4.045 c -0.527,1.104 -1.111,2.197 -1.738,3.249 l -8.071,-4.81 c 0.124,-0.209 0.246,-0.419 0.366,-0.631 v 0 c 0.004,-0.007 0.007,-0.013 0.011,-0.02 0,-0.001 10e-4,-0.002 10e-4,-0.002 0.004,-0.006 0.007,-0.012 0.01,-0.018 10e-4,0 10e-4,-0.002 0.002,-0.003 0.003,-0.005 0.006,-0.011 0.009,-0.016 0.001,-0.002 0.002,-0.003 0.003,-0.005 0.003,-0.005 0.005,-0.01 0.008,-0.014 10e-4,-0.002 0.002,-0.005 0.003,-0.007 0.003,-0.004 0.005,-0.008 0.008,-0.012 10e-4,-0.003 0.003,-0.006 0.004,-0.008 0.002,-0.004 0.004,-0.008 0.007,-0.012 10e-4,-0.003 0.002,-0.005 0.004,-0.008 0.002,-0.004 0.004,-0.008 0.007,-0.012 0.001,-0.003 0.003,-0.005 0.004,-0.008 0.002,-0.004 0.004,-0.008 0.007,-0.012 10e-4,-0.002 0.003,-0.005 0.004,-0.008 0.002,-0.003 0.004,-0.007 0.006,-0.011 0.002,-0.003 0.004,-0.007 0.005,-0.009 0.002,-0.004 0.004,-0.007 0.006,-0.011 0.002,-0.003 0.003,-0.005 0.005,-0.009 0.002,-0.003 0.004,-0.007 0.006,-0.01 0.002,-0.004 0.003,-0.006 0.005,-0.01 0.002,-0.003 0.004,-0.006 0.006,-0.009 0.002,-0.004 0.003,-0.007 0.005,-0.011 0.002,-0.002 0.003,-0.005 0.005,-0.008 0.002,-0.004 0.004,-0.007 0.006,-0.011 0.002,-0.003 0.003,-0.006 0.005,-0.008 10e-4,-0.004 0.004,-0.009 0.006,-0.012 0.001,-0.002 0.002,-0.004 0.004,-0.007 0.012,-0.022 0.025,-0.045 0.037,-0.068 10e-4,-10e-4 10e-4,-0.002 0.002,-0.003 0.003,-0.006 0.006,-0.011 0.009,-0.017 0.001,-10e-4 0.001,-0.002 0.001,-0.002 0.003,-0.005 0.006,-0.011 0.009,-0.016 10e-4,-10e-4 10e-4,-0.003 0.002,-0.004 0.003,-0.005 0.006,-0.011 0.009,-0.017 0,0 10e-4,-0.001 0.002,-0.002 0,-0.002 10e-4,-0.003 0.002,-0.005 -0.693,1.277 -1.477,2.498 -2.339,3.657 0.062,-0.084 0.125,-0.166 0.186,-0.249 l 7.595,5.53 c -0.719,0.987 -1.493,1.954 -2.3,2.871 l -7.057,-6.202 c 0.076,-0.086 0.145,-0.178 0.22,-0.265 -0.824,0.958 -1.7,1.871 -2.635,2.721 0.005,-0.004 0.009,-0.008 0.013,-0.011 0.001,-0.001 0.003,-0.003 0.003,-0.003 0.005,-0.005 0.009,-0.009 0.014,-0.013 10e-4,-0.001 0.002,-0.001 0.003,-0.003 0.005,-0.004 0.009,-0.008 0.014,-0.012 10e-4,-0.002 10e-4,-0.002 0.003,-0.003 0.004,-0.004 0.009,-0.008 0.014,-0.013 0.001,-10e-4 0.001,-10e-4 0.003,-0.003 0.004,-0.004 0.009,-0.008 0.014,-0.012 10e-4,-10e-4 10e-4,-0.002 0.002,-0.003 0.005,-0.004 0.01,-0.008 0.014,-0.012 0.002,-0.002 0.002,-0.002 0.003,-0.003 0.005,-0.004 0.01,-0.009 0.014,-0.013 0.002,-0.001 0.002,-0.001 0.003,-0.002 0.005,-0.005 0.009,-0.009 0.014,-0.013 0.001,-0.002 0.001,-0.002 0.003,-0.003 0.005,-0.004 0.01,-0.009 0.014,-0.013 10e-4,-0.001 10e-4,-0.001 0.002,-0.002 0.005,-0.005 0.011,-0.01 0.016,-0.014 l 0.001,-10e-4 c 0.005,-0.005 0.011,-0.01 0.016,-0.015 v -0.001 c 0.057,-0.051 0.112,-0.104 0.168,-0.156 v 0 c 0.006,-0.005 0.011,-0.01 0.017,-0.015 0,-0.001 0.001,-0.001 0.001,-0.002 0.005,-0.005 0.01,-0.009 0.015,-0.014 0.001,0 0.001,-10e-4 0.002,-0.002 0.005,-0.004 0.01,-0.009 0.014,-0.013 0.002,-0.001 0.003,-0.002 0.004,-0.004 0.004,-0.004 0.009,-0.008 0.013,-0.012 10e-4,-0.001 0.002,-0.002 0.004,-0.003 0.004,-0.004 0.008,-0.008 0.012,-0.012 0.002,-10e-4 0.003,-0.003 0.004,-0.004 0.004,-0.004 0.009,-0.008 0.013,-0.012 10e-4,-0.001 0.002,-0.002 0.004,-0.003 0.002,-0.002 0.004,-0.005 0.007,-0.007 l 6.46,6.822 c -0.887,0.84 -1.824,1.649 -2.783,2.404 l -5.81,-7.384 c 0.088,-0.069 0.171,-0.144 0.258,-0.214 -0.977,0.786 -2.001,1.514 -3.071,2.177 0.127,-0.079 0.255,-0.153 0.38,-0.233 l 10e-4,-10e-4 c 0.006,-0.004 0.012,-0.008 0.017,-0.011 0.002,-0.001 0.002,-0.001 0.004,-0.002 0.005,-0.004 0.01,-0.007 0.015,-0.01 0.002,-0.001 0.003,-0.002 0.004,-0.003 0.005,-0.003 0.01,-0.006 0.015,-0.009 0.002,-0.002 0.003,-0.002 0.005,-0.003 0.005,-0.003 0.009,-0.006 0.014,-0.01 0.002,-10e-4 0.004,-0.002 0.005,-0.003 0.005,-0.003 0.009,-0.006 0.014,-0.008 0.002,-0.002 0.003,-0.003 0.006,-0.004 0.004,-0.003 0.008,-0.006 0.013,-0.009 0.002,-0.001 0.003,-0.002 0.006,-0.004 0.004,-0.002 0.008,-0.005 0.013,-0.008 0.002,-0.002 0.004,-0.003 0.006,-0.004 10e-4,-0.001 0.002,-0.002 0.003,-0.002 l 5.108,7.885 c -1.027,0.666 -2.097,1.291 -3.18,1.858 l -4.361,-8.322 c 0.077,-0.04 0.152,-0.084 0.229,-0.125 -1.11,0.593 -2.262,1.117 -3.448,1.572 0.119,-0.045 0.241,-0.085 0.359,-0.132 0.001,0 0.002,0 0.002,-0.001 0.007,-0.002 0.011,-0.004 0.017,-0.006 10e-4,-0.001 0.003,-0.001 0.004,-0.002 0.006,-0.002 0.01,-0.004 0.016,-0.006 0.002,-0.001 0.004,-0.002 0.006,-0.003 0.004,-0.002 0.009,-0.003 0.013,-0.005 0.003,-10e-4 0.005,-0.002 0.008,-0.003 0.004,-0.002 0.009,-0.004 0.013,-0.005 0.003,-10e-4 0.005,-0.003 0.008,-0.004 0.004,-0.001 0.009,-0.003 0.012,-0.004 0.003,-0.002 0.007,-0.003 0.01,-0.004 0.003,-0.002 0.007,-0.003 0.011,-0.005 0.003,-0.001 0.007,-0.003 0.011,-0.004 0.002,-10e-4 0.006,-0.003 0.009,-0.004 0.004,-0.002 0.008,-0.003 0.012,-0.005 0.003,-0.001 0.006,-0.002 0.009,-0.004 0.005,-0.001 0.009,-0.003 0.014,-0.005 0.002,-0.001 0.004,-0.002 0.007,-0.003 0.005,-0.002 0.01,-0.004 0.015,-0.006 0.002,-0.001 0.004,-0.002 0.006,-0.002 0.006,-0.003 0.013,-0.006 0.019,-0.009 h 10e-4 c 0.028,-0.011 0.056,-0.022 0.084,-0.034 l 3.572,8.69 c -1.133,0.466 -2.301,0.884 -3.473,1.243 l -2.752,-8.983 c 0.029,-0.009 0.058,-0.019 0.087,-0.028 -0.945,0.293 -1.909,0.541 -2.891,0.742 0.004,0 0.007,-0.001 0.01,-0.002 h 0.001 c 0.006,-0.001 0.014,-0.003 0.019,-0.004 0.001,0 0.002,0 0.003,0 0.007,-0.002 0.012,-0.003 0.019,-0.004 10e-4,0 0.002,-10e-4 0.003,-10e-4 0.006,-0.001 0.012,-0.002 0.018,-0.004 10e-4,0 10e-4,0 0.002,0 l 1.908,9.199 c -1.197,0.249 -2.421,0.444 -3.638,0.581 l -1.053,-9.336 c 0.1,-0.011 0.197,-0.032 0.297,-0.044 -1.233,0.151 -2.485,0.238 -3.758,0.238 h 0.018 0.007 0.016 0.008 0.017 0.006 c 0.006,0 0.013,0 0.02,0 h 0.003 c 0.024,0 0.049,0 0.073,0 h 0.001 c 0.16,-10e-4 0.321,-0.003 0.481,-0.006 l 0.197,9.393 c -0.283,0.006 -0.567,0.009 -0.852,0.009 -1.222,0 -2.456,-0.056 -3.668,-0.167 l 0.853,-9.356 c 0.097,0.009 0.197,0.008 0.295,0.016 -1.177,-0.096 -2.337,-0.253 -3.472,-0.479 0.071,0.014 0.14,0.032 0.211,0.045 0,0 10e-4,0 10e-4,0 0.006,0.002 0.014,0.003 0.02,0.004 10e-4,0 0.002,10e-4 0.003,10e-4 0.007,0.001 0.012,0.002 0.018,0.003 0.002,0.001 0.003,0.001 0.005,0.001 0.006,0.001 0.012,0.002 0.018,0.003 0.001,0.001 0.002,0.001 0.004,0.001 0.006,10e-4 0.011,0.003 0.017,0.003 0.002,0.001 0.004,0.001 0.006,0.002 0.005,10e-4 0.011,0.002 0.016,0.003 0.003,0 0.005,10e-4 0.008,10e-4 0.005,0.001 0.01,0.002 0.014,0.003 0.005,0.001 0.009,0.001 0.013,0.002 0.003,10e-4 0.007,10e-4 0.01,0.002 0.007,0.001 0.014,0.003 0.022,0.004 l -1.711,9.238 c -1.204,-0.223 -2.413,-0.505 -3.591,-0.838 l 2.558,-9.041 c 0.13,0.037 0.263,0.067 0.393,0.103 -1.211,-0.326 -2.392,-0.725 -3.54,-1.19 0.159,0.064 0.315,0.134 0.474,0.195 l -3.384,8.765 c -1.142,-0.441 -2.278,-0.941 -3.375,-1.487 l 4.181,-8.413 c 0.057,0.028 0.116,0.053 0.173,0.08 -1.272,-0.622 -2.496,-1.326 -3.661,-2.112 0.317,0.214 0.638,0.422 0.963,0.624 l 10e-4,10e-4 c 0.006,0.003 0.011,0.007 0.017,0.01 10e-4,0.001 0.003,0.002 0.003,0.003 0.006,0.003 0.011,0.006 0.016,0.009 10e-4,0.001 0.003,0.002 0.004,0.003 0.005,0.002 0.009,0.005 0.014,0.008 0.002,0.001 0.004,0.003 0.006,0.004 0,0 10e-4,0 10e-4,10e-4 l -4.938,7.992 c -1.04,-0.642 -2.062,-1.34 -3.039,-2.076 l 5.651,-7.506 c 0.02,0.015 0.04,0.031 0.06,0.046 h 10e-4 c 0.005,0.003 0.009,0.007 0.014,0.011 -0.78,-0.584 -1.531,-1.204 -2.25,-1.857 10e-4,10e-4 0.002,0.003 0.004,0.004 l -6.314,6.957 c -0.905,-0.821 -1.782,-1.693 -2.607,-2.593 l 6.923,-6.351 c 0.027,0.029 0.057,0.054 0.084,0.083 -0.695,-0.751 -1.354,-1.536 -1.971,-2.354 0.027,0.036 0.052,0.074 0.08,0.11 l -7.476,5.69 c -0.741,-0.973 -1.445,-1.991 -2.093,-3.027 l 7.967,-4.981 c 0.105,0.168 0.219,0.331 0.327,0.498 -0.716,-1.098 -1.371,-2.24 -1.944,-3.43 0,10e-4 0.001,0.002 0.001,0.004 0,0 10e-4,0 10e-4,0 0.003,0.006 0.006,0.013 0.009,0.019 v 0 c 0.018,0.037 0.035,0.073 0.053,0.11 0.002,0.003 0.003,0.006 0.005,0.01 10e-4,10e-4 0.003,0.005 0.003,0.007 0.003,0.004 0.005,0.009 0.007,0.013 0.001,0.002 0.002,0.005 0.003,0.007 0.002,0.004 0.005,0.009 0.007,0.014 10e-4,0.002 0.002,0.004 0.003,0.005 0.002,0.005 0.005,0.01 0.007,0.015 10e-4,10e-4 0.002,0.004 0.003,0.005 0.002,0.006 0.005,0.011 0.008,0.016 0,0.001 0.001,0.003 0.001,0.004 0.003,0.006 0.006,0.011 0.009,0.017 0,10e-4 10e-4,0.003 10e-4,0.004 0.003,0.006 0.006,0.011 0.009,0.017 0,0.001 10e-4,0.002 10e-4,0.003 0.003,0.006 0.007,0.012 0.01,0.018 v 0.002 c 0.031,0.062 0.062,0.124 0.093,0.186 l -8.391,4.226 C -66.847,18.602 -67.353,17.47 -67.8,16.33 l 8.746,-3.432 c 0.071,0.182 0.144,0.363 0.219,0.544 l 10e-4,10e-4 c 0.002,0.006 0.005,0.012 0.008,0.019 0,10e-4 10e-4,0.002 10e-4,0.003 0.002,0.006 0.005,0.012 0.007,0.018 10e-4,10e-4 10e-4,0.002 0.002,0.004 0.002,0.005 0.004,0.01 0.007,0.016 0,0.002 10e-4,0.003 0.002,0.005 0.002,0.005 0.004,0.01 0.006,0.015 0.001,0.003 0.002,0.004 0.003,0.007 0.002,0.004 0.004,0.008 0.005,0.013 0.002,0.003 0.002,0.005 0.004,0.008 0.001,0.004 0.003,0.007 0.004,0.01 0.002,0.005 0.003,0.007 0.005,0.012 0,10e-4 10e-4,10e-4 10e-4,0.002 0.004,0.01 0.009,0.02 0.014,0.03 -0.561,-1.329 -1.029,-2.707 -1.399,-4.125 0.014,0.055 0.026,0.111 0.041,0.166 v 10e-4 c 0.002,0.007 0.004,0.014 0.006,0.02 0,10e-4 0,0.003 10e-4,0.004 10e-4,0.006 0.003,0.012 0.005,0.018 0,0.002 0,0.003 10e-4,0.005 l 0.005,0.017 c 0,0.002 0,0.004 10e-4,0.006 10e-4,0.005 0.003,0.011 0.004,0.016 0.001,0.003 0.001,0.004 0.002,0.007 0.002,0.005 0.003,0.01 0.004,0.015 10e-4,0.002 0.002,0.005 0.002,0.007 0.002,0.005 0.003,0.009 0.004,0.014 10e-4,0.003 0.002,0.006 0.003,0.009 10e-4,0.004 0.002,0.008 0.003,0.012 10e-4,0.004 10e-4,0.006 0.002,0.01 10e-4,0.004 0.002,0.007 0.003,0.011 0.007,0.025 0.014,0.048 0.02,0.072 0.001,10e-4 0.001,0.002 0.001,0.003 0.002,0.007 0.004,0.014 0.006,0.021 0,0 0,0 0,0 0.002,0.007 0.004,0.014 0.006,0.021 0,0 0,0 0,0 0.027,0.099 0.055,0.197 0.083,0.295 l -9.026,2.607 c -0.34,-1.176 -0.628,-2.383 -0.858,-3.587 l 9.229,-1.76 c 0.008,0.04 0.015,0.08 0.023,0.119 v 0.002 c 0.002,0.007 0.003,0.015 0.005,0.022 v 0.001 c 10e-4,0.007 0.003,0.015 0.004,0.023 v 0 c 0.002,0.008 0.003,0.015 0.005,0.023 v 0 c 10e-4,0.008 0.003,0.016 0.004,0.024 h 0.001 c 0.006,0.031 0.012,0.062 0.018,0.093 0,0.001 0,0.001 10e-4,0.002 10e-4,0.007 0.002,0.014 0.004,0.021 0,10e-4 0,0.002 0,0.003 0.002,0.007 0.003,0.013 0.004,0.019 10e-4,0.002 10e-4,0.004 10e-4,0.006 0.002,0.006 0.003,0.011 0.004,0.017 0,0.003 0.001,0.004 0.001,0.007 10e-4,0.005 0.002,0.01 0.003,0.015 10e-4,0.003 0.002,0.006 0.002,0.009 0.001,0.004 0.002,0.009 0.003,0.014 0.001,0.003 0.001,0.005 0.002,0.008 10e-4,0.005 0.002,0.009 0.003,0.014 0,0.003 10e-4,0.006 10e-4,0.009 0.002,0.005 0.002,0.01 0.004,0.015 0,0.002 0,0.004 0.001,0.007 10e-4,0.005 0.002,0.01 0.003,0.015 10e-4,0.003 10e-4,0.005 0.002,0.008 0.001,0.006 0.002,0.011 0.003,0.017 0.001,0.002 0.001,0.003 0.001,0.005 0.002,0.007 0.003,0.014 0.005,0.021 0,10e-4 0,10e-4 0,0.002 0.003,0.015 0.007,0.031 0.01,0.046 0,10e-4 0,10e-4 0,0.002 0.002,0.007 0.003,0.014 0.005,0.021 0,0.001 0,0.002 0,0.003 0.002,0.007 0.003,0.013 0.005,0.02 0,0.001 0,0.004 10e-4,0.005 0.001,0.006 0.002,0.011 0.003,0.017 0.001,0.002 0.001,0.004 0.002,0.006 10e-4,0.006 0.002,0.011 0.003,0.017 10e-4,0.002 10e-4,0.004 0.002,0.007 10e-4,0.005 0.002,0.01 0.003,0.016 10e-4,0.002 10e-4,0.004 0.002,0.006 0.001,0.006 0.002,0.011 0.003,0.017 0,10e-4 10e-4,0.004 10e-4,0.006 0.002,0.006 0.003,0.011 0.004,0.017 0,0.002 10e-4,0.004 10e-4,0.006 0.002,0.005 0.003,0.011 0.004,0.016 0,0.002 0.001,0.005 0.001,0.006 0.002,0.006 0.003,0.012 0.004,0.018 0,0.002 10e-4,0.004 10e-4,0.005 0.002,0.007 0.003,0.014 0.005,0.02 V 8.31 c 0.007,0.031 0.014,0.062 0.021,0.093 10e-4,0.007 0.003,0.015 0.005,0.022 0,10e-4 0,0.002 0,0.002 0.002,0.007 0.003,0.015 0.005,0.021 0,10e-4 0,0.002 0,0.003 0.002,0.007 0.003,0.013 0.005,0.02 0,10e-4 0,0.002 10e-4,0.003 0.001,0.007 0.003,0.014 0.004,0.02 0,10e-4 0,0.002 10e-4,0.003 10e-4,0.007 0.003,0.014 0.004,0.021 l 10e-4,0.002 c 0.001,0.007 0.003,0.014 0.005,0.021 v 0.002 c 0.002,0.007 0.003,0.014 0.005,0.022 v 0 c 0.044,0.192 0.094,0.382 0.142,0.572 -0.453,-1.819 -0.743,-3.703 -0.854,-5.635 0.003,0.058 0.002,0.116 0.006,0.173 v 0 c 0,0.007 0.001,0.015 0.001,0.022 v 0 c 0.002,0.035 0.005,0.07 0.007,0.104 0,0.002 0,0.004 0,0.006 10e-4,0.004 10e-4,0.009 10e-4,0.013 0,0.004 10e-4,0.007 10e-4,0.011 0,0.004 0,0.007 0.001,0.012 0,0.003 0,0.007 0,0.011 10e-4,0.003 10e-4,0.008 10e-4,0.011 10e-4,0.004 10e-4,0.009 10e-4,0.013 0,0.004 0,0.006 0.001,0.01 0,0.005 10e-4,0.01 10e-4,0.015 0,0.002 0,0.005 0,0.007 10e-4,0.006 10e-4,0.012 0.002,0.018 0,10e-4 0,0.004 0,0.005 0.018,0.257 0.04,0.513 0.064,0.768 l -9.351,0.902 c -0.117,-1.211 -0.18,-2.445 -0.186,-3.667 l 9.395,-0.049 c 0.001,0.143 0.012,0.284 0.014,0.427 -0.003,-0.197 -0.015,-0.393 -0.015,-0.591 0,-1.512 0.114,-2.996 0.326,-4.448 -0.014,0.092 -0.031,0.184 -0.044,0.277 0,10e-4 0,0.003 0,0.004 -10e-4,0.006 -0.002,0.011 -0.003,0.017 0,0.002 0,0.004 0,0.006 -10e-4,0.005 -0.002,0.011 -0.003,0.016 0,0.002 0,0.004 0,0.006 -10e-4,0.006 -0.002,0.011 -0.003,0.017 0,0.002 0,0.004 0,0.006 -10e-4,0.005 -0.002,0.011 -0.003,0.016 0,0.002 0,0.005 -10e-4,0.007 0,0.005 -10e-4,0.01 -0.002,0.015 0,0.003 0,0.005 -10e-4,0.008 0,0.005 -10e-4,0.01 -0.002,0.015 0,0.002 0,0.004 0,0.007 -10e-4,0.006 -0.002,0.009 -0.003,0.015 0,0.001 0,0.002 0,0.003 -0.002,0.013 -0.004,0.028 -0.005,0.041 0,0 0,0 0,0 -0.001,0.006 -0.001,0.01 -0.002,0.016 -10e-4,0.002 -10e-4,0.005 -10e-4,0.007 -10e-4,0.005 -10e-4,0.009 -0.002,0.014 0,0.003 -10e-4,0.006 -10e-4,0.009 -10e-4,0.004 -10e-4,0.009 -0.002,0.014 0,0.003 -10e-4,0.006 -10e-4,0.009 -10e-4,0.005 -10e-4,0.008 -0.002,0.013 0,0.003 -10e-4,0.007 -10e-4,0.01 -10e-4,0.005 -10e-4,0.008 -0.002,0.012 0,0.004 0,0.008 -10e-4,0.012 0,0.003 -10e-4,0.007 -10e-4,0.011 -0.001,0.004 -0.001,0.008 -0.002,0.012 0,0.003 -10e-4,0.008 -10e-4,0.011 -0.001,0.004 -0.001,0.008 -0.002,0.012 0,0.004 -10e-4,0.006 -10e-4,0.01 -0.001,0.005 -0.001,0.01 -0.002,0.015 0,0.003 -10e-4,0.005 -10e-4,0.008 -0.001,0.006 -0.001,0.012 -0.002,0.018 0,0.002 0,0.003 -10e-4,0.005 -0.002,0.016 -0.004,0.031 -0.005,0.047 0,10e-4 -10e-4,0.004 -10e-4,0.005 -0.001,0.006 -0.001,0.012 -0.002,0.018 l -10e-4,0.007 c -0.001,0.005 -0.001,0.011 -0.002,0.016 0,0.003 -10e-4,0.005 -10e-4,0.008 0,0.005 -0.001,0.01 -0.002,0.015 0,0.002 0,0.006 -10e-4,0.008 0,0.005 -0.001,0.011 -0.001,0.016 -10e-4,0.002 -10e-4,0.005 -10e-4,0.007 -10e-4,0.006 -0.002,0.011 -0.002,0.017 -10e-4,0.002 -10e-4,0.004 -10e-4,0.006 -10e-4,0.006 -10e-4,0.012 -0.002,0.018 0,0.002 0,0.003 -10e-4,0.005 0,0.007 -10e-4,0.014 -0.002,0.02 0,0.002 0,0.002 0,0.003 -10e-4,0.007 -0.002,0.014 -0.003,0.022 0,10e-4 0,10e-4 0,0.002 -0.004,0.031 -0.007,0.063 -0.011,0.094 0,0.001 0,0.004 0,0.005 -10e-4,0.006 -0.002,0.013 -0.002,0.019 0,0.001 -10e-4,0.003 -10e-4,0.004 -10e-4,0.007 -10e-4,0.013 -0.002,0.02 0,0.002 0,0.002 0,0.004 -10e-4,0.007 -0.002,0.013 -0.003,0.02 0,0.002 0,0.002 0,0.004 -10e-4,0.006 -10e-4,0.012 -0.002,0.019 0,0.002 0,0.003 -0.001,0.005 0,0.006 -10e-4,0.013 -0.002,0.02 0,0 0,0.002 0,0.003 -0.001,0.007 -0.002,0.015 -0.003,0.022 v 0.001 c -0.003,0.032 -0.006,0.064 -0.01,0.096 0,0.001 0,0.002 0,0.003 -10e-4,0.007 -10e-4,0.013 -0.002,0.02 0,0.002 0,0.004 -0.001,0.006 0,0.005 -10e-4,0.011 -10e-4,0.016 -10e-4,0.003 -10e-4,0.005 -10e-4,0.008 -0.001,0.006 -0.001,0.011 -0.002,0.016 0,0.002 0,0.005 0,0.007 -10e-4,0.006 -10e-4,0.011 -0.002,0.016 0,0.003 -10e-4,0.006 -10e-4,0.008 0,0.006 -10e-4,0.011 -10e-4,0.017 -0.001,0.002 -0.001,0.004 -0.001,0.006 -10e-4,0.006 -10e-4,0.011 -0.002,0.017 0,0.003 0,0.004 0,0.007 -0.001,0.006 -0.002,0.013 -0.002,0.019 0,10e-4 -10e-4,0.003 -10e-4,0.004 0,0.008 -0.001,0.015 -0.002,0.023 v 0 c -10e-4,0.008 -10e-4,0.016 -0.002,0.024 0,10e-4 -10e-4,0.004 -10e-4,0.005 0,0.006 -10e-4,0.012 -10e-4,0.018 -0.001,0.004 -0.001,0.006 -0.001,0.01 -10e-4,0.004 -10e-4,0.009 -0.002,0.013 0,0.004 0,0.007 -0.001,0.011 0,0.004 0,0.008 -10e-4,0.012 0,0.004 -10e-4,0.008 -10e-4,0.012 0,0.003 -0.001,0.007 -0.001,0.011 0,0.004 -10e-4,0.009 -10e-4,0.012 0,0.004 -10e-4,0.007 -10e-4,0.01 0,0.004 -0.001,0.009 -0.001,0.014 0,0.003 -10e-4,0.006 -10e-4,0.009 -10e-4,0.005 -10e-4,0.009 -10e-4,0.014 -10e-4,0.003 -10e-4,0.005 -10e-4,0.008 -0.001,0.006 -0.001,0.01 -0.002,0.016 0,10e-4 0,0.003 0,0.005 -0.004,0.043 -0.008,0.085 -0.011,0.129 l -9.361,-0.804 c 0.105,-1.22 0.267,-2.448 0.483,-3.65 l 9.247,1.66 c -0.028,0.156 -0.048,0.314 -0.074,0.47 0.207,-1.266 0.493,-2.506 0.851,-3.714 -0.05,0.166 -0.104,0.33 -0.151,0.497 l -9.054,-2.509 c 0.327,-1.181 0.714,-2.36 1.149,-3.506 l 8.783,3.338 c -0.023,0.06 -0.042,0.122 -0.065,0.183 0.499,-1.338 1.086,-2.633 1.759,-3.875 -0.01,0.018 -0.021,0.037 -0.031,0.055 -0.007,0.013 -0.014,0.027 -0.022,0.04 v 10e-4 c -0.003,0.007 -0.007,0.013 -0.011,0.02 v 0.001 c -0.003,0.006 -0.007,0.012 -0.01,0.019 l -10e-4,10e-4 c -0.007,0.014 -0.014,0.027 -0.021,0.04 l -0.001,0.001 c -0.003,0.006 -0.007,0.013 -0.01,0.02 v 0 c -0.004,0.006 -0.007,0.013 -0.011,0.019 v 0.002 c -0.029,0.054 -0.058,0.108 -0.087,0.163 v 0 c -0.007,0.014 -0.014,0.027 -0.021,0.041 0,0 0,0.001 -10e-4,0.002 -0.003,0.006 -0.006,0.012 -0.009,0.018 -0.001,0 -0.002,0.002 -0.002,0.003 -0.003,0.005 -0.006,0.011 -0.009,0.017 0,10e-4 -10e-4,0.002 -0.002,0.004 -0.003,0.005 -0.006,0.011 -0.008,0.016 -10e-4,0.002 -10e-4,0.002 -0.002,0.004 -0.003,0.005 -0.006,0.011 -0.009,0.016 -10e-4,0.002 -10e-4,0.003 -0.002,0.005 -0.003,0.005 -0.005,0.01 -0.008,0.015 -10e-4,0.002 -0.002,0.004 -0.003,0.006 -0.002,0.004 -0.005,0.009 -0.007,0.014 -0.001,0.002 -0.003,0.005 -0.004,0.006 -0.002,0.005 -0.004,0.01 -0.007,0.014 -10e-4,0.002 -0.002,0.005 -0.003,0.007 -0.002,0.004 -0.005,0.009 -0.007,0.013 -10e-4,0.003 -0.002,0.005 -0.004,0.007 -0.002,0.005 -0.004,0.009 -0.006,0.013 -0.002,0.003 -0.003,0.005 -0.004,0.007 -0.002,0.005 -0.004,0.009 -0.007,0.013 -10e-4,0.003 -0.002,0.005 -0.003,0.008 -0.003,0.004 -0.005,0.009 -0.007,0.013 -0.002,0.003 -0.002,0.004 -0.004,0.007 -0.002,0.004 -0.004,0.009 -0.007,0.014 -10e-4,10e-4 -0.002,0.004 -0.003,0.006 -0.003,0.006 -0.006,0.011 -0.008,0.016 -10e-4,10e-4 -0.002,0.003 -0.002,0.004 -0.004,0.007 -0.007,0.013 -0.01,0.02 h -0.001 c -0.007,0.014 -0.014,0.028 -0.02,0.041 -0.001,10e-4 -0.001,0.003 -0.002,0.003 -0.003,0.006 -0.006,0.012 -0.009,0.018 -10e-4,0.001 -10e-4,0.003 -0.002,0.005 -0.003,0.005 -0.005,0.01 -0.008,0.015 -0.001,0.002 -0.003,0.005 -0.003,0.007 -0.003,0.004 -0.005,0.009 -0.007,0.013 -10e-4,0.003 -0.003,0.005 -0.004,0.008 -0.002,0.004 -0.004,0.008 -0.006,0.012 -10e-4,0.003 -0.003,0.006 -0.004,0.009 -0.002,0.004 -0.004,0.008 -0.006,0.012 -0.002,0.002 -0.003,0.005 -0.004,0.007 -0.002,0.004 -0.005,0.009 -0.007,0.013 -10e-4,0.002 -0.003,0.006 -0.004,0.008 -0.002,0.004 -0.004,0.008 -0.006,0.012 -10e-4,0.002 -0.003,0.006 -0.004,0.009 -0.002,0.004 -0.004,0.007 -0.006,0.011 -0.002,0.004 -0.002,0.006 -0.004,0.009 -0.002,0.004 -0.004,0.008 -0.006,0.012 -0.002,0.003 -0.002,0.005 -0.004,0.008 -0.002,0.004 -0.004,0.008 -0.006,0.012 -0.002,0.003 -0.003,0.005 -0.005,0.009 -0.001,0.004 -0.003,0.007 -0.005,0.011 -10e-4,0.003 -0.003,0.007 -0.005,0.009 -10e-4,0.004 -0.003,0.008 -0.005,0.012 -0.002,0.003 -0.003,0.006 -0.005,0.008 -0.002,0.004 -0.004,0.009 -0.006,0.013 -10e-4,0.002 -0.002,0.005 -0.004,0.007 -0.002,0.005 -0.004,0.009 -0.006,0.013 -0.001,0.003 -0.002,0.005 -0.004,0.008 -0.002,0.005 -0.004,0.01 -0.007,0.014 -10e-4,0.002 -0.002,0.004 -0.002,0.006 -0.003,0.006 -0.006,0.011 -0.009,0.017 0,10e-4 -0.001,0.002 -0.001,0.003 -0.004,0.007 -0.008,0.015 -0.011,0.022 l -8.436,-4.136 c 0.538,-1.098 1.135,-2.184 1.773,-3.23 l 8.019,4.896 c -0.009,0.014 -0.017,0.028 -0.025,0.042 0.506,-0.833 1.052,-1.64 1.634,-2.419 -0.011,0.014 -0.022,0.028 -0.032,0.042 l -7.536,-5.611 c 0.729,-0.979 1.513,-1.937 2.33,-2.846 l 6.99,6.277 c -0.002,0.002 -0.004,0.004 -0.006,0.006 -0.002,0.003 -0.006,0.007 -0.008,0.01 -0.002,0.002 -0.004,0.004 -0.007,0.007 -0.01,0.012 -0.023,0.026 -0.033,0.038 -0.002,10e-4 -0.003,0.003 -0.005,0.004 -0.003,0.004 -0.007,0.008 -0.01,0.012 -10e-4,0.002 -0.003,0.003 -0.004,0.005 -0.004,0.004 -0.007,0.007 -0.01,0.01 -0.002,0.003 -0.004,0.005 -0.005,0.007 -0.004,0.004 -0.007,0.007 -0.01,0.01 -0.002,0.003 -0.003,0.005 -0.005,0.007 -0.003,0.003 -0.006,0.006 -0.009,0.01 -0.002,0.002 -0.004,0.004 -0.006,0.006 -0.003,0.004 -0.006,0.007 -0.009,0.011 -0.002,0.002 -0.004,0.004 -0.006,0.006 -0.003,0.003 -0.006,0.007 -0.009,0.01 -0.002,0.002 -0.004,0.005 -0.006,0.007 -0.003,0.003 -0.006,0.007 -0.009,0.01 -0.002,0.002 -0.004,0.005 -0.006,0.007 -0.003,0.004 -0.005,0.006 -0.008,0.009 -0.002,0.003 -0.005,0.005 -0.007,0.008 -0.003,0.004 -0.005,0.006 -0.008,0.009 -0.002,0.003 -0.005,0.005 -0.007,0.008 -0.002,0.003 -0.005,0.006 -0.008,0.009 -0.002,0.002 -0.004,0.005 -0.007,0.008 -0.002,0.003 -0.005,0.006 -0.008,0.009 -0.002,0.002 -0.004,0.005 -0.006,0.008 -0.003,0.002 -0.006,0.006 -0.009,0.009 -0.002,0.002 -0.004,0.004 -0.006,0.007 -0.003,0.004 -0.006,0.007 -0.009,0.01 -0.002,0.002 -0.004,0.004 -0.005,0.007 -0.004,0.003 -0.006,0.006 -0.009,0.01 -0.002,0.002 -0.004,0.004 -0.006,0.006 -0.003,0.004 -0.006,0.007 -0.009,0.011 -0.002,0.002 -0.004,0.004 -0.006,0.006 -0.002,0.003 -0.006,0.008 -0.009,0.011 -0.002,0.002 -0.003,0.004 -0.005,0.005 -0.004,0.005 -0.006,0.008 -0.01,0.012 -0.001,0.001 -0.002,0.003 -0.003,0.004 -0.004,0.004 -0.008,0.008 -0.012,0.013 -0.001,0.001 -0.002,0.003 -0.003,0.004 -0.004,0.004 -0.008,0.009 -0.012,0.013 0,0 -10e-4,0.001 -10e-4,0.002 -0.005,0.005 -0.009,0.01 -0.013,0.015 0,0 -10e-4,0 -10e-4,0 -0.028,0.033 -0.056,0.065 -0.084,0.098 0,0 -10e-4,10e-4 -0.002,0.002 -0.004,0.005 -0.008,0.01 -0.012,0.015 -10e-4,0 -0.002,0.001 -0.002,0.002 -0.004,0.004 -0.007,0.008 -0.011,0.013 -0.001,10e-4 -0.003,0.003 -0.004,0.004 -0.004,0.005 -0.008,0.009 -0.012,0.013 0,0.002 -10e-4,0.002 -0.002,0.003 -0.004,0.005 -0.008,0.01 -0.012,0.014 -0.001,0.001 -0.002,0.002 -0.003,0.004 -0.004,0.004 -0.007,0.008 -0.011,0.013 -10e-4,0.001 -0.002,0.002 -0.003,0.004 -0.003,0.003 -0.008,0.008 -0.011,0.012 -0.001,0.002 -0.003,0.003 -0.004,0.005 -0.003,0.004 -0.007,0.009 -0.01,0.012 -0.002,0.002 -0.003,0.003 -0.004,0.005 -0.004,0.004 -0.007,0.008 -0.011,0.012 -10e-4,0.002 -0.002,0.003 -0.004,0.005 -0.003,0.004 -0.007,0.008 -0.01,0.012 -0.002,0.002 -0.003,0.003 -0.004,0.005 -0.004,0.004 -0.007,0.008 -0.011,0.012 -0.001,0.002 -0.002,0.003 -0.004,0.005 -0.003,0.004 -0.007,0.008 -0.01,0.012 -10e-4,0.002 -0.002,0.003 -0.003,0.004 -0.004,0.004 -0.008,0.009 -0.012,0.014 -10e-4,0.001 -0.002,0.002 -0.003,0.003 -0.003,0.004 -0.008,0.009 -0.011,0.013 -10e-4,0.002 -0.002,0.003 -0.003,0.004 -0.004,0.004 -0.008,0.009 -0.011,0.013 -0.001,0.002 -0.002,0.003 -0.003,0.004 -0.005,0.005 -0.008,0.009 -0.012,0.014 -10e-4,0 -10e-4,10e-4 -10e-4,10e-4 -0.005,0.006 -0.009,0.01 -0.014,0.016 0,0 0,0 0,10e-4 -0.057,0.068 -0.115,0.137 -0.171,0.205 0.89,-1.079 1.857,-2.093 2.885,-3.041 -0.023,0.022 -0.05,0.041 -0.073,0.063 l -6.388,-6.89 c 0.896,-0.831 1.841,-1.63 2.809,-2.375 l 5.73,7.445 c -0.054,0.042 -0.102,0.091 -0.156,0.133 0.913,-0.713 1.864,-1.38 2.856,-1.987 -0.13,0.08 -0.261,0.158 -0.39,0.24 l -5.024,-7.939 c 1.035,-0.655 2.111,-1.269 3.201,-1.824 l 4.271,8.368 c -0.095,0.048 -0.186,0.104 -0.28,0.153 0.999,-0.523 2.031,-0.991 3.091,-1.404 -0.08,0.032 -0.165,0.055 -0.245,0.088 l -3.479,-8.728 c 1.138,-0.454 2.311,-0.859 3.486,-1.206 l 2.656,9.013 c -0.093,0.027 -0.186,0.055 -0.279,0.083 -10e-4,0.001 -0.002,0.001 -0.003,0.001 -0.006,0.002 -0.012,0.004 -0.018,0.006 -0.003,10e-4 -0.004,10e-4 -0.007,0.002 -0.005,10e-4 -0.01,0.003 -0.015,0.004 -0.003,0.001 -0.005,0.002 -0.008,0.003 -0.004,0.001 -0.009,0.003 -0.013,0.004 -0.003,0.001 -0.007,0.002 -0.01,0.003 -0.004,0.001 -0.008,0.002 -0.012,0.004 -0.003,10e-4 -0.007,0.002 -0.011,0.003 -0.003,10e-4 -0.007,0.002 -0.01,0.003 -0.004,10e-4 -0.009,0.003 -0.012,0.004 -0.003,0.001 -0.006,0.002 -0.009,0.003 -0.005,0.001 -0.009,0.002 -0.013,0.004 -0.003,10e-4 -0.005,10e-4 -0.008,0.002 -0.002,0.001 -0.005,0.002 -0.007,0.002 1.299,-0.404 2.639,-0.716 4.006,-0.945 -0.279,0.046 -0.558,0.09 -0.834,0.144 l -1.81,-9.22 c 1.199,-0.235 2.425,-0.417 3.644,-0.542 l 0.953,9.347 c -0.491,0.05 -0.978,0.113 -1.462,0.186 1.5,-0.226 3.036,-0.345 4.6,-0.345 h -0.021 -0.006 -0.018 -0.005 -0.021 -0.002 c -0.072,0 -0.145,0.001 -0.217,0.001 h -0.011 c -0.003,0.001 -0.005,0.001 -0.007,0.001 -0.006,0 -0.011,0 -0.018,0 l -0.098,-9.395 0.426,-0.002 c 1.08,0 2.171,0.043 3.243,0.13 l -0.754,9.365 c -0.107,-0.009 -0.217,-0.008 -0.325,-0.016 1.359,0.096 2.697,0.27 4.002,0.537 -0.003,0 -0.006,-0.001 -0.009,-0.001 -0.002,-0.001 -0.003,-0.001 -0.005,-0.002 -0.005,-0.001 -0.012,-0.002 -0.017,-0.003 -0.002,0 -0.003,-0.001 -0.005,-0.001 -0.006,-10e-4 -0.012,-0.002 -0.017,-0.004 -0.002,0 -0.003,0 -0.005,-0.001 -0.006,-0.001 -0.012,-0.002 -0.018,-0.003 -0.001,0 -0.002,0 -0.003,-0.001 -0.006,-10e-4 -0.014,-0.002 -0.019,-0.004 -10e-4,0 -10e-4,0 -0.002,0 -0.259,-0.052 -0.52,-0.101 -0.782,-0.147 l 1.611,-9.256 c 1.208,0.21 2.419,0.48 3.6,0.8 l -2.46,9.067 c -0.062,-0.016 -0.125,-0.029 -0.187,-0.045 1.396,0.369 2.753,0.83 4.063,1.384 -0.006,-0.002 -0.011,-0.005 -0.016,-0.007 -0.001,0 -0.004,-0.001 -0.005,-0.002 -0.006,-0.002 -0.012,-0.005 -0.018,-0.007 -0.001,-0.001 -0.002,-0.001 -0.002,-0.001 -0.007,-0.003 -0.014,-0.006 -0.021,-0.009 h -0.001 c -0.035,-0.015 -0.071,-0.03 -0.107,-0.045 h -0.001 c -0.006,-0.003 -0.013,-0.006 -0.02,-0.009 h -0.002 c -0.006,-0.003 -0.013,-0.006 -0.019,-0.009 -0.001,0 -0.003,-0.001 -0.004,-0.001 -0.005,-0.002 -0.011,-0.005 -0.017,-0.007 -0.002,-0.001 -0.003,-0.002 -0.005,-0.002 -0.005,-0.002 -0.011,-0.005 -0.016,-0.007 -0.002,-0.001 -0.004,-0.001 -0.006,-0.002 -0.005,-0.003 -0.01,-0.005 -0.015,-0.007 -0.002,0 -0.004,-0.001 -0.006,-0.002 -0.005,-0.002 -0.01,-0.004 -0.015,-0.006 -0.002,-0.001 -0.005,-0.002 -0.006,-0.003 -0.005,-0.002 -0.011,-0.004 -0.016,-0.006 -0.001,-0.001 -0.004,-0.002 -0.006,-0.003 -0.005,-0.002 -0.01,-0.003 -0.015,-0.006 -0.001,0 -0.004,-0.001 -0.006,-0.002 -0.005,-0.002 -0.011,-0.005 -0.016,-0.007 -0.002,-0.001 -0.003,-0.001 -0.004,-0.002 -0.006,-0.002 -0.012,-0.004 -0.018,-0.007 -0.001,0 -0.003,-0.001 -0.004,-0.001 -0.006,-0.003 -0.013,-0.005 -0.019,-0.008 l -0.002,-10e-4 c -0.006,-0.002 -0.013,-0.005 -0.019,-0.008 -0.001,0 -0.001,0 -0.002,0 -0.253,-0.103 -0.508,-0.202 -0.765,-0.298 l 3.29,-8.8 c 1.147,0.428 2.288,0.916 3.391,1.45 l -4.09,8.458 c -0.012,-0.006 -0.023,-0.011 -0.035,-0.017 0.879,0.424 1.735,0.889 2.565,1.392 -0.018,-0.011 -0.035,-0.022 -0.053,-0.033 l 4.853,-8.045 c 1.046,0.631 2.076,1.319 3.061,2.044 l -5.571,7.566 c -0.126,-0.093 -0.258,-0.178 -0.386,-0.269 0.973,0.693 1.908,1.437 2.791,2.236 -0.071,-0.065 -0.142,-0.13 -0.215,-0.194 l 6.24,-7.024 c 0.913,0.811 1.799,1.674 2.635,2.565 l -6.856,6.424 c -0.223,-0.237 -0.449,-0.471 -0.68,-0.702 v 0 c -0.005,-0.005 -0.01,-0.01 -0.015,-0.015 -10e-4,-10e-4 -10e-4,-0.002 -0.002,-0.002 -0.005,-0.005 -0.01,-0.01 -0.014,-0.015 l -0.002,-10e-4 c -0.005,-0.005 -0.01,-0.01 -0.014,-0.015 l -0.002,-0.001 c -0.005,-0.005 -0.01,-0.01 -0.015,-0.015 l -10e-4,-0.002 c -0.005,-0.004 -0.01,-0.009 -0.014,-0.013 -0.002,-0.002 -0.002,-0.002 -0.003,-0.003 -0.005,-0.005 -0.009,-0.009 -0.014,-0.014 0,0 -10e-4,-10e-4 -0.002,-0.002 -0.005,-0.005 -0.009,-0.009 -0.014,-0.014 -10e-4,-0.001 -10e-4,-0.001 -0.002,-0.002 -0.005,-0.005 -0.01,-0.009 -0.014,-0.014 -10e-4,-10e-4 -0.002,-10e-4 -0.002,-0.002 -0.005,-0.004 -0.009,-0.009 -0.014,-0.013 0,-10e-4 -0.002,-0.003 -0.003,-0.003 -0.005,-0.005 -0.009,-0.009 -0.014,-0.014 0,-10e-4 -10e-4,-10e-4 -0.002,-0.002 -0.005,-0.005 -0.01,-0.01 -0.016,-0.016 v 0 c -0.032,-0.032 -0.065,-0.064 -0.098,-0.096 -0.001,-0.001 -0.002,-0.002 -0.004,-0.004 -0.004,-0.004 -0.008,-0.008 -0.012,-0.012 -0.001,-0.001 -0.002,-0.002 -0.004,-0.003 -0.004,-0.004 -0.008,-0.008 -0.012,-0.012 -0.001,-0.002 -0.003,-0.003 -0.004,-0.004 -0.004,-0.004 -0.008,-0.008 -0.012,-0.012 -0.002,-0.002 -0.003,-0.003 -0.005,-0.005 -0.004,-0.003 -0.007,-0.007 -0.011,-0.011 -0.002,-0.002 -0.004,-0.003 -0.006,-0.005 -0.004,-0.004 -0.007,-0.007 -0.01,-0.01 -0.002,-0.002 -0.004,-0.004 -0.006,-0.006 -0.004,-0.003 -0.007,-0.007 -0.01,-0.01 -0.003,-0.002 -0.005,-0.004 -0.007,-0.006 -0.003,-0.003 -0.006,-0.006 -0.009,-0.009 -0.002,-0.002 -0.006,-0.005 -0.008,-0.007 -0.003,-0.003 -0.005,-0.006 -0.008,-0.009 -0.003,-0.002 -0.006,-0.005 -0.008,-0.007 -0.003,-0.003 -0.006,-0.006 -0.009,-0.008 -0.002,-0.003 -0.004,-0.005 -0.007,-0.008 -0.003,-0.003 -0.006,-0.005 -0.009,-0.008 -0.002,-0.002 -0.005,-0.005 -0.008,-0.008 -0.002,-0.002 -0.005,-0.005 -0.008,-0.007 -0.002,-0.003 -0.005,-0.006 -0.008,-0.008 -0.003,-0.003 -0.005,-0.005 -0.008,-0.008 -0.003,-0.003 -0.005,-0.005 -0.009,-0.008 -0.002,-0.003 -0.004,-0.005 -0.007,-0.007 -0.002,-0.003 -0.006,-0.006 -0.009,-0.009 -0.002,-0.002 -0.004,-0.004 -0.007,-0.006 -0.003,-0.003 -0.006,-0.007 -0.009,-0.009 -0.002,-0.002 -0.004,-0.004 -0.007,-0.007 -0.002,-0.002 -0.007,-0.006 -0.009,-0.009 -0.002,-0.002 -0.004,-0.004 -0.006,-0.006 -0.004,-0.003 -0.007,-0.006 -0.011,-0.01 -0.002,-10e-4 -0.004,-0.003 -0.005,-0.005 -0.004,-0.003 -0.007,-0.006 -0.011,-0.009 -0.002,-0.003 -0.004,-0.005 -0.006,-0.007 -0.004,-0.003 -0.007,-0.006 -0.01,-0.009 -0.002,-0.002 -0.003,-0.003 -0.005,-0.005 -0.004,-0.004 -0.007,-0.007 -0.012,-0.011 0,0 -10e-4,-0.001 -10e-4,-0.002 -0.03,-0.028 -0.062,-0.058 -0.092,-0.086 -10e-4,-10e-4 -0.002,-0.002 -0.003,-0.003 -0.005,-0.004 -0.008,-0.008 -0.012,-0.012 -0.002,-0.001 -0.003,-0.002 -0.004,-0.003 -0.005,-0.004 -0.008,-0.008 -0.013,-0.012 -10e-4,-0.001 -0.002,-0.003 -0.004,-0.004 -0.004,-0.004 -0.008,-0.007 -0.012,-0.011 -10e-4,-0.002 -0.003,-0.003 -0.004,-0.004 -0.004,-0.004 -0.008,-0.007 -0.012,-0.011 -10e-4,-0.002 -0.003,-0.003 -0.004,-0.004 -0.005,-0.004 -0.008,-0.008 -0.013,-0.012 -10e-4,-0.001 -0.002,-0.002 -0.003,-0.003 -0.004,-0.004 -0.009,-0.008 -0.013,-0.012 -10e-4,-0.001 -0.002,-0.002 -0.004,-0.003 -0.004,-0.004 -0.008,-0.008 -0.012,-0.012 -10e-4,-0.001 -0.003,-0.003 -0.004,-0.003 -0.004,-0.004 -0.008,-0.008 -0.012,-0.012 -0.002,-0.002 -0.003,-0.003 -0.004,-0.004 -0.004,-0.004 -0.009,-0.008 -0.013,-0.012 -0.001,-0.001 -0.002,-0.002 -0.003,-0.003 -0.004,-0.003 -0.009,-0.008 -0.013,-0.012 -0.001,-0.001 -0.002,-0.002 -0.003,-0.003 -0.005,-0.004 -0.009,-0.008 -0.014,-0.012 -10e-4,-0.001 -10e-4,-0.002 -0.002,-0.003 -0.005,-0.004 -0.009,-0.008 -0.014,-0.012 -10e-4,-0.001 -0.002,-0.001 -0.002,-0.002 -0.004,-0.004 -0.011,-0.01 -0.015,-0.014 0,0 -10e-4,0 -10e-4,-0.001 -0.005,-0.004 -0.01,-0.009 -0.015,-0.014 h -10e-4 c -0.042,-0.039 -0.085,-0.077 -0.128,-0.116 1.358,1.238 2.6,2.599 3.717,4.061 -0.034,-0.044 -0.064,-0.092 -0.098,-0.136 0,-10e-4 -0.002,-0.003 -0.003,-0.004 -0.003,-0.005 -0.007,-0.009 -0.01,-0.014 -0.003,-0.003 -0.004,-0.004 -0.006,-0.007 -0.002,-0.003 -0.005,-0.007 -0.008,-0.01 -0.002,-0.003 -0.005,-0.007 -0.007,-0.01 -0.002,-0.003 -0.004,-0.005 -0.006,-0.007 -0.003,-0.004 -0.006,-0.008 -0.009,-0.012 -0.002,-0.002 -0.003,-0.004 -0.004,-0.006 -0.004,-0.004 -0.007,-0.008 -0.01,-0.012 -10e-4,-0.001 -0.002,-0.002 -0.003,-0.003 l 7.415,-5.771 c 0.751,0.965 1.466,1.976 2.124,3.005 l -7.912,5.066 c -0.002,-0.003 -0.004,-0.006 -0.006,-0.01 -0.002,-0.002 -0.004,-0.005 -0.005,-0.007 -0.003,-0.005 -0.007,-0.01 -0.01,-0.015 0,-10e-4 -0.002,-0.003 -0.002,-0.003 -0.021,-0.033 -0.042,-0.065 -0.062,-0.097 -0.005,-0.007 -0.009,-0.013 -0.013,-0.02 -0.004,-0.006 -0.008,-0.012 -0.012,-0.018 0,-0.001 -0.001,-0.002 -0.002,-0.003 -0.003,-0.005 -0.007,-0.011 -0.011,-0.017 0,0 0,-0.001 -0.001,-0.001 -0.004,-0.006 -0.007,-0.012 -0.011,-0.018 -0.001,-0.001 -0.001,-0.001 -0.001,-0.002 -0.004,-0.006 -0.008,-0.011 -0.012,-0.017 l -10e-4,-0.002 c -0.004,-0.006 -0.007,-0.011 -0.011,-0.017 -0.001,-0.001 -0.001,-0.002 -0.002,-0.003 -0.004,-0.005 -0.007,-0.011 -0.011,-0.017 l -0.001,-0.001 c -0.004,-0.006 -0.008,-0.012 -0.012,-0.018 v -0.001 c -0.009,-0.013 -0.017,-0.025 -0.025,-0.038 l -0.001,-10e-4 c -0.024,-0.037 -0.052,-0.071 -0.077,-0.108 0.762,1.146 1.451,2.344 2.055,3.592 -0.021,-0.042 -0.04,-0.085 -0.061,-0.127 0,-10e-4 0,-0.002 -10e-4,-0.003 -0.002,-0.005 -0.005,-0.011 -0.008,-0.016 0,-0.001 -10e-4,-0.003 -0.002,-0.004 -0.002,-0.005 -0.004,-0.01 -0.007,-0.015 -10e-4,-0.002 -0.002,-0.003 -0.003,-0.006 -0.002,-0.004 -0.005,-0.009 -0.007,-0.014 -10e-4,-0.002 -0.002,-0.003 -0.003,-0.006 -0.002,-0.004 -0.004,-0.009 -0.007,-0.013 -10e-4,-0.003 -0.002,-0.005 -0.003,-0.007 -0.002,-0.004 -0.004,-0.009 -0.006,-0.013 -0.002,-0.003 -0.003,-0.005 -0.004,-0.007 -0.002,-0.005 -0.004,-0.008 -0.006,-0.013 -10e-4,-0.002 -0.003,-0.005 -0.004,-0.008 -0.002,-0.004 -0.004,-0.008 -0.006,-0.012 -0.001,-0.003 -0.003,-0.005 -0.004,-0.008 -0.002,-0.004 -0.004,-0.008 -0.006,-0.012 -0.002,-0.003 -0.003,-0.006 -0.005,-0.009 -10e-4,-0.004 -0.003,-0.007 -0.005,-0.011 -0.002,-0.003 -0.003,-0.007 -0.005,-0.011 -0.002,-0.003 -0.003,-0.005 -0.005,-0.009 -0.002,-0.004 -0.004,-0.008 -0.006,-0.012 -10e-4,-0.002 -0.003,-0.006 -0.004,-0.008 -0.002,-0.005 -0.005,-0.01 -0.007,-0.015 -10e-4,-0.002 -0.002,-0.003 -0.003,-0.005 -0.059,-0.118 -0.119,-0.236 -0.18,-0.353 l 8.346,-4.316 c 0.562,1.088 1.081,2.215 1.54,3.35 l -8.709,3.526 c -0.053,-0.133 -0.109,-0.265 -0.164,-0.396 0.573,1.361 1.052,2.771 1.426,4.224 0,-0.001 -0.001,-0.003 -0.001,-0.004 C -0.915,-5.935 -0.916,-5.938 -0.916,-5.941 -0.918,-5.945 -0.919,-5.949 -0.92,-5.954 -0.921,-5.957 -0.921,-5.96 -0.922,-5.963 -0.923,-5.968 -0.924,-5.971 -0.925,-5.976 -0.926,-5.979 -0.927,-5.982 -0.928,-5.985 -0.929,-5.989 -0.93,-5.994 -0.931,-5.998 -0.932,-6.001 -0.933,-6.004 -0.934,-6.007 -0.935,-6.012 -0.936,-6.015 -0.937,-6.02 -0.938,-6.023 -0.938,-6.026 -0.939,-6.028 -0.94,-6.033 -0.941,-6.037 -0.943,-6.042 c 0,-0.003 -0.001,-0.005 -0.002,-0.008 -0.002,-0.009 -0.004,-0.017 -0.007,-0.026 0,-0.003 -0.001,-0.006 -0.002,-0.009 C -0.955,-6.089 -0.956,-6.093 -0.957,-6.097 -0.958,-6.1 -0.959,-6.104 -0.96,-6.107 -0.961,-6.111 -0.962,-6.115 -0.963,-6.119 -0.964,-6.122 -0.965,-6.126 -0.966,-6.129 -0.967,-6.133 -0.968,-6.137 -0.969,-6.14 -0.97,-6.144 -0.97,-6.148 -0.971,-6.151 -0.972,-6.155 -0.973,-6.158 -0.974,-6.162 -0.975,-6.166 -0.976,-6.17 -0.977,-6.174 -0.978,-6.177 -0.979,-6.181 -0.98,-6.184 -0.981,-6.188 -0.982,-6.192 -0.983,-6.196 -0.984,-6.199 -0.985,-6.202 -0.986,-6.206 -0.987,-6.21 -0.988,-6.214 -0.989,-6.218 -0.99,-6.222 -0.991,-6.224 -0.992,-6.228 -0.993,-6.232 -0.994,-6.236 -0.995,-6.24 -0.996,-6.243 -0.997,-6.247 -0.998,-6.25 -0.999,-6.254 -1,-6.259 -1.001,-6.263 -1.002,-6.266 -1.003,-6.269 -1.004,-6.272 -1.005,-6.276 -1.006,-6.281 -1.007,-6.285 -1.008,-6.288 -1.009,-6.291 -1.01,-6.294 c -10e-4,-0.005 -0.002,-0.009 -0.004,-0.014 0,-0.003 -10e-4,-0.005 -0.002,-0.008 -10e-4,-0.006 -0.003,-0.012 -0.004,-0.018 -10e-4,0 -10e-4,-0.003 -0.002,-0.004 -0.008,-0.03 -0.016,-0.06 -0.024,-0.09 l -10e-4,-0.001 c -0.002,-0.007 -0.003,-0.014 -0.005,-0.021 -10e-4,-10e-4 -10e-4,-0.002 -10e-4,-0.003 -0.002,-0.006 -0.004,-0.013 -0.006,-0.019 0,-0.002 0,-0.003 -0.001,-0.005 -10e-4,-0.006 -0.003,-0.012 -0.005,-0.018 0,-0.002 0,-0.002 -0.001,-0.004 -0.002,-0.006 -0.003,-0.013 -0.005,-0.019 -0.001,-0.002 -0.001,-0.001 -0.001,-0.003 -0.002,-0.007 -0.004,-0.013 -0.006,-0.02 V -6.543 C -1.08,-6.55 -1.082,-6.557 -1.084,-6.564 v -0.001 c -0.051,-0.179 -0.102,-0.356 -0.155,-0.533 l 8.997,-2.704 c 0.353,1.173 0.655,2.377 0.897,3.578 l -9.21,1.859 c -0.003,-0.017 -0.007,-0.034 -0.011,-0.052 0.198,0.972 0.35,1.96 0.453,2.963 -0.004,-0.042 -0.008,-0.085 -0.012,-0.127 z"
         style="fill:#ebf0f2;fill-opacity:1;fill-rule:nonzero;stroke:none"
         transform="matrix(1.3333333,0,0,-1.3333333,241.512,859.19787)"
         clip-path="url(#clipPath197)" />
    </g>
  </g>
</svg>
