<?xml version="1.0" encoding="UTF-8"?><svg id="Iconos" xmlns="http://www.w3.org/2000/svg" viewBox="0 0 790.03 787.9"><defs><style>.cls-1{fill:#bcc3cf;}.cls-2{fill:#fc0200;}</style></defs><circle class="cls-2" cx="395.58" cy="394.28" r="353.48"/><path class="cls-1" d="M395.58.66c-4.45,0-8.95.08-13.39.22l1.34,40.12c1.18-.04,2.37-.07,3.55-.1,0,0,.01,0,.02,0,.06,0,.11,0,.17,0h.01c.07,0,.11,0,.18,0,0,0,.02,0,.02,0,.05,0,.1,0,.15,0,.02,0,.03,0,.05,0,.04,0,.09,0,.13,0,.02,0,.03,0,.05,0,.05,0,.11,0,.16,0,.02,0,.05,0,.07,0,.04,0,.06,0,.1,0,.03,0,.05,0,.08,0,.02,0,.06,0,.08,0,.03,0,.06,0,.08,0,.04,0,.09,0,.12,0,.03,0,.07,0,.1,0,.04,0,.05,0,.08,0,.03,0,.06,0,.09,0,.02,0,.05,0,.08,0,.03,0,.06,0,.09,0,.02,0,.05,0,.07,0,.06,0,.11,0,.17,0,.01,0,.05,0,.06,0,.03,0,.07,0,.1,0,.02,0,.03,0,.05,0,.04,0,.07,0,.11,0t.02,0c.08,0,.15,0,.23,0,.01,0,.04,0,.05,0,.04,0,.07,0,.11,0,.02,0,.03,0,.05,0,.04,0,.07,0,.11,0,.01,0,.03,0,.05,0,.07,0,.14,0,.2,0,.01,0,.04,0,.05,0,.03,0,.07,0,.1,0,.02,0,.03,0,.06,0,.03,0,.07,0,.1,0,.01,0,.05,0,.06,0,.06,0,.12,0,.18,0,.02,0,.05,0,.07,0,.03,0,.07,0,.1,0,.02,0,.04,0,.06,0,.03,0,.07,0,.1,0,.01,0,.05,0,.06,0,.06,0,.11,0,.17,0,.02,0,.05,0,.07,0,.03,0,.07,0,.1,0,.02,0,.03,0,.06,0,.03,0,.07,0,.1,0,.01,0,.05,0,.06,0,.05,0,.11,0,.16,0,.02,0,.06,0,.09,0,.03,0,.06,0,.1,0,.02,0,.04,0,.07,0,.03,0,.07,0,.1,0,.02,0,.04,0,.06,0,.05,0,.11,0,.16,0,.02,0,.06,0,.09,0,.03,0,.06,0,.09,0,.02,0,.05,0,.08,0,.03,0,.06,0,.09,0,.04,0,.05,0,.09,0,.03,0,.05,0,.08,0,.05,0,.1,0,.15,0,.02,0,.05,0,.07,0,.04,0,.06,0,.09,0,.03,0,.05,0,.08,0,.04,0,.06,0,.09,0,.03,0,.05,0,.08,0,.05,0,.11,0,.16,0,.02,0,.04,0,.05,0,.04,0,.07,0,.11,0,.03,0,.05,0,.08,0,.04,0,.06,0,.1,0h.07s.11,0,.16,0h.04s.08,0,.13,0h.07s.07,0,.11,0h.06c.06,0,.11,0,.16,0h.22s.07,0,.12,0h.22V.66h0ZM368.82,1.55c-4.44.3-8.93.68-13.35,1.12l4.05,39.94c.19-.02.37-.04.56-.06,0,0,0,0,0,0,.06,0,.12-.01.18-.02,0,0,0,0,.01,0,.05,0,.12-.01.17-.02.02,0,.04,0,.06,0,.03,0,.07,0,.1,0,.03,0,.06,0,.08,0,.02,0,.04,0,.06,0,3.58-.35,7.17-.65,10.77-.89l-2.69-40.05h0ZM342.15,4.26c-4.41.6-8.87,1.28-13.25,2.03l6.76,39.57c2.4-.41,4.82-.8,7.23-1.16,0,0,.01,0,.02,0,.05,0,.1-.01.15-.02.02,0,.03,0,.05,0,.05,0,.09-.01.13-.02.03,0,.06,0,.09-.01.02,0,.07-.01.1-.01.03,0,.06,0,.1-.01.02,0,.03,0,.05,0,1.33-.2,2.66-.38,3.99-.57l-5.4-39.77h0ZM315.71,8.77c-4.36.9-8.77,1.89-13.09,2.93l9.45,39.01c1.46-.35,2.91-.7,4.39-1.03,0,0,0,0,.01,0,.06-.01.11-.02.16-.04,0,0,.02,0,.02,0,.11-.03.22-.05.33-.08.02,0,.04,0,.06-.01.03,0,.08-.02.11-.02.02,0,.04,0,.06-.01.04,0,.1-.02.15-.03.02,0,.05-.01.07-.02.03,0,.05-.01.08-.02.03,0,.06-.01.08-.02.02,0,.05-.01.08-.02.05-.01.1-.02.15-.03.02,0,.05-.01.07-.02.03,0,.06-.01.09-.02.02,0,.04,0,.06-.01l.1-.02s.04,0,.05-.01c.07-.01.13-.03.2-.04.01,0,.02,0,.04,0,.04,0,.07-.02.11-.02.02,0,.02,0,.04,0,.12-.03.25-.05.37-.08h.02s.08-.02.13-.03h0c1.57-.35,3.14-.68,4.71-1.01l-8.11-39.31h0ZM289.64,15.09c-4.29,1.2-8.62,2.48-12.86,3.83l12.1,38.27c2.77-.88,5.55-1.72,8.35-2.53.01,0,.02,0,.03,0,.11-.03.23-.07.34-.1.02,0,.03,0,.05-.01l.09-.02s.05-.02.09-.02c.02,0,.05-.01.07-.02.04-.01.1-.03.15-.04.02,0,.04,0,.05-.02.04-.01.07-.02.12-.03h.04c.11-.04.23-.08.34-.11,0,0,0,0,.01,0,.6-.17,1.21-.34,1.81-.51l-10.78-38.66h0ZM264.05,23.18c-4.2,1.49-8.43,3.07-12.57,4.7l14.7,37.35c3.72-1.46,7.5-2.88,11.28-4.22l-13.41-37.83h0ZM239.08,33.01c-4.08,1.77-8.19,3.64-12.22,5.55l17.22,36.26c.82-.39,1.63-.77,2.45-1.15.02,0,.04-.02.06-.03l.07-.03s.07-.03.11-.05c.01,0,.02-.01.04-.02.05-.02.11-.05.16-.07,0,0,0,0,.01,0,2.67-1.24,5.36-2.45,8.06-3.62l-15.97-36.83h0ZM214.85,44.52c-3.95,2.05-7.92,4.19-11.8,6.37l19.66,35c2.42-1.36,4.87-2.7,7.33-4h.01c.1-.06.21-.12.31-.17.02-.01.04-.02.06-.03.03-.01.05-.03.08-.04.02-.01.04-.02.06-.03.04-.02.08-.04.12-.06.03-.02.06-.03.09-.05.02,0,.03-.02.05-.03.04-.02.08-.04.11-.06l.03-.02s.1-.05.15-.08h.03s.09-.06.13-.08c0,0,.02,0,.02-.01.11-.06.21-.11.32-.17,0,0,0,0,.01,0,.55-.29,1.11-.58,1.66-.87l-18.45-35.65h0ZM191.47,57.66c-3.8,2.31-7.62,4.72-11.34,7.16l22,33.58c3.36-2.2,6.75-4.34,10.18-6.43l-20.84-34.31h0ZM169.04,72.35c-3.63,2.56-7.28,5.22-10.82,7.91l24.23,32.01c1.2-.91,2.4-1.81,3.61-2.7,0,0,0,0,0,0,.1-.07.19-.14.29-.21,0,0,.01,0,.02-.01.04-.03.09-.07.13-.09,0,0,.01,0,.02-.01.04-.03.1-.07.14-.1,0,0,.01,0,.02-.01.04-.03.08-.06.11-.08.01-.01.03-.02.05-.03.04-.03.06-.05.1-.07.02-.01.04-.03.06-.04.04-.03.07-.05.1-.08.02-.01.04-.03.06-.04.02-.01.05-.03.06-.05.02-.02.05-.03.07-.05.04-.03.07-.05.11-.08.02-.02.05-.03.07-.05.02-.01.04-.03.06-.04.03-.02.05-.04.08-.06,0,0,0,0,.02-.01.1-.07.2-.15.31-.22h0c1.4-1.02,2.81-2.03,4.23-3.03l-23.13-32.81h0ZM147.67,88.53c-3.45,2.8-6.9,5.7-10.26,8.62l26.34,30.29c1.3-1.13,2.61-2.26,3.93-3.37h0c.1-.09.2-.17.29-.25h.01s.06-.06.09-.09c0,0,.02-.02.03-.03l.15-.13s.02-.02.03-.03l.08-.06s.03-.03.05-.04c.02-.02.05-.04.07-.06.03-.02.07-.06.09-.08.02-.02.05-.04.07-.06.03-.02.05-.04.08-.07.02-.01.03-.03.05-.04.03-.03.08-.06.11-.09,0,0,.01,0,.02-.01.04-.04.09-.07.13-.11,0,0,.01-.01.02-.02.04-.04.09-.07.13-.11,0,0,0,0,0,0,.1-.08.19-.15.29-.24h0c1.15-.96,2.32-1.92,3.49-2.87l-25.3-31.16h0ZM127.45,106.11c-3.25,3.03-6.5,6.16-9.65,9.3l28.33,28.44c.77-.77,1.55-1.54,2.33-2.3,0,0,.02-.02.02-.02.08-.08.16-.16.24-.23.02-.02.03-.03.05-.05.02-.02.04-.04.06-.06.02-.02.04-.04.06-.06.03-.03.05-.05.08-.08.03-.03.05-.04.08-.08.02-.02.03-.03.05-.05.02-.02.05-.05.07-.07.01-.01.03-.03.04-.04.03-.03.08-.08.11-.11.01-.01.03-.03.04-.04.03-.03.05-.05.08-.08.01-.01.03-.03.04-.04.04-.04.07-.07.11-.11,0,0,.01-.01.02-.02.03-.03.07-.07.1-.1,0,0,.02-.02.03-.03.03-.03.08-.08.11-.11,0,0,0,0,.01-.01.04-.04.08-.08.12-.12,0,0,.02-.02.03-.03.04-.04.07-.06.11-.1,0,0,.01-.01.02-.02.05-.05.08-.07.12-.12,0,0,.01-.01.02-.02.04-.04.06-.06.1-.1,0,0,.02-.02.03-.03.08-.08.17-.16.24-.24,0,0,.02-.02.03-.03.04-.04.07-.07.11-.11,0,0,0,0,.01-.01.04-.04.09-.08.13-.12,0,0,.01-.01.02-.02.03-.03.08-.07.11-.1,0,0,.01-.01.02-.02.04-.04.09-.08.13-.12,0,0,0,0,0,0,.04-.04.08-.08.12-.11,0,0,.02-.01.02-.02.04-.04.08-.08.12-.12,0,0,0,0,0,0,.04-.04.09-.08.13-.12,0,0,.02-.02.02-.02.04-.04.07-.07.11-.1,0,0,.01-.01.02-.02.04-.04.08-.08.12-.12,0,0,.02-.02.03-.03.03-.03.06-.06.09-.09.01-.01.03-.03.04-.04.04-.04.07-.07.11-.11.01-.01.02-.02.03-.03.03-.03.05-.05.08-.08.02-.02.03-.03.05-.05.02-.02.05-.05.08-.07.01-.01.03-.03.04-.04.03-.03.07-.07.1-.1.02-.02.05-.04.07-.07.02-.02.03-.03.05-.04l.07-.07s.02-.02.03-.03c.05-.05.1-.09.14-.14.02-.02.02-.02.04-.03.03-.02.05-.05.08-.07,0,0,.02-.02.02-.02.05-.05.1-.1.15-.14,0,0,.02-.02.03-.03.03-.03.06-.05.08-.08h.02c.48-.47.96-.92,1.45-1.37l-27.35-29.38h0ZM108.46,125.02c-3.04,3.24-6.07,6.58-9,9.93l30.19,26.46c.89-1.01,1.78-2.01,2.67-3.01t.03-.03s.05-.05.07-.08c.03-.03.06-.07.09-.11.01-.01.02-.03.04-.04.02-.02.05-.06.07-.08.01-.02.03-.03.04-.05.04-.04.07-.08.11-.12,0,0,0,0,0,0,.04-.04.09-.1.12-.14,0,0,0,0,0,0,1.59-1.76,3.21-3.53,4.84-5.26l-29.27-27.46h0ZM90.8,145.18c-2.82,3.44-5.61,6.98-8.31,10.52l31.91,24.35c1.77-2.32,3.56-4.61,5.39-6.88.01-.02.02-.02.03-.04.02-.02.04-.05.06-.07.02-.03.03-.04.05-.07.02-.02.04-.05.06-.07.03-.03.06-.08.09-.11,0,0,.01-.02.02-.02.03-.04.07-.09.11-.13h0c.55-.69,1.1-1.36,1.66-2.04l-31.07-25.42h0ZM74.54,166.49c-2.58,3.63-5.13,7.35-7.58,11.06l33.49,22.13c1.82-2.75,3.67-5.47,5.56-8.16l.02-.02s.04-.06.06-.09c0,0,.02-.03.03-.04.03-.05.06-.09.09-.14.02-.03.03-.04.05-.06.02-.02.03-.04.05-.07.02-.03.03-.05.05-.07.01-.02.03-.04.04-.06.03-.05.06-.08.09-.13,0-.01.02-.03.03-.04.03-.04.05-.07.07-.11,0-.01.02-.02.02-.03.07-.1.13-.19.2-.28,0,0,0-.01.01-.02.15-.21.28-.4.43-.61l-32.72-23.25h0ZM59.76,188.85c-2.33,3.79-4.62,7.68-6.81,11.55l34.92,19.8c.5-.88.99-1.73,1.49-2.61,0,0,0,0,0-.01.09-.16.18-.32.28-.48,0,0,0,0,0,0,.06-.11.12-.21.18-.32,0,0,0,0,0-.01.06-.11.12-.21.18-.31h0c.03-.06.06-.1.08-.15v-.02s.07-.11.1-.15c0,0,0,0,0,0,.03-.05.05-.09.08-.14,0-.01.01-.02.02-.03.06-.1.12-.2.17-.3,0-.01.01-.02.02-.03.03-.05.05-.08.07-.13v-.02c.05-.06.07-.09.1-.15,0,0,0-.01.01-.02.03-.05.05-.08.07-.13,0-.01.01-.02.02-.04.03-.05.06-.1.09-.15,0,0,0,0,0,0,.03-.05.06-.1.09-.15,0,0,.01-.02.02-.03.03-.05.06-.1.09-.15,0,0,0,0,0,0,.03-.06.06-.1.09-.16,0,0,0,0,0,0,.03-.05.06-.09.08-.14,0,0,0-.02.01-.02.06-.11.12-.2.18-.31,0,0,0,0,0-.01.83-1.4,1.67-2.79,2.52-4.18l-34.22-20.97h0ZM46.53,212.19c-2.06,3.95-4.08,7.98-6.01,11.99l36.19,17.37c.32-.67.65-1.35.98-2.03,0,0,0,0,0-.01.05-.11.11-.22.16-.33,0,0,0,0,0-.01.05-.11.11-.22.16-.33,0,0,0-.01,0-.02.02-.05.05-.1.07-.15,0,0,0-.01,0-.02.05-.11.1-.21.16-.32,0,0,0-.01,0-.02.02-.05.05-.11.08-.16,0,0,0,0,0,0,.03-.06.05-.1.08-.16,0,0,0,0,0-.01.02-.05.05-.1.07-.15,0,0,0-.01,0-.02.05-.1.11-.22.16-.32,0,0,0-.02.01-.03.05-.11.11-.21.16-.32h0c.03-.06.05-.11.08-.17,0,0,0,0,0,0,.05-.11.11-.22.17-.33h0c.08-.18.16-.34.25-.51,0,0,0,0,0,0,.9-1.8,1.81-3.58,2.74-5.35l-35.57-18.59h0ZM34.93,236.37c-1.79,4.08-3.53,8.24-5.18,12.38l37.29,14.85c.98-2.45,1.98-4.88,3-7.31,0,0,0-.01,0-.02.02-.05.04-.09.06-.14,0-.01,0-.02.01-.03.02-.05.04-.09.06-.14,0-.02.02-.04.02-.06.02-.04.03-.06.04-.1.01-.02.02-.05.03-.07,0-.02.02-.05.03-.07.05-.11.09-.22.14-.32h0c.41-.95.81-1.9,1.23-2.84l-36.76-16.12h0ZM25,261.3c-1.5,4.19-2.96,8.47-4.32,12.71l38.22,12.25c.64-2,1.3-4,1.98-5.98v-.02s.03-.08.05-.11c0-.01,0-.02,0-.03.02-.06.04-.13.06-.19,0-.01.02-.05.02-.06.01-.03.02-.06.03-.1,0-.02.01-.03.02-.05.01-.03.02-.06.03-.09.01-.04.03-.09.05-.13,0-.02.02-.04.02-.07.01-.03.02-.07.03-.1,0-.02.01-.04.02-.06.01-.04.03-.09.05-.14,0,0,0-.01,0-.02.02-.05.04-.11.06-.16v-.02c.03-.05.04-.1.06-.16,0,0,0,0,0,0,.45-1.3.91-2.6,1.37-3.9l-37.78-13.56h0ZM16.81,286.85c-1.21,4.28-2.37,8.65-3.43,12.97l38.97,9.6c.23-.94.47-1.89.71-2.83h0c.03-.13.06-.24.09-.35,0-.03.01-.05.02-.08,0-.02.01-.05.02-.07,0-.03.02-.09.03-.12,0-.01,0-.02,0-.04.01-.05.03-.11.04-.16,0-.01,0-.02,0-.04.01-.04.02-.1.04-.14,0,0,0-.02,0-.03.03-.11.06-.24.09-.35,0,0,0,0,0,0,.35-1.34.7-2.66,1.06-4,0,0,0,0,0,0,.03-.11.07-.24.1-.35,0,0,0-.01,0-.02.01-.05.03-.11.04-.16,0,0,0,0,0,0,.02-.07.03-.11.05-.18,0,0,0,0,0,0,.01-.05.03-.11.04-.16,0,0,0-.02,0-.03.03-.11.06-.23.09-.34,0,0,0-.02,0-.03.01-.04.03-.11.04-.15,0,0,0-.01,0-.02.03-.11.07-.23.1-.34,0,0,0-.01,0-.02.02-.05.03-.11.04-.16,0,0,0,0,0-.01.03-.12.06-.23.1-.35,0,0,0-.01,0-.02.1-.35.2-.73.3-1.08l-38.62-10.93h0ZM10.39,312.91c-.92,4.36-1.77,8.79-2.54,13.18l39.54,6.91c.65-3.72,1.36-7.41,2.12-11.09h0c.01-.07.02-.11.03-.17,0,0,0-.02,0-.03.01-.06.02-.1.03-.16l.02-.07s0-.04.02-.08c0-.04.01-.07.02-.11v-.02s.02-.07.03-.11l-39.28-8.26h0ZM5.77,339.33c-.62,4.4-1.16,8.88-1.63,13.31l39.92,4.2c.21-2.01.44-3.99.68-5.99,0,0,0,0,0-.01,0-.06.01-.12.02-.18,0,0,0,0,0,0,0-.07.01-.11.02-.18,0,0,0-.02,0-.03,0-.05.01-.09.02-.14,0-.02,0-.04,0-.05,0-.03,0-.08.01-.11,0-.02,0-.04,0-.06,0-.05.01-.1.02-.15,0-.03,0-.05,0-.08,0-.03,0-.05.01-.08,0-.03,0-.06.01-.09,0-.01,0-.05,0-.06.01-.11.03-.23.04-.34,0-.02,0-.03,0-.05,0-.04,0-.08.01-.11h0c.02-.14.03-.28.05-.41v-.02c.03-.18.05-.36.07-.54h0c.02-.19.05-.37.07-.55h0c.02-.14.04-.27.05-.41h0c0-.05.01-.09.02-.13,0-.01,0-.03,0-.04.02-.11.03-.23.05-.34,0-.02,0-.05,0-.07,0-.03,0-.06.01-.09,0-.03,0-.06.01-.09,0-.02,0-.05,0-.07,0-.06.01-.1.02-.16,0-.01,0-.03,0-.04,0-.05.01-.1.02-.14,0,0,0-.02,0-.03.05-.37.1-.74.15-1.1l-39.75-5.56h0ZM2.97,365.99c-.32,4.43-.56,8.93-.72,13.37l40.11,1.5c.02-.51.04-1,.06-1.51h0s0-.12,0-.17c0-.02,0-.04,0-.07,0-.04,0-.05,0-.09,0-.03,0-.06,0-.1,0-.01,0-.03,0-.04.14-3.36.33-6.71.57-10.05l-40.04-2.85h0ZM1.97,392.75c0,.51,0,1.02,0,1.53,0,3.94.06,7.93.18,11.86l40.12-1.19c0-.06,0-.1,0-.16,0,0,0-.02,0-.02,0-.04,0-.09,0-.12,0-.02,0-.04,0-.06,0-.02,0-.07,0-.09,0-.02,0-.05,0-.07,0-.02,0-.04,0-.06,0-.03,0-.07,0-.1h0c-.07-2.51-.11-5.02-.13-7.54h0c0-.06,0-.1,0-.14v-.02c0-.18,0-.35,0-.53,0-.01,0-.02,0-.04v-.1s0-.03,0-.05c0-.03,0-.07,0-.1,0-.02,0-.03,0-.05,0-.03,0-.07,0-.1,0-.01,0-.05,0-.06,0-.03,0-.06,0-.09,0-.02,0-.06,0-.08,0-.05,0-.1,0-.14,0-.02,0-.05,0-.08,0-.03,0-.05,0-.08v-.08s0-.05,0-.07,0-.06,0-.09v-.07s0-.06,0-.09v-.16s0-.04,0-.06v-.15h0v-.16s0-.02,0-.03v-.14h0c0-.24,0-.46,0-.69,0-.02,0-.03,0-.05,0-.02,0-.05,0-.08,0-.07,0-.15,0-.22l-40.14-.15h0ZM42.82,416.98l-40.06,2.54c.28,4.44.64,8.93,1.07,13.35l39.95-3.89c-.05-.54-.1-1.07-.15-1.61v-.02s0-.07-.01-.11c0-.02,0-.04,0-.06,0-.03,0-.06,0-.09,0-.03,0-.1-.01-.13,0-.02,0-.05,0-.07,0-.03,0-.08-.01-.11,0-.02,0-.04,0-.06,0-.03,0-.09-.01-.12,0-.01,0-.03,0-.04-.01-.12-.02-.24-.03-.36,0,0,0-.01,0-.02-.08-.93-.16-1.86-.24-2.79,0,0,0,0,0-.01-.01-.13-.02-.24-.03-.37,0,0,0,0,0,0,0-.06,0-.11-.01-.17,0-.01,0-.02,0-.03,0-.05,0-.12-.01-.16,0,0,0,0,0-.01,0-.07,0-.11-.01-.18,0-.01,0-.02,0-.03,0-.05,0-.09-.01-.14,0-.02,0-.04,0-.06,0-.03,0-.09,0-.12,0-.02,0-.03,0-.05,0-.05,0-.11-.01-.16,0-.02,0-.04,0-.06,0-.03,0-.06,0-.1,0-.03,0-.05,0-.08,0-.04,0-.05,0-.09,0-.03,0-.07,0-.1,0-.03,0-.09,0-.12v-.1s-.01-.04-.01-.06c0-.04,0-.07,0-.11,0-.01,0-.03,0-.04,0-.13-.02-.26-.03-.39h0c-.09-1.22-.17-2.44-.25-3.66h0ZM45.16,440.94l-39.8,5.25c.58,4.41,1.25,8.88,1.98,13.26l39.59-6.6c-.24-1.41-.46-2.83-.68-4.25,0-.01,0-.03,0-.04,0-.03-.01-.09-.02-.13,0-.02,0-.03,0-.05,0-.05-.02-.11-.02-.15,0-.02,0-.04-.01-.07,0-.03,0-.06-.01-.09v-.09s-.02-.05-.02-.06c-.02-.12-.04-.24-.05-.36v-.02c-.33-2.2-.65-4.4-.94-6.61h0ZM49.12,464.69l-39.34,7.95c.88,4.37,1.85,8.78,2.88,13.11l39.05-9.3c-.04-.16-.08-.32-.11-.48h0s-.02-.09-.03-.13c0-.01,0-.02,0-.03-.01-.06-.03-.13-.05-.19,0-.02,0-.04-.01-.06,0-.03-.01-.05-.02-.08,0-.02-.02-.07-.02-.09,0-.02-.01-.04-.02-.07-.03-.11-.05-.22-.08-.33v-.03c-.02-.06-.03-.1-.04-.16,0,0,0,0,0,0-.3-1.28-.59-2.55-.87-3.84,0,0,0-.01,0-.02-.01-.06-.03-.12-.04-.17,0,0,0,0,0,0-.01-.06-.03-.12-.04-.17,0-.01,0-.02,0-.04,0-.04-.02-.09-.03-.13,0-.02,0-.03,0-.05,0-.04-.02-.1-.03-.14,0-.01,0-.03,0-.04-.01-.06-.02-.08-.03-.14,0-.02,0-.04-.01-.07,0-.03-.01-.06-.02-.1,0-.02,0-.05-.01-.07,0-.03-.02-.09-.03-.13s-.01-.07-.02-.1c0-.03,0-.04-.02-.08,0-.03-.01-.06-.02-.1,0-.02,0-.03-.01-.05-.34-1.56-.66-3.12-.98-4.69h0ZM54.7,488.12l-38.71,10.63c1.18,4.29,2.45,8.63,3.78,12.88l38.32-11.95c-.62-1.99-1.23-4-1.81-6.01v-.02c-.03-.07-.05-.15-.07-.22,0-.01,0-.02-.01-.04,0-.03-.01-.05-.02-.08,0-.03-.02-.06-.03-.09,0-.02-.01-.04-.02-.06-.49-1.68-.97-3.37-1.43-5.05h0ZM61.87,511.11l-37.89,13.26c1.47,4.2,3.04,8.44,4.65,12.59l37.41-14.55c-1.09-2.81-2.14-5.61-3.16-8.45,0,0,0,0,0,0-.04-.11-.08-.23-.12-.34,0-.01,0-.02-.01-.03-.02-.05-.03-.09-.05-.14,0,0,0-.02,0-.02-.02-.05-.04-.1-.05-.15,0-.02-.01-.04-.02-.06-.01-.03-.02-.06-.03-.1,0-.02-.02-.05-.02-.07,0-.02-.02-.06-.03-.09-.02-.04-.03-.09-.05-.13-.01-.03-.01-.04-.02-.07-.01-.03-.02-.06-.03-.09,0-.02,0-.02-.02-.04-.04-.11-.08-.23-.12-.34v-.02c-.14-.38-.28-.76-.41-1.14h0ZM70.6,533.55l-36.89,15.83c1.76,4.09,3.61,8.21,5.5,12.24l36.32-17.08c-.24-.51-.47-1.01-.71-1.51l-.02-.05s-.02-.05-.04-.09c-.01-.02-.02-.05-.03-.07,0-.02-.02-.05-.03-.07-.03-.06-.05-.12-.08-.17h0c-1.05-2.28-2.08-4.56-3.08-6.85v-.02s-.04-.07-.06-.1c0-.02-.02-.04-.03-.06-.02-.04-.04-.08-.05-.12-.01-.03-.03-.07-.04-.1,0-.02-.02-.04-.03-.06-.01-.03-.04-.09-.05-.12,0-.01,0-.02-.01-.03-.03-.06-.04-.1-.07-.16,0,0,0,0,0,0-.2-.46-.4-.92-.6-1.38h0ZM80.85,555.34l-35.72,18.32c2.03,3.96,4.16,7.94,6.32,11.83l35.07-19.52c-.94-1.69-1.87-3.39-2.79-5.1,0-.01-.01-.03-.02-.04-.02-.04-.03-.06-.05-.09-.01-.02-.02-.04-.04-.07-.01-.02-.02-.03-.03-.05-.03-.06-.06-.11-.09-.17,0,0,0-.02-.01-.03-.9-1.68-1.78-3.37-2.65-5.07h0ZM92.56,576.38l-34.39,20.71c2.29,3.81,4.69,7.63,7.11,11.37l33.66-21.87c-2.19-3.36-4.31-6.77-6.39-10.21h0ZM105.68,596.57l-32.9,23c2.55,3.64,5.19,7.3,7.87,10.85l32.1-24.1c-2.41-3.21-4.76-6.46-7.07-9.75h0ZM120.13,615.83l-31.26,25.18c2.79,3.46,5.68,6.93,8.58,10.29l30.39-26.22c-2.62-3.04-5.19-6.12-7.71-9.25h0ZM135.86,634.06l-29.49,27.24c3.02,3.27,6.13,6.53,9.26,9.69l28.55-28.22c-.22-.22-.44-.44-.66-.67,0,0,0,0,0,0-.04-.04-.09-.09-.13-.13,0,0,0,0,0,0-.04-.04-.07-.07-.11-.11-.01-.01-.03-.03-.04-.04-.02-.02-.04-.04-.07-.07-.04-.04-.07-.07-.11-.11-.02-.02-.03-.03-.04-.04-.02-.02-.05-.05-.07-.07-.02-.02-.02-.02-.03-.03-.08-.09-.17-.17-.25-.26h-.01c-.61-.64-1.22-1.26-1.82-1.89,0,0-.02-.02-.03-.03-.02-.02-.05-.05-.07-.07-.02-.02-.03-.03-.04-.04-.03-.03-.06-.06-.09-.09-.02-.02-.05-.05-.07-.08-.02-.02-.03-.04-.05-.05-.02-.02-.05-.05-.07-.08-.01-.01-.03-.03-.04-.04-.04-.04-.07-.08-.11-.12,0,0,0,0-.01-.01-.04-.04-.07-.08-.11-.12,0,0,0,0-.01-.01-1.44-1.5-2.84-2.99-4.25-4.52h0ZM152.79,651.18l-27.58,29.17c3.23,3.06,6.56,6.1,9.89,9.04l26.57-30.09c-.61-.54-1.22-1.08-1.83-1.62,0,0,0,0,0,0-.04-.04-.08-.08-.13-.11,0,0-.01-.01-.02-.02-.04-.04-.09-.08-.13-.12,0,0,0,0-.01-.01-.03-.03-.08-.07-.11-.1-.01-.01-.03-.02-.04-.03-.03-.03-.08-.07-.11-.1,0,0,0,0-.01-.01-.04-.04-.08-.07-.12-.11-.01-.01-.03-.02-.04-.04-.03-.03-.06-.05-.09-.08-.01-.01-.03-.02-.04-.03-.03-.03-.08-.07-.12-.1-.01-.01-.03-.02-.04-.04-.03-.03-.05-.05-.09-.08-.01-.01-.03-.02-.04-.04-.04-.04-.08-.07-.12-.11,0,0-.02-.01-.02-.02-.03-.03-.07-.06-.1-.09-.01-.01-.03-.03-.04-.04-.02-.02-.06-.06-.09-.08-.01-.01-.02-.02-.04-.03-.04-.04-.07-.07-.12-.11-.01-.01-.03-.03-.04-.04-.03-.03-.05-.05-.09-.08-.01-.01-.03-.02-.04-.04-.04-.04-.08-.07-.12-.11,0,0-.01-.01-.02-.02-.03-.03-.07-.07-.1-.09-.01-.01-.03-.02-.04-.04-.04-.04-.07-.06-.11-.1,0,0-.01,0-.02-.01-.04-.04-.08-.07-.12-.11-.01-.01-.02-.02-.04-.03-.03-.03-.06-.06-.1-.09,0,0-.02-.02-.03-.03-.04-.04-.08-.07-.12-.11-.01,0-.02-.02-.03-.03-.03-.03-.07-.06-.1-.09,0,0-.02-.02-.03-.02-.04-.04-.09-.08-.13-.12,0,0,0,0,0,0-.05-.04-.08-.07-.12-.11l-.02-.02c-.09-.08-.17-.16-.26-.24,0,0,0,0,0,0-.13-.12-.28-.25-.41-.37,0,0,0,0,0,0-1.1-1.02-2.21-2.05-3.3-3.08h0ZM170.84,667.12l-25.54,30.97c3.43,2.83,6.96,5.64,10.48,8.35l24.47-31.82c-3.18-2.45-6.32-4.95-9.42-7.5h0ZM189.93,681.8l-23.38,32.63c3.62,2.59,7.33,5.16,11.03,7.62l22.26-33.4s-.04-.03-.06-.04c-.03-.02-.04-.03-.07-.05-.02-.01-.04-.03-.06-.04-.03-.02-.05-.04-.08-.05-.02-.01-.04-.02-.05-.04-.04-.02-.09-.06-.13-.09-.01,0-.03-.02-.04-.03-.04-.02-.07-.05-.11-.07l-.04-.03c-.09-.06-.19-.13-.28-.19,0,0-.01,0-.02-.01-.1-.07-.2-.13-.3-.2,0,0,0,0,0,0-.68-.46-1.35-.91-2.02-1.37,0,0,0,0,0,0-.1-.07-.2-.14-.3-.21,0,0,0,0-.01,0-.05-.04-.09-.06-.15-.1,0,0,0,0,0,0-.05-.03-.1-.07-.14-.1,0,0-.02-.01-.03-.02-.04-.03-.08-.06-.12-.08,0,0-.02-.01-.03-.02-.05-.03-.09-.06-.14-.09-.01,0-.03-.02-.04-.03-.03-.02-.06-.04-.09-.06-.02-.01-.04-.03-.06-.04-.04-.02-.06-.04-.09-.06-.02-.02-.05-.03-.07-.05-.04-.02-.05-.03-.09-.06-.02-.02-.05-.03-.07-.05-.02-.01-.03-.02-.05-.04-.1-.07-.19-.13-.29-.2h-.02c-.11-.09-.21-.16-.32-.23h0c-1.51-1.05-3.02-2.11-4.51-3.18h0ZM209.97,695.16l-21.11,34.14c3.79,2.34,7.66,4.65,11.52,6.86l19.93-34.84c-.84-.48-1.68-.97-2.52-1.45h-.02c-.11-.07-.22-.13-.32-.2,0,0-.01,0-.02-.01-.03-.02-.07-.04-.1-.06,0,0-.03-.02-.04-.02-.06-.03-.11-.07-.17-.1,0,0-.03-.02-.04-.02-.03-.02-.06-.03-.09-.05-.02-.01-.03-.02-.05-.03-.03-.02-.05-.03-.08-.05-.04-.02-.08-.05-.12-.07-.02-.01-.04-.03-.06-.04-.03-.02-.05-.03-.08-.05-.02-.01-.04-.02-.06-.04-.04-.02-.06-.04-.1-.06-.02-.01-.05-.03-.07-.04-.04-.02-.06-.04-.1-.06-.02-.01-.04-.02-.05-.03-.04-.02-.07-.04-.11-.07-.01,0-.02-.01-.03-.02-.05-.03-.1-.06-.15-.09,0,0-.01,0-.02-.01-.05-.03-.08-.05-.13-.08,0,0-.02-.01-.03-.02-.11-.06-.2-.12-.3-.18,0,0-.01,0-.02-.01-.11-.06-.21-.12-.31-.18,0,0,0,0,0,0-1.61-.96-3.21-1.93-4.81-2.91,0,0-.01,0-.02-.01-.09-.06-.2-.12-.29-.18,0,0-.01,0-.02-.01h0ZM230.87,707.11l-18.73,35.5c3.94,2.08,7.96,4.11,11.97,6.06l17.51-36.12s-.08-.04-.12-.06h0s-.07-.03-.1-.05c-.02,0-.04-.02-.06-.03-.03-.01-.05-.03-.08-.04-.04-.02-.09-.04-.13-.06-.02,0-.03-.02-.05-.02-.04-.02-.07-.04-.11-.06-.01,0-.02-.01-.04-.02-3.38-1.65-6.73-3.35-10.05-5.1h0ZM252.54,717.61l-16.26,36.7c4.07,1.8,8.23,3.56,12.36,5.22l14.99-37.24c-.84-.34-1.69-.68-2.53-1.03h0c-.12-.05-.23-.1-.35-.15-.01,0-.02,0-.03-.01-.03-.01-.07-.03-.1-.04-.01,0-.05-.02-.06-.02-.04-.02-.08-.03-.12-.05-.03-.01-.07-.03-.1-.04-.02,0-.05-.02-.07-.03-.03-.01-.06-.03-.09-.04-.02,0-.04-.02-.06-.03-.05-.02-.1-.04-.15-.06,0,0-.01,0-.02,0-.04-.02-.1-.04-.14-.06-.01,0-.03-.01-.04-.02-.04-.02-.1-.04-.15-.06,0,0,0,0-.01,0-.05-.02-.11-.05-.16-.07,0,0-.01,0-.02,0-.05-.02-.1-.04-.15-.06,0,0,0,0,0,0-2.26-.94-4.5-1.91-6.73-2.9h0ZM274.87,726.61l-13.71,37.73c4.19,1.52,8.46,2.99,12.69,4.37l12.4-38.18c-.44-.14-.88-.29-1.33-.43-.02,0-.02,0-.05-.01l-.09-.03s-.07-.02-.11-.03c-.02,0-.05-.02-.07-.02-.04-.01-.08-.03-.13-.04-.01,0-.03,0-.04-.01-2.62-.87-5.21-1.76-7.8-2.68,0,0-.02,0-.03,0-.04-.02-.11-.04-.15-.05,0,0-.01,0-.02,0-.05-.02-.09-.03-.15-.05-.03,0-.05-.02-.08-.03-.02,0-.05-.02-.07-.02-.03-.01-.06-.02-.09-.03h-.02c-.4-.15-.79-.29-1.19-.44h0ZM297.77,734.05l-11.09,38.58c4.28,1.23,8.64,2.4,12.96,3.49l9.75-38.94c-1.25-.31-2.49-.63-3.74-.96h-.02c-.11-.04-.23-.07-.34-.1-.01,0-.04-.01-.05-.01-.03,0-.06-.02-.09-.02-.02,0-.05-.01-.07-.02-.03,0-.06-.02-.09-.02-.04-.01-.09-.03-.14-.04-.02,0-.04-.01-.07-.02-.03,0-.06-.02-.1-.03-.02,0-.04-.01-.07-.02-.04-.01-.08-.02-.12-.03-.01,0-.03,0-.04-.01-.05-.01-.1-.03-.15-.04-.02,0-.04,0-.05-.01-.04-.01-.07-.02-.12-.03h-.05c-.05-.03-.11-.04-.16-.06,0,0-.02,0-.03,0-.04-.01-.1-.03-.14-.04-.01,0-.03,0-.05-.01-.04-.01-.09-.02-.14-.04,0,0-.02,0-.03,0-.07-.02-.1-.03-.17-.05,0,0-.01,0-.02,0-.05-.01-.09-.03-.15-.04-.01,0-.02,0-.03,0-.11-.03-.23-.06-.34-.09,0,0-.01,0-.02,0-.05-.01-.1-.03-.16-.04,0,0-.01,0-.02,0-.12-.03-.23-.06-.35-.09,0,0-.01,0-.02,0-.05-.01-.11-.03-.17-.05,0,0,0,0,0,0-.12-.03-.23-.06-.35-.1,0,0,0,0-.01,0-.11-.03-.24-.07-.35-.1,0,0-.01,0-.02,0-.05-.01-.12-.03-.17-.05,0,0,0,0,0,0-.12-.03-.24-.07-.36-.1,0,0,0,0,0,0-.12-.03-.24-.07-.36-.1,0,0,0,0,0,0-.05-.02-.12-.03-.18-.05h0c-.12-.03-.24-.07-.36-.1h0c-.72-.2-1.45-.41-2.17-.62h0ZM321.13,739.9l-8.41,39.25c4.35.93,8.78,1.8,13.17,2.59l7.07-39.51c-1.33-.24-2.66-.48-3.99-.74-.01,0-.02,0-.03,0-.04,0-.08-.01-.11-.02-.01,0-.04,0-.05,0-.06-.01-.13-.02-.19-.04-.01,0-.04,0-.05,0-.03,0-.06-.01-.1-.02-.02,0-.05,0-.07-.01-.03,0-.06-.01-.09-.02-.03,0-.06-.01-.09-.02-.04,0-.07-.01-.11-.02-.05,0-.07-.01-.11-.02-.02,0-.05,0-.07-.01-.03,0-.07-.01-.1-.02-.02,0-.04,0-.06-.01-.06-.01-.1-.02-.16-.03,0,0-.02,0-.03,0-.05,0-.09-.02-.13-.03-.02,0-.04,0-.06-.01-.03,0-.09-.02-.12-.02-.02,0-.03,0-.05,0-.05,0-.11-.02-.16-.03-.02,0-.03,0-.05,0-.03,0-.09-.02-.12-.02-.02,0-.04,0-.06-.01-.05,0-.08-.02-.13-.03-.01,0-.02,0-.04,0-.06-.01-.11-.02-.17-.03-.01,0-.03,0-.04,0-.05,0-.08-.02-.12-.02-.02,0-.04,0-.06-.01-.06-.01-.09-.02-.15-.03-.01,0-.02,0-.03,0-.06-.01-.09-.02-.14-.03-.02,0-.04,0-.06-.01-.03,0-.07-.01-.1-.02-.02,0-.05,0-.07-.01-.03,0-.08-.02-.11-.02-.04,0-.07-.01-.11-.02-.03,0-.05-.01-.09-.02-.03,0-.05-.01-.08-.02-.02,0-.05-.01-.08-.02-.11-.02-.22-.04-.33-.07-.01,0-.03,0-.04,0-.04,0-.08-.02-.12-.02h-.01c-.13-.03-.26-.06-.39-.08h0c-1.07-.22-2.14-.44-3.21-.67h0ZM344.84,744.14l-5.71,39.73c4.4.63,8.88,1.2,13.3,1.68l4.36-39.9c-3.61-.39-7.24-.85-10.82-1.35,0,0-.01,0-.02,0-.06,0-.1-.01-.16-.02,0,0-.01,0-.02,0-.06,0-.12-.02-.17-.02,0,0-.02,0-.03,0-.05,0-.09-.01-.14-.02-.02,0-.04,0-.05,0-.03,0-.08-.01-.11-.02-.02,0-.04,0-.06,0-.05,0-.1-.01-.15-.02-.03,0-.06,0-.09-.01-.02,0-.04,0-.06,0-.02,0-.04,0-.06,0h0ZM368.78,746.75l-3,40.03c4.43.33,8.92.59,13.37.78l1.65-40.11h0c-.06,0-.11,0-.17,0h-.06s-.07,0-.1,0c-.02,0-.05,0-.07,0-.04,0-.07,0-.11,0-.03,0-.06,0-.09,0-.04,0-.09,0-.12,0-.03,0-.06,0-.09,0-.02,0-.06,0-.08,0h-.09s-.05,0-.08,0c-.05,0-.1,0-.16,0-.02,0-.05,0-.07,0-.04,0-.07,0-.11,0-.02,0-.03,0-.05,0-.04,0-.07,0-.11,0-.01,0-.02,0-.03,0-.13,0-.26-.01-.39-.02h-.03s-.09,0-.13,0h0c-.14,0-.28-.01-.42-.02h0c-3.17-.15-6.32-.35-9.46-.58h0ZM404.88,747.64c-1.55.04-3.08.07-4.64.09,0,0,0,0,0,0-.04,0-.1,0-.14,0h-.01s-.09,0-.12,0c0,0-.02,0-.03,0-.04,0-.08,0-.12,0,0,0-.02,0-.03,0-.04,0-.08,0-.11,0-.01,0-.02,0-.04,0-.04,0-.07,0-.11,0-.02,0-.03,0-.05,0-.02,0-.06,0-.09,0-.02,0-.04,0-.06,0-.02,0-.06,0-.08,0-.02,0-.04,0-.06,0-.02,0-.05,0-.08,0-.02,0-.04,0-.07,0-.02,0-.06,0-.08,0-.02,0-.04,0-.07,0-.02,0-.05,0-.07,0-.02,0-.05,0-.07,0-.02,0-.05,0-.07,0-.02,0-.05,0-.07,0-.02,0-.04,0-.07,0-.03,0-.05,0-.08,0-.02,0-.05,0-.07,0-.03,0-.05,0-.08,0-.02,0-.04,0-.06,0-.03,0-.06,0-.08,0-.02,0-.04,0-.06,0-.03,0-.06,0-.09,0-.01,0-.04,0-.05,0-.03,0-.06,0-.09,0-.01,0-.05,0-.06,0-.03,0-.06,0-.09,0-.01,0-.04,0-.05,0-.03,0-.06,0-.09,0-.01,0-.04,0-.05,0-.03,0-.06,0-.09,0-.01,0-.03,0-.04,0-.03,0-.07,0-.1,0-.01,0-.04,0-.05,0-.03,0-.06,0-.09,0h-.05s-.06,0-.1,0h-.04s-.07,0-.1,0c-.01,0-.02,0-.04,0h-.11s-.04,0-.06,0h-.09s-.05,0-.06,0h-.09s-.05,0-.06,0h-.14s-.06,0-.1,0h-.19s-.06,0-.1,0h-.61s-.04,0-.06,0h-.16s-.08,0-.12,0h-.04c-.11,0-.22,0-.33,0h-.02c-.06,0-.09,0-.15,0h-.01c-.51,0-1.03,0-1.54,0l-.31,40.14c1.02,0,2.04.01,3.06.01,3.43,0,6.91-.04,10.33-.13l-1.04-40.13h0ZM428.92,746.2c-3.98.37-7.98.68-12,.92l2.38,40.07c4.44-.26,8.94-.61,13.36-1.02l-3.74-39.97h0ZM452.8,743.15c-1.26.21-2.53.41-3.8.6h0c-.13.02-.26.04-.39.06-.01,0-.01,0-.03,0-.04,0-.07.01-.11.02-.02,0-.03,0-.05,0-.03,0-.07.01-.1.02-.03,0-.09.01-.12.02-.03,0-.06,0-.09.01-.03,0-.07,0-.1.01-.02,0-.05,0-.07.01-.03,0-.08.01-.12.02-.01,0-.03,0-.04,0-.05,0-.12.02-.17.02,0,0-.02,0-.03,0-.06,0-.1.01-.15.02,0,0-.02,0-.02,0-2.18.32-4.34.62-6.52.9l5.09,39.82c4.42-.57,8.88-1.21,13.27-1.93l-6.45-39.62h0ZM476.42,738.47c-.79.19-1.58.37-2.38.55,0,0-.01,0-.02,0-.06.01-.09.02-.14.03-.02,0-.04,0-.05.01-.04,0-.07.02-.12.03-.03,0-.06.01-.09.02-.03,0-.07.01-.1.02-.03,0-.06.01-.1.02-.02,0-.03,0-.06.01-.03,0-.07.01-.1.02-.01,0-.02,0-.03,0-.08.02-.16.04-.24.05h0s-.09.02-.13.03h0c-1.96.44-3.92.86-5.9,1.26h-.03s-.08.02-.11.03c-.01,0-.04,0-.05,0-.06.01-.12.02-.18.04-.01,0-.05,0-.06.01-.03,0-.07.01-.1.02-.02,0-.04,0-.06.01-.03,0-.06.01-.09.02l-.09.02s-.09.02-.13.03c-.03,0-.05.01-.08.02-.02,0-.05,0-.07.01-.03,0-.08.02-.11.02-.02,0-.03,0-.05,0-.06.01-.1.02-.16.03-.02,0-.03,0-.05,0-.05,0-.08.02-.13.03-.02,0-.03,0-.05,0-.11.02-.23.04-.34.07,0,0-.02,0-.03,0-.06.01-.1.02-.16.03,0,0,0,0-.01,0-.06.01-.13.02-.18.04l7.8,39.38c4.37-.87,8.78-1.82,13.12-2.83l-9.14-39.08h0ZM499.67,732.18c-3.82,1.18-7.69,2.3-11.57,3.34l10.48,38.75c4.3-1.16,8.64-2.42,12.89-3.73l-11.8-38.37h0ZM522.43,724.32c-3.75,1.44-7.5,2.81-11.31,4.13l13.11,37.94c4.21-1.45,8.45-3,12.6-4.6l-14.41-37.47h0ZM544.59,714.91c-2.32,1.08-4.66,2.14-7.01,3.17,0,0-.02,0-.03.01-.05.02-.08.04-.13.06,0,0-.02,0-.03.01-.04.02-.11.05-.15.07-.02,0-.03.01-.05.02-.03.01-.07.03-.1.04-.02.01-.05.02-.07.03-.02,0-.05.02-.07.03-.05.02-.11.05-.16.07-.01,0-.02,0-.03.01-.04.02-.07.03-.11.05h-.02c-1.01.45-2.02.88-3.03,1.31l15.68,36.95c4.1-1.74,8.22-3.57,12.26-5.45l-16.94-36.39h0ZM566.06,704c-.19.11-.39.21-.58.32h0c-.16.09-.31.17-.47.26h0c-2.42,1.32-4.85,2.62-7.3,3.89,0,0-.02.01-.03.02-.03.02-.06.03-.1.05-.04.02-.09.05-.13.07-.02,0-.04.02-.05.03-.04.02-.07.04-.11.06-.01,0-.02.01-.03.02-.6.31-1.23.63-1.83.94l18.18,35.79c3.97-2.01,7.95-4.13,11.85-6.28l-19.39-35.15h0ZM586.74,691.66c-1.95,1.26-3.91,2.49-5.88,3.71,0,0,0,0,0,0-.09.06-.2.12-.3.18-.02.01-.03.02-.05.03-.03.02-.05.03-.08.05-.04.02-.08.05-.12.07-.02.01-.04.03-.06.04-.03.02-.06.04-.09.06,0,0-.02.01-.03.02-1.2.74-2.4,1.46-3.61,2.18l20.57,34.47c3.82-2.28,7.65-4.66,11.39-7.07l-21.74-33.75h0ZM606.53,677.94s0,0,0,0c-.04.03-.08.06-.13.1,0,0-.02.01-.02.02-.09.07-.19.14-.28.21,0,0-.02.01-.03.02-.04.03-.07.06-.11.08-.01,0-.02.02-.03.03-.04.03-.09.06-.13.1-.01,0-.02.02-.03.02-.04.03-.07.05-.1.08-.01.01-.03.02-.04.03-.04.03-.08.06-.13.1,0,0-.02.01-.02.02-.04.03-.08.06-.11.08-.02.01-.03.02-.05.03-.04.03-.06.05-.1.07-.01,0-.02.02-.03.03-.04.03-.08.06-.13.09-.02.01-.03.02-.05.04-.04.03-.06.04-.09.07l-.04.03s-.09.07-.12.09c-.01.01-.03.02-.05.03-.03.02-.07.05-.09.07-.01.01-.03.02-.04.03-.04.03-.07.05-.11.08-.02.01-.03.03-.05.04-.04.03-.07.05-.11.08-.02.01-.03.02-.05.04-.03.02-.06.05-.09.07-.01.01-.03.02-.05.03-.04.03-.09.07-.13.09-.01.01-.03.02-.04.03-.04.03-.06.05-.1.07-.01.01-.03.02-.04.03-.04.03-.09.07-.13.1h0s-.09.06-.13.1c-.01,0-.03.02-.04.03-.04.03-.09.06-.12.09,0,0,0,0-.01.01-.04.03-.09.07-.14.1-.01,0-.02.02-.03.02-.04.03-.08.06-.11.08,0,0-.02.01-.03.02-.04.03-.09.07-.14.1,0,0-.01,0-.02.01-.04.03-.08.06-.13.09,0,0-.01.01-.02.02-.09.07-.2.14-.29.21,0,0-.01,0-.02.01-.04.03-.09.07-.14.1,0,0,0,0,0,0-.21.15-.4.29-.61.44,0,0,0,0,0,0-1.63,1.17-3.27,2.33-4.92,3.47l22.87,32.99c3.65-2.53,7.32-5.17,10.88-7.82l-23.98-32.19h0ZM625.34,662.91c-.64.55-1.29,1.1-1.94,1.65,0,0-.02.02-.03.03-.02.02-.05.04-.07.06-.03.02-.04.04-.07.06-.02.02-.04.03-.06.05-.04.04-.07.06-.11.1-.01.01-.03.02-.04.03-.04.04-.07.06-.11.1,0,0,0,0,0,0-2.26,1.9-4.53,3.76-6.84,5.6l25.06,31.36c3.47-2.78,6.95-5.65,10.33-8.54l-26.1-30.49h0ZM643.09,646.64s-.09.09-.13.13c0,0,0,0,0,0-.03.03-.08.08-.12.11,0,0-.01.01-.02.02-.04.04-.08.08-.12.12,0,0-.02.02-.03.03-.02.02-.06.06-.09.08-.02.01-.03.03-.05.05-.03.03-.05.05-.08.08-.03.03-.05.05-.08.08-.02.02-.04.04-.06.05-.02.02-.05.05-.07.07,0,0-.02.02-.03.03-.09.08-.17.17-.26.25h-.01c-1.3,1.27-2.6,2.52-3.92,3.76h0c-.09.1-.18.18-.28.27h-.01c-.09.1-.18.18-.27.27,0,0-.01,0-.02.02-.03.03-.06.05-.09.08,0,0-.01.01-.02.02-.05.05-.1.1-.15.14,0,0-.02.02-.03.03-.03.02-.05.05-.08.07-.02.02-.02.02-.03.03-.08.08-.16.15-.24.23-.02.02-.03.03-.05.04-.02.02-.05.04-.07.07,0,0-.02.02-.03.03-.05.04-.1.09-.14.13,0,0-.03.03-.04.04-.02.02-.04.04-.07.06-.02.02-.03.03-.06.05-.04.03-.07.07-.11.1-.02.01-.03.03-.05.05-.02.02-.05.04-.07.06-.02.02-.03.03-.05.04-.02.02-.05.04-.07.07,0,0-.02.01-.02.02l-.15.14s-.02.02-.04.03c-.03.02-.05.05-.08.07,0,0-.02.02-.02.02-.05.05-.11.1-.16.15h-.01s-.06.07-.09.09l-.02.02c-.09.09-.19.17-.28.26h0c-.25.24-.5.47-.76.7l27.12,29.59c3.28-3,6.55-6.11,9.72-9.22l-28.11-28.66h0ZM659.7,629.21c-.61.69-1.22,1.37-1.84,2.05h0s-.05.07-.08.1c0,0-.02.02-.03.03-.04.04-.07.08-.11.12-.01.02-.05.05-.06.07-.01.02-.03.03-.04.05-.03.03-.05.05-.08.09-.01.01-.02.02-.03.04-.04.05-.07.08-.11.13,0,0,0,0,0,0-.04.04-.08.09-.12.13,0,0,0,0,0,0-1.27,1.4-2.54,2.77-3.83,4.14,0,0,0,0,0,0-.04.04-.08.08-.12.12,0,0-.02.02-.02.03-.03.03-.07.08-.11.11,0,.01-.02.02-.03.03-.03.03-.06.06-.09.1-.02.02-.03.03-.05.05-.02.02-.04.04-.06.07-.08.08-.15.16-.23.25h0c-.36.39-.73.78-1.1,1.16l29.06,27.69c3.07-3.22,6.12-6.54,9.08-9.86l-29.98-26.69h0ZM675.09,610.69s-.01.02-.02.03c-.03.03-.05.06-.07.1-.01.02-.03.04-.04.05-.03.03-.05.06-.07.09-.02.02-.03.04-.05.06-.02.03-.03.04-.05.07-.02.02-.03.04-.05.06-.03.03-.06.08-.09.11-.02.02-.03.04-.05.07-.01.02-.04.05-.05.06-.02.02-.03.04-.05.06-.02.03-.04.06-.06.08-.02.03-.05.06-.07.09-.02.03-.03.04-.05.07-.02.02-.04.04-.05.07-.01.02-.03.04-.04.05-.03.04-.07.09-.1.13-.01.02-.02.03-.04.05-.02.02-.04.05-.05.07-.01.02-.04.04-.05.06-.02.02-.03.04-.05.07-.03.03-.06.07-.08.11-.02.02-.04.05-.05.07-.01.02-.03.04-.05.06-.02.02-.03.04-.05.07-.02.03-.04.05-.06.07-.03.04-.06.07-.08.11-.01.02-.03.04-.04.05-.02.03-.04.05-.06.08-.01.02-.02.03-.03.04-.07.09-.14.18-.21.27-.01.02-.01.02-.03.04-.02.03-.05.06-.07.09h0c-.05.07-.1.13-.15.19,0,0-.01.02-.02.03-.02.03-.05.06-.07.09,0,0,0,.01-.02.02-.05.06-.09.12-.14.18,0,0-.01.01-.02.02-.02.03-.05.06-.07.09l-.02.03c-.07.09-.15.19-.22.28,0,0-.01.02-.02.03-.11.13-.21.27-.32.4h0c-1.47,1.85-2.96,3.68-4.47,5.49l30.87,25.66c2.84-3.42,5.67-6.94,8.39-10.45l-31.72-24.6h0ZM689.19,591.17c-1.03,1.53-2.07,3.06-3.13,4.58h0c-.07.11-.14.21-.21.31,0,0-.01.02-.02.03-.02.03-.04.06-.07.09,0,0-.01.02-.02.02l-.11.16s-.02.03-.03.04c-.02.03-.04.05-.06.08-.01.02-.03.04-.04.06-.02.03-.04.06-.06.09-.02.03-.05.07-.07.1-.02.02-.03.04-.05.07-.01.02-.04.05-.05.07-.01.02-.03.04-.04.06-.03.05-.05.07-.08.11-.01.02-.02.03-.04.05-.03.04-.04.06-.07.1-.01.02-.02.03-.04.05-.02.03-.05.07-.07.09,0,.01-.02.03-.03.04-.03.05-.06.08-.09.13-.01.02-.02.03-.03.05-.03.04-.04.06-.07.09-.01.02-.02.03-.03.05-.03.04-.07.09-.09.13,0,.01-.02.03-.03.04-.02.03-.05.07-.07.09-.01.02-.02.03-.04.05-.03.04-.05.06-.07.1-.01.02-.03.04-.04.06-.03.04-.05.07-.07.1-.01.02-.03.04-.04.05-.02.03-.04.06-.06.09-.01.02-.02.03-.04.05-.03.04-.06.08-.08.12-.02.02-.03.04-.05.06-.01.02-.04.06-.05.07-.01.02-.03.04-.04.06-.03.04-.05.06-.07.1-.02.02-.03.05-.05.07-.02.03-.04.05-.05.08-.02.02-.03.05-.05.07-.01.02-.03.04-.04.05-.04.06-.08.11-.12.17,0,0,0,0-.01.02-.02.03-.05.06-.07.1l-.02.02c-.38.53-.76,1.06-1.15,1.59l32.54,23.51c2.61-3.61,5.18-7.31,7.66-11l-33.32-22.39h0ZM701.93,570.74c-.46.79-.91,1.58-1.38,2.36h0c-.02.05-.04.09-.06.12h0c-.04.07-.08.15-.13.22v.02s-.05.07-.07.1c0,0-.01.02-.02.03-.03.06-.07.12-.1.18,0,0-.01.02-.02.03-.02.03-.03.05-.05.08-.01.02-.02.04-.04.06-.02.03-.03.05-.05.08,0,0-.02.04-.03.05-.03.05-.06.1-.09.15,0,0-.02.04-.03.05-.02.03-.03.06-.05.08-.01.02-.02.04-.03.06-.03.05-.06.1-.09.15,0,0-.02.03-.02.04-.02.03-.03.06-.05.08-.01.02-.02.04-.04.06-.01.02-.03.05-.04.07-.02.03-.04.06-.05.09l-.06.11s-.03.04-.04.06c-.02.03-.03.05-.05.08,0,0-.03.04-.03.05-.03.05-.06.09-.08.14-.01.02-.02.04-.04.06-.02.03-.03.05-.05.08-.01.02-.02.04-.04.06-.02.03-.04.07-.06.1-.02.03-.04.07-.06.1-.02.03-.03.05-.05.08-.01.02-.02.03-.03.05-.02.03-.03.06-.05.09,0,0-.02.03-.03.04-.03.05-.06.11-.1.16,0,0-.02.03-.03.04-.02.03-.04.06-.05.09,0,0-.02.03-.02.04-.06.1-.12.2-.18.3-.01.02-.01.02-.03.04-.02.03-.04.06-.05.09,0,0,0,0-.01.02-.04.07-.08.13-.12.2,0,0,0,.01-.01.02-.02.03-.04.07-.06.1v.02c-.08.11-.14.22-.21.32h0c-.73,1.22-1.47,2.42-2.22,3.61l34.06,21.24c2.36-3.78,4.68-7.64,6.9-11.5l-34.76-20.07h0ZM713.25,549.48c-.23.47-.46.94-.69,1.41h0c-.03.07-.07.14-.1.2,0,0-.02.03-.02.04-.01.02-.02.05-.04.07-.01.03-.03.06-.05.09,0,.02-.02.03-.02.05-.02.05-.05.1-.07.15,0,0,0,.01,0,.02-.02.05-.05.1-.08.15h0c-1.43,2.88-2.89,5.71-4.39,8.53l35.43,18.87c2.09-3.93,4.15-7.95,6.1-11.95l-36.05-17.65h0ZM723.09,527.5c-.27.66-.54,1.32-.82,1.98,0,.02,0,.02-.02.04-.01.03-.03.06-.04.09-.02.04-.04.09-.06.13,0,.01-.01.03-.02.04-.02.04-.04.09-.05.13,0,.01,0,.02-.01.03-.79,1.91-1.6,3.8-2.42,5.68,0,0,0,.01,0,.02-.02.05-.05.11-.07.16l-.02.04s-.03.06-.05.1l-.03.08s-.02.04-.03.06c-.36.83-.73,1.65-1.1,2.48l36.64,16.4c1.82-4.06,3.59-8.22,5.27-12.34l-37.18-15.14h0ZM731.41,504.9c-.19.59-.39,1.18-.59,1.77,0,.01,0,.02-.01.04-.01.04-.03.08-.04.12-.01.03-.02.07-.04.11,0,.02-.02.05-.02.07-.01.03-.02.07-.03.1,0,.02,0,.02-.01.04-.86,2.56-1.75,5.11-2.67,7.64h0c-.01.05-.03.09-.04.13h0c-.02.08-.05.14-.07.2,0,.02-.02.04-.02.06,0,.02-.02.05-.03.07-.01.03-.02.07-.04.1,0,.02-.01.04-.02.05-.02.05-.04.1-.06.16,0,0,0,0,0,0-.02.05-.04.11-.06.16h0c-.07.19-.13.36-.19.54l37.67,13.85c1.54-4.18,3.02-8.44,4.42-12.67l-38.13-12.55h0ZM738.15,481.79c-.48,1.89-.98,3.76-1.49,5.64,0,0,0,.01,0,.02-.01.05-.03.11-.05.17,0,0,0,0,0,0-.01.05-.03.11-.05.17,0,.01,0,.02,0,.03-.01.04-.02.09-.04.13,0,.02,0,.03-.01.05-.02.05-.03.11-.04.16,0,0,0,.01,0,.02-.01.04-.03.1-.04.14,0,.02-.01.04-.02.07,0,.03-.02.06-.03.09,0,.02-.01.05-.02.07-.01.04-.03.09-.04.14,0,.03-.02.06-.02.09,0,.02-.01.04-.02.06,0,.03-.02.06-.03.09,0,.02,0,.03-.02.06-.03.11-.06.23-.1.34v.02c-.38,1.35-.77,2.71-1.16,4.05l38.54,11.24c1.25-4.28,2.44-8.63,3.53-12.95l-38.9-9.91h0ZM743.28,458.26c-.55,3.02-1.15,6.05-1.78,9.04,0,0,0,.02,0,.03,0,.04-.02.11-.03.15,0,0,0,.02,0,.03-.01.06-.02.12-.04.17,0,0,0,.01,0,.02,0,.04-.02.09-.03.14,0,.02-.01.05-.02.07,0,.03-.01.05-.02.08-.02.11-.05.22-.07.34,0,.01,0,.02,0,.03-.12.57-.25,1.15-.37,1.72l39.22,8.57c.95-4.35,1.84-8.77,2.64-13.15l-39.49-7.22h0ZM746.8,434.44c-.39,3.47-.83,6.92-1.33,10.36v.02c-.03.17-.05.34-.08.52,0,.02,0,.03,0,.05,0,.04-.01.07-.02.11,0,.01,0,.03,0,.04l-.03.18s0,.05-.01.07c0,.03,0,.05-.01.08,0,.02,0,.06-.01.09v.08s-.03.09-.03.12c0,.03,0,.05-.01.08,0,.03-.01.07-.02.1,0,.01,0,.02,0,.03l39.71,5.87c.65-4.4,1.23-8.87,1.73-13.29l-39.89-4.51h0ZM748.7,410.44c-.18,4.02-.43,8.03-.74,12.02l40.02,3.16c.35-4.43.63-8.93.83-13.37l-40.1-1.8h0ZM789.11,385.47l-40.13.88s0,.04,0,.07c0,.04,0,.09,0,.12,0,.04,0,.07,0,.11,0,.06,0,.12,0,.17,0,0,0,.02,0,.03,0,.07,0,.17,0,.24h0c.04,1.89.06,3.8.07,5.69h0c0,.09,0,.16,0,.25,0,0,0,0,0,.01,0,.15,0,.32,0,.47v.02c0,.08,0,.14,0,.22v.04c0,.07,0,.14,0,.21v.04c0,.07,0,.15,0,.22h0v.17s0,.07,0,.1v.13s0,.05,0,.07v.05s0,.06,0,.1v.03s0,.07,0,.11v.02c0,1.12,0,2.22-.02,3.34l40.14.46c.02-1.53.03-3.06.03-4.59,0-2.92-.03-5.89-.1-8.81h0ZM787.62,358.72l-39.98,3.58v.06s.01.06.01.1c0,.03,0,.06,0,.09,0,.02,0,.06,0,.08,0,.03,0,.06,0,.09,0,.01,0,.06,0,.07l.02.19s0,.03,0,.04c0,.04,0,.07,0,.11,0,.02,0,.03,0,.05,0,.04,0,.07,0,.11,0,.01,0,.03,0,.04.01.12.02.24.03.37,0,.01,0,.03,0,.04,0,.04,0,.08.01.12h0c.01.13.02.27.03.4,0,.01,0,.02,0,.03,0,.04,0,.08.01.12h0c.01.14.02.27.03.4,0,.01,0,.02,0,.04.01.18.03.35.04.53v.03s0,.08.01.12h0c.01.14.02.27.03.4,0,.02,0,.03,0,.05,0,.04,0,.07,0,.11,0,.01,0,.02,0,.03,0,.07.01.15.02.22,0,.01,0,.03,0,.04,0,.03,0,.07,0,.1,0,.02,0,.04,0,.06,0,.03,0,.07,0,.1,0,.01,0,.05,0,.06,0,.06,0,.12.01.18,0,.02,0,.05,0,.07v.08s.01.07.01.09c0,.03,0,.05,0,.08,0,.03,0,.08,0,.12,0,.03,0,.06,0,.08,0,.05,0,.07,0,.12v.07s.01.08.01.1c0,.02,0,.05,0,.07,0,.06,0,.09.01.14,0,.01,0,.03,0,.04,0,.05,0,.1.01.14v.05s0,.08.01.12c0,.02,0,.04,0,.05,0,.12.02.22.02.34v.03s0,.11.01.15c0,0,0,.01,0,.02,0,.12.02.25.03.37,0,0,0,0,0,0,.12,1.69.22,3.39.32,5.08l40.08-2.23c-.25-4.44-.57-8.94-.97-13.36h0ZM784.32,332.12l-39.64,6.29c.63,3.95,1.19,7.93,1.69,11.93l39.84-4.94c-.55-4.42-1.18-8.89-1.88-13.28h0ZM779.21,305.78l-39.12,8.99c.08.36.17.73.25,1.09,0,0,0,.01,0,.02.03.11.05.22.08.33,0,.02,0,.04.01.06,0,.03.02.07.02.1,0,.02,0,.04.01.07.01.04.02.1.03.14,0,.03.01.06.02.09,0,.01.01.05.01.06,0,.03.02.07.02.1,0,.01,0,.03,0,.04.72,3.21,1.39,6.43,2.02,9.67l39.41-7.65c-.85-4.37-1.78-8.79-2.78-13.13h0ZM772.3,279.85l-38.41,11.65c1.16,3.84,2.26,7.69,3.3,11.58l38.79-10.33c-1.15-4.3-2.38-8.64-3.67-12.9h0ZM763.63,254.46l-37.52,14.26s0,0,0,0c.02.05.04.1.06.15,0,.01,0,.02.01.04.04.11.08.21.12.32,0,.01.01.03.02.04.02.04.03.07.04.11,0,.02.01.04.02.06.02.04.04.1.05.14l.02.06s.02.07.04.1c0,.02.02.05.03.07.01.03.02.05.03.08.02.05.04.09.05.14,0,.02.02.04.02.06l.03.09s.02.04.02.07l.03.09s.01.04.02.05c.02.06.04.11.06.17,0,.02.01.04.02.06.01.03.02.06.03.09,0,.02.01.04.02.06.02.06.05.12.07.18,0,.01,0,.02.01.03l.04.1s0,.03.02.05l.04.1s0,.01,0,.02c.03.07.05.14.08.21,0,.01,0,.02.01.03.01.04.03.07.04.11,0,.01,0,.03.01.04.03.07.05.14.08.2,0,.01,0,.01,0,.02.01.03.02.06.04.1,0,.02.01.03.02.05.01.03.02.06.04.1,0,.01.01.03.02.04.02.06.04.12.07.18,0,.01.02.04.02.05.01.03.02.06.03.09,0,.02.01.04.02.06.02.04.03.08.05.13.01.03.02.06.03.09.01.03.02.06.03.09,0,.02.01.04.02.06.01.03.02.06.03.09,0,.01.02.04.02.05.02.05.04.11.06.16,0,.02.01.04.02.06.01.03.02.06.03.09,0,.02.01.04.02.06.01.03.02.06.03.09h0c.03.08.05.15.08.22,0,.02.01.04.02.06.01.03.02.06.03.09,0,.01.02.05.02.06.02.05.04.11.06.16,0,.01.02.04.02.05.01.03.02.06.03.09,0,.02.01.04.02.06.01.03.02.06.03.09,0,.01,0,0,0,.02l.07.19s.02.05.02.07c0,.03.02.06.03.08.01.03.02.04.03.07.02.05.03.09.05.14,0,.02.02.05.02.07.01.03.02.06.03.09,0,.02.01.04.02.06.01.03.02.06.03.09,0,.02.02.05.03.07.02.05.04.1.05.15,0,.02.01.04.02.06.01.03.02.06.03.09,0,.02.01.03.02.05.02.07.05.13.07.2,0,.01,0,.02,0,.03.01.03.02.06.03.1,0,.02.01.03.02.05.01.03.02.07.04.1,0,.01,0,.02.01.03.02.06.05.13.07.19,0,.01.01.03.01.04.01.03.02.07.04.1,0,.01.01.03.01.04.04.11.08.23.12.34,0,.01,0,.02.01.03.36,1.03.72,2.06,1.07,3.09l37.99-12.97c-1.44-4.21-2.97-8.46-4.55-12.62h0ZM753.25,229.72l-36.46,16.8c1.68,3.64,3.3,7.32,4.85,11.02l37.01-15.54c-1.72-4.1-3.54-8.23-5.41-12.28h0ZM741.19,205.75l-35.22,19.25c1.35,2.47,2.68,4.97,3.97,7.48h0c.05.1.11.22.16.32,0,.01.01.03.02.04.02.04.04.07.06.11,0,.02.02.03.03.05.02.04.05.09.07.13.01.02.03.05.04.07.01.02.02.04.03.06.01.03.03.06.04.08,0,0,.02.03.02.04.39.76.77,1.51,1.15,2.27l35.86-18.04c-2-3.98-4.1-7.97-6.23-11.88h0ZM727.54,182.67l-33.83,21.61c1.11,1.74,2.21,3.5,3.29,5.26,0,0,0,0,0,0,.03.05.05.09.08.14,0,.01.01.02.02.03.03.05.06.09.09.14,0,.01.02.03.02.04.02.03.04.07.06.1.01.02.03.04.04.06.02.03.03.05.05.08.03.05.05.09.08.14,0,0,.02.03.03.04.02.03.04.06.06.1l.02.03c.83,1.36,1.65,2.73,2.47,4.11l34.55-20.44c-2.27-3.83-4.63-7.67-7.02-11.42h0ZM712.35,160.58l-32.28,23.85s.01.02.02.03c.02.03.05.06.07.09.01.02.02.03.04.05.03.04.05.07.08.12.01.02.03.04.04.06.02.03.04.06.06.08.01.02.02.03.04.05.03.04.06.09.09.12.01.02.02.03.04.05.02.03.05.06.06.09.01.02.02.03.04.05.03.04.05.07.09.12,0,0,.01.02.02.02.03.04.05.07.09.12.01.02.03.03.04.05.02.03.04.06.06.09.01.02.02.03.04.05.03.04.06.08.09.13,0,.01.02.03.03.04.03.04.04.06.07.1.01.01.02.03.03.04.03.04.06.09.1.13,0,0,0,.01.01.02.03.04.06.08.09.12,0,.01.02.03.03.04.03.04.06.08.08.11,0,0,0,.01.01.02.03.04.06.09.1.13.01.01.02.03.03.04.03.04.04.06.07.1.01.01.02.03.03.05.03.04.06.09.09.12.01.02.02.03.04.05.02.03.04.06.06.09.01.02.02.03.03.05.03.04.05.07.07.1.01.02.03.04.05.06.03.04.04.06.07.1.01.02.03.04.04.06.02.03.03.05.05.07l.04.06s.06.08.08.11c.02.02.03.04.05.07.01.02.04.05.05.07.02.02.03.04.05.07.02.03.05.07.07.09l.06.09s.03.04.04.06c.02.03.04.05.06.08.01.02.03.04.04.05.03.05.07.09.1.14,0,0,.03.03.03.04.02.03.04.06.06.09.01.02.01.02.03.04.07.1.14.19.21.29,0,0,.01.02.02.03,1.29,1.8,2.56,3.62,3.82,5.44l33.08-22.74c-2.52-3.66-5.14-7.34-7.78-10.92h0ZM695.7,139.58l-30.59,25.99c1.22,1.43,2.42,2.87,3.61,4.32,0,0,.01.02.02.02.04.04.07.09.11.13,0,0,0,0,0,0,.04.04.07.08.1.12.01.02.03.03.04.05.02.03.04.05.06.08l.05.06s.06.07.09.11l.06.08s.02.03.04.04c.02.03.04.05.07.08,0,0,0,0,.01.02,1.14,1.39,2.26,2.79,3.38,4.2l31.46-24.93c-2.76-3.48-5.62-6.97-8.5-10.36h0ZM677.67,119.75l-28.76,28c.35.36.7.72,1.05,1.08h0c.08.09.17.18.26.27,0,0,0,0,0,0,.08.09.17.18.25.26,0,0,0,0,0,0,.05.05.08.08.13.13,0,0,0,0,0,0,.08.09.17.18.25.26h.01c.08.09.17.19.25.27,0,0,0,0,.01.01.12.13.26.27.38.4,0,0,0,0,0,0,.08.09.16.17.25.26,0,0,.01.01.02.02.08.09.16.17.24.26,0,0,.01.01.02.02.04.04.08.08.12.12,0,0,0,0,0,0,.05.05.08.09.13.13h0s.08.09.12.13c0,0,0,.01.01.02.08.09.16.17.25.26,0,0,0,0,.01.01.08.09.17.18.25.26,0,0,0,0,0,0,.04.04.08.08.12.12,0,0,0,0,.01.01.08.09.16.18.25.26,0,0,0,0,0,0,.09.1.16.17.25.27,0,0,0,0,0,0,1.2,1.28,2.39,2.57,3.57,3.87l29.7-27.01c-2.99-3.29-6.08-6.57-9.18-9.76h0ZM658.34,101.19l-26.8,29.88c.11.1.23.2.34.31h0c.09.09.19.17.28.26,0,0,.02.02.02.02.03.02.05.05.08.07,0,0,.03.03.04.03.04.04.08.07.12.11.02.02.03.03.06.05.02.02.04.04.06.06.02.02.04.04.06.06.02.02.05.04.07.07.02.02.07.06.09.08.02.01.03.03.05.04.03.03.05.05.08.08l.04.03s.08.07.12.11c0,0,.02.02.03.02.04.04.06.06.1.09,0,0,.02.02.03.03.08.07.17.16.26.23,0,0,.02.02.03.02.04.04.08.07.12.11,0,0,0,0,0,0,.05.04.08.07.13.12,0,0,.02.01.02.02.03.03.08.07.11.1,0,0,.01.01.02.02.09.08.17.16.26.24,0,0,.01,0,.02.02.09.08.17.16.26.24,0,0,.01,0,.02.01.04.04.08.07.12.11,0,0,0,0,.01,0,.05.04.08.08.13.12,0,0,0,0,0,0,.04.04.08.08.13.12,0,0,.01,0,.02.01.09.08.17.16.26.24,0,0,0,0,.01.01.09.08.18.16.27.25,0,0,0,0,.01,0,.05.05.08.08.13.12,0,0,0,0,0,0,.09.08.18.17.27.25,0,0,0,0,.01.01l.27.25s0,0,0,0c.14.13.27.25.41.38t0,0c1.28,1.2,2.56,2.4,3.83,3.62l27.8-28.95c-3.21-3.08-6.51-6.15-9.82-9.12h0ZM637.8,83.98l-24.72,31.63c.52.41,1.05.82,1.57,1.23h0s.07.06.1.08h0c.06.05.12.1.18.15,0,0,.02.02.03.02.02.02.05.04.07.06.02.01.04.03.06.05.02.02.04.03.07.05.03.03.08.06.11.09.02.01.03.03.05.04.03.02.06.05.08.07.01.01.03.02.04.04.04.03.09.07.13.1,0,0,0,0,0,0,.04.03.08.06.12.1.01,0,.02.02.03.03.1.08.18.14.27.22,0,0,.01,0,.02.01.04.03.09.07.13.11,0,0,0,0,0,0,.1.08.19.15.29.23,0,0,0,0,0,0,.1.08.19.15.29.23,0,0,0,0,0,0,.24.19.49.39.73.59,0,0,0,0,.01,0,.09.08.18.15.28.23,0,0,.01.01.02.02.04.03.08.06.12.1,0,0,.01,0,.02.01.04.03.09.08.14.11,0,0,0,0,.01.01.04.03.08.06.12.1.01,0,.02.02.03.03.04.03.08.07.12.1,0,0,0,0,.01.01.04.03.08.06.12.1.02.01.03.02.05.04.03.02.06.05.09.07.02.01.03.02.05.04.03.03.08.07.12.1.02.01.03.03.05.04.03.02.05.04.07.06l.07.05s.05.04.06.05c.04.03.07.06.11.09.03.02.03.03.06.05.02.02.05.04.07.06.02.01.03.02.04.04.05.04.11.09.16.13h.01s.06.06.08.08c.02.01.02.02.04.03.09.08.18.15.28.23h.02c.71.6,1.42,1.19,2.13,1.78h.02c.09.09.19.17.28.25l.02.02.06.05,25.78-30.77c-3.41-2.86-6.91-5.69-10.42-8.43h0ZM616.13,68.2l-22.52,33.23c.97.66,1.93,1.32,2.9,1.98h0c.14.1.29.2.43.3h0c.25.18.51.36.76.53h0c.11.08.21.15.32.23h0c.14.11.29.21.43.31h0c.11.08.21.15.32.23h0c.11.08.21.15.32.23h0c.14.11.28.21.43.31h.01c.1.08.21.16.31.23h.01s.07.06.1.08h0c.06.05.13.09.19.14,0,0,.03.02.03.02.03.02.06.04.09.06,0,0,.01.01.02.02.1.07.2.14.29.21.02.01.01,0,.03.02.1.07.2.14.29.21,0,0,.01.01.02.02.03.02.06.04.09.06,0,0,.04.03.04.03.05.03.09.07.14.1.02.01.04.03.05.04.03.02.05.04.08.05.02.01.04.03.06.04.02.02.04.03.07.05.04.03.08.06.12.08.02.01.04.03.06.04.03.02.06.04.08.06.02.01.03.02.05.04.05.03.09.06.13.09,0,0,0,0,.01,0,.04.03.09.06.12.09.01,0,.02.02.04.03.04.03.08.06.11.08,0,0,.02.01.02.02.04.03.1.07.14.1,0,0,0,0,0,0,.36.26.7.51,1.06.77l23.63-32.45c-3.6-2.62-7.29-5.21-10.97-7.71h0ZM593.43,53.93l-20.2,34.69c.47.27.93.55,1.4.82h.02s.06.04.09.06c.02.01.04.02.06.04.02.01.05.03.07.04.05.03.08.05.13.08.01,0,.02.01.04.02.04.02.08.05.12.07,0,0,.02.01.03.02.11.06.2.12.31.18,0,0,0,0,0,0,.81.48,1.61.96,2.42,1.44,0,0,0,0,0,0,.1.06.21.13.31.18.01,0,.02.01.03.02.04.02.08.05.12.07.01,0,.02.01.03.02.05.03.09.05.13.08.02.01.04.02.06.03.02.01.06.04.08.05.02.01.04.03.07.04.03.02.07.04.1.06.04.02.07.04.11.06,0,0,.03.02.04.02.03.02.07.04.1.06h0c1.48.91,2.96,1.82,4.42,2.74l21.37-33.98c-3.77-2.37-7.63-4.71-11.47-6.95h0ZM569.81,41.23l-17.79,35.98s.02,0,.03.01c.04.02.08.04.12.06,0,0,.02,0,.02.01.05.02.1.05.15.07.02,0,.03.02.05.02.04.02.07.03.11.05.01,0,.03.01.04.02.05.02.1.05.15.07.01,0,.02,0,.03.02.04.02.08.04.12.06.02,0,.03.02.05.02.04.02.07.04.11.06l.05.02c.05.02.08.04.13.06.02,0,.04.02.06.03.03.01.06.03.09.04.02.01.04.02.06.03l.13.07s.04.02.05.03c.03.01.07.03.1.05.02.01.04.02.06.03.04.02.06.03.1.05.02.01.05.02.07.03.04.02.07.04.11.06.02.01.04.02.07.03.03.02.06.03.09.05.02,0,.04.02.06.03.04.02.1.05.14.07.02,0,.04.02.05.03.03.02.06.03.09.05.02,0,.04.02.06.03.04.02.06.03.1.05.03.01.06.03.09.04.03.01.06.03.09.05.02.01.04.02.07.03.03.02.06.03.09.04.02,0,.04.02.06.03.04.02.09.05.13.07.02.01.04.02.07.03.03.01.05.02.08.04.02.01.05.02.07.04.03.01.07.04.1.05.03.01.05.03.08.04.03.01.06.03.09.05.02.01.05.03.07.04.03.02.05.02.08.04.02.01.05.02.07.04.04.02.08.04.12.06l.08.04s.04.02.06.03c.03.01.05.03.08.04.02,0,.05.02.07.03.04.02.09.05.13.07.03.02.04.02.07.04.03.01.05.03.08.04.02,0,.03.02.05.03l.3.15s.02.01.04.02c.11.06.22.11.33.17h0s.08.04.11.06h.01c.12.07.23.13.35.19h0c1.64.85,3.28,1.72,4.91,2.59l19.01-35.35c-3.92-2.11-7.93-4.18-11.92-6.15h0ZM545.37,30.17l-15.28,37.12c3.72,1.53,7.4,3.12,11.06,4.78l16.55-36.57c-4.06-1.84-8.2-3.63-12.32-5.32h0ZM520.22,20.81l-12.7,38.08c3.31,1.1,6.59,2.25,9.86,3.45h0c.11.04.23.09.34.13.01,0,.04.01.05.02.03.01.06.02.09.03.03.01.05.02.08.03.02,0,.04.02.07.02.04.02.1.04.14.05.02,0,.04.01.05.02.04.02.07.02.11.04.02,0,.03.01.05.02.11.04.22.08.33.12h.01c.05.02.12.05.17.07l14-37.62c-4.17-1.55-8.43-3.06-12.66-4.46h0ZM494.49,13.2l-10.06,38.86c.57.15,1.14.3,1.72.45.02,0,.03,0,.05.01.03,0,.06.02.09.02.03,0,.06.02.09.02.03,0,.06.02.09.02.04.01.08.02.12.03.02,0,.03,0,.05.01.04.01.09.02.14.04,0,0,.01,0,.02,0,3.09.82,6.17,1.69,9.23,2.59l11.39-38.49c-4.27-1.26-8.62-2.47-12.93-3.59h0ZM468.3,7.37l-7.37,39.46c2.05.38,4.06.78,6.1,1.2,0,0,0,0,0,0,.12.03.24.05.36.07,0,0,0,0,.01,0,.06.01.1.02.15.03.01,0,.03,0,.04,0,.05,0,.11.02.15.03h.01c.06.01.11.02.16.04.02,0,.04,0,.05.01.04,0,.06.01.11.02.02,0,.04,0,.07.01.03,0,.06.01.1.02.04,0,.09.02.13.03.03,0,.04,0,.07.02.03,0,.06.01.1.02.02,0,.03,0,.05,0,.12.03.24.05.36.08h.02c1.25.27,2.49.54,3.73.81l8.72-39.18c-4.34-.97-8.76-1.87-13.14-2.69h0ZM441.78,3.34l-4.67,39.87c2.4.28,4.8.59,7.19.92.01,0,.03,0,.04,0,.04,0,.07,0,.11.01.02,0,.04,0,.06,0,.05,0,.1.01.15.02.03,0,.06,0,.1.01.02,0,.04,0,.07,0,.03,0,.07.01.11.01.02,0,.04,0,.06,0,.05,0,.1.01.15.02,0,0,.01,0,.02,0,.06,0,.12.02.17.02,0,0,.02,0,.03,0,.05,0,.11.02.16.02,0,0,0,0,.01,0,1.17.17,2.36.34,3.52.52l6.02-39.69c-4.4-.67-8.87-1.27-13.29-1.78h0ZM415.07,1.13l-1.96,40.09c4.03.2,8.03.46,12.02.79l3.31-40c-4.43-.37-8.93-.66-13.37-.88h0ZM395.58.66v40.14h.32s.04,0,.06,0h.16s.08,0,.12,0h.04c.11,0,.22,0,.33,0h.02s.1,0,.15,0h.02s.1,0,.15,0c0,0,.02,0,.02,0,1.37,0,2.75.02,4.11.04l.61-40.14c-2.03-.03-4.08-.05-6.11-.05h0Z"/></svg>