<?xml version="1.0" encoding="UTF-8"?><svg id="Iconos" xmlns="http://www.w3.org/2000/svg" viewBox="0 0 787.9 530.11"><defs><style>.cls-1{fill:#2b2d42;}</style></defs><path class="cls-1" d="M393.95,189.51c41.65,0,75.54,33.89,75.54,75.54s-33.89,75.54-75.54,75.54-75.54-33.89-75.54-75.54,33.89-75.54,75.54-75.54M393.95,124.46c-77.65,0-140.6,62.95-140.6,140.6s62.95,140.59,140.6,140.59,140.6-62.95,140.6-140.59-62.95-140.6-140.6-140.6h0Z"/><path class="cls-1" d="M714.71,73.19v383.73H73.19V73.19h641.52M714.71,0H73.19C32.77,0,0,32.77,0,73.19v383.73c0,40.42,32.77,73.19,73.19,73.19h641.52c40.42,0,73.19-32.77,73.19-73.19V73.19c0-40.42-32.77-73.19-73.19-73.19h0Z"/></svg>