<?xml version="1.0" encoding="UTF-8"?><svg id="Iconos" xmlns="http://www.w3.org/2000/svg" viewBox="0 0 787.9 787.9"><defs><style>.cls-1{fill:#2b2d42;}</style></defs><path class="cls-1" d="M787.9,442.69v-97.48c0-11.54-9.35-20.89-20.89-20.89h-65.57c-8.01-35.46-22.02-68.65-40.91-98.49l46.45-46.45c8.16-8.16,8.16-21.38,0-29.54l-68.93-68.91c-8.16-8.16-21.38-8.16-29.54,0l-46.43,46.43c-29.83-18.89-63.05-32.9-98.5-40.92V20.89c0-11.54-9.35-20.89-20.89-20.89h-97.48c-11.54,0-20.89,9.35-20.89,20.89v65.57c-35.46,8.01-68.67,22.04-98.5,40.91l-46.43-46.43c-8.16-8.16-21.38-8.16-29.54,0l-68.93,68.91c-8.16,8.16-8.16,21.38,0,29.54l46.45,46.45c-18.89,29.84-32.9,63.03-40.91,98.49H20.89c-11.54,0-20.89,9.35-20.89,20.89v97.48c0,11.54,9.35,20.89,20.89,20.89h65.57c8.01,35.46,22.02,68.65,40.91,98.49l-46.45,46.45c-8.16,8.16-8.16,21.38,0,29.54l68.93,68.93c8.16,8.16,21.38,8.16,29.54,0l46.45-46.45c29.84,18.89,63.03,32.9,98.49,40.91v65.59c0,11.54,9.35,20.89,20.89,20.89h97.48c11.54,0,20.89-9.35,20.89-20.89v-65.57c35.46-8.02,68.65-22.04,98.49-40.92l46.45,46.45c8.16,8.16,21.38,8.16,29.54,0l68.93-68.93c8.16-8.16,8.16-21.38,0-29.54l-46.45-46.45c18.89-29.84,32.9-63.03,40.91-98.49h65.57c11.54,0,20.89-9.35,20.89-20.89ZM557.47,459.01c-.59,1.53-1.24,3.06-1.9,4.56-17.77,41.15-50.84,74.22-91.99,91.99-1.51.68-3.03,1.31-4.56,1.91-20.14,8.04-42.09,12.46-65.07,12.46s-44.93-4.42-65.07-12.46c-1.53-.61-3.05-1.24-4.56-1.91-41.15-17.77-74.22-50.84-91.99-91.99-.66-1.5-1.31-3.03-1.9-4.56-8.06-20.14-12.48-42.09-12.48-65.07s4.42-44.91,12.48-65.05c.59-1.53,1.24-3.06,1.9-4.58,17.77-41.15,50.84-74.22,91.99-91.99,1.51-.66,3.03-1.31,4.56-1.9,20.14-8.06,42.09-12.48,65.07-12.48s44.93,4.42,65.07,12.48c1.53.59,3.05,1.24,4.56,1.9,41.15,17.77,74.22,50.84,91.99,91.99.66,1.51,1.31,3.05,1.9,4.58,8.06,20.14,12.48,42.09,12.48,65.05s-4.42,44.93-12.48,65.07Z"/></svg>