<?xml version="1.0" encoding="UTF-8" standalone="no"?>
<!-- Created with Inkscape (http://www.inkscape.org/) -->

<svg
   version="1.1"
   id="svg1"
   width="106.664"
   height="106.66663"
   viewBox="0 0 106.664 106.66663"
   xmlns="http://www.w3.org/2000/svg"
   xmlns:svg="http://www.w3.org/2000/svg">
  <defs
     id="defs1">
    <clipPath
       clipPathUnits="userSpaceOnUse"
       id="clipPath193">
      <path
         d="M 0,2436 H 1125 V 0 H 0 Z"
         transform="translate(-167.18241,-1422.114)"
         id="path193" />
    </clipPath>
  </defs>
  <g
     id="g1"
     transform="translate(-147.44054,-1289.7081)">
    <g
       id="group-MC3">
      <path
         id="path192"
         d="m 0,0 c -0.06,-0.156 -0.125,-0.311 -0.193,-0.463 -1.804,-4.178 -5.162,-7.536 -9.34,-9.341 -0.154,-0.069 -0.308,-0.132 -0.463,-0.194 -2.045,-0.817 -4.274,-1.265 -6.607,-1.265 -2.333,0 -4.561,0.448 -6.606,1.265 -0.156,0.062 -0.309,0.125 -0.463,0.194 -4.178,1.805 -7.536,5.163 -9.341,9.341 -0.067,0.152 -0.132,0.307 -0.192,0.463 -0.819,2.045 -1.268,4.273 -1.268,6.606 0,2.332 0.449,4.56 1.268,6.605 0.06,0.156 0.125,0.311 0.192,0.465 1.805,4.178 5.163,7.536 9.341,9.34 0.154,0.068 0.307,0.133 0.463,0.193 2.045,0.818 4.273,1.267 6.606,1.267 2.333,0 4.562,-0.449 6.607,-1.267 0.155,-0.06 0.309,-0.125 0.463,-0.193 4.178,-1.804 7.536,-5.162 9.34,-9.34 C -0.125,13.522 -0.06,13.367 0,13.211 0.818,11.166 1.267,8.938 1.267,6.606 1.267,4.273 0.818,2.045 0,0 m 23.396,1.658 v 9.897 c 0,1.171 -0.949,2.121 -2.12,2.121 h -6.658 c -0.813,3.6 -2.236,6.97 -4.153,10 l 4.716,4.716 c 0.828,0.828 0.828,2.171 0,2.999 l -6.999,6.997 c -0.828,0.828 -2.171,0.828 -2.999,0 L 0.468,33.674 c -3.029,1.917 -6.401,3.34 -10.001,4.155 v 6.656 c 0,1.171 -0.95,2.12 -2.121,2.12 h -9.897 c -1.172,0 -2.121,-0.949 -2.121,-2.12 v -6.658 c -3.6,-0.813 -6.972,-2.238 -10.002,-4.153 l -4.714,4.714 c -0.828,0.828 -2.171,0.828 -2.999,0 l -6.999,-6.997 c -0.828,-0.828 -0.828,-2.171 0,-2.999 l 4.716,-4.716 c -1.918,-3.03 -3.34,-6.4 -4.153,-10 h -6.658 c -1.171,0 -2.121,-0.95 -2.121,-2.121 V 1.658 c 0,-1.172 0.95,-2.121 2.121,-2.121 h 6.658 c 0.813,-3.6 2.235,-6.971 4.153,-10 l -4.716,-4.716 c -0.828,-0.828 -0.828,-2.171 0,-2.999 l 6.999,-6.999 c 0.828,-0.828 2.171,-0.828 2.999,0 l 4.716,4.716 c 3.029,-1.917 6.4,-3.34 10,-4.153 v -6.66 c 0,-1.171 0.949,-2.121 2.121,-2.121 h 9.897 c 1.171,0 2.121,0.95 2.121,2.121 v 6.658 c 3.6,0.815 6.97,2.238 10,4.155 l 4.716,-4.716 c 0.828,-0.828 2.171,-0.828 2.999,0 l 6.999,6.999 c 0.828,0.828 0.828,2.171 0,2.999 l -4.716,4.716 c 1.917,3.029 3.34,6.4 4.153,10 h 6.658 c 1.171,0 2.12,0.949 2.12,2.121"
         style="fill:#ebf0f2;fill-opacity:1;fill-rule:nonzero;stroke:none"
         transform="matrix(1.3333333,0,0,-1.3333333,222.90987,1351.8481)"
         clip-path="url(#clipPath193)" />
    </g>
  </g>
</svg>
