<?xml version="1.0" encoding="UTF-8"?><svg id="Iconos" xmlns="http://www.w3.org/2000/svg" viewBox="0 0 787.9 787.9"><defs><style>.cls-1{fill:#2b2d42;}</style></defs><path class="cls-1" d="M785.68,436.39c1.28-11.93,2.03-24.08,2.21-36.12l-92.53-1.46c-.03,2.17-.17,4.31-.25,6.47.14-3.76.29-7.51.29-11.31,0-10.4-.53-20.68-1.56-30.81.27,2.63.5,5.26.7,7.9l92.28-6.93c-.9-12.03-2.37-24.14-4.37-36l-91.25,15.38c.11.63.16,1.27.26,1.9-1.91-11.79-4.53-23.33-7.77-34.61.54,1.87,1.14,3.71,1.64,5.59l89.44-23.75c-3.1-11.66-6.78-23.32-10.95-34.65l-86.85,31.94c.04.1.07.2.11.3-3.31-9.02-7.04-17.83-11.16-26.42.09.18.19.36.28.55l83.52-39.84c-5.19-10.87-10.95-21.64-17.12-32l-79.49,47.37c1.23,2.06,2.43,4.13,3.61,6.22h0c.04.07.07.13.11.19,0,0,.01.02.02.03.03.06.06.11.09.17,0,0,.01.02.02.03.03.05.06.11.09.16,0,.02.02.03.03.05.03.05.05.09.08.14,0,.02.03.04.03.06.02.04.05.08.07.13.01.02.03.05.04.08.02.04.04.08.07.12.01.02.03.05.04.07.02.04.05.09.07.13.01.02.03.05.04.07.02.04.04.08.07.12.01.02.03.05.04.08.02.04.04.07.06.11.01.02.04.06.05.09.02.03.04.07.06.1.02.03.03.05.05.09.02.04.04.07.06.11.02.03.03.06.05.09.02.03.04.06.05.09.02.03.04.07.06.1.02.03.03.06.05.08.02.04.04.07.06.11.01.02.03.05.04.08.02.03.05.08.06.12.01.02.02.04.04.07.12.22.25.45.37.67,0,0,.01.02.02.03.03.06.06.11.09.17,0,0,0,.01.01.02.03.05.06.11.09.16,0,.01.01.02.02.04.03.05.06.11.09.16l.02.03s.02.03.03.05c-6.83-12.58-14.55-24.6-23.04-36.02.61.82,1.23,1.63,1.83,2.45l74.81-54.47c-7.08-9.72-14.7-19.24-22.65-28.28l-69.51,61.09c.75.85,1.42,1.76,2.16,2.61-8.11-9.44-16.74-18.43-25.95-26.8.04.04.08.07.13.11,0,0,.02.02.03.03.05.04.09.08.13.12.01.01.02.02.03.03.05.04.09.08.14.12.01.01.01.01.03.02.05.04.09.08.14.12.01.01.02.02.03.03.05.04.09.08.14.12.01.01.01.01.03.02.05.04.09.08.14.12.01.01.02.02.03.03.05.04.09.08.14.12.01.01.01.01.03.02.05.04.09.08.14.13.01.01.02.01.03.03.05.04.1.09.14.13,0,0,.01.01.02.02.05.05.1.09.15.14h.01c.05.06.11.11.16.16h0c.55.51,1.1,1.03,1.65,1.54h0c.05.05.11.1.16.15,0,0,.01.01.02.02.05.05.1.09.15.14,0,0,.01,0,.02.02.05.05.09.09.14.13.01.01.02.02.04.04.04.04.08.08.12.12.01.01.02.02.04.04.04.04.08.08.12.12.01.01.03.02.04.04.04.04.08.08.12.12.01.01.02.02.04.04.02.02.04.04.07.06l63.63-67.19c-8.74-8.28-17.96-16.24-27.41-23.68l-57.22,72.72c.86.68,1.68,1.42,2.54,2.11-9.62-7.74-19.71-14.91-30.24-21.44,1.24.77,2.51,1.5,3.74,2.29h.01c.06.05.11.08.17.12.02,0,.02.01.04.02.05.03.1.07.15.1.02.01.02.01.04.02.05.03.1.06.15.09.02.01.02.02.04.03.05.03.1.06.15.09.02.01.03.02.05.03.04.03.09.06.13.08.02.02.04.02.06.04.04.03.09.05.13.08.02.01.03.02.06.04.04.03.08.05.13.08.02.02.04.03.06.04.01,0,.02.01.03.02l50.31-77.67c-10.12-6.55-20.66-12.71-31.32-18.3l-42.95,81.97c.76.4,1.5.83,2.25,1.24-10.93-5.85-22.28-11-33.96-15.49,1.17.45,2.37.84,3.54,1.3,0,0,.02,0,.02.01l.16.07s.03.01.04.02c.05.02.1.04.15.06.02,0,.04.02.06.02.04.02.09.03.13.05.03.01.05.02.08.03.04.02.09.03.13.05.03,0,.05.02.08.03.04.01.08.03.12.05.03.01.06.02.09.04.04.01.07.03.11.04s.07.03.11.04c.03.01.07.03.09.04.04.02.08.03.12.05.03.01.06.02.09.04.04.02.09.04.13.05.03.01.04.02.07.03.05.02.1.04.15.06.02,0,.04.01.05.02.06.03.13.05.2.08h0c.27.11.55.23.82.34l35.19-85.59c-11.16-4.59-22.67-8.71-34.21-12.24l-27.11,88.48c.29.09.57.18.86.27-9.31-2.88-18.8-5.33-28.47-7.31.03,0,.06.01.09.02h0c.06.01.14.03.19.04,0,0,.02,0,.02,0,.07.01.12.02.19.04.01,0,.02,0,.03,0,.06.01.12.02.18.04,0,0,.01,0,.02,0l18.8-90.61c-11.79-2.45-23.85-4.37-35.83-5.72l-10.37,91.95c.98.11,1.94.32,2.92.44-12.14-1.49-24.47-2.35-37.01-2.35h.71c.06,0,.13,0,.2,0h.03c.24,0,.48,0,.72,0h0c1.58,0,3.16.03,4.74.06L402.36.09c-2.79-.06-5.59-.09-8.39-.09-12.04,0-24.19.55-36.13,1.64l8.4,92.16c.96-.09,1.94-.08,2.9-.16-11.59.94-23.01,2.49-34.2,4.71.7-.14,1.38-.31,2.07-.44,0,0,.01,0,.02,0,.06-.01.13-.02.19-.04.01,0,.02,0,.03,0,.07-.01.11-.02.18-.03.01,0,.03,0,.04,0,.06-.01.12-.02.18-.03.01,0,.03,0,.04,0,.06-.01.11-.02.17-.03.02,0,.04,0,.06-.01.05,0,.11-.02.16-.03.02,0,.05,0,.07-.02.05,0,.09-.02.14-.02.04,0,.08-.02.12-.02.03,0,.06-.01.09-.02.07-.01.15-.03.22-.04l-16.85-90.99c-11.87,2.2-23.77,4.98-35.37,8.26l25.2,89.04c1.28-.36,2.59-.66,3.87-1.01-11.93,3.21-23.57,7.14-34.87,11.72,1.56-.63,3.09-1.32,4.67-1.93l-33.34-86.32c-11.25,4.34-22.43,9.27-33.24,14.64l41.18,82.87c.56-.28,1.14-.52,1.7-.8-12.53,6.13-24.58,13.07-36.06,20.81,3.12-2.11,6.29-4.16,9.49-6.15h.01c.06-.04.11-.08.17-.11,0,0,.02-.01.03-.02.05-.03.1-.06.15-.09,0,0,.03-.02.04-.03.05-.03.09-.06.14-.08.02-.01.04-.02.06-.04,0,0,0,0,.01,0l-48.64-78.72c-10.24,6.33-20.31,13.21-29.93,20.45l55.66,73.93c.2-.15.4-.3.6-.45h0s.1-.07.14-.11c-7.68,5.75-15.08,11.85-22.17,18.29.01-.01.03-.03.04-.04l-62.19-68.53c-8.91,8.09-17.55,16.68-25.68,25.54l68.19,62.55c.26-.28.56-.53.82-.82-6.84,7.4-13.33,15.13-19.41,23.19.27-.36.52-.73.79-1.08l-73.63-56.05c-7.3,9.58-14.23,19.62-20.61,29.82l78.46,49.06c1.04-1.66,2.16-3.27,3.23-4.91-7.06,10.81-13.5,22.07-19.15,33.78,0-.01.01-.02.02-.04,0,0,0,0,0,0,.03-.06.06-.13.09-.19h0c.17-.36.35-.72.52-1.08.02-.03.03-.07.05-.1,0-.02.03-.05.03-.07.02-.05.04-.09.06-.13,0-.02.02-.05.03-.06.02-.05.05-.09.07-.14,0-.02.02-.04.03-.05.02-.05.05-.1.07-.15,0,0,.02-.04.02-.05.03-.05.05-.11.08-.16,0,0,.01-.03.02-.04.03-.05.06-.11.08-.17,0,0,.01-.02.02-.03.03-.06.06-.12.08-.17,0,0,0-.02.01-.03.03-.06.06-.12.09-.18h0c.3-.63.61-1.24.92-1.85l-82.65-41.62c-5.43,10.78-10.41,21.93-14.82,33.16l86.14,33.8c.7-1.79,1.42-3.58,2.16-5.35h0c.03-.07.05-.14.08-.2,0,0,0-.02.01-.03.02-.06.05-.12.07-.17,0-.02,0-.02.02-.04.02-.05.04-.11.07-.16,0-.02.02-.04.02-.05.02-.05.04-.1.06-.14.01-.03.02-.04.03-.07.02-.04.04-.09.05-.13.01-.03.02-.05.04-.08l.04-.1s.03-.07.05-.11c0,0,0-.01,0-.02.04-.1.09-.2.13-.3-5.52,13.09-10.13,26.67-13.78,40.63.14-.54.26-1.09.4-1.63h0c.02-.08.04-.15.05-.22,0,0,0-.02,0-.03l.05-.18s0-.03.01-.05l.05-.17s0-.04.01-.05c.01-.05.03-.11.04-.16,0-.03.01-.04.02-.07.01-.05.03-.09.04-.14,0-.03.01-.05.02-.08.01-.04.02-.09.04-.13,0-.03.02-.07.03-.09.01-.04.02-.08.03-.12.01-.04.02-.06.03-.1,0-.03.02-.07.03-.11.07-.24.13-.47.2-.71,0-.01,0-.02,0-.03.02-.07.04-.14.06-.2,0,0,0,0,0,0,.02-.07.04-.14.06-.2,0,0,0,0,0,0,.27-.97.54-1.94.82-2.9l-88.9-25.67c-3.35,11.59-6.19,23.47-8.45,35.33l90.9,17.33c.07-.39.15-.79.23-1.18h0c.01-.09.03-.16.04-.23h0c.01-.08.03-.16.04-.23h0c.01-.08.03-.16.04-.23h0c.02-.08.03-.16.05-.23h0c.06-.31.12-.61.18-.92,0,0,0-.01,0-.02.01-.07.03-.14.04-.2,0,0,0-.02,0-.03.01-.06.02-.13.04-.19,0-.02,0-.04.01-.06.01-.05.02-.11.03-.16,0-.03,0-.04.01-.07.01-.05.02-.1.03-.15,0-.03.01-.06.02-.09,0-.05.02-.09.03-.14,0-.03.01-.05.02-.08,0-.05.02-.09.03-.14,0-.03.01-.06.02-.08.01-.05.02-.1.03-.15,0-.03,0-.05.02-.07.01-.05.02-.1.03-.15,0-.03.01-.05.02-.08l.03-.16s0-.04.01-.06c.01-.07.03-.13.04-.2,0,0,0-.01,0-.02.03-.15.06-.3.1-.45,0,0,0-.01,0-.02.01-.07.03-.14.04-.21,0-.01,0-.02,0-.03.01-.06.03-.13.04-.19,0,0,0-.04.01-.05.01-.06.02-.12.04-.17,0-.02,0-.04.01-.06.01-.05.02-.11.04-.16,0-.02.01-.05.01-.07.01-.05.02-.11.04-.16,0-.02,0-.05.01-.06.01-.05.02-.11.03-.16,0-.02,0-.05.01-.06.01-.06.02-.11.04-.16,0-.02,0-.04.01-.06.01-.05.02-.11.04-.16,0-.02,0-.04.01-.06.01-.06.03-.12.04-.18,0-.01,0-.03,0-.04.02-.07.03-.14.05-.2v-.02c.07-.3.14-.61.21-.91.02-.07.03-.15.05-.22,0,0,0-.01,0-.02.02-.07.03-.14.05-.21v-.02c.02-.07.04-.13.05-.2,0,0,0-.02,0-.03.01-.07.03-.13.04-.2v-.03c.02-.07.04-.14.05-.21v-.02c.02-.07.04-.14.05-.21v-.02c.02-.07.04-.14.05-.22h0c.43-1.9.93-3.76,1.4-5.64-4.46,17.92-7.32,36.47-8.41,55.5.03-.56.02-1.14.06-1.7h0c0-.07,0-.15.01-.22h0c.02-.34.04-.69.07-1.03,0-.02,0-.04,0-.06,0-.04,0-.09,0-.13,0-.04,0-.07,0-.11,0-.04,0-.07,0-.11,0-.04,0-.08,0-.12,0-.03,0-.08,0-.11,0-.04,0-.08,0-.13,0-.04,0-.06,0-.1,0-.05,0-.1.01-.15,0-.02,0-.05,0-.07,0-.06,0-.12.01-.18,0,0,0-.04,0-.05.18-2.53.39-5.05.63-7.56L1.83,355.75c-1.15,11.93-1.77,24.09-1.83,36.12l92.54.49c0-1.41.12-2.8.14-4.21-.04,1.95-.15,3.87-.15,5.82,0,14.89,1.12,29.51,3.21,43.81-.13-.91-.31-1.82-.43-2.73,0-.01,0-.03,0-.04,0-.06-.01-.11-.02-.16,0-.02,0-.04,0-.06,0-.05-.01-.11-.02-.16v-.06c-.02-.06-.02-.1-.03-.16,0-.02,0-.04,0-.06,0-.05-.01-.11-.02-.16,0-.02,0-.05,0-.07,0-.05-.01-.1-.02-.15,0-.03,0-.05-.01-.08,0-.05-.01-.1-.02-.15,0-.02,0-.04,0-.07,0-.06-.01-.1-.02-.16v-.03c-.02-.13-.04-.28-.06-.4t0,0c0-.06-.01-.09-.02-.15,0-.02,0-.05,0-.07,0-.05-.01-.09-.02-.14,0-.03,0-.06-.01-.09,0-.04-.01-.09-.02-.13,0-.03,0-.06-.01-.09l-.02-.13s0-.07-.01-.11c0-.04,0-.07-.01-.11,0-.04,0-.08-.01-.12,0-.04,0-.07-.01-.11,0-.04-.01-.08-.02-.12,0-.03,0-.08-.01-.11l-.02-.12s0-.06-.01-.1c0-.05-.01-.1-.02-.14,0-.03,0-.05,0-.08,0-.06-.01-.12-.02-.17,0-.02,0-.03,0-.05-.02-.15-.04-.31-.06-.46,0-.01,0-.04,0-.05,0-.06-.01-.12-.02-.18,0-.03,0-.04,0-.07,0-.05-.01-.11-.02-.16,0-.03,0-.05,0-.08,0-.05-.01-.1-.02-.15,0-.02,0-.05,0-.07,0-.05-.01-.11-.02-.16,0-.02,0-.05,0-.07,0-.06-.01-.11-.02-.17,0-.02,0-.04,0-.06,0-.06-.01-.12-.02-.17,0-.02,0-.03,0-.05,0-.07-.02-.13-.02-.2,0-.01,0-.02,0-.03,0-.07-.02-.14-.02-.21,0,0,0-.01,0-.02-.04-.31-.07-.62-.11-.93,0,0,0-.03,0-.04,0-.06-.01-.13-.02-.19,0,0,0-.03,0-.04,0-.06-.01-.13-.02-.19,0-.02,0-.02,0-.04,0-.06-.01-.13-.02-.19t0-.04c0-.06-.01-.12-.02-.19,0-.02,0-.03,0-.05,0-.06-.01-.13-.02-.19,0,0,0-.02,0-.03,0-.07-.02-.15-.02-.22h0c-.03-.32-.07-.63-.1-.95,0-.01,0-.03,0-.04,0-.06-.01-.13-.02-.19,0-.02,0-.04,0-.06,0-.05-.01-.11-.02-.16,0-.03,0-.05,0-.08,0-.05-.01-.1-.02-.16,0-.02,0-.05,0-.07,0-.05-.01-.11-.02-.16,0-.02,0-.05,0-.07,0-.05-.01-.11-.02-.16,0-.02,0-.05,0-.07,0-.06-.01-.11-.02-.17,0-.03,0-.04,0-.07,0-.06-.01-.13-.02-.19,0,0,0-.02,0-.03,0-.08-.01-.15-.02-.23h0c0-.08-.01-.16-.02-.24,0,0,0-.03,0-.04,0-.06-.01-.12-.02-.18,0-.04,0-.06,0-.1,0-.04,0-.09-.01-.13,0-.04,0-.07-.01-.11,0-.04,0-.08-.01-.12,0-.04,0-.08-.01-.12,0-.04,0-.07,0-.11,0-.04,0-.09-.01-.13,0-.03,0-.07,0-.1,0-.04,0-.09-.01-.13v-.09s-.02-.09-.02-.14v-.07c-.01-.06-.02-.1-.02-.16,0-.02,0-.03,0-.05-.04-.43-.08-.84-.11-1.27l-92.2,7.92c1.03,12.01,2.63,24.11,4.76,35.95l91.08-16.36c-.28-1.53-.48-3.09-.73-4.63,2.04,12.47,4.85,24.68,8.38,36.59-.48-1.64-1.02-3.25-1.48-4.9l-89.18,24.71c3.22,11.63,7.03,23.25,11.32,34.53l86.5-32.87c-.23-.59-.41-1.2-.64-1.8,4.91,13.18,10.69,25.93,17.32,38.16-.1-.18-.2-.36-.3-.54-.07-.13-.14-.26-.21-.4h0c-.03-.07-.07-.14-.1-.2h0c-.03-.07-.07-.13-.1-.19v-.02c-.08-.13-.15-.26-.22-.39h0c-.04-.07-.07-.14-.11-.2h0c-.03-.07-.07-.13-.1-.19h0c-.28-.55-.57-1.08-.85-1.62h0c-.07-.13-.14-.27-.21-.4,0,0,0-.01-.01-.02-.03-.06-.06-.12-.09-.17l-.02-.03c-.03-.05-.06-.11-.09-.16,0-.02-.01-.03-.02-.05-.03-.05-.06-.11-.08-.16,0-.02-.01-.02-.02-.04-.03-.05-.05-.11-.08-.16,0-.02-.02-.03-.03-.05-.03-.05-.05-.1-.08-.15,0-.02-.02-.04-.03-.05-.02-.05-.05-.09-.07-.14,0-.02-.02-.05-.03-.06-.02-.05-.05-.09-.07-.14,0-.02-.02-.04-.03-.06-.02-.05-.05-.09-.07-.13-.01-.02-.02-.04-.04-.07-.02-.05-.04-.09-.07-.13-.01-.02-.02-.05-.04-.07-.02-.04-.04-.08-.06-.13-.01-.02-.02-.05-.04-.07-.02-.05-.05-.09-.07-.13-.01-.03-.02-.04-.03-.07-.02-.05-.05-.09-.07-.14,0-.02-.02-.05-.03-.06-.03-.05-.05-.11-.08-.16,0,0-.02-.03-.02-.04l-.1-.2h0c-.07-.14-.14-.27-.21-.41,0,0,0-.02-.01-.03-.03-.06-.06-.12-.09-.17,0-.02-.02-.04-.03-.05-.02-.05-.05-.1-.07-.15,0-.02-.03-.05-.03-.07-.02-.04-.04-.09-.06-.13-.01-.02-.03-.05-.04-.08-.02-.04-.04-.08-.06-.12-.01-.02-.03-.06-.04-.08-.02-.04-.04-.08-.06-.12-.01-.02-.02-.05-.04-.07-.02-.04-.04-.08-.06-.12-.01-.02-.03-.06-.04-.08-.02-.04-.04-.07-.06-.11-.01-.02-.03-.06-.04-.09-.02-.04-.04-.08-.06-.12l-.04-.09-.06-.12s-.02-.05-.04-.08c-.02-.04-.04-.08-.06-.12l-.04-.09s-.04-.07-.06-.11l-.04-.09-.06-.12s-.03-.06-.04-.08c-.02-.04-.04-.08-.06-.12-.01-.03-.03-.05-.04-.08-.02-.04-.04-.09-.06-.13-.01-.02-.02-.05-.04-.07-.02-.05-.05-.09-.07-.14,0-.02-.02-.04-.03-.05l-.08-.17s-.01-.02-.01-.03c-.04-.07-.07-.15-.11-.22l-83.09,40.74c5.3,10.81,11.18,21.52,17.46,31.81l78.98-48.22c-.08-.14-.16-.28-.25-.41,4.99,8.21,10.36,16.16,16.09,23.82-.1-.14-.21-.28-.31-.41l-74.22,55.26c7.18,9.65,14.9,19.08,22.95,28.04l68.85-61.83s-.04-.04-.06-.07c-.03-.03-.06-.06-.08-.09-.02-.02-.04-.05-.06-.07-.11-.12-.23-.26-.33-.37-.01-.02-.03-.03-.04-.05-.03-.04-.07-.08-.1-.11-.02-.02-.03-.03-.05-.05-.03-.04-.06-.07-.09-.1-.02-.02-.04-.04-.06-.06-.03-.04-.06-.07-.09-.1-.02-.02-.04-.04-.05-.06-.03-.04-.06-.07-.09-.1-.02-.02-.04-.05-.06-.07-.03-.04-.06-.07-.09-.1-.02-.02-.04-.04-.06-.07-.02-.03-.06-.07-.08-.09-.02-.02-.04-.05-.06-.07-.02-.03-.06-.07-.08-.09-.02-.02-.04-.05-.06-.07-.03-.04-.05-.05-.08-.09-.02-.03-.05-.05-.07-.08-.03-.03-.05-.05-.08-.09l-.07-.07s-.05-.06-.08-.09c-.02-.02-.04-.05-.07-.08-.02-.03-.06-.06-.08-.09-.02-.02-.04-.05-.06-.07-.02-.03-.06-.06-.08-.09-.02-.02-.04-.05-.06-.07-.03-.04-.06-.06-.09-.1-.02-.02-.04-.04-.06-.06-.03-.04-.06-.07-.09-.1l-.06-.07s-.06-.07-.09-.1c-.02-.02-.04-.04-.05-.06-.02-.03-.07-.08-.09-.1-.02-.02-.03-.04-.05-.06-.04-.04-.06-.07-.1-.12l-.03-.03-.11-.13s-.02-.03-.03-.04c-.04-.04-.08-.09-.11-.13,0,0-.01-.01-.02-.02-.04-.05-.08-.1-.13-.15,0,0,0,0,0,0-.28-.32-.55-.63-.83-.96,0,0-.01-.02-.02-.02-.04-.05-.08-.09-.12-.14,0,0-.01-.01-.02-.02-.04-.04-.07-.08-.11-.13-.01-.02-.03-.03-.04-.05-.04-.04-.08-.09-.11-.13,0-.01-.02-.02-.03-.03-.04-.04-.08-.09-.11-.13-.01-.01-.02-.02-.03-.04-.04-.04-.07-.09-.11-.13-.01-.01-.02-.02-.03-.04-.03-.04-.07-.08-.1-.12-.02-.02-.03-.04-.05-.05-.03-.04-.07-.08-.1-.12-.01-.01-.02-.03-.04-.04-.04-.04-.07-.08-.11-.12-.01-.02-.03-.03-.04-.05-.04-.04-.07-.08-.11-.12l-.03-.04s-.07-.08-.11-.12c-.01-.02-.03-.03-.04-.05-.04-.05-.07-.08-.1-.12-.01-.01-.02-.02-.03-.04-.04-.04-.08-.09-.11-.13,0-.01-.02-.02-.03-.03-.04-.04-.08-.09-.11-.13,0-.01-.02-.02-.03-.03-.04-.04-.08-.09-.11-.14,0-.01-.02-.02-.03-.03-.04-.05-.08-.09-.12-.14,0,0,0,0-.01-.01-.05-.06-.08-.1-.13-.15,0,0,0,0,0,0-.56-.67-1.13-1.35-1.69-2.03,8.77,10.63,18.29,20.62,28.42,29.95-.23-.22-.49-.4-.73-.61l-62.91,67.86c8.83,8.18,18.13,16.05,27.67,23.39l56.44-73.33c-.54-.41-1.01-.89-1.55-1.31,9,7.02,18.36,13.59,28.14,19.57-1.28-.78-2.57-1.56-3.85-2.37l-49.48,78.2c10.19,6.45,20.79,12.49,31.52,17.97l42.07-82.42c-.93-.48-1.82-1.02-2.75-1.51,9.84,5.15,20,9.76,30.44,13.82-.8-.31-1.63-.54-2.42-.86l-34.27,85.96c11.21,4.47,22.77,8.47,34.34,11.88l26.15-88.76c-.92-.27-1.83-.54-2.74-.82,0,0-.02,0-.03-.01-.06-.02-.12-.04-.18-.05-.03,0-.03-.01-.06-.02-.05-.01-.1-.03-.15-.05-.03,0-.05-.02-.08-.02-.04-.02-.09-.03-.13-.04-.03,0-.07-.02-.1-.03-.04-.01-.08-.02-.11-.03-.04-.01-.07-.02-.11-.03-.03-.01-.07-.02-.1-.03-.04-.01-.08-.02-.12-.04-.03,0-.06-.02-.09-.03-.05-.01-.09-.03-.13-.04-.02,0-.05-.02-.07-.02-.02,0-.05-.02-.07-.02,12.8,3.98,25.99,7.06,39.46,9.31-2.74-.46-5.5-.88-8.22-1.42l-17.82,90.81c11.81,2.32,23.89,4.11,35.89,5.34l9.38-92.06c-4.84-.49-9.63-1.11-14.4-1.83,14.78,2.23,29.91,3.4,45.31,3.4h-.72c-.72,0-1.43,0-2.14-.01h-.11s-.04,0-.07,0c-.06,0-.11,0-.17,0l-.97,92.53,4.2.02c10.63,0,21.38-.43,31.94-1.28l-7.42-92.24c-1.06.09-2.14.07-3.21.15,13.39-.94,26.57-2.66,39.42-5.29-.03,0-.06.01-.09.02-.02,0-.04,0-.06.01-.05,0-.12.02-.17.03-.02,0-.03,0-.04,0-.06.01-.12.02-.17.04-.01,0-.03,0-.04,0-.06.01-.12.02-.18.03,0,0-.02,0-.03,0-.06.01-.13.03-.19.04,0,0,0,0-.01,0-2.55.51-5.13,1-7.7,1.45l15.87,91.17c11.89-2.07,23.82-4.72,35.46-7.88l-24.23-89.31c-.61.16-1.23.29-1.84.45,13.74-3.64,27.11-8.18,40.01-13.63-.05.02-.11.05-.16.07,0,0-.03.01-.04.02-.06.02-.12.05-.18.08,0,0-.01,0-.02,0-.07.03-.13.06-.2.08h0c-.35.15-.7.3-1.06.45h0c-.07.03-.13.06-.2.09h-.02c-.06.03-.13.06-.19.09,0,0-.02,0-.03.01-.06.02-.11.05-.17.07-.02,0-.03.01-.05.02-.05.02-.1.04-.16.07-.02,0-.04.02-.06.02-.05.02-.1.04-.15.06-.02,0-.04.01-.05.02-.05.02-.1.04-.16.06-.02,0-.04.02-.06.02-.05.02-.1.04-.15.06-.02,0-.04.02-.06.02-.05.02-.1.04-.15.06-.02,0-.04.02-.06.03-.05.02-.11.04-.16.06-.02,0-.02.01-.04.02-.06.02-.12.05-.18.07,0,0-.03.01-.03.02-.06.02-.13.05-.19.08h-.02c-.06.03-.13.06-.2.09t-.02,0c-2.49,1.01-5.01,1.99-7.53,2.93l32.41,86.68c11.3-4.22,22.53-9.03,33.4-14.28l-40.29-83.31c-.11.05-.23.11-.34.16,8.66-4.17,17.08-8.76,25.26-13.71-.17.11-.34.22-.52.32l47.8,79.24c10.31-6.22,20.45-12.99,30.15-20.13l-54.87-74.52c-1.24.92-2.55,1.75-3.81,2.65,9.58-6.83,18.79-14.15,27.49-22.03-.7.64-1.4,1.28-2.12,1.92l61.46,69.18c8.99-7.99,17.72-16.49,25.95-25.27l-67.52-63.27c-2.19,2.34-4.43,4.65-6.69,6.92h0c-.05.05-.1.1-.15.15,0,0-.01.01-.02.02-.05.05-.09.09-.14.14l-.02.02s-.09.09-.14.14l-.02.02s-.1.09-.14.14v.02c-.06.05-.11.09-.15.14-.01.01-.01.01-.03.02-.04.05-.09.09-.13.13,0,0-.02.02-.02.02-.05.05-.09.09-.14.14,0,0-.02.01-.02.02-.05.05-.09.09-.14.14l-.02.02s-.09.09-.13.13c0,0-.02.02-.03.03-.05.05-.09.09-.14.14,0,0-.01.01-.02.02-.05.05-.1.1-.15.15h0c-.32.32-.64.63-.96.95-.01.01-.03.02-.04.04-.04.04-.08.08-.12.12-.01.01-.02.02-.04.04-.04.04-.08.08-.12.12-.01.01-.03.02-.04.04-.04.04-.08.08-.12.12-.02.02-.03.02-.05.04-.04.04-.07.07-.11.11-.02.02-.04.04-.06.06-.03.03-.07.07-.1.1-.02.02-.04.04-.06.06-.03.03-.07.06-.1.1-.02.02-.04.04-.06.06-.03.03-.06.06-.09.09-.02.02-.05.05-.07.07-.03.03-.06.05-.09.08-.03.02-.05.05-.08.07-.03.03-.05.05-.08.08-.03.02-.05.05-.08.07-.03.03-.06.05-.08.08-.03.02-.05.05-.08.08-.02.02-.05.05-.08.07-.03.03-.06.05-.08.08-.02.02-.05.05-.07.07-.03.03-.06.05-.09.09-.02.02-.05.05-.07.07-.03.03-.06.06-.09.09-.02.02-.05.05-.07.07-.03.03-.06.06-.09.09-.02.02-.04.04-.06.06-.03.02-.07.07-.09.09-.02.02-.04.04-.06.06-.03.03-.07.06-.1.1-.02.02-.04.03-.05.05-.03.03-.07.06-.1.09-.02.02-.04.04-.07.06-.03.03-.06.06-.1.09-.01.01-.03.03-.04.04-.04.04-.08.07-.12.11,0,0-.01.01-.02.02-.29.28-.6.57-.9.85-.01.01-.02.02-.04.03-.04.04-.08.07-.12.11-.01.01-.03.02-.04.04-.04.04-.08.07-.12.11-.01.01-.03.03-.04.04-.04.04-.08.08-.12.12-.01.01-.02.02-.04.03-.04.04-.08.07-.12.11-.01.01-.03.03-.04.04-.04.04-.08.07-.12.11-.01.01-.02.02-.04.03-.04.04-.08.08-.12.12-.01.01-.02.02-.04.04-.04.04-.08.08-.12.12-.01.01-.02.02-.03.03-.04.04-.09.08-.13.12-.01.01-.02.02-.04.03-.04.04-.09.08-.13.12l-.03.03s-.09.08-.13.12c-.01,0-.02.02-.03.03-.05.04-.08.08-.13.12,0,0-.02.02-.02.02-.05.04-.09.08-.14.13,0,0-.01.01-.02.02-.04.04-.1.09-.14.13,0,0,0,0-.01.01-.05.05-.1.09-.15.14h0c-.42.39-.84.77-1.26,1.15,13.37-12.19,25.6-25.6,36.6-40-.33.44-.62.91-.96,1.34,0,0-.02.03-.03.04-.03.05-.07.09-.1.13-.02.03-.03.04-.06.07-.02.03-.05.07-.08.1-.02.03-.05.07-.08.1-.02.02-.04.05-.06.07-.03.04-.06.08-.09.12-.01.02-.03.04-.04.05-.03.05-.06.08-.09.12,0,.01-.02.02-.03.03l73.03,56.83c7.4-9.5,14.44-19.46,20.93-29.6l-77.93-49.89s-.04.07-.06.1c-.02.02-.03.05-.05.07-.03.05-.06.1-.09.15,0,0-.02.03-.02.03-.2.32-.41.63-.61.95-.04.07-.08.13-.12.19l-.12.18s-.01.02-.02.03c-.04.05-.07.11-.11.16,0,0,0,0-.01.02-.04.06-.07.11-.11.17,0,0,0,0-.01.02-.04.06-.07.11-.11.17v.02c-.05.06-.08.11-.12.17,0,0-.01.02-.02.02-.04.06-.08.11-.11.17h0c-.04.07-.08.13-.12.19h0c-.08.13-.16.26-.24.38h0c-.24.38-.52.71-.76,1.08,7.5-11.29,14.29-23.09,20.24-35.37-.2.41-.39.83-.59,1.25,0,0,0,.02-.01.02-.03.05-.05.11-.08.16,0,.01-.01.03-.02.04-.03.05-.05.09-.07.14,0,.02-.02.04-.03.06-.02.04-.05.09-.07.14,0,.02-.02.04-.03.06-.02.04-.05.09-.07.14-.01.02-.02.04-.03.06-.02.04-.04.09-.06.13-.01.02-.02.05-.04.07-.02.04-.04.08-.06.12-.01.03-.03.05-.04.08-.02.04-.04.07-.06.12l-.04.08-.06.12s-.03.06-.05.09l-.05.1-.05.11s-.03.05-.04.09c-.02.04-.04.08-.06.12,0,.02-.03.06-.04.07-.03.05-.05.1-.08.15,0,.02-.01.03-.02.04-.58,1.17-1.17,2.33-1.77,3.49l82.2,42.51c5.54-10.72,10.65-21.82,15.17-32.99l-85.77-34.73c-.53,1.31-1.08,2.6-1.62,3.9,5.65-13.41,10.36-27.3,14.05-41.61,0,.02,0,.03-.01.05,0,.03-.01.05-.02.08-.01.05-.02.09-.03.13,0,.03-.02.06-.02.09-.01.05-.02.08-.03.13,0,.03-.02.06-.02.09,0,.04-.02.09-.03.12,0,.03-.02.06-.02.09-.01.05-.02.08-.03.13,0,.02-.01.05-.02.08-.01.05-.02.09-.04.14,0,.03-.01.05-.02.08-.02.09-.04.17-.07.26,0,.03-.02.06-.02.09,0,.04-.02.08-.03.11,0,.03-.02.07-.03.1,0,.04-.02.08-.03.12,0,.04-.02.07-.03.11-.01.04-.02.07-.03.11,0,.04-.02.07-.03.11-.01.04-.02.07-.03.1s-.02.08-.03.12c0,.03-.02.07-.03.1l-.03.12s-.02.07-.03.1-.02.08-.03.12c-.01.04-.02.06-.03.1l-.03.12s-.02.06-.02.09c-.01.04-.02.09-.04.13,0,.03-.02.06-.02.09-.01.04-.02.08-.03.13,0,.03-.02.06-.03.09-.01.05-.02.09-.04.14,0,.03-.01.05-.02.08-.02.06-.03.12-.05.17,0,0,0,.03-.01.04-.08.3-.16.59-.24.89h0c-.02.08-.04.15-.06.22,0,0,0,.02,0,.03-.02.06-.04.12-.05.19,0,.02,0,.02-.01.04-.02.06-.03.12-.05.18,0,.02,0,.02,0,.03-.02.06-.04.13-.05.19,0,.02,0,0,0,.03-.02.07-.04.13-.06.2v.02c-.02.07-.04.14-.06.21h0c-.49,1.77-1,3.52-1.52,5.26l88.62,26.63c3.47-11.55,6.44-23.41,8.83-35.24l-90.71-18.31c-.03.17-.08.34-.11.51,1.95-9.57,3.44-19.3,4.46-29.18-.04.42-.08.83-.12,1.25l92.01,9.88ZM592.21,166.89s.02.02.03.03c.04.04.08.07.13.11.01.01.03.02.04.04.04.03.08.07.12.1.02.01.03.03.05.04.04.04.07.06.11.1.02.02.04.03.06.05.03.02.07.06.1.08.02.02.05.04.07.06.04.03.06.05.09.08.02.02.05.05.08.07.03.02.06.05.09.08.03.02.05.05.08.07.03.02.06.05.09.08.03.02.05.05.08.07.03.02.05.05.08.07.03.03.06.05.09.08.03.02.05.04.07.07.03.03.06.05.09.08.03.02.05.04.07.07.03.02.06.05.09.08.03.02.05.05.08.07.03.03.06.05.09.08.02.02.05.04.07.06.03.03.07.06.1.09.02.02.04.04.07.06.04.03.07.06.11.09.02.02.04.03.06.05.04.03.07.07.11.1.02.02.04.03.06.05.04.04.09.08.13.12,0,0,.03.02.03.03.05.04.09.08.14.12,0,0,.02.02.03.03.05.05.11.09.16.14h0c.39.35.78.71,1.17,1.06,0,0,0,0,.02.02.05.05.1.09.15.13,0,0,.02.02.03.02.04.04.09.08.13.12h0c-2.42-2.19-4.93-4.3-7.42-6.42.98.84,2.01,1.63,2.99,2.48ZM544.14,132.55s0,0,0,0c.06.03.11.06.17.09.01,0,.02.01.03.02.06.03.1.06.16.09.01,0,.02.01.03.02.05.03.1.06.15.08.02.01.03.02.05.03.05.03.09.05.14.08.02.01.04.02.06.03.04.02.08.05.12.07.03.02.05.03.08.05.04.02.07.04.11.07.03.02.05.03.08.05.03.02.07.04.11.06.03.02.06.04.09.05.03.02.07.04.1.06.04.02.07.04.11.06.02.02.05.03.07.04.04.02.09.05.13.08.02.01.04.02.06.04l.15.09s.03.02.04.02c.05.03.11.06.16.09,0,0,.02.01.03.02.77.45,1.51.94,2.28,1.4-2.79-1.67-5.63-3.29-8.48-4.88,1.32.73,2.66,1.43,3.96,2.18ZM488.02,107.5s0,0,.02,0c.07.02.13.04.2.07,0,0,.04.01.05.02.05.02.11.04.16.05.03,0,.05.02.08.03.05.02.09.03.13.05.03,0,.06.02.09.03.04.01.08.02.12.04.03,0,.08.02.1.03.04.01.07.02.11.04.04.01.07.02.11.04.03.01.06.02.1.03.04.01.09.03.12.04.03,0,.05.02.08.03.05.02.09.03.14.05.02,0,.04.01.06.02.05.02.11.04.16.05.02,0,.03.01.05.02.05.02.11.04.17.06,0,0,.02,0,.03,0,.06.02.12.04.19.06,0,0,0,0,0,0,1.11.38,2.19.82,3.3,1.21-3.12-1.09-6.24-2.19-9.41-3.19,1.29.4,2.57.8,3.85,1.22ZM449.64,97.67h0c.07.02.14.03.21.04,0,0,.02,0,.03,0,.06.01.13.02.19.04.02,0,.03,0,.05,0,.06.01.12.02.18.03.02,0,.02,0,.04,0,.06.01.12.02.18.03.02,0,.04,0,.06,0,.06.01.11.02.17.03.02,0,.04,0,.05,0,.06.01.11.02.17.03.03,0,.03,0,.06.01.06.01.12.02.18.03,0,0,.03,0,.04,0,.15.03.3.06.45.09.02,0,.04,0,.06.01.05,0,.11.02.16.03.04,0,.05,0,.09.02.04,0,.09.02.13.02.04,0,.06.01.1.02.04,0,.08.01.12.02.04,0,.08.02.12.02.03,0,.07.01.1.02.04,0,.08.02.12.02.03,0,.06.01.09.02.04,0,.09.02.13.02.03,0,.06.01.09.02.05,0,.09.02.14.03.02,0,.05,0,.07.01.06.01.09.02.15.03.02,0,.04,0,.06.01.05,0,.11.02.16.03.01,0,.03,0,.04,0,.33.07.67.14,1.01.21-2.63-.54-5.3-.95-7.95-1.42.97.17,1.97.26,2.94.44ZM388.13,92.59h0c.08,0,.15,0,.23,0h.02c.07,0,.15,0,.22,0h.02c.07,0,.15,0,.22,0h.02c.07,0,.15,0,.22,0h.02c.32,0,.64,0,.96-.01h.03c.07,0,.14,0,.21,0,.01,0,.03,0,.04,0,.06,0,.13,0,.19,0h.06c.06,0,.12,0,.18,0h.06c.06,0,.12,0,.17,0h.06c.06,0,.12,0,.18,0h.05c.07,0,.13,0,.2,0h.04c.16,0,.31,0,.47,0h.06c.06,0,.12,0,.18,0h.23s.06,0,.09,0h.47s.09,0,.14,0h.75c-2.96,0-5.89.14-8.83.22,1.02-.03,2.01-.15,3.04-.17ZM329.61,99.49c-2.83.61-5.64,1.26-8.44,1.95,2.8-.69,5.61-1.33,8.44-1.95ZM274.66,117.12c-2.41,1.04-4.78,2.14-7.16,3.24,2.38-1.1,4.75-2.2,7.16-3.24ZM213.63,152.41s.1-.07.14-.11c.01-.01.02-.02.04-.03.04-.03.09-.07.13-.1.02-.01.04-.03.05-.04.04-.03.08-.06.12-.09.02-.02.04-.03.06-.04.04-.03.07-.06.11-.08.02-.02.06-.04.08-.06.03-.02.06-.04.09-.07.03-.02.07-.05.1-.07.02-.02.04-.03.07-.05.04-.03.08-.06.12-.09.01,0,.03-.02.04-.03.05-.03.09-.07.14-.1,0,0,.01-.01.02-.02,2.08-1.54,4.18-3.05,6.3-4.54,0,0,.01,0,.02-.01.05-.04.1-.07.16-.11,0,0,.02-.01.02-.02.05-.04.1-.07.15-.11,0,0,.02-.01.02-.02.05-.03.11-.08.15-.11,0,0,.02-.01.03-.02.05-.04.09-.06.15-.1.01,0,.03-.02.04-.03.04-.03.1-.07.14-.09.01-.01.03-.02.04-.03.05-.03.09-.06.13-.09.02-.01.04-.02.05-.04.05-.03.08-.06.13-.09l.05-.03s.09-.06.12-.09c.02-.02.05-.03.07-.05.04-.03.07-.05.11-.08.02-.02.05-.03.07-.05.04-.03.07-.05.11-.07.03-.02.05-.04.08-.05.04-.03.06-.04.1-.07.04-.03.09-.06.13-.09.02-.01.03-.02.04-.03.06-.04.12-.08.18-.12h0c.31-.22.62-.43.94-.64h0c.06-.04.12-.09.19-.13h0c.06-.05.12-.09.18-.13h0c.06-.04.12-.09.18-.13h0c.12-.09.24-.17.36-.25-4,2.7-7.94,5.5-11.8,8.39,0,0,0,0,0,0ZM149.52,217.69c-1.55,2.15-3.11,4.29-4.61,6.48,1.5-2.19,3.05-4.33,4.61-6.48ZM106.78,485.68c.82,2.58,1.71,5.14,2.6,7.69-.89-2.55-1.78-5.11-2.6-7.69ZM133.41,545.64s-.01-.02-.02-.03c-.03-.05-.05-.08-.08-.13l-.04-.06s-.04-.07-.06-.11c-.02-.03-.03-.06-.05-.09-.02-.03-.04-.06-.05-.09-.02-.04-.04-.07-.06-.1-.01-.02-.03-.05-.04-.08-.02-.04-.05-.08-.07-.12-.01-.02-.03-.05-.04-.08-.02-.04-.05-.08-.07-.12-.01-.02-.02-.04-.04-.07-.02-.04-.05-.09-.08-.13-.01-.02-.02-.04-.04-.07-.02-.04-.05-.09-.07-.13,0-.02-.03-.05-.04-.06-.03-.04-.05-.09-.08-.13,0-.02-.03-.05-.04-.06-.03-.05-.05-.09-.08-.14,0-.02-.02-.03-.03-.05-.03-.05-.06-.1-.09-.15,0-.02-.01-.02-.02-.04-.03-.06-.06-.11-.1-.17,0,0,0-.02-.01-.02-.03-.06-.07-.12-.1-.18,0,0,0-.01-.01-.02-.95-1.66-1.86-3.33-2.78-5.01,2.18,3.99,4.44,7.93,6.79,11.8-.88-1.45-1.75-2.91-2.61-4.37ZM161.27,585.6s0,0,0,0c-.04-.05-.09-.1-.13-.16,0,0,0-.01-.01-.02-.04-.05-.08-.1-.12-.15l-.02-.02s-.08-.09-.12-.15c0,0-.01-.01-.02-.02-.04-.05-.08-.09-.12-.15,0,0-.01-.01-.02-.02-.04-.05-.08-.1-.12-.14,0-.01-.02-.02-.03-.03-.04-.04-.08-.09-.11-.14,0,0-.01-.02-.02-.03-.04-.05-.08-.09-.12-.14,0,0-.01-.02-.02-.02-.04-.04-.09-.1-.12-.15h-.01c-.04-.07-.08-.12-.12-.17,0,0-.01-.01-.02-.02-.04-.05-.08-.1-.12-.15,0,0,0,0,0,0-.49-.61-.99-1.22-1.47-1.83,0,0-.02-.02-.03-.03-.04-.05-.07-.09-.11-.14,0-.01-.02-.02-.03-.03-.04-.05-.07-.08-.1-.13-.01-.02-.03-.03-.04-.05-.04-.05-.06-.08-.1-.12-.01-.02-.03-.03-.04-.05-.03-.04-.06-.08-.09-.12-.02-.02-.03-.04-.05-.06-.03-.04-.06-.07-.09-.11-.02-.02-.03-.04-.05-.06-.03-.04-.06-.07-.09-.11-.02-.02-.03-.04-.05-.06-.03-.04-.06-.07-.09-.11-.02-.02-.03-.04-.05-.06-.03-.04-.05-.07-.08-.11-.02-.02-.04-.05-.06-.07-.02-.03-.06-.07-.08-.1l-.05-.07s-.05-.07-.08-.1c-.02-.02-.04-.05-.06-.07-.03-.04-.05-.07-.08-.1-.02-.02-.04-.05-.05-.07-.02-.03-.06-.07-.08-.11-.02-.02-.04-.05-.06-.08-.02-.03-.05-.06-.07-.09l-.07-.09s-.04-.05-.07-.09c-.03-.03-.05-.07-.08-.1-.02-.03-.03-.04-.05-.07l-.09-.12s-.03-.04-.04-.06c-.04-.05-.07-.09-.11-.14-.01-.02-.02-.02-.03-.04-.04-.05-.08-.11-.13-.16h0c-.28-.37-.55-.73-.83-1.08h0c-.04-.06-.09-.12-.13-.18h0c-.04-.07-.08-.12-.13-.18,0,0,0-.01-.01-.02-.04-.05-.08-.11-.12-.16h0c-.04-.07-.09-.12-.13-.18h0c-.7-.92-1.38-1.84-2.07-2.75,2.86,3.82,5.8,7.56,8.83,11.24-.03-.03-.06-.07-.09-.1ZM241.57,654.1h0c-.06-.04-.13-.08-.19-.12h0l-.19-.12h0c-.06-.04-.13-.07-.19-.11h0c-.06-.04-.11-.07-.17-.1,0,0-.02-.01-.03-.02-.06-.04-.12-.07-.17-.1-.02-.01-.03-.02-.06-.03-.05-.03-.1-.06-.15-.09-.03-.02-.06-.04-.09-.06-.03-.02-.06-.04-.09-.05-.05-.03-.09-.05-.14-.08-.01,0-.03-.02-.04-.03-.06-.03-.1-.06-.16-.09,0,0-.02-.01-.03-.02-.05-.03-.11-.07-.16-.09,0,0-.02-.01-.03-.02-.06-.03-.11-.07-.17-.1,0,0-.01,0-.02,0-.06-.03-.12-.07-.18-.11,0,0,0,0,0,0-.38-.23-.75-.47-1.13-.69,2.19,1.32,4.43,2.56,6.65,3.82-1.07-.61-2.18-1.15-3.24-1.77ZM304.27,681.84s-.03,0-.05-.02c-.05-.02-.11-.03-.16-.05h-.04c-.06-.03-.11-.05-.17-.07,0,0,0,0-.01,0-.26-.08-.51-.19-.77-.28.42.13.83.29,1.26.42-.01,0-.03,0-.04-.01ZM398.12,695.38h-.02c-.24,0-.47,0-.71,0h-.03c-.07,0-.14,0-.21,0h-.03c-.08,0-.15,0-.23,0h0c-.08,0-.16,0-.24,0h-.01c-.07,0-.14,0-.21,0h-.23s-.03,0-.05,0h-.23c-.08,0-.15,0-.23,0h-.23s-.04,0-.06,0h-.46c-.07,0-.15,0-.22,0h-.73c2.58,0,5.13-.13,7.69-.19-1.19.03-2.37.15-3.56.17ZM457.71,688.66h0c-.07.02-.14.03-.21.05,0,0-.02,0-.03,0-.06.01-.13.03-.19.04-.02,0-.01,0-.03,0-.06.01-.12.03-.19.04-.02,0-.03,0-.05,0-.06.01-.12.02-.18.04-.02,0-.03,0-.05.01-.06.01-.11.02-.17.03-.02,0-.04,0-.06.01-.06.01-.11.02-.17.04,0,0-.04,0-.05.01-.06.01-.11.02-.17.04-.02,0-.04,0-.06.01-.06.01-.12.02-.17.04-.02,0-.03,0-.05.01-.07.01-.13.03-.2.04-.04,0-.06.01-.1.02l-.14.03s-.08.02-.12.02l-.09.02s-.1.02-.15.03c-.02,0-.05.01-.07.02-.05,0-.11.02-.16.03-.02,0-.03,0-.05.01-.01,0-.02,0-.03,0,2.7-.55,5.35-1.23,8.01-1.85-1.69.4-3.35.86-5.05,1.23ZM522.71,666.62s-.01,0-.02,0c-.06.03-.11.05-.18.08,0,0-.02,0-.03.01-.05.02-.11.05-.16.08-.02,0-.03.02-.05.02-.05.02-.1.05-.15.07-.02,0-.04.02-.06.03-.04.02-.09.04-.13.06-.03.01-.05.02-.08.04-.04.02-.08.04-.12.06-.03.01-.05.02-.08.04-.04.02-.08.04-.12.06-.03.01-.06.03-.09.04-.03.02-.07.03-.11.05-.06.03-.12.06-.18.09h-.01c-.21.1-.41.2-.62.29h0c-.13.07-.27.13-.4.19h-.02c-.06.04-.13.07-.19.09h-.01c-.06.04-.13.07-.19.09h-.02c-.06.04-.13.07-.19.1h0c-.07.03-.13.06-.2.09h-.01c-2.22,1.02-4.45,2.01-6.7,2.97h0c-.07.03-.14.06-.21.09h0c-.07.03-.13.06-.2.09h-.02c-.06.04-.12.06-.19.09h-.02c-.06.04-.12.06-.18.09,0,0-.02,0-.03.01-.06.02-.12.05-.18.07-.02,0-.02,0-.04.02-.05.02-.11.05-.16.07-.01,0-.02,0-.03.01,4.49-1.9,8.92-3.9,13.29-6.01-.63.3-1.26.61-1.89.9ZM559.5,645.94s-.02.01-.03.02c-.05.03-.1.07-.16.1,0,0-.03.02-.03.02-.05.03-.1.07-.15.1-.02.01-.03.02-.04.03-.05.03-.1.06-.15.09-.02.01-.03.02-.05.03-.04.03-.09.06-.13.09-.02.01-.05.03-.06.04-.04.03-.08.05-.12.08-.02.01-.05.03-.06.04-.04.02-.08.05-.12.08-.02.02-.05.03-.07.05-.04.02-.08.05-.11.07-.02.01-.05.03-.08.05-.03.02-.07.04-.1.07-.02.01-.07.04-.09.06-.03.02-.06.04-.09.06-.03.02-.07.04-.1.06-.03.02-.05.03-.08.05-.03.02-.08.05-.11.07-.02.02-.05.03-.07.05-.04.02-.08.05-.12.08-.01,0-.03.02-.04.03-.05.03-.1.06-.15.09,0,0,0,0,0,0-1.98,1.27-3.98,2.51-5.99,3.74,3.28-2.01,6.51-4.1,9.71-6.22-.47.31-.92.66-1.4.97ZM693.8,362.68c.02.16.03.31.05.47-.06-.6-.16-1.18-.23-1.78.05.44.13.87.18,1.32ZM678.79,295.01s0,0,0,0c.02.06.05.13.07.19,0,0,0,0,0,.01.02.06.05.13.07.19,0,0,0,0,0,0,.02.07.04.13.07.19v.02c.03.05.05.13.07.19,0,0,0,.01,0,.02.02.06.04.12.06.19,0,0,0,.01,0,.02.16.46.32.94.48,1.41,0,0,0,0,0,.01.02.05.04.12.06.17,0,.01,0,.03.01.04.02.05.04.11.05.16,0,.02.01.03.02.05.02.06.03.1.05.15,0,.02.01.04.02.06.02.05.04.11.05.16,0,.02.01.03.02.05.02.05.03.1.05.15,0,.02.01.04.02.06.02.05.03.1.05.15l.02.05s.04.11.05.15l.02.05c.02.06.04.1.05.16,0,.01,0,.02.01.04.02.06.04.11.06.17,0,0,0,.02,0,.03.02.05.04.13.06.18,0,0,0,0,0,0,.18.54.36,1.1.53,1.64,0,0,0,0,0,0,.02.07.04.13.06.19,0,0,0,.01,0,.02.02.06.04.13.06.19,0,0,0,0,0,.01.02.07.04.13.06.2h0c.13.42.24.84.37,1.26-1.33-4.21-2.73-8.39-4.23-12.52.54,1.49,1.08,2.98,1.6,4.48ZM659.08,250.4s.02.03.02.04c.03.05.06.1.08.15,0,.01.01.02.02.03.03.06.05.1.08.16,0,.01.01.03.02.04.03.06.05.1.08.16,0,0,.01.02.02.03.03.05.06.11.09.16,0,.01.01.02.02.04.03.05.06.11.08.16,0,0,.01.02.02.03.03.06.05.1.09.16,0,.01.01.02.02.04.03.05.06.11.09.16,0,0,0,.01.01.02.03.06.06.12.09.17,0,0,0,0,0,.01,1.23,2.3,2.36,4.65,3.53,6.99-1.46-2.9-2.89-5.81-4.43-8.66.02.04.04.07.06.11ZM632.23,209.3h0c.05.06.09.12.13.18h0c.04.06.09.12.13.17,0,0,0,.01.02.02.04.05.08.11.12.16,0,0,0,.01.01.02.04.05.08.1.12.15.01.02.01.02.03.03.04.05.08.1.11.15t.02.03s.08.1.11.14c.01.02.01.02.03.04.04.05.08.1.11.15t.02.03s.07.09.11.14c.01.02.02.02.03.04.04.05.07.1.11.14.01.02,0,.01.02.03.04.05.08.1.12.16,0,0,0,.01.01.02.04.06.08.11.13.17h0c.04.07.09.12.13.18h0c.41.55.81,1.1,1.21,1.63-1.62-2.15-3.31-4.24-4.98-6.34.69.87,1.44,1.69,2.12,2.56ZM671.36,512.15h0c-.03.07-.06.14-.09.21h0c-.03.07-.06.14-.09.21h0c-.03.08-.06.14-.08.21v.02c-.03.06-.06.12-.09.18,0,0-.01.02-.01.03l-.08.18s0,.01,0,.02c-.03.07-.06.13-.09.2h0c-.15.36-.3.7-.45,1.05,0,.02-.02.05-.03.07l-.06.14s-.03.06-.04.1c-.02.03-.03.07-.05.1-.02.04-.03.06-.04.1-.02.04-.03.07-.05.11s-.03.07-.05.1c-.01.03-.03.07-.04.1-.02.04-.03.08-.05.11-.01.03-.03.06-.04.09-.02.05-.03.08-.05.12-.01.03-.02.05-.04.08-.02.04-.03.07-.05.12-.01.03-.02.05-.04.08-.02.04-.04.09-.06.13-.01.02-.02.05-.03.07-.02.05-.04.09-.06.14-.01.02-.02.04-.03.07-.02.04-.04.1-.06.14,0,.02-.02.04-.03.06-.02.04-.04.1-.06.14,0,.02-.02.04-.03.06-.02.05-.04.09-.06.14,0,.01-.01.03-.02.05-.02.05-.05.11-.07.16,0,.01,0,.02-.01.03-.41.91-.83,1.83-1.24,2.74,0,0,0,0,0,0-.62,1.34-1.26,2.67-1.9,4,1.93-4.04,3.79-8.13,5.55-12.28-.09.21-.17.42-.26.62ZM687.64,462.28h0c-.02.08-.03.15-.05.22v.02c-.02.07-.04.13-.05.2,0,.02,0,.02-.01.05-.01.06-.03.11-.04.17,0,.02-.01.05-.02.07-.01.05-.02.1-.04.15,0,.02-.01.05-.02.07l-.04.16s-.01.05-.02.07l-.04.15s-.01.05-.02.07c-.01.05-.02.1-.03.14,0,.03-.01.05-.02.08-.01.05-.02.1-.04.16v.06c-.03.06-.04.12-.06.18,0,0,0,.03-.01.05-.02.07-.03.14-.05.21h0c-.04.15-.07.3-.11.45,0,.02,0,.04-.01.06-.01.05-.02.1-.04.15,0,.04-.01.06-.02.09-.01.04-.02.08-.03.13,0,.04-.01.06-.02.1,0,.04-.02.08-.03.12,0,.04-.02.07-.03.11,0,.04-.02.07-.03.11,0,.03-.02.08-.03.11,0,.04-.02.07-.03.11,0,.04-.02.07-.03.11l-.03.11s-.02.07-.03.11c0,.03-.02.07-.03.11,0,.04-.02.07-.03.11,0,.04-.02.07-.03.11l-.03.11s-.02.07-.03.11c0,.04-.02.07-.03.11l-.03.11-.03.11s-.02.07-.02.1c0,.04-.02.09-.03.12l-.02.07c-.02.09-.05.18-.07.28,0,.02-.01.05-.02.07,0,.04-.02.09-.03.12,0,.03-.02.06-.02.09l-.03.13s-.02.06-.02.09c-.01.05-.02.08-.03.13l-.02.09s-.02.09-.03.13c0,.03-.02.06-.02.09-.01.05-.02.08-.03.13,0,.03-.01.06-.02.09,0,.04-.02.09-.03.13,0,.03-.02.06-.02.09,0,.02,0,.03-.01.05,1.17-4.56,2.22-9.17,3.19-13.81-.47,2.27-.95,4.54-1.47,6.79ZM694.91,410.94c-.03.55-.03,1.11-.06,1.67h0c0,.09,0,.16-.01.23v.02c0,.07-.01.14-.01.21,0,0,0,.02,0,.03,0,.07,0,.14-.01.2,0,0,0,.02,0,.03,0,.08,0,.15-.01.23-.02.24-.03.48-.05.72h0c0,.08-.01.16-.02.23,0,0,0,.01,0,.02,0,.07,0,.14-.01.21,0,.02,0,.02,0,.05,0,.06,0,.12-.01.18,0,.02,0,.04,0,.06,0,.06,0,.12-.01.17,0,.02,0,.05,0,.06v.18s-.01.03-.02.05c0,.06,0,.13-.01.19,0,0,0,.03,0,.04l-.05.7s0,.02,0,.03c0,.07,0,.13-.01.2,0,.03,0,.03,0,.06,0,.05,0,.11-.01.17,0,.02,0,.05,0,.07,0,.05,0,.11-.01.16,0,.02,0,.06,0,.08,0,.05,0,.1-.01.15,0,.02,0,.05,0,.07,0,.05,0,.11-.01.16,0,.02,0,.04,0,.06l-.02.19s0,.03,0,.04c0,.08-.01.15-.02.23h0c-.02.24-.04.48-.06.72v.02c0,.07-.01.14-.02.21,0,.01,0,.03,0,.04,0,.07-.01.13-.02.2,0,0,0,.02,0,.03,0,.07-.01.14-.02.21v.02c0,.07-.01.15-.02.23h0c-.12,1.43-.27,2.85-.41,4.27.43-4.34.75-8.72,1-13.12Z"/></svg>