<?xml version="1.0" encoding="utf-8"?>
<!-- Svg Vector Icons : http://www.onlinewebfonts.com/icon -->
<!DOCTYPE svg PUBLIC "-//W3C//DTD SVG 1.1//EN" "http://www.w3.org/Graphics/SVG/1.1/DTD/svg11.dtd">
<svg version="1.1" xmlns="http://www.w3.org/2000/svg" xmlns:xlink="http://www.w3.org/1999/xlink" x="0px" y="0px" viewBox="0 0 256 256" enable-background="new 0 0 256 256" xml:space="preserve">
<metadata> Svg Vector Icons : http://www.onlinewebfonts.com/icon </metadata>
<g><g><g><path fill="#000000" d="M10,128v118h83.7h83.7v-64.7v-64.7h3.8h3.8v64.7V246h11.4h11.4v-64.7v-64.7h6.4c6.7,0,8.6-0.4,11.1-2.2l1.5-1.1l1.6,1.1c4.6,3.4,9.2,2.9,13.7-1.6c1.8-1.7,2.9-3.3,3.2-4.6c0.8-2.7,0.8-26.2,0-28.9c-0.4-1.3-1.5-2.9-3.2-4.6c-4.4-4.5-9.1-5-13.7-1.6l-1.6,1.1l-1.5-1.1c-2.9-2.2-3.7-2.2-26.4-2.2h-21.6v-6.6v-6.5l-23.9-23.9L129.6,10H69.8H10V128z M124.2,40.5v22.8H147h22.8v4.1l0,4.2l-1.9,1.3l-1.9,1.3l-1.5-1.1c-4.6-3.4-9.2-2.9-13.7,1.6c-1.8,1.7-2.9,3.3-3.2,4.6c-0.8,2.7-0.8,26.2,0,28.9c0.4,1.3,1.5,2.9,3.2,4.6c4.4,4.5,9.1,5,13.7,1.6l1.5-1.1l1.9,1.3l1.9,1.3l0,61.2v61.3H93.7H17.6V128V17.6h53.3h53.3L124.2,40.5L124.2,40.5z M148.2,39.5l16.2,16.2h-16.3h-16.3V39.5c0-8.9,0-16.2,0.1-16.2C132,23.3,139.3,30.6,148.2,39.5z M161.3,79.5c0.9,0.9,1,1.6,1,14.3s0,13.4-1,14.3c-0.6,0.6-1.6,1-2.9,1c-1.3,0-2.2-0.3-2.9-1c-0.9-0.9-1-1.6-1-14.3s0-13.4,1-14.3c0.6-0.6,1.6-1,2.9-1C159.7,78.5,160.7,78.9,161.3,79.5z M222.2,79.5c0.9,0.9,1,1.6,1,14.3s0,13.4-1,14.3c-0.9,0.9-1.6,1-25.7,1s-24.8,0-25.7-1c-0.9-0.9-1-1.6-1-14.3s0-13.4,1-14.3c0.9-0.9,1.6-1,25.7-1S221.3,78.6,222.2,79.5z M237.4,79.5c0.9,0.9,1,1.6,1,14.3s0,13.4-1,14.3c-0.6,0.6-1.6,1-2.9,1s-2.2-0.3-2.9-1c-0.9-0.9-1-1.6-1-14.3s0-13.4,1-14.3c0.6-0.6,1.6-1,2.9-1S236.8,78.9,237.4,79.5z M200.3,177.5v60.9h-3.8h-3.8v-60.9v-60.9h3.8h3.8V177.5z"/><path fill="#000000" d="M70.2,25.7c-5.2,1-10.1,3.7-14,7.6c-8,8-10.2,19.3-5.6,29.2l1.5,3.2l-6.8,27c-3.8,14.8-6.8,27.2-6.7,27.5c0,0.3,3.1-1.4,7-3.9c3.8-2.5,7.3-4.8,7.7-5c0.7-0.4,1.5,1,6.3,10.4l5.4,10.8l0.6-3.3c0.3-1.9,2.3-13.9,4.5-26.9c3-18.2,4.1-23.5,4.6-23.5c0.5,0,1.6,5.4,4.6,23.5c2.1,12.9,4.1,25,4.5,26.9l0.6,3.3l5.4-10.8c3.8-7.6,5.6-10.8,6-10.5c0.3,0.2,3.8,2.4,7.7,5s7.2,4.6,7.3,4.5c0.1-0.1-2.9-12.5-6.7-27.5l-6.8-27.4l0.9-1.8c4-7.8,4.1-15.5,0.3-23.4C93.3,30,81.1,23.5,70.2,25.7z M81,33.9c5.5,1.8,9.7,5.8,11.6,11.1c1.2,3.4,1.2,10.5,0,13.9c-1.9,5-5.9,9.1-10.9,10.9c-1.8,0.7-3.7,0.9-6.9,0.9c-5.2,0-8.1-0.9-11.6-3.4c-9.9-7.2-9.9-23.5,0.1-30.8C67.8,32.9,75.1,31.9,81,33.9z M63.9,76c2.5,1.1,2.8,1.4,2.5,2.5c-0.1,0.7-1.3,7.5-2.5,15.1c-1.3,7.7-2.4,13.9-2.6,13.9c-0.1,0-1.1-1.7-2.1-3.8c-1-2.1-2-3.8-2.3-3.8c-0.2,0-1.7,0.9-3.2,2c-1.6,1-3,1.9-3.1,1.7c-0.1-0.1,1.5-7.2,3.7-15.7l3.9-15.5l1.5,1.1C60.5,74.1,62.4,75.2,63.9,76z M98.7,103.6c-0.1,0.1-1.5-0.7-3-1.8c-1.6-1.1-3-2-3.2-2c-0.2,0-1.3,1.7-2.3,3.8s-2,3.8-2.1,3.8c-0.1,0-1.3-6.3-2.6-13.9c-1.2-7.6-2.4-14.5-2.5-15.1c-0.2-1.1,0-1.4,2.8-2.7c1.6-0.8,3.5-1.9,4.2-2.4l1.2-1L95,87.9C97.2,96.5,98.8,103.5,98.7,103.6z"/><path fill="#000000" d="M29,147v3.8h64.7h64.7V147v-3.8H93.7H29V147z"/><path fill="#000000" d="M29,166.1v3.8h64.7h64.7v-3.8v-3.8H93.7H29V166.1z"/><path fill="#000000" d="M29,185.1v3.8h64.7h64.7v-3.8v-3.8H93.7H29V185.1z"/><path fill="#000000" d="M29,204.1v3.8h64.7h64.7v-3.8v-3.8H93.7H29V204.1z"/><path fill="#000000" d="M29,223.1v3.8h64.7h64.7v-3.8v-3.8H93.7H29V223.1z"/></g></g></g>
</svg>