<?xml version="1.0" encoding="UTF-8" standalone="no"?>
<svg
   shape-rendering="geometricPrecision"
   text-rendering="geometricPrecision"
   image-rendering="optimizeQuality"
   fill-rule="evenodd"
   clip-rule="evenodd"
   viewBox="0 0 196249 261661.91"
   version="1.1"
   id="svg4"
   width="196249"
   height="261661.91"
   xmlns="http://www.w3.org/2000/svg"
   xmlns:svg="http://www.w3.org/2000/svg">
  <defs
     id="defs4" />
  <path
     fill="#3C4D7A"
     fill-rule="nonzero"
     d="m 52.307,56.129 h 3.835 V 52.307 C 56.142,23.598 79.74,0 108.449,0 H 390.693 C 419.416,0 443,23.585 443,52.307 V 403.08 c 0,28.548 -23.759,52.307 -52.307,52.307 h -3.826 v 3.835 c 0,28.548 -23.759,52.307 -52.307,52.307 H 52.307 C 23.695,511.529 0,487.829 0,459.222 V 108.441 C 0,79.731 23.598,56.129 52.307,56.129 Z"
     id="path1"
     style="fill:#ebf0f2;fill-opacity:1" />
  <path
     fill="#ffffff"
     d="m 52.307,78.577 h 3.835 V 403.08 c 0,28.607 23.695,52.307 52.307,52.307 h 255.97 v 3.835 c 0,16.268 -13.591,29.859 -29.859,29.859 H 52.307 c -16.268,0 -29.859,-13.43 -29.859,-29.859 V 108.441 c 0,-16.43 13.431,-29.864 29.859,-29.864 z"
     id="path2" />
  <path
     fill="#ffffff"
     d="m 108.448,22.446 h 282.244 c 16.428,0 29.86,13.592 29.86,29.861 V 403.08 c 0,16.268 -13.592,29.86 -29.86,29.86 H 108.448 c -16.268,0 -29.86,-13.433 -29.86,-29.86 V 52.307 c 0,-16.428 13.433,-29.861 29.86,-29.861 z"
     id="path3" />
  <path
     fill="#88BCF4"
     fill-rule="nonzero"
     d="m 160.374,150.38 c -6.197,0 -11.224,-5.026 -11.224,-11.224 0,-6.197 5.027,-11.224 11.224,-11.224 h 178.39 c 6.197,0 11.224,5.027 11.224,11.224 0,6.198 -5.027,11.224 -11.224,11.224 z m 0,165.843 c -6.197,0 -11.224,-5.027 -11.224,-11.225 0,-6.197 5.027,-11.224 11.224,-11.224 h 87.117 c 6.197,0 11.224,5.027 11.224,11.224 0,6.198 -5.027,11.225 -11.224,11.225 z m 0,-82.922 c -6.197,0 -11.224,-5.026 -11.224,-11.224 0,-6.197 5.027,-11.224 11.224,-11.224 h 178.39 c 6.197,0 11.224,5.027 11.224,11.224 0,6.198 -5.027,11.224 -11.224,11.224 z"
     id="path4"
     style="fill:#fa110d;fill-opacity:1" />
</svg>
