<?xml version="1.0" encoding="UTF-8" standalone="no"?>
<!-- Created with Inkscape (http://www.inkscape.org/) -->

<svg
   version="1.1"
   id="svg1"
   width="64"
   height="64"
   viewBox="0 0 64 64"
   sodipodi:docname="document_15232565.png"
   xmlns:inkscape="http://www.inkscape.org/namespaces/inkscape"
   xmlns:sodipodi="http://sodipodi.sourceforge.net/DTD/sodipodi-0.dtd"
   xmlns="http://www.w3.org/2000/svg"
   xmlns:svg="http://www.w3.org/2000/svg">
  <defs
     id="defs1" />
  <sodipodi:namedview
     id="namedview1"
     pagecolor="#ffffff"
     bordercolor="#000000"
     borderopacity="0.25"
     inkscape:showpageshadow="2"
     inkscape:pageopacity="0.0"
     inkscape:pagecheckerboard="0"
     inkscape:deskcolor="#d1d1d1" />
  <g
     inkscape:groupmode="layer"
     inkscape:label="Image"
     id="g1">
    <path
       style="fill:#ebf0f2;fill-opacity:1"
       d="m 58.613425,62.813812 c -0.220259,-0.119741 -1.8545,-2.644042 -5.101474,-7.879901 -2.62757,-4.237047 -4.800521,-7.769577 -4.82878,-7.850066 -0.05363,-0.152761 2.878932,-2.021345 3.172308,-2.021345 0.09239,0 2.328326,3.484679 4.96875,7.743731 5.112065,8.245855 5.096592,8.215799 4.596831,8.929307 -0.112167,0.160141 -0.542762,0.510157 -0.956879,0.777814 -0.808518,0.52257 -1.296474,0.601787 -1.850756,0.30046 z M 2.7203213,58.429326 C 1.9457129,58.009028 2,60.161494 2,29.868849 2,4.9538237 2.0194605,2.1842724 2.1971591,1.8098003 2.6118756,0.93585016 0.65202325,1 26.9375,1 c 21.334892,0 23.753873,0.019767 24.1277,0.1971591 0.857853,0.4070779 0.809889,-0.47538999 0.808976,14.8842319 -8.07e-4,13.582497 -0.0057,13.863498 -0.247452,14.230277 -0.354607,0.537984 -0.536555,1.538917 -0.394594,2.170739 l 0.116948,0.520496 -6.580789,4.111609 c -6.464745,4.039106 -6.585197,4.107548 -6.830789,3.881307 -0.438235,-0.403706 -1.346972,-0.740207 -2.006707,-0.743074 -0.730611,-0.0032 -1.363394,0.279319 -2.8634,1.27831 -0.814793,0.542646 -1.05828,0.783662 -1.34375,1.330113 -0.400579,0.766796 -0.466691,1.739333 -0.166997,2.456601 0.191228,0.457674 4.885519,8.087147 5.391767,8.763058 0.666417,0.88976 2.312379,1.30416 3.390608,0.853648 0.906571,-0.37879 2.629293,-1.562815 2.952167,-2.029023 0.44695,-0.645362 0.660384,-1.629892 0.502714,-2.318915 l -0.123625,-0.540241 1.744407,-1.089435 c 0.959425,-0.59919 1.758345,-1.073669 1.775378,-1.054398 0.01703,0.01927 1.078113,1.721358 2.357954,3.782416 L 51.875,55.432258 v 1.040079 c 0,0.68519 -0.0647,1.165193 -0.189616,1.406755 -0.414688,0.801918 1.441486,0.746404 -24.772927,0.740903 C 6.0607053,58.61562 3.0194843,58.591651 2.7203213,58.429326 Z M 23.125,47.25 V 46.375 H 16.5 9.875 v 0.875 0.875 H 16.5 23.125 Z M 38.224461,35.65625 38.1875,34.8125 24.03125,34.780716 9.875,34.748932 V 35.624466 36.5 H 24.068211 38.261422 Z M 44,24.0625 V 23.25 H 26.9375 9.875 v 0.8125 0.8125 H 26.9375 44 Z m 0,-11.625 V 11.625 H 26.9375 9.875 V 12.4375 13.25 H 26.9375 44 Z m -5.4375,40.834821 c -0.248715,-0.159715 -1.006424,-1.263663 -2.25,-3.278154 -3.056949,-4.952004 -3.312531,-5.394437 -3.311842,-5.733065 0.0012,-0.56928 0.408923,-1.018309 1.561842,-1.719892 1.284236,-0.781494 1.725524,-0.819711 2.323818,-0.201253 0.377357,0.390075 5.152002,8.064334 5.291971,8.505755 0.04939,0.155767 0.02341,0.484386 -0.05774,0.730264 -0.119835,0.363106 -0.348618,0.576769 -1.218382,1.137861 -1.226184,0.791022 -1.77394,0.921773 -2.33967,0.558484 z m 2.397714,-7.673253 c -1.018758,-1.649264 -1.834383,-3.012959 -1.8125,-3.030433 0.346374,-0.276594 12.83683,-7.984872 12.952972,-7.993713 0.131225,-0.01 3.774314,5.639345 3.774314,5.852824 0,0.04602 -12.359838,7.785949 -12.9375,8.101666 -0.06875,0.03757 -0.958529,-1.28108 -1.977286,-2.930344 z M 58.375,40.94113 C 58.179019,40.832095 57.095391,39.20599 55.46875,36.579979 53.242331,32.985699 52.875,32.323012 52.875,31.900702 c 0,-0.65098 0.274185,-0.975073 1.426578,-1.686248 1.151453,-0.710594 1.414439,-0.784236 1.970666,-0.55183 0.376144,0.157163 0.740187,0.67526 2.783055,3.960775 1.292667,2.078978 2.483366,4.012642 2.645997,4.297031 0.611204,1.068796 0.31279,1.675904 -1.293688,2.631945 -1.015242,0.604186 -1.48418,0.693875 -2.032608,0.388755 z"
       id="path1" />
  </g>
</svg>
