<?xml version="1.0" encoding="UTF-8"?><svg id="Iconos" xmlns="http://www.w3.org/2000/svg" viewBox="0 0 785.73 787.9"><defs><style>.cls-1{fill:#2b2d42;}</style></defs><path class="cls-1" d="M500.53,211.32c-131.43,63.33-227.82,159.3-291.64,292.42,18.88,18.18,39.36,37.46,59.34,57.23,32.54,32.21,32.63,63.84.7,95.79-36.76,36.78-73.5,73.58-110.32,110.3-27.46,27.39-58.52,27.69-86.9,1.43-37.43-34.64-63.44-75.7-70.13-127-5.32-40.79,3.62-80.24,14.93-119.06,24.93-85.61,69.29-161.02,125.72-229.07,75.4-90.91,159.82-172.45,261.04-234.74C476.2,13.73,554.77-9.43,641.26,3.61c53.85,8.12,96.86,35.45,131.14,76.98,18.02,21.83,18.03,53.07-1.49,73.27-41.04,42.46-82.67,84.39-125.14,125.43-23.81,23.01-56.01,20.61-81.25-3.69-10.91-10.5-21.42-21.41-32.1-32.15-10.65-10.71-21.27-21.44-31.88-32.13Z"/></svg>