<?xml version="1.0" encoding="UTF-8" standalone="no"?>
<!-- Created with Inkscape (http://www.inkscape.org/) -->

<svg
   version="1.1"
   id="svg1"
   width="150.39636"
   height="136.30801"
   viewBox="0 0 150.39636 136.30801"
   sodipodi:docname="7.pdf"
   xmlns:inkscape="http://www.inkscape.org/namespaces/inkscape"
   xmlns:sodipodi="http://sodipodi.sourceforge.net/DTD/sodipodi-0.dtd"
   xmlns="http://www.w3.org/2000/svg"
   xmlns:svg="http://www.w3.org/2000/svg">
  <defs
     id="defs1">
    <clipPath
       clipPathUnits="userSpaceOnUse"
       id="clipPath199">
      <path
         d="M 0,2436 H 1125 V 0 H 0 Z"
         transform="translate(-905.88452,-2094.3169)"
         id="path199" />
    </clipPath>
  </defs>
  <sodipodi:namedview
     id="namedview1"
     pagecolor="#ffffff"
     bordercolor="#000000"
     borderopacity="0.25"
     inkscape:showpageshadow="2"
     inkscape:pageopacity="0.0"
     inkscape:pagecheckerboard="0"
     inkscape:deskcolor="#d1d1d1" />
  <g
     id="g1"
     inkscape:groupmode="layer"
     inkscape:label="1"
     transform="translate(-1132.6403,-353.48013)">
    <g
       id="group-MC3">
      <path
         id="path198"
         d="m 0,0 c -7.038,0 -12.734,5.696 -12.734,12.723 0,7.028 5.696,12.735 12.734,12.735 7.027,0 12.724,-5.707 12.724,-12.735 C 12.724,5.696 7.027,0 0,0 M 54.191,-0.328 14.509,68.405 c -2.98,4.892 -8.37,8.168 -14.509,8.168 -6.13,0 -11.487,-3.244 -14.478,-8.105 -0.158,-0.254 -0.306,-0.518 -0.444,-0.771 l -39.28,-68.025 c -2.853,-5.062 -3.044,-11.455 0.074,-16.845 3.139,-5.431 8.835,-8.475 14.7,-8.485 h 0.021 c 0.243,0.021 2.156,0.158 4.798,0.708 4.596,0.951 10.317,4.359 15.629,7.978 6.246,4.255 11.435,8.486 18.98,8.486 7.535,0 12.798,-4.231 18.969,-8.486 5.292,-3.649 11.032,-7.027 15.629,-7.978 2.706,-0.56 4.65,-0.698 4.809,-0.708 h 0.01 c 5.865,0 11.561,3.043 14.7,8.485 3.117,5.39 2.927,11.783 0.074,16.845"
         style="fill:#fc0200;fill-opacity:1;fill-rule:nonzero;stroke:none"
         transform="matrix(1.3333333,0,0,-1.3333333,1207.846,455.57747)"
         clip-path="url(#clipPath199)" />
    </g>
  </g>
</svg>
