<?xml version="1.0" encoding="UTF-8" standalone="no"?>
<!-- Created with Inkscape (http://www.inkscape.org/) -->

<svg
   version="1.1"
   id="svg1"
   width="136.05013"
   height="136.05173"
   viewBox="0 0 136.05013 136.05173"
   xmlns="http://www.w3.org/2000/svg"
   xmlns:svg="http://www.w3.org/2000/svg">
  <defs
     id="defs1">
    <clipPath
       clipPathUnits="userSpaceOnUse"
       id="clipPath172">
      <path
         d="M 0,2436 H 1125 V 0 H 0 Z"
         transform="translate(-122.21541,-2159.5738)"
         id="path172" />
    </clipPath>
    <clipPath
       clipPathUnits="userSpaceOnUse"
       id="clipPath174">
      <path
         d="M 0,2436 H 1125 V 0 H 0 Z"
         transform="translate(-161.91771,-2159.5738)"
         id="path174" />
    </clipPath>
    <clipPath
       clipPathUnits="userSpaceOnUse"
       id="clipPath176">
      <path
         d="M 0,2436 H 1125 V 0 H 0 Z"
         transform="translate(-201.62001,-2159.5738)"
         id="path176" />
    </clipPath>
    <clipPath
       clipPathUnits="userSpaceOnUse"
       id="clipPath178">
      <path
         d="M 0,2436 H 1125 V 0 H 0 Z"
         transform="translate(-122.21541,-2119.8714)"
         id="path178" />
    </clipPath>
    <clipPath
       clipPathUnits="userSpaceOnUse"
       id="clipPath180">
      <path
         d="M 0,2436 H 1125 V 0 H 0 Z"
         transform="translate(-161.91771,-2119.8714)"
         id="path180" />
    </clipPath>
    <clipPath
       clipPathUnits="userSpaceOnUse"
       id="clipPath182">
      <path
         d="M 0,2436 H 1125 V 0 H 0 Z"
         transform="translate(-201.62001,-2119.8714)"
         id="path182" />
    </clipPath>
    <clipPath
       clipPathUnits="userSpaceOnUse"
       id="clipPath184">
      <path
         d="M 0,2436 H 1125 V 0 H 0 Z"
         transform="translate(-122.21541,-2080.1689)"
         id="path184" />
    </clipPath>
    <clipPath
       clipPathUnits="userSpaceOnUse"
       id="clipPath186">
      <path
         d="M 0,2436 H 1125 V 0 H 0 Z"
         transform="translate(-161.91771,-2080.1689)"
         id="path186" />
    </clipPath>
    <clipPath
       clipPathUnits="userSpaceOnUse"
       id="clipPath188">
      <path
         d="M 0,2436 H 1125 V 0 H 0 Z"
         transform="translate(-201.62001,-2080.1689)"
         id="path188" />
    </clipPath>
  </defs>
  <g
     id="g1"
     transform="translate(-132.77654,-353.47906)">
    <g
       id="group-MC3">
      <path
         id="path171"
         d="m 0,0 c 0,-6.25 -5.067,-11.317 -11.317,-11.317 -6.25,0 -11.316,5.067 -11.316,11.317 0,6.25 5.066,11.317 11.316,11.317 C -5.067,11.317 0,6.25 0,0"
         style="fill:#ebf0f2;fill-opacity:1;fill-rule:nonzero;stroke:none"
         transform="matrix(1.3333333,0,0,-1.3333333,162.95387,368.5684)"
         clip-path="url(#clipPath172)" />
      <path
         id="path173"
         d="m 0,0 c 0,-6.25 -5.067,-11.317 -11.317,-11.317 -6.25,0 -11.316,5.067 -11.316,11.317 0,6.25 5.066,11.317 11.316,11.317 C -5.067,11.317 0,6.25 0,0"
         style="fill:#ebf0f2;fill-opacity:1;fill-rule:nonzero;stroke:none"
         transform="matrix(1.3333333,0,0,-1.3333333,215.89027,368.5684)"
         clip-path="url(#clipPath174)" />
      <path
         id="path175"
         d="m 0,0 c 0,-6.25 -5.067,-11.317 -11.317,-11.317 -6.25,0 -11.316,5.067 -11.316,11.317 0,6.25 5.066,11.317 11.316,11.317 C -5.067,11.317 0,6.25 0,0"
         style="fill:#ebf0f2;fill-opacity:1;fill-rule:nonzero;stroke:none"
         transform="matrix(1.3333333,0,0,-1.3333333,268.82667,368.5684)"
         clip-path="url(#clipPath176)" />
      <path
         id="path177"
         d="m 0,0 c 0,-6.25 -5.067,-11.317 -11.317,-11.317 -6.25,0 -11.316,5.067 -11.316,11.317 0,6.25 5.066,11.317 11.316,11.317 C -5.067,11.317 0,6.25 0,0"
         style="fill:#ebf0f2;fill-opacity:1;fill-rule:nonzero;stroke:none"
         transform="matrix(1.3333333,0,0,-1.3333333,162.95387,421.50493)"
         clip-path="url(#clipPath178)" />
      <path
         id="path179"
         d="m 0,0 c 0,-6.25 -5.067,-11.317 -11.317,-11.317 -6.25,0 -11.316,5.067 -11.316,11.317 0,6.25 5.066,11.317 11.316,11.317 C -5.067,11.317 0,6.25 0,0"
         style="fill:#ebf0f2;fill-opacity:1;fill-rule:nonzero;stroke:none"
         transform="matrix(1.3333333,0,0,-1.3333333,215.89027,421.50493)"
         clip-path="url(#clipPath180)" />
      <path
         id="path181"
         d="m 0,0 c 0,-6.25 -5.067,-11.317 -11.317,-11.317 -6.25,0 -11.316,5.067 -11.316,11.317 0,6.25 5.066,11.317 11.316,11.317 C -5.067,11.317 0,6.25 0,0"
         style="fill:#ebf0f2;fill-opacity:1;fill-rule:nonzero;stroke:none"
         transform="matrix(1.3333333,0,0,-1.3333333,268.82667,421.50493)"
         clip-path="url(#clipPath182)" />
      <path
         id="path183"
         d="m 0,0 c 0,-6.25 -5.067,-11.317 -11.317,-11.317 -6.25,0 -11.316,5.067 -11.316,11.317 0,6.25 5.066,11.317 11.316,11.317 C -5.067,11.317 0,6.25 0,0"
         style="fill:#ebf0f2;fill-opacity:1;fill-rule:nonzero;stroke:none"
         transform="matrix(1.3333333,0,0,-1.3333333,162.95387,474.44147)"
         clip-path="url(#clipPath184)" />
      <path
         id="path185"
         d="m 0,0 c 0,-6.25 -5.067,-11.317 -11.317,-11.317 -6.25,0 -11.316,5.067 -11.316,11.317 0,6.25 5.066,11.317 11.316,11.317 C -5.067,11.317 0,6.25 0,0"
         style="fill:#ebf0f2;fill-opacity:1;fill-rule:nonzero;stroke:none"
         transform="matrix(1.3333333,0,0,-1.3333333,215.89027,474.44147)"
         clip-path="url(#clipPath186)" />
      <path
         id="path187"
         d="m 0,0 c 0,-6.25 -5.067,-11.317 -11.317,-11.317 -6.25,0 -11.316,5.067 -11.316,11.317 0,6.25 5.066,11.317 11.316,11.317 C -5.067,11.317 0,6.25 0,0"
         style="fill:#ebf0f2;fill-opacity:1;fill-rule:nonzero;stroke:none"
         transform="matrix(1.3333333,0,0,-1.3333333,268.82667,474.44147)"
         clip-path="url(#clipPath188)" />
    </g>
  </g>
</svg>
