<?xml version="1.0" encoding="UTF-8" standalone="no"?>
<!-- Created with Inkscape (http://www.inkscape.org/) -->

<svg
   version="1.1"
   id="svg1"
   width="136.05013"
   height="136.05173"
   viewBox="0 0 136.05013 136.05173"
   sodipodi:docname="7.pdf"
   xmlns:inkscape="http://www.inkscape.org/namespaces/inkscape"
   xmlns:sodipodi="http://sodipodi.sourceforge.net/DTD/sodipodi-0.dtd"
   xmlns="http://www.w3.org/2000/svg"
   xmlns:svg="http://www.w3.org/2000/svg">
  <defs
     id="defs1">
    <clipPath
       clipPathUnits="userSpaceOnUse"
       id="clipPath177">
      <path
         d="M 0,2436 H 1125 V 0 H 0 Z"
         transform="translate(-161.91771,-2159.5738)"
         id="path177" />
    </clipPath>
    <clipPath
       clipPathUnits="userSpaceOnUse"
       id="clipPath179">
      <path
         d="M 0,2436 H 1125 V 0 H 0 Z"
         transform="translate(-122.21541,-2119.8714)"
         id="path179" />
    </clipPath>
    <clipPath
       clipPathUnits="userSpaceOnUse"
       id="clipPath181">
      <path
         d="M 0,2436 H 1125 V 0 H 0 Z"
         transform="translate(-161.91771,-2119.8714)"
         id="path181" />
    </clipPath>
    <clipPath
       clipPathUnits="userSpaceOnUse"
       id="clipPath183">
      <path
         d="M 0,2436 H 1125 V 0 H 0 Z"
         transform="translate(-201.62001,-2119.8714)"
         id="path183" />
    </clipPath>
    <clipPath
       clipPathUnits="userSpaceOnUse"
       id="clipPath185">
      <path
         d="M 0,2436 H 1125 V 0 H 0 Z"
         transform="translate(-161.91771,-2080.1689)"
         id="path185" />
    </clipPath>
  </defs>
  <sodipodi:namedview
     id="namedview1"
     pagecolor="#ffffff"
     bordercolor="#000000"
     borderopacity="0.25"
     inkscape:showpageshadow="2"
     inkscape:pageopacity="0.0"
     inkscape:pagecheckerboard="0"
     inkscape:deskcolor="#d1d1d1" />
  <g
     id="g1"
     inkscape:groupmode="layer"
     inkscape:label="1"
     transform="translate(-132.77654,-353.47906)">
    <g
       id="group-MC3">
      <path
         id="path176"
         d="m 0,0 c 0,-6.25 -5.067,-11.317 -11.317,-11.317 -6.25,0 -11.316,5.067 -11.316,11.317 0,6.25 5.066,11.317 11.316,11.317 C -5.067,11.317 0,6.25 0,0"
         style="fill:#ebf0f2;fill-opacity:1;fill-rule:nonzero;stroke:none"
         transform="matrix(1.3333333,0,0,-1.3333333,215.89027,368.5684)"
         clip-path="url(#clipPath177)" />
      <path
         id="path178"
         d="m 0,0 c 0,-6.25 -5.067,-11.317 -11.317,-11.317 -6.25,0 -11.316,5.067 -11.316,11.317 0,6.25 5.066,11.317 11.316,11.317 C -5.067,11.317 0,6.25 0,0"
         style="fill:#ebf0f2;fill-opacity:1;fill-rule:nonzero;stroke:none"
         transform="matrix(1.3333333,0,0,-1.3333333,162.95387,421.50493)"
         clip-path="url(#clipPath179)" />
      <path
         id="path180"
         d="m 0,0 c 0,-6.25 -5.067,-11.317 -11.317,-11.317 -6.25,0 -11.316,5.067 -11.316,11.317 0,6.25 5.066,11.317 11.316,11.317 C -5.067,11.317 0,6.25 0,0"
         style="fill:#ebf0f2;fill-opacity:1;fill-rule:nonzero;stroke:none"
         transform="matrix(1.3333333,0,0,-1.3333333,215.89027,421.50493)"
         clip-path="url(#clipPath181)"
         inkscape:export-filename="../proyectos/alertaCosibFront/alertaCosibFront/alertaCosibFront/src/assets/icon/SVG/menu.svg"
         inkscape:export-xdpi="96"
         inkscape:export-ydpi="96" />
      <path
         id="path182"
         d="m 0,0 c 0,-6.25 -5.067,-11.317 -11.317,-11.317 -6.25,0 -11.316,5.067 -11.316,11.317 0,6.25 5.066,11.317 11.316,11.317 C -5.067,11.317 0,6.25 0,0"
         style="fill:#ebf0f2;fill-opacity:1;fill-rule:nonzero;stroke:none"
         transform="matrix(1.3333333,0,0,-1.3333333,268.82667,421.50493)"
         clip-path="url(#clipPath183)" />
      <path
         id="path184"
         d="m 0,0 c 0,-6.25 -5.067,-11.317 -11.317,-11.317 -6.25,0 -11.316,5.067 -11.316,11.317 0,6.25 5.066,11.317 11.316,11.317 C -5.067,11.317 0,6.25 0,0"
         style="fill:#ebf0f2;fill-opacity:1;fill-rule:nonzero;stroke:none"
         transform="matrix(1.3333333,0,0,-1.3333333,215.89027,474.44147)"
         clip-path="url(#clipPath185)" />
    </g>
  </g>
</svg>
