<?xml version="1.0" encoding="UTF-8"?><svg id="Iconos" xmlns="http://www.w3.org/2000/svg" viewBox="0 0 787.9 787.9"><defs><style>.cls-1{fill:#2b2d42;}</style></defs><path class="cls-1" d="M786.08,45.49c-.59-2.46-1.34-4.85-2.23-7.19-.39-1.02-.74-2.04-1.18-3.03-1.39-3.11-2.97-6.13-4.86-8.95-.18-.27-.41-.5-.59-.77-1.78-2.56-3.79-4.96-5.95-7.21-.73-.76-1.51-1.46-2.28-2.18-1.8-1.68-3.69-3.24-5.7-4.7-.9-.66-1.78-1.32-2.72-1.92-2.38-1.53-4.88-2.88-7.5-4.07-.6-.28-1.15-.64-1.76-.89-.03-.01-.07-.04-.1-.05-3.2-1.33-6.48-2.28-9.8-3.02-.95-.21-1.92-.33-2.88-.49-2.77-.48-5.55-.76-8.34-.84C729.61.16,729.06,0,728.47,0h-463.98C231.67,0,205.07,26.6,205.07,59.42s26.6,59.42,59.42,59.42h320.53L17.41,686.46c-23.21,23.2-23.21,60.83,0,84.03,11.59,11.61,26.81,17.41,42.01,17.41s30.42-5.8,42.01-17.41L669.05,202.89v320.52c0,32.82,26.6,59.42,59.42,59.42s59.42-26.6,59.42-59.42V59.42c0-3.64-.44-7.2-1.08-10.7-.2-1.1-.47-2.16-.73-3.23Z"/></svg>