<?xml version="1.0" encoding="UTF-8"?><svg id="Iconos" xmlns="http://www.w3.org/2000/svg" viewBox="0 0 790.03 790.03"><defs><style>.cls-1{fill:#fc0200;}.cls-2{fill:#ebf0f2;}</style></defs><circle class="cls-2" cx="395.01" cy="395.01" r="395.01"/><circle class="cls-1" cx="236.05" cy="275.41" r="39.87"/><circle class="cls-1" cx="236.05" cy="395.01" r="39.87"/><circle class="cls-1" cx="236.05" cy="514.62" r="39.87"/><path class="cls-1" d="M556.64,312.62h-219.68c-20.55,0-37.21-16.66-37.21-37.21s16.66-37.21,37.21-37.21h219.68c20.55,0,37.21,16.66,37.21,37.21s-16.66,37.21-37.21,37.21Z"/><path class="cls-1" d="M556.64,432.22h-219.68c-20.55,0-37.21-16.66-37.21-37.21s16.66-37.21,37.21-37.21h219.68c20.55,0,37.21,16.66,37.21,37.21s-16.66,37.21-37.21,37.21Z"/><path class="cls-1" d="M556.64,551.82h-219.68c-20.55,0-37.21-16.66-37.21-37.21s16.66-37.21,37.21-37.21h219.68c20.55,0,37.21,16.66,37.21,37.21s-16.66,37.21-37.21,37.21Z"/></svg>