<?xml version="1.0" encoding="UTF-8" standalone="no"?>
<svg
   id="Globo_flotante"
   viewBox="0 0 401505.55 363907.36"
   version="1.1"
   sodipodi:docname="logo-flotante-rojo.svg"
   inkscape:export-filename="logo-flotante-rojo.svg"
   inkscape:export-xdpi="96"
   inkscape:export-ydpi="96"
   width="401505.56"
   height="363907.38"
   xmlns:inkscape="http://www.inkscape.org/namespaces/inkscape"
   xmlns:sodipodi="http://sodipodi.sourceforge.net/DTD/sodipodi-0.dtd"
   xmlns="http://www.w3.org/2000/svg"
   xmlns:svg="http://www.w3.org/2000/svg">
  <sodipodi:namedview
     id="namedview1"
     pagecolor="#ffffff"
     bordercolor="#000000"
     borderopacity="0.25"
     inkscape:showpageshadow="2"
     inkscape:pageopacity="0.0"
     inkscape:pagecheckerboard="0"
     inkscape:deskcolor="#d1d1d1"
     inkscape:zoom="1.5331894"
     inkscape:cx="393.62389"
     inkscape:cy="393.95001"
     inkscape:window-width="2560"
     inkscape:window-height="1412"
     inkscape:window-x="0"
     inkscape:window-y="0"
     inkscape:window-maximized="1"
     inkscape:current-layer="Globo_flotante" />
  <defs
     id="defs1">
    <style
       id="style1">.cls-1{fill:#fc0200;}.cls-2{fill:#2b2d42;}</style>
  </defs>
  <path
     class="cls-1"
     d="m -108997.71,-127933.02 -179.27,-310.52 c -13.46,-22.1 -37.81,-36.9 -65.55,-36.9 -27.74,0 -51.9,14.66 -65.41,36.62 -0.72,1.15 -1.38,2.34 -2,3.49 l -177.46,307.32 c -12.89,22.87 -13.75,51.75 0.33,76.1 14.18,24.54 39.91,38.29 66.41,38.34 h 0.1 c 1.1,-0.1 9.74,-0.72 21.68,-3.2 20.77,-4.3 46.61,-19.69 70.61,-36.05 28.21,-19.22 51.66,-38.34 85.74,-38.34 34.08,0 57.82,19.11 85.7,38.34 23.91,16.48 49.84,31.75 70.61,36.05 12.22,2.53 21.01,3.15 21.72,3.2 h 0.1 c 26.5,0 52.23,-13.75 66.41,-38.34 14.08,-24.35 13.22,-53.23 0.33,-76.1 z m -244.82,-1.48 c -31.8,0 -57.53,-25.73 -57.53,-57.48 0,-31.75 25.73,-57.53 57.53,-57.53 31.8,0 57.48,25.78 57.48,57.53 0,31.75 -25.73,57.48 -57.48,57.48 z"
     id="path1"
     inkscape:export-filename="path1.svg"
     inkscape:export-xdpi="96"
     inkscape:export-ydpi="96" />
</svg>
