<?xml version="1.0" encoding="UTF-8"?><svg id="Iconos" xmlns="http://www.w3.org/2000/svg" viewBox="0 0 790.03 790.03"><defs><style>.cls-1{fill:#fc0200;}.cls-2{fill:#ebf0f2;}</style></defs><circle class="cls-2" cx="395.01" cy="395.01" r="395.01"/><path class="cls-1" d="M569.2,357.6v74.83c0,11.4-9.24,20.65-20.65,20.65h-95.48v95.47c0,11.4-9.24,20.65-20.65,20.65h-74.82c-11.4,0-20.65-9.24-20.65-20.65v-95.47h-95.48c-11.4,0-20.65-9.24-20.65-20.65v-74.83c0-11.4,9.24-20.65,20.65-20.65h95.48v-95.47c0-11.4,9.24-20.65,20.65-20.65h74.82c11.4,0,20.65,9.24,20.65,20.65v95.47h95.48c11.4,0,20.65,9.24,20.65,20.65Z"/></svg>