<?xml version="1.0" encoding="UTF-8"?><svg id="Iconos" xmlns="http://www.w3.org/2000/svg" viewBox="0 0 790.03 790.03"><defs><style>.cls-1{fill:#fc0200;}.cls-2{fill:#ebf0f2;}</style></defs><circle class="cls-2" cx="395.01" cy="395.01" r="395.01"/><path class="cls-1" d="M395.01,259.53l101.58,50.78v121.85c0,19.84-5.51,32.67-19.65,45.77-17.35,16.07-45.21,30.31-77.48,46.81-1.5.77-3.01,1.54-4.53,2.31-1.1-.56-2.2-1.12-3.29-1.67-32.49-16.54-60.55-30.82-78.17-47.05-14.42-13.28-20.04-26.23-20.04-46.17v-121.85l101.58-50.78M395.01,203.13c-3.94,0-7.88.9-11.5,2.71l-129.01,64.5c-8.71,4.36-14.22,13.26-14.22,23v138.81c0,85.46,72.09,111.29,154.73,154.73h0c83.13-44.01,154.73-69.28,154.73-154.73v-138.81c0-9.74-5.5-18.65-14.22-23l-129.01-64.5c-3.62-1.81-7.56-2.71-11.5-2.71h0Z"/></svg>