<?xml version="1.0" encoding="UTF-8" standalone="no"?>
<!-- Created with Inkscape (http://www.inkscape.org/) -->

<svg
   version="1.1"
   id="svg1"
   width="110.6384"
   height="106.66711"
   viewBox="0 0 110.6384 106.66711"
   xmlns="http://www.w3.org/2000/svg"
   xmlns:svg="http://www.w3.org/2000/svg">
  <defs
     id="defs1">
    <clipPath
       clipPathUnits="userSpaceOnUse"
       id="clipPath195">
      <path
         d="M 0,2436 H 1125 V 0 H 0 Z"
         transform="translate(-168.3658,-1636.9452)"
         id="path195" />
    </clipPath>
  </defs>
  <g
     id="g1"
     transform="translate(-147.44086,-1031.0436)">
    <g
       id="group-MC3">
      <path
         id="path194"
         d="m 0,0 19.592,0.479 c 5.284,0.129 7.647,-6.58 3.447,-9.79 L 7.471,-21.214 C 5.593,-22.65 4.853,-25.132 5.638,-27.362 l 6.51,-18.485 c 1.755,-4.986 -3.895,-9.305 -8.246,-6.304 l -16.131,11.129 c -1.946,1.342 -4.535,1.279 -6.413,-0.157 l -15.569,-11.903 c -4.199,-3.211 -10.054,0.828 -8.543,5.894 l 5.598,18.781 c 0.676,2.265 -0.184,4.708 -2.13,6.05 l -16.132,11.128 c -4.351,3.002 -2.319,9.818 2.965,9.947 l 19.592,0.479 c 2.364,0.058 4.421,1.631 5.096,3.896 l 5.599,18.781 c 1.51,5.066 8.62,5.24 10.376,0.254 L -5.28,3.643 C -4.495,1.413 -2.363,-0.058 0,0"
         style="fill:#ebf0f2;fill-opacity:1;fill-rule:nonzero;stroke:none"
         transform="matrix(1.3333333,0,0,-1.3333333,224.48773,1065.4065)"
         clip-path="url(#clipPath195)" />
    </g>
  </g>
</svg>
