<?xml version="1.0" encoding="UTF-8"?><svg id="Iconos" xmlns="http://www.w3.org/2000/svg" viewBox="0 0 806.66 772.7"><defs><style>.cls-1{fill:#2b2d42;}</style></defs><path class="cls-1" d="M562.51,254.13l190.29-.08c51.33-.02,72.69,65.65,31.18,95.83l-153.9,111.91c-18.56,13.5-26.32,37.42-19.22,59.24l58.88,180.95c15.88,48.81-39.97,89.42-81.51,59.27l-153.99-111.78c-18.58-13.48-43.72-13.47-62.28.03l-153.9,111.91c-41.51,30.19-97.4-10.38-81.56-59.2l58.73-181c7.08-21.83-.7-45.74-19.27-59.23L21.96,350.2c-41.54-30.15-20.22-95.84,31.1-95.86l190.29-.08c22.95,0,43.29-14.8,50.37-36.63l58.73-181c15.84-48.82,84.9-48.85,100.78-.04l58.88,180.95c7.1,21.83,27.45,36.6,50.4,36.59Z"/></svg>