<?xml version="1.0" encoding="UTF-8"?><svg id="Iconos" xmlns="http://www.w3.org/2000/svg" viewBox="0 0 790.03 790.03"><defs><style>.cls-1{fill:#fc0200;}.cls-2{fill:#ebf0f2;}</style></defs><circle class="cls-2" cx="395.01" cy="395.01" r="395.01"/><path class="cls-1" d="M569.37,206.56c-.44-2.22-1.18-4.35-2.18-6.34-1.24-2.47-2.85-4.69-4.76-6.58-1.86-1.85-4.02-3.43-6.43-4.64-1.94-.98-4.02-1.72-6.18-2.17-1.79-.38-3.6-.55-5.39-.54h-80.92c-13.94,0-25.24,11.3-25.24,25.24s11.3,25.24,25.24,25.24h20.17l-46.09,46.09c-16.1-9.81-34.99-15.47-55.18-15.47-58.64,0-106.34,47.71-106.34,106.34,0,49.94,34.61,91.95,81.11,103.31v33.64h-37.54c-13.94,0-25.24,11.3-25.24,25.24s11.3,25.24,25.24,25.24h37.54v41.97c0,13.94,11.3,25.24,25.24,25.24s25.24-11.3,25.24-25.24v-41.97h37.93c13.94,0,25.24-11.3,25.24-25.24s-11.3-25.24-25.24-25.24h-37.93v-33.64c46.49-11.36,81.11-53.37,81.11-103.31,0-20.19-5.66-39.09-15.47-55.18l46.1-46.1v20.17c0,13.94,11.3,25.24,25.24,25.24s25.24-11.3,25.24-25.24v-80.91c.01-1.72-.15-3.44-.49-5.15ZM382.41,429.59c-30.81,0-55.87-25.06-55.87-55.87s25.06-55.87,55.87-55.87,55.87,25.06,55.87,55.87-25.06,55.87-55.87,55.87Z"/></svg>